<?xml version="1.0" encoding="UTF-8"?>
<svg xmlns="http://www.w3.org/2000/svg" xmlns:xlink="http://www.w3.org/1999/xlink" version="1.2" >
<font id="PayPal Forward Italic">
<font-face  font-family="PayPal Forward" units-per-em="1000" ascent="741" descent="-259" font-style="italic" font-weight="400" font-stretch="normal" slope="-9" cap-height="690" x-height="488" underline-position="-100" underline-thickness="50" />
<missing-glyph  horiz-adv-x="513" d="M443 0 L-29 0 L77 665 L549 665 L443 0 Z M145 618 L267 375 L466 618 L145 618 Z M110 575 L33 91 L232 333 L110 575 Z M488 575 L288 333 L411 90 L488 575 Z M375 48 L254 290 L54 48 L375 48 Z " />
<glyph glyph-name="NULL" d="" />
<glyph glyph-name="space" unicode="&#x20;" horiz-adv-x="243" d="" />
<glyph glyph-name="A" unicode="A" horiz-adv-x="617" d="M137 158 L55 0 L-46 0 L322 690 L413 690 L562 0 L466 0 L433 158 L137 158 Z M349 565 L179 239 L416 239 L349 565 Z " />
<glyph glyph-name="Aacute" unicode="&#xc1;" horiz-adv-x="617" d="M137 158 L55 0 L-46 0 L322 690 L413 690 L562 0 L466 0 L433 158 L137 158 Z M349 565 L179 239 L416 239 L349 565 Z M325 744 L430 880 L528 880 L399 744 L325 744 Z " />
<glyph glyph-name="Abreve" unicode="&#x102;" horiz-adv-x="617" d="M137 158 L55 0 L-46 0 L322 690 L413 690 L562 0 L466 0 L433 158 L137 158 Z M349 565 L179 239 L416 239 L349 565 Z M547 883 Q532 819 488.5 783 Q445 747 382 747 Q320 747 283 783.5 Q246 820 250 883 L316 883 Q313 852 334 830.5 Q355 809 387 809 Q419 809 447 830.5 Q475 852 482 883 L547 883 Z " />
<glyph glyph-name="Acircumflex" unicode="&#xc2;" horiz-adv-x="617" d="M137 158 L55 0 L-46 0 L322 690 L413 690 L562 0 L466 0 L433 158 L137 158 Z M349 565 L179 239 L416 239 L349 565 Z M448 880 L528 744 L455 744 L391 828 L301 744 L226 744 L349 880 L448 880 Z " />
<glyph glyph-name="Adieresis" unicode="&#xc4;" horiz-adv-x="617" d="M137 158 L55 0 L-46 0 L322 690 L413 690 L562 0 L466 0 L433 158 L137 158 Z M349 565 L179 239 L416 239 L349 565 Z M264 758 Q243 758 229.5 772.5 Q216 787 216 808 Q216 834 236 852.5 Q256 871 282 871 Q303 871 316.5 857.5 Q330 844 330 823 Q330 797 310 777.5 Q290 758 264 758 Z M466 758 Q445 758 431.5 772.5 Q418 787 418 808 Q418 834 438 852.5 Q458 871 484 871 Q505 871 518.5 857.5 Q532 844 532 823 Q532 797 512 777.5 Q492 758 466 758 Z " />
<glyph glyph-name="Agrave" unicode="&#xc0;" horiz-adv-x="617" d="M137 158 L55 0 L-46 0 L322 690 L413 690 L562 0 L466 0 L433 158 L137 158 Z M349 565 L179 239 L416 239 L349 565 Z M424 744 L353 744 L265 880 L357 880 L424 744 Z " />
<glyph glyph-name="Amacron" unicode="&#x100;" horiz-adv-x="617" d="M137 158 L55 0 L-46 0 L322 690 L413 690 L562 0 L466 0 L433 158 L137 158 Z M349 565 L179 239 L416 239 L349 565 Z M531 833 L521 769 L241 769 L251 833 L531 833 Z " />
<glyph glyph-name="Aogonek" unicode="&#x104;" horiz-adv-x="617" d="M561 0 Q517 -32 493.5 -57 Q470 -82 470 -114 Q470 -133 481.5 -144 Q493 -155 513 -155 Q537 -155 561 -143 L551 -204 Q525 -218 484 -218 Q443 -218 420.5 -195.5 Q398 -173 398 -137 Q398 -97 424.5 -62 Q451 -27 489 0 L466 0 L433 158 L137 158 L55 0 L-46 0 L322 690 L413 690 L561 0 Z M349 565 L179 239 L416 239 L349 565 Z " />
<glyph glyph-name="Aring" unicode="&#xc5;" horiz-adv-x="617" d="M137 158 L55 0 L-46 0 L322 690 L413 690 L562 0 L466 0 L433 158 L137 158 Z M349 565 L179 239 L416 239 L349 565 Z M392 965 Q441 965 475 931 Q509 897 509 849 Q509 801 475 766.5 Q441 732 392 732 Q345 732 310.5 766.5 Q276 801 276 849 Q276 897 310.5 931 Q345 965 392 965 Z M391 911 Q365 911 347 893 Q329 875 329 849 Q329 823 347.5 804.5 Q366 786 391 786 Q417 786 435 804.5 Q453 823 453 849 Q453 875 435 893 Q417 911 391 911 Z " />
<glyph glyph-name="Atilde" unicode="&#xc3;" horiz-adv-x="617" d="M137 158 L55 0 L-46 0 L322 690 L413 690 L562 0 L466 0 L433 158 L137 158 Z M349 565 L179 239 L416 239 L349 565 Z M222 748 Q234 804 263 836.5 Q292 869 334 869 Q354 869 371 861.5 Q388 854 406 839 Q423 826 434.5 819.5 Q446 813 458 813 Q474 813 486 827.5 Q498 842 504 869 L559 869 Q547 813 518.5 780.5 Q490 748 448 748 Q427 748 410 755 Q393 762 375 778 Q359 791 347.5 797.5 Q336 804 324 804 Q307 804 295 789.5 Q283 775 277 748 L222 748 Z " />
<glyph glyph-name="AE" unicode="&#xc6;" horiz-adv-x="929" d="M586 396 L822 396 L810 318 L573 318 L536 82 L850 82 L837 0 L428 0 L453 158 L182 158 L51 0 L-52 0 L522 690 L935 690 L922 608 L619 608 L586 396 Z M516 561 L249 239 L465 239 L516 561 Z " />
<glyph glyph-name="B" unicode="B" horiz-adv-x="601" d="M349 690 Q449 690 500.5 654 Q552 618 552 549 Q552 475 511.5 427.5 Q471 380 402 362 Q465 355 501.5 315.5 Q538 276 538 218 Q538 114 467.5 57 Q397 0 264 0 L30 0 L139 690 L349 690 Z M455 531 Q455 618 342 618 L223 618 L187 390 L296 390 Q368 390 411.5 429 Q455 468 455 531 Z M441 214 Q441 263 406.5 291 Q372 319 309 319 L176 319 L137 73 L280 73 Q355 73 398 111 Q441 149 441 214 Z " />
<glyph glyph-name="C" unicode="C" horiz-adv-x="634" d="M337 -23 Q237 -23 170.5 21.5 Q104 66 72.5 137 Q41 208 41 288 Q41 402 94.5 497 Q148 592 242 648 Q336 704 452 704 Q513 703 559 688.5 Q605 674 645 648 L629 547 Q552 619 441 619 Q364 619 294 575.5 Q224 532 181.5 458 Q139 384 139 296 Q139 229 165 176 Q191 123 239.5 93 Q288 63 352 63 Q464 63 564 135 L548 34 Q495 5 449 -9 Q403 -23 337 -23 Z " />
<glyph glyph-name="Cacute" unicode="&#x106;" horiz-adv-x="634" d="M337 -23 Q237 -23 170.5 21.5 Q104 66 72.5 137 Q41 208 41 288 Q41 402 94.5 497 Q148 592 242 648 Q336 704 452 704 Q513 703 559 688.5 Q605 674 645 648 L629 547 Q552 619 441 619 Q364 619 294 575.5 Q224 532 181.5 458 Q139 384 139 296 Q139 229 165 176 Q191 123 239.5 93 Q288 63 352 63 Q464 63 564 135 L548 34 Q495 5 449 -9 Q403 -23 337 -23 Z M407 744 L512 880 L610 880 L481 744 L407 744 Z " />
<glyph glyph-name="Ccaron" unicode="&#x10c;" horiz-adv-x="634" d="M337 -23 Q237 -23 170.5 21.5 Q104 66 72.5 137 Q41 208 41 288 Q41 402 94.5 497 Q148 592 242 648 Q336 704 452 704 Q513 703 559 688.5 Q605 674 645 648 L629 547 Q552 619 441 619 Q364 619 294 575.5 Q224 532 181.5 458 Q139 384 139 296 Q139 229 165 176 Q191 123 239.5 93 Q288 63 352 63 Q464 63 564 135 L548 34 Q495 5 449 -9 Q403 -23 337 -23 Z M411 744 L330 880 L403 880 L467 796 L558 880 L633 880 L509 744 L411 744 Z " />
<glyph glyph-name="Ccedilla" unicode="&#xc7;" horiz-adv-x="634" d="M441 619 Q364 619 294 575.5 Q224 532 181.5 458 Q139 384 139 296 Q139 229 165 176 Q191 123 239.5 93 Q288 63 352 63 Q464 63 564 135 L548 34 Q501 8 458.5 -6 Q416 -20 359 -23 L339 -58 Q377 -61 400 -79 Q423 -97 423 -129 Q423 -176 387.5 -206 Q352 -236 291 -236 Q254 -236 216 -224 L225 -168 Q237 -173 256.5 -177 Q276 -181 295 -181 Q356 -181 356 -136 Q356 -98 264 -98 L305 -22 Q216 -14 156.5 31.5 Q97 77 69 144.5 Q41 212 41 288 Q41 402 94.5 497 Q148 592 242 648 Q336 704 452 704 Q513 703 559 688.5 Q605 674 645 648 L629 547 Q552 619 441 619 Z " />
<glyph glyph-name="Ccircumflex" unicode="&#x108;" horiz-adv-x="634" d="M337 -23 Q237 -23 170.5 21.5 Q104 66 72.5 137 Q41 208 41 288 Q41 402 94.5 497 Q148 592 242 648 Q336 704 452 704 Q513 703 559 688.5 Q605 674 645 648 L629 547 Q552 619 441 619 Q364 619 294 575.5 Q224 532 181.5 458 Q139 384 139 296 Q139 229 165 176 Q191 123 239.5 93 Q288 63 352 63 Q464 63 564 135 L548 34 Q495 5 449 -9 Q403 -23 337 -23 Z M530 880 L610 744 L537 744 L473 828 L383 744 L308 744 L431 880 L530 880 Z " />
<glyph glyph-name="Cdotaccent" unicode="&#x10a;" horiz-adv-x="634" d="M337 -23 Q237 -23 170.5 21.5 Q104 66 72.5 137 Q41 208 41 288 Q41 402 94.5 497 Q148 592 242 648 Q336 704 452 704 Q513 703 559 688.5 Q605 674 645 648 L629 547 Q552 619 441 619 Q364 619 294 575.5 Q224 532 181.5 458 Q139 384 139 296 Q139 229 165 176 Q191 123 239.5 93 Q288 63 352 63 Q464 63 564 135 L548 34 Q495 5 449 -9 Q403 -23 337 -23 Z M466 768 Q445 768 431.5 782 Q418 796 418 817 Q418 843 438 862 Q458 881 484 881 Q505 881 518.5 867 Q532 853 532 832 Q532 807 512 787.5 Q492 768 466 768 Z " />
<glyph glyph-name="D" unicode="D" horiz-adv-x="700" d="M356 690 Q457 690 527.5 651 Q598 612 633 545.5 Q668 479 668 397 Q668 292 618 201 Q568 110 475 55 Q382 0 258 0 L29 0 L138 690 L356 690 Z M264 81 Q358 81 427 124 Q496 167 532.5 237.5 Q569 308 569 389 Q569 488 510 548.5 Q451 609 341 609 L220 609 L137 81 L264 81 Z " />
<glyph glyph-name="Eth" unicode="&#xd0;" horiz-adv-x="745" d="M401 690 Q502 690 572.5 651 Q643 612 678 545.5 Q713 479 713 397 Q713 292 663 201 Q613 110 519.5 55 Q426 0 302 0 L74 0 L123 313 L31 313 L44 396 L137 396 L183 690 L401 690 Z M309 81 Q403 81 472 124 Q541 167 577.5 237.5 Q614 308 614 389 Q614 488 555 548.5 Q496 609 385 609 L265 609 L231 396 L394 396 L381 313 L218 313 L181 81 L309 81 Z " />
<glyph glyph-name="Dcaron" unicode="&#x10e;" horiz-adv-x="700" d="M356 690 Q457 690 527.5 651 Q598 612 633 545.5 Q668 479 668 397 Q668 292 618 201 Q568 110 475 55 Q382 0 258 0 L29 0 L138 690 L356 690 Z M264 81 Q358 81 427 124 Q496 167 532.5 237.5 Q569 308 569 389 Q569 488 510 548.5 Q451 609 341 609 L220 609 L137 81 L264 81 Z M337 744 L256 880 L329 880 L393 796 L484 880 L559 880 L435 744 L337 744 Z " />
<glyph glyph-name="Dcroat" unicode="&#x110;" horiz-adv-x="745" d="M401 690 Q502 690 572.5 651 Q643 612 678 545.5 Q713 479 713 397 Q713 292 663 201 Q613 110 519.5 55 Q426 0 302 0 L74 0 L123 313 L31 313 L44 396 L137 396 L183 690 L401 690 Z M309 81 Q403 81 472 124 Q541 167 577.5 237.5 Q614 308 614 389 Q614 488 555 548.5 Q496 609 385 609 L265 609 L231 396 L394 396 L381 313 L218 313 L181 81 L309 81 Z " />
<glyph glyph-name="E" unicode="E" horiz-adv-x="517" d="M187 396 L423 396 L411 318 L174 318 L137 82 L451 82 L438 0 L29 0 L138 690 L536 690 L523 608 L220 608 L187 396 Z " />
<glyph glyph-name="Eacute" unicode="&#xc9;" horiz-adv-x="517" d="M187 396 L423 396 L411 318 L174 318 L137 82 L451 82 L438 0 L29 0 L138 690 L536 690 L523 608 L220 608 L187 396 Z M300 744 L405 880 L503 880 L374 744 L300 744 Z " />
<glyph glyph-name="Ebreve" unicode="&#x114;" horiz-adv-x="517" d="M187 396 L423 396 L411 318 L174 318 L137 82 L451 82 L438 0 L29 0 L138 690 L536 690 L523 608 L220 608 L187 396 Z M522 883 Q507 819 463.5 783 Q420 747 357 747 Q295 747 258 783.5 Q221 820 225 883 L291 883 Q288 852 309 830.5 Q330 809 362 809 Q394 809 422 830.5 Q450 852 457 883 L522 883 Z " />
<glyph glyph-name="Ecaron" unicode="&#x11a;" horiz-adv-x="517" d="M187 396 L423 396 L411 318 L174 318 L137 82 L451 82 L438 0 L29 0 L138 690 L536 690 L523 608 L220 608 L187 396 Z M304 744 L223 880 L296 880 L360 796 L451 880 L526 880 L402 744 L304 744 Z " />
<glyph glyph-name="Ecircumflex" unicode="&#xca;" horiz-adv-x="517" d="M187 396 L423 396 L411 318 L174 318 L137 82 L451 82 L438 0 L29 0 L138 690 L536 690 L523 608 L220 608 L187 396 Z M423 880 L503 744 L430 744 L366 828 L276 744 L201 744 L324 880 L423 880 Z " />
<glyph glyph-name="Edieresis" unicode="&#xcb;" horiz-adv-x="517" d="M187 396 L423 396 L411 318 L174 318 L137 82 L451 82 L438 0 L29 0 L138 690 L536 690 L523 608 L220 608 L187 396 Z M239 758 Q218 758 204.5 772.5 Q191 787 191 808 Q191 834 211 852.5 Q231 871 257 871 Q278 871 291.5 857.5 Q305 844 305 823 Q305 797 285 777.5 Q265 758 239 758 Z M441 758 Q420 758 406.5 772.5 Q393 787 393 808 Q393 834 413 852.5 Q433 871 459 871 Q480 871 493.5 857.5 Q507 844 507 823 Q507 797 487 777.5 Q467 758 441 758 Z " />
<glyph glyph-name="Edotaccent" unicode="&#x116;" horiz-adv-x="517" d="M187 396 L423 396 L411 318 L174 318 L137 82 L451 82 L438 0 L29 0 L138 690 L536 690 L523 608 L220 608 L187 396 Z M359 768 Q338 768 324.5 782 Q311 796 311 817 Q311 843 331 862 Q351 881 377 881 Q398 881 411.5 867 Q425 853 425 832 Q425 807 405 787.5 Q385 768 359 768 Z " />
<glyph glyph-name="Egrave" unicode="&#xc8;" horiz-adv-x="517" d="M187 396 L423 396 L411 318 L174 318 L137 82 L451 82 L438 0 L29 0 L138 690 L536 690 L523 608 L220 608 L187 396 Z M398 744 L327 744 L239 880 L331 880 L398 744 Z " />
<glyph glyph-name="Emacron" unicode="&#x112;" horiz-adv-x="517" d="M187 396 L423 396 L411 318 L174 318 L137 82 L451 82 L438 0 L29 0 L138 690 L536 690 L523 608 L220 608 L187 396 Z M506 833 L496 769 L216 769 L226 833 L506 833 Z " />
<glyph glyph-name="Eogonek" unicode="&#x118;" horiz-adv-x="517" d="M187 396 L423 396 L411 318 L174 318 L137 82 L451 82 L438 0 L406 0 Q362 -32 338.5 -57 Q315 -82 315 -114 Q315 -133 326.5 -144 Q338 -155 358 -155 Q382 -155 406 -143 L396 -204 Q370 -218 329 -218 Q288 -218 265.5 -195.5 Q243 -173 243 -137 Q243 -97 269.5 -62 Q296 -27 334 0 L29 0 L138 690 L536 690 L523 608 L220 608 L187 396 Z " />
<glyph glyph-name="F" unicode="F" horiz-adv-x="494" d="M184 381 L422 381 L409 303 L173 303 L125 0 L29 0 L139 690 L537 690 L524 608 L220 608 L184 381 Z " />
<glyph glyph-name="G" unicode="G" horiz-adv-x="695" d="M450 704 Q521 704 574.5 684.5 Q628 665 660 635 L643 532 Q572 619 446 619 Q369 619 303 581.5 Q237 544 194 478 Q151 412 142 331 Q140 318 140 292 Q140 226 166 174 Q192 122 238.5 92.5 Q285 63 344 63 Q443 64 511 109 L537 272 L390 272 L404 358 L640 358 L594 60 Q474 -22 331 -22 Q245 -22 179 16.5 Q113 55 76.5 125 Q40 195 40 285 Q40 401 95.5 497 Q151 593 245.5 648.5 Q340 704 450 704 Z " />
<glyph glyph-name="Gbreve" unicode="&#x11e;" horiz-adv-x="695" d="M450 704 Q521 704 574.5 684.5 Q628 665 660 635 L643 532 Q572 619 446 619 Q369 619 303 581.5 Q237 544 194 478 Q151 412 142 331 Q140 318 140 292 Q140 226 166 174 Q192 122 238.5 92.5 Q285 63 344 63 Q443 64 511 109 L537 272 L390 272 L404 358 L640 358 L594 60 Q474 -22 331 -22 Q245 -22 179 16.5 Q113 55 76.5 125 Q40 195 40 285 Q40 401 95.5 497 Q151 593 245.5 648.5 Q340 704 450 704 Z M625 883 Q610 819 566.5 783 Q523 747 460 747 Q398 747 361 783.5 Q324 820 328 883 L394 883 Q391 852 412 830.5 Q433 809 465 809 Q497 809 525 830.5 Q553 852 560 883 L625 883 Z " />
<glyph glyph-name="Gcircumflex" unicode="&#x11c;" horiz-adv-x="695" d="M450 704 Q521 704 574.5 684.5 Q628 665 660 635 L643 532 Q572 619 446 619 Q369 619 303 581.5 Q237 544 194 478 Q151 412 142 331 Q140 318 140 292 Q140 226 166 174 Q192 122 238.5 92.5 Q285 63 344 63 Q443 64 511 109 L537 272 L390 272 L404 358 L640 358 L594 60 Q474 -22 331 -22 Q245 -22 179 16.5 Q113 55 76.5 125 Q40 195 40 285 Q40 401 95.5 497 Q151 593 245.5 648.5 Q340 704 450 704 Z M526 880 L606 744 L533 744 L469 828 L379 744 L304 744 L427 880 L526 880 Z " />
<glyph glyph-name="Gcommaaccent" unicode="&#x122;" horiz-adv-x="695" d="M450 704 Q521 704 574.5 684.5 Q628 665 660 635 L643 532 Q572 619 446 619 Q369 619 303 581.5 Q237 544 194 478 Q151 412 142 331 Q140 318 140 292 Q140 226 166 174 Q192 122 238.5 92.5 Q285 63 344 63 Q443 64 511 109 L537 272 L390 272 L404 358 L640 358 L594 60 Q474 -22 331 -22 Q245 -22 179 16.5 Q113 55 76.5 125 Q40 195 40 285 Q40 401 95.5 497 Q151 593 245.5 648.5 Q340 704 450 704 Z M330 -44 Q371 -44 371 -90 Q371 -134 342 -168 Q313 -202 261 -219 L268 -173 Q301 -161 311 -131 Q293 -129 283.5 -118.5 Q274 -108 274 -94 Q274 -72 289 -58 Q304 -44 330 -44 Z " />
<glyph glyph-name="Gdotaccent" unicode="&#x120;" horiz-adv-x="695" d="M450 704 Q521 704 574.5 684.5 Q628 665 660 635 L643 532 Q572 619 446 619 Q369 619 303 581.5 Q237 544 194 478 Q151 412 142 331 Q140 318 140 292 Q140 226 166 174 Q192 122 238.5 92.5 Q285 63 344 63 Q443 64 511 109 L537 272 L390 272 L404 358 L640 358 L594 60 Q474 -22 331 -22 Q245 -22 179 16.5 Q113 55 76.5 125 Q40 195 40 285 Q40 401 95.5 497 Q151 593 245.5 648.5 Q340 704 450 704 Z M462 768 Q441 768 427.5 782 Q414 796 414 817 Q414 843 434 862 Q454 881 480 881 Q501 881 514.5 867 Q528 853 528 832 Q528 807 508 787.5 Q488 768 462 768 Z " />
<glyph glyph-name="H" unicode="H" horiz-adv-x="717" d="M124 0 L29 0 L139 690 L234 690 L187 396 L555 396 L602 690 L696 690 L587 0 L492 0 L542 313 L174 313 L124 0 Z " />
<glyph glyph-name="Hbar" unicode="&#x126;" horiz-adv-x="717" d="M667 504 L587 0 L492 0 L542 313 L174 313 L124 0 L29 0 L109 504 L43 504 L54 571 L120 571 L139 690 L234 690 L215 571 L583 571 L602 690 L696 690 L677 571 L737 571 L726 504 L667 504 Z M204 504 L187 396 L555 396 L572 504 L204 504 Z " />
<glyph glyph-name="Hcircumflex" unicode="&#x124;" horiz-adv-x="717" d="M124 0 L29 0 L139 690 L234 690 L187 396 L555 396 L602 690 L696 690 L587 0 L492 0 L542 313 L174 313 L124 0 Z M498 880 L578 744 L505 744 L441 828 L351 744 L276 744 L399 880 L498 880 Z " />
<glyph glyph-name="I" unicode="I" horiz-adv-x="255" d="M126 0 L31 0 L139 690 L234 690 L126 0 Z " />
<glyph glyph-name="IJ" unicode="&#x132;" horiz-adv-x="622" d="M126 0 L31 0 L139 690 L234 690 L126 0 Z M523 193 Q505 80 453.5 33 Q402 -14 311 -14 Q286 -14 261.5 -10 Q237 -6 221 0 L235 87 Q249 81 271 76.5 Q293 72 310 72 Q361 72 389.5 101.5 Q418 131 427 191 L506 690 L601 690 L523 193 Z " />
<glyph glyph-name="Iacute" unicode="&#xcd;" horiz-adv-x="255" d="M126 0 L31 0 L139 690 L234 690 L126 0 Z M144 744 L249 880 L347 880 L218 744 L144 744 Z " />
<glyph glyph-name="Ibreve" unicode="&#x12c;" horiz-adv-x="255" d="M126 0 L31 0 L139 690 L234 690 L126 0 Z M366 883 Q351 819 307.5 783 Q264 747 201 747 Q139 747 102 783.5 Q65 820 69 883 L135 883 Q132 852 153 830.5 Q174 809 206 809 Q238 809 266 830.5 Q294 852 301 883 L366 883 Z " />
<glyph glyph-name="Icircumflex" unicode="&#xce;" horiz-adv-x="255" d="M126 0 L31 0 L139 690 L234 690 L126 0 Z M267 880 L347 744 L274 744 L210 828 L120 744 L45 744 L168 880 L267 880 Z " />
<glyph glyph-name="Idieresis" unicode="&#xcf;" horiz-adv-x="255" d="M126 0 L31 0 L139 690 L234 690 L126 0 Z M83 758 Q62 758 48.5 772.5 Q35 787 35 808 Q35 834 55 852.5 Q75 871 101 871 Q122 871 135.5 857.5 Q149 844 149 823 Q149 797 129 777.5 Q109 758 83 758 Z M285 758 Q264 758 250.5 772.5 Q237 787 237 808 Q237 834 257 852.5 Q277 871 303 871 Q324 871 337.5 857.5 Q351 844 351 823 Q351 797 331 777.5 Q311 758 285 758 Z " />
<glyph glyph-name="Idot" unicode="&#x130;" horiz-adv-x="255" d="M126 0 L31 0 L139 690 L234 690 L126 0 Z M203 768 Q182 768 168.5 782 Q155 796 155 817 Q155 843 175 862 Q195 881 221 881 Q242 881 255.5 867 Q269 853 269 832 Q269 807 249 787.5 Q229 768 203 768 Z " />
<glyph glyph-name="Igrave" unicode="&#xcc;" horiz-adv-x="255" d="M126 0 L31 0 L139 690 L234 690 L126 0 Z M242 744 L171 744 L83 880 L175 880 L242 744 Z " />
<glyph glyph-name="Imacron" unicode="&#x12a;" horiz-adv-x="255" d="M126 0 L31 0 L139 690 L234 690 L126 0 Z M350 833 L340 769 L60 769 L70 833 L350 833 Z " />
<glyph glyph-name="Iogonek" unicode="&#x12e;" horiz-adv-x="255" d="M126 0 L125 0 Q81 -32 57.5 -57 Q34 -82 34 -114 Q34 -133 45.5 -144 Q57 -155 77 -155 Q101 -155 125 -143 L115 -204 Q89 -218 48 -218 Q7 -218 -15.5 -195.5 Q-38 -173 -38 -137 Q-38 -97 -11.5 -62 Q15 -27 53 0 L31 0 L139 690 L234 690 L126 0 Z " />
<glyph glyph-name="Itilde" unicode="&#x128;" horiz-adv-x="255" d="M126 0 L31 0 L139 690 L234 690 L126 0 Z M40 748 Q52 804 81 836.5 Q110 869 152 869 Q172 869 189 861.5 Q206 854 224 839 Q241 826 252.5 819.5 Q264 813 276 813 Q292 813 304 827.5 Q316 842 322 869 L377 869 Q365 813 336.5 780.5 Q308 748 266 748 Q245 748 228 755 Q211 762 193 778 Q177 791 165.5 797.5 Q154 804 142 804 Q125 804 113 789.5 Q101 775 95 748 L40 748 Z " />
<glyph glyph-name="J" unicode="J" horiz-adv-x="367" d="M268 193 Q250 80 198.5 33 Q147 -14 56 -14 Q31 -14 6.5 -10 Q-18 -6 -34 0 L-20 87 Q-6 81 16 76.5 Q38 72 55 72 Q106 72 134.5 101.5 Q163 131 172 191 L251 690 L346 690 L268 193 Z " />
<glyph glyph-name="Jcircumflex" unicode="&#x134;" horiz-adv-x="367" d="M268 193 Q250 80 198.5 33 Q147 -14 56 -14 Q31 -14 6.5 -10 Q-18 -6 -34 0 L-20 87 Q-6 81 16 76.5 Q38 72 55 72 Q106 72 134.5 101.5 Q163 131 172 191 L251 690 L346 690 L268 193 Z M379 880 L459 744 L386 744 L322 828 L232 744 L157 744 L280 880 L379 880 Z " />
<glyph glyph-name="K" unicode="K" horiz-adv-x="630" d="M585 0 L462 0 L235 318 L165 256 L125 0 L30 0 L139 690 L234 690 L187 390 L530 690 L657 690 L309 383 L585 0 Z " />
<glyph glyph-name="Kcommaaccent" unicode="&#x136;" horiz-adv-x="630" d="M585 0 L462 0 L235 318 L165 256 L125 0 L30 0 L139 690 L234 690 L187 390 L530 690 L657 690 L309 383 L585 0 Z M287 -44 Q328 -44 328 -90 Q328 -134 299 -168 Q270 -202 218 -219 L225 -173 Q258 -161 268 -131 Q250 -129 240.5 -118.5 Q231 -108 231 -94 Q231 -72 246 -58 Q261 -44 287 -44 Z " />
<glyph glyph-name="L" unicode="L" horiz-adv-x="488" d="M137 81 L447 81 L434 0 L29 0 L138 690 L233 690 L137 81 Z " />
<glyph glyph-name="Lacute" unicode="&#x139;" horiz-adv-x="488" d="M137 81 L447 81 L434 0 L29 0 L138 690 L233 690 L137 81 Z M155 744 L260 880 L358 880 L229 744 L155 744 Z " />
<glyph glyph-name="Lcaron" unicode="&#x13d;" horiz-adv-x="488" d="M137 81 L447 81 L434 0 L29 0 L138 690 L233 690 L137 81 Z M290 517 L330 690 L408 690 L346 517 L290 517 Z " />
<glyph glyph-name="Lcommaaccent" unicode="&#x13b;" horiz-adv-x="488" d="M137 81 L447 81 L434 0 L29 0 L138 690 L233 690 L137 81 Z M226 -44 Q267 -44 267 -90 Q267 -134 238 -168 Q209 -202 157 -219 L164 -173 Q197 -161 207 -131 Q189 -129 179.5 -118.5 Q170 -108 170 -94 Q170 -72 185 -58 Q200 -44 226 -44 Z " />
<glyph glyph-name="Ldot" unicode="&#x13f;" horiz-adv-x="488" d="M137 81 L447 81 L434 0 L29 0 L138 690 L233 690 L137 81 Z M369 318 Q346 318 331 334 Q316 350 316 373 Q316 401 338 422 Q360 443 389 443 Q411 443 426 427.5 Q441 412 441 389 Q441 361 419 339.5 Q397 318 369 318 Z " />
<glyph glyph-name="Lslash" unicode="&#x141;" horiz-adv-x="488" d="M434 0 L29 0 L67 239 L-6 194 L6 273 L79 319 L138 690 L233 690 L185 385 L339 481 L326 401 L172 305 L137 81 L447 81 L434 0 Z " />
<glyph glyph-name="M" unicode="M" horiz-adv-x="834" d="M286 690 L387 138 L663 690 L743 690 L739 0 L648 0 L657 522 L398 0 L334 0 L239 518 L83 0 L-6 0 L206 690 L286 690 Z " />
<glyph glyph-name="N" unicode="N" horiz-adv-x="702" d="M224 690 L508 152 L592 690 L681 690 L571 0 L485 0 L202 532 L118 0 L29 0 L139 690 L224 690 Z " />
<glyph glyph-name="Nacute" unicode="&#x143;" horiz-adv-x="702" d="M224 690 L508 152 L592 690 L681 690 L571 0 L485 0 L202 532 L118 0 L29 0 L139 690 L224 690 Z M367 744 L472 880 L570 880 L441 744 L367 744 Z " />
<glyph glyph-name="Ncaron" unicode="&#x147;" horiz-adv-x="702" d="M224 690 L508 152 L592 690 L681 690 L571 0 L485 0 L202 532 L118 0 L29 0 L139 690 L224 690 Z M371 744 L290 880 L363 880 L427 796 L518 880 L593 880 L469 744 L371 744 Z " />
<glyph glyph-name="Ncommaaccent" unicode="&#x145;" horiz-adv-x="702" d="M224 690 L508 152 L592 690 L681 690 L571 0 L485 0 L202 532 L118 0 L29 0 L139 690 L224 690 Z M294 -44 Q335 -44 335 -90 Q335 -134 306 -168 Q277 -202 225 -219 L232 -173 Q265 -161 275 -131 Q257 -129 247.5 -118.5 Q238 -108 238 -94 Q238 -72 253 -58 Q268 -44 294 -44 Z " />
<glyph glyph-name="Eng" unicode="&#x14a;" horiz-adv-x="699" d="M564 -31 Q548 -129 497.5 -176 Q447 -223 372 -223 Q325 -223 295 -212 L308 -136 Q335 -145 367 -145 Q412 -145 438.5 -117 Q465 -89 476 -23 L480 7 L200 530 L117 0 L29 0 L139 690 L223 690 L506 154 L591 690 L678 690 L564 -31 Z " />
<glyph glyph-name="Ntilde" unicode="&#xd1;" horiz-adv-x="702" d="M224 690 L508 152 L592 690 L681 690 L571 0 L485 0 L202 532 L118 0 L29 0 L139 690 L224 690 Z M264 748 Q276 804 305 836.5 Q334 869 376 869 Q396 869 413 861.5 Q430 854 448 839 Q465 826 476.5 819.5 Q488 813 500 813 Q516 813 528 827.5 Q540 842 546 869 L601 869 Q589 813 560.5 780.5 Q532 748 490 748 Q469 748 452 755 Q435 762 417 778 Q401 791 389.5 797.5 Q378 804 366 804 Q349 804 337 789.5 Q325 775 319 748 L264 748 Z " />
<glyph glyph-name="O" unicode="O" horiz-adv-x="781" d="M444 704 Q541 704 610 662 Q679 620 714.5 549.5 Q750 479 750 394 Q750 292 699 195.5 Q648 99 556 38.5 Q464 -22 347 -22 Q243 -22 174.5 23.5 Q106 69 73.5 141 Q41 213 41 295 Q41 395 91.5 489.5 Q142 584 234 644 Q326 704 444 704 Z M442 619 Q358 619 288.5 574 Q219 529 179 455 Q139 381 139 298 Q139 232 165 178.5 Q191 125 238.5 94 Q286 63 347 63 Q432 63 501.5 109.5 Q571 156 611 232 Q651 308 651 392 Q651 457 626 508.5 Q601 560 553.5 589.5 Q506 619 442 619 Z " />
<glyph glyph-name="Oacute" unicode="&#xd3;" horiz-adv-x="781" d="M444 704 Q541 704 610 662 Q679 620 714.5 549.5 Q750 479 750 394 Q750 292 699 195.5 Q648 99 556 38.5 Q464 -22 347 -22 Q243 -22 174.5 23.5 Q106 69 73.5 141 Q41 213 41 295 Q41 395 91.5 489.5 Q142 584 234 644 Q326 704 444 704 Z M442 619 Q358 619 288.5 574 Q219 529 179 455 Q139 381 139 298 Q139 232 165 178.5 Q191 125 238.5 94 Q286 63 347 63 Q432 63 501.5 109.5 Q571 156 611 232 Q651 308 651 392 Q651 457 626 508.5 Q601 560 553.5 589.5 Q506 619 442 619 Z M406 744 L511 880 L609 880 L480 744 L406 744 Z " />
<glyph glyph-name="Obreve" unicode="&#x14e;" horiz-adv-x="781" d="M444 704 Q541 704 610 662 Q679 620 714.5 549.5 Q750 479 750 394 Q750 292 699 195.5 Q648 99 556 38.5 Q464 -22 347 -22 Q243 -22 174.5 23.5 Q106 69 73.5 141 Q41 213 41 295 Q41 395 91.5 489.5 Q142 584 234 644 Q326 704 444 704 Z M442 619 Q358 619 288.5 574 Q219 529 179 455 Q139 381 139 298 Q139 232 165 178.5 Q191 125 238.5 94 Q286 63 347 63 Q432 63 501.5 109.5 Q571 156 611 232 Q651 308 651 392 Q651 457 626 508.5 Q601 560 553.5 589.5 Q506 619 442 619 Z M629 883 Q614 819 570.5 783 Q527 747 464 747 Q402 747 365 783.5 Q328 820 332 883 L398 883 Q395 852 416 830.5 Q437 809 469 809 Q501 809 529 830.5 Q557 852 564 883 L629 883 Z " />
<glyph glyph-name="Ocircumflex" unicode="&#xd4;" horiz-adv-x="781" d="M444 704 Q541 704 610 662 Q679 620 714.5 549.5 Q750 479 750 394 Q750 292 699 195.5 Q648 99 556 38.5 Q464 -22 347 -22 Q243 -22 174.5 23.5 Q106 69 73.5 141 Q41 213 41 295 Q41 395 91.5 489.5 Q142 584 234 644 Q326 704 444 704 Z M442 619 Q358 619 288.5 574 Q219 529 179 455 Q139 381 139 298 Q139 232 165 178.5 Q191 125 238.5 94 Q286 63 347 63 Q432 63 501.5 109.5 Q571 156 611 232 Q651 308 651 392 Q651 457 626 508.5 Q601 560 553.5 589.5 Q506 619 442 619 Z M529 880 L609 744 L536 744 L472 828 L382 744 L307 744 L430 880 L529 880 Z " />
<glyph glyph-name="Odieresis" unicode="&#xd6;" horiz-adv-x="781" d="M444 704 Q541 704 610 662 Q679 620 714.5 549.5 Q750 479 750 394 Q750 292 699 195.5 Q648 99 556 38.5 Q464 -22 347 -22 Q243 -22 174.5 23.5 Q106 69 73.5 141 Q41 213 41 295 Q41 395 91.5 489.5 Q142 584 234 644 Q326 704 444 704 Z M442 619 Q358 619 288.5 574 Q219 529 179 455 Q139 381 139 298 Q139 232 165 178.5 Q191 125 238.5 94 Q286 63 347 63 Q432 63 501.5 109.5 Q571 156 611 232 Q651 308 651 392 Q651 457 626 508.5 Q601 560 553.5 589.5 Q506 619 442 619 Z M345 758 Q324 758 310.5 772.5 Q297 787 297 808 Q297 834 317 852.5 Q337 871 363 871 Q384 871 397.5 857.5 Q411 844 411 823 Q411 797 391 777.5 Q371 758 345 758 Z M547 758 Q526 758 512.5 772.5 Q499 787 499 808 Q499 834 519 852.5 Q539 871 565 871 Q586 871 599.5 857.5 Q613 844 613 823 Q613 797 593 777.5 Q573 758 547 758 Z " />
<glyph glyph-name="Ograve" unicode="&#xd2;" horiz-adv-x="781" d="M444 704 Q541 704 610 662 Q679 620 714.5 549.5 Q750 479 750 394 Q750 292 699 195.5 Q648 99 556 38.5 Q464 -22 347 -22 Q243 -22 174.5 23.5 Q106 69 73.5 141 Q41 213 41 295 Q41 395 91.5 489.5 Q142 584 234 644 Q326 704 444 704 Z M442 619 Q358 619 288.5 574 Q219 529 179 455 Q139 381 139 298 Q139 232 165 178.5 Q191 125 238.5 94 Q286 63 347 63 Q432 63 501.5 109.5 Q571 156 611 232 Q651 308 651 392 Q651 457 626 508.5 Q601 560 553.5 589.5 Q506 619 442 619 Z M505 744 L434 744 L346 880 L438 880 L505 744 Z " />
<glyph glyph-name="Ohungarumlaut" unicode="&#x150;" horiz-adv-x="781" d="M444 704 Q541 704 610 662 Q679 620 714.5 549.5 Q750 479 750 394 Q750 292 699 195.5 Q648 99 556 38.5 Q464 -22 347 -22 Q243 -22 174.5 23.5 Q106 69 73.5 141 Q41 213 41 295 Q41 395 91.5 489.5 Q142 584 234 644 Q326 704 444 704 Z M442 619 Q358 619 288.5 574 Q219 529 179 455 Q139 381 139 298 Q139 232 165 178.5 Q191 125 238.5 94 Q286 63 347 63 Q432 63 501.5 109.5 Q571 156 611 232 Q651 308 651 392 Q651 457 626 508.5 Q601 560 553.5 589.5 Q506 619 442 619 Z M355 744 L460 880 L558 880 L429 744 L355 744 Z M531 744 L636 880 L734 880 L605 744 L531 744 Z " />
<glyph glyph-name="Omacron" unicode="&#x14c;" horiz-adv-x="781" d="M444 704 Q541 704 610 662 Q679 620 714.5 549.5 Q750 479 750 394 Q750 292 699 195.5 Q648 99 556 38.5 Q464 -22 347 -22 Q243 -22 174.5 23.5 Q106 69 73.5 141 Q41 213 41 295 Q41 395 91.5 489.5 Q142 584 234 644 Q326 704 444 704 Z M442 619 Q358 619 288.5 574 Q219 529 179 455 Q139 381 139 298 Q139 232 165 178.5 Q191 125 238.5 94 Q286 63 347 63 Q432 63 501.5 109.5 Q571 156 611 232 Q651 308 651 392 Q651 457 626 508.5 Q601 560 553.5 589.5 Q506 619 442 619 Z M612 833 L602 769 L322 769 L332 833 L612 833 Z " />
<glyph glyph-name="Oslash" unicode="&#xd8;" horiz-adv-x="781" d="M690 590 Q720 550 735 499.5 Q750 449 750 394 Q750 292 699 195.5 Q648 99 556 38.5 Q464 -22 347 -22 Q217 -22 138 52 L33 -50 L-15 -3 L94 103 Q41 185 41 295 Q41 395 91.5 489.5 Q142 584 234 644 Q326 704 444 704 Q563 704 644 639 L737 729 L784 682 L690 590 Z M139 298 Q139 230 167 174 L577 573 Q521 619 442 619 Q358 619 288.5 574 Q219 529 179 455 Q139 381 139 298 Z M651 392 Q651 466 619 521 L207 119 Q265 63 347 63 Q432 63 501.5 109.5 Q571 156 611 232 Q651 308 651 392 Z " />
<glyph glyph-name="Otilde" unicode="&#xd5;" horiz-adv-x="781" d="M444 704 Q541 704 610 662 Q679 620 714.5 549.5 Q750 479 750 394 Q750 292 699 195.5 Q648 99 556 38.5 Q464 -22 347 -22 Q243 -22 174.5 23.5 Q106 69 73.5 141 Q41 213 41 295 Q41 395 91.5 489.5 Q142 584 234 644 Q326 704 444 704 Z M442 619 Q358 619 288.5 574 Q219 529 179 455 Q139 381 139 298 Q139 232 165 178.5 Q191 125 238.5 94 Q286 63 347 63 Q432 63 501.5 109.5 Q571 156 611 232 Q651 308 651 392 Q651 457 626 508.5 Q601 560 553.5 589.5 Q506 619 442 619 Z M303 748 Q315 804 344 836.5 Q373 869 415 869 Q435 869 452 861.5 Q469 854 487 839 Q504 826 515.5 819.5 Q527 813 539 813 Q555 813 567 827.5 Q579 842 585 869 L640 869 Q628 813 599.5 780.5 Q571 748 529 748 Q508 748 491 755 Q474 762 456 778 Q440 791 428.5 797.5 Q417 804 405 804 Q388 804 376 789.5 Q364 775 358 748 L303 748 Z " />
<glyph glyph-name="OE" unicode="&#x152;" horiz-adv-x="1082" d="M752 396 L989 396 L976 318 L739 318 L703 82 L1016 82 L1003 0 L594 0 L610 99 Q557 42 487 10 Q417 -22 340 -22 Q237 -22 169 24 Q101 70 69 142 Q37 214 37 295 Q37 404 91 498 Q145 592 238.5 648 Q332 704 443 704 Q526 704 587.5 668 Q649 632 684 570 L703 690 L1102 690 L1089 608 L786 608 L752 396 Z M346 63 Q426 63 495 105.5 Q564 148 605 222.5 Q646 297 646 386 Q646 453 620.5 506 Q595 559 547.5 589 Q500 619 435 619 Q356 619 287 578 Q218 537 176.5 465 Q135 393 135 304 Q135 236 162 181 Q189 126 237 94.5 Q285 63 346 63 Z " />
<glyph glyph-name="P" unicode="P" horiz-adv-x="569" d="M348 690 Q458 690 513.5 640 Q569 590 569 504 Q569 386 497.5 315.5 Q426 245 283 245 L163 245 L124 0 L29 0 L138 690 L348 690 Z M471 493 Q471 547 437 580 Q403 613 334 613 L221 613 L175 322 L293 322 Q384 322 427.5 370.5 Q471 419 471 493 Z " />
<glyph glyph-name="Thorn" unicode="&#xde;" horiz-adv-x="555" d="M322 568 Q425 568 485.5 522.5 Q546 477 546 392 Q546 282 472.5 216 Q399 150 251 150 L144 150 L121 0 L26 0 L134 690 L229 690 L210 568 L322 568 Z M272 227 Q364 227 405.5 271.5 Q447 316 447 378 Q447 427 413 457 Q379 487 309 487 L198 487 L157 227 L272 227 Z " />
<glyph glyph-name="Q" unicode="Q" horiz-adv-x="781" d="M750 394 Q750 317 720 241.5 Q690 166 636 106 L717 1 L612 0 L574 51 Q472 -22 347 -22 Q243 -22 174.5 23.5 Q106 69 73.5 141 Q41 213 41 295 Q41 395 91.5 489.5 Q142 584 234 644 Q326 704 444 704 Q541 704 610 662 Q679 620 714.5 549.5 Q750 479 750 394 Z M347 63 Q442 63 519 122 L399 280 L503 280 L579 181 Q613 226 632 281 Q651 336 651 392 Q651 457 626 508.5 Q601 560 553.5 589.5 Q506 619 442 619 Q358 619 288.5 574 Q219 529 179 455 Q139 381 139 298 Q139 232 165 178.5 Q191 125 238.5 94 Q286 63 347 63 Z " />
<glyph glyph-name="R" unicode="R" horiz-adv-x="609" d="M572 504 Q572 411 526.5 345.5 Q481 280 390 257 L539 0 L428 0 L292 245 L287 245 L167 245 L128 0 L33 0 L142 690 L352 690 Q462 690 517 640 Q572 590 572 504 Z M296 322 Q388 322 431 370.5 Q474 419 474 493 Q474 547 440.5 580 Q407 613 338 613 L225 613 L179 322 L296 322 Z " />
<glyph glyph-name="Racute" unicode="&#x154;" horiz-adv-x="609" d="M572 504 Q572 411 526.5 345.5 Q481 280 390 257 L539 0 L428 0 L292 245 L287 245 L167 245 L128 0 L33 0 L142 690 L352 690 Q462 690 517 640 Q572 590 572 504 Z M296 322 Q388 322 431 370.5 Q474 419 474 493 Q474 547 440.5 580 Q407 613 338 613 L225 613 L179 322 L296 322 Z M288 744 L393 880 L491 880 L362 744 L288 744 Z " />
<glyph glyph-name="Rcaron" unicode="&#x158;" horiz-adv-x="609" d="M572 504 Q572 411 526.5 345.5 Q481 280 390 257 L539 0 L428 0 L292 245 L287 245 L167 245 L128 0 L33 0 L142 690 L352 690 Q462 690 517 640 Q572 590 572 504 Z M296 322 Q388 322 431 370.5 Q474 419 474 493 Q474 547 440.5 580 Q407 613 338 613 L225 613 L179 322 L296 322 Z M292 744 L211 880 L284 880 L348 796 L439 880 L514 880 L390 744 L292 744 Z " />
<glyph glyph-name="Rcommaaccent" unicode="&#x156;" horiz-adv-x="609" d="M572 504 Q572 411 526.5 345.5 Q481 280 390 257 L539 0 L428 0 L292 245 L287 245 L167 245 L128 0 L33 0 L142 690 L352 690 Q462 690 517 640 Q572 590 572 504 Z M296 322 Q388 322 431 370.5 Q474 419 474 493 Q474 547 440.5 580 Q407 613 338 613 L225 613 L179 322 L296 322 Z M272 -44 Q313 -44 313 -90 Q313 -134 284 -168 Q255 -202 203 -219 L210 -173 Q243 -161 253 -131 Q235 -129 225.5 -118.5 Q216 -108 216 -94 Q216 -72 231 -58 Q246 -44 272 -44 Z " />
<glyph glyph-name="S" unicode="S" horiz-adv-x="571" d="M49 142 Q138 64 247 64 Q301 64 337 84.5 Q373 105 390 137 Q407 169 407 203 Q407 233 390.5 254.5 Q374 276 334 296 L247 333 Q173 366 140.5 405 Q108 444 108 500 Q108 561 139 607.5 Q170 654 225.5 679 Q281 704 353 704 Q413 703 458 687.5 Q503 672 537 641 L522 548 Q445 618 343 619 Q281 619 241.5 588 Q202 557 202 509 Q202 482 221.5 463 Q241 444 293 420 L378 382 Q447 348 475.5 308.5 Q504 269 504 214 Q504 151 477 98 Q450 45 390 11.5 Q330 -22 236 -22 Q107 -22 33 43 L49 142 Z " />
<glyph glyph-name="Sacute" unicode="&#x15a;" horiz-adv-x="571" d="M49 142 Q138 64 247 64 Q301 64 337 84.5 Q373 105 390 137 Q407 169 407 203 Q407 233 390.5 254.5 Q374 276 334 296 L247 333 Q173 366 140.5 405 Q108 444 108 500 Q108 561 139 607.5 Q170 654 225.5 679 Q281 704 353 704 Q413 703 458 687.5 Q503 672 537 641 L522 548 Q445 618 343 619 Q281 619 241.5 588 Q202 557 202 509 Q202 482 221.5 463 Q241 444 293 420 L378 382 Q447 348 475.5 308.5 Q504 269 504 214 Q504 151 477 98 Q450 45 390 11.5 Q330 -22 236 -22 Q107 -22 33 43 L49 142 Z M312 744 L417 880 L515 880 L386 744 L312 744 Z " />
<glyph glyph-name="Scaron" unicode="&#x160;" horiz-adv-x="571" d="M49 142 Q138 64 247 64 Q301 64 337 84.5 Q373 105 390 137 Q407 169 407 203 Q407 233 390.5 254.5 Q374 276 334 296 L247 333 Q173 366 140.5 405 Q108 444 108 500 Q108 561 139 607.5 Q170 654 225.5 679 Q281 704 353 704 Q413 703 458 687.5 Q503 672 537 641 L522 548 Q445 618 343 619 Q281 619 241.5 588 Q202 557 202 509 Q202 482 221.5 463 Q241 444 293 420 L378 382 Q447 348 475.5 308.5 Q504 269 504 214 Q504 151 477 98 Q450 45 390 11.5 Q330 -22 236 -22 Q107 -22 33 43 L49 142 Z M316 744 L235 880 L308 880 L372 796 L463 880 L538 880 L414 744 L316 744 Z " />
<glyph glyph-name="Scedilla" unicode="&#x15e;" horiz-adv-x="571" d="M343 619 Q281 619 241.5 588 Q202 557 202 509 Q202 482 221.5 463 Q241 444 293 420 L378 382 Q447 348 475.5 308.5 Q504 269 504 214 Q504 121 446 54 Q388 -13 264 -21 L244 -58 Q282 -61 305 -79 Q328 -97 328 -129 Q328 -176 292.5 -206 Q257 -236 196 -236 Q159 -236 121 -224 L130 -168 Q142 -173 161.5 -177 Q181 -181 200 -181 Q261 -181 261 -136 Q261 -98 169 -98 L210 -21 Q99 -15 33 43 L49 142 Q138 64 247 64 Q301 64 337 84.5 Q373 105 390 137 Q407 169 407 203 Q407 233 390.5 254.5 Q374 276 334 296 L247 333 Q173 366 140.5 405 Q108 444 108 500 Q108 561 139 607.5 Q170 654 225.5 679 Q281 704 353 704 Q413 703 458 687.5 Q503 672 537 641 L522 548 Q445 618 343 619 Z " />
<glyph glyph-name="Scircumflex" unicode="&#x15c;" horiz-adv-x="571" d="M49 142 Q138 64 247 64 Q301 64 337 84.5 Q373 105 390 137 Q407 169 407 203 Q407 233 390.5 254.5 Q374 276 334 296 L247 333 Q173 366 140.5 405 Q108 444 108 500 Q108 561 139 607.5 Q170 654 225.5 679 Q281 704 353 704 Q413 703 458 687.5 Q503 672 537 641 L522 548 Q445 618 343 619 Q281 619 241.5 588 Q202 557 202 509 Q202 482 221.5 463 Q241 444 293 420 L378 382 Q447 348 475.5 308.5 Q504 269 504 214 Q504 151 477 98 Q450 45 390 11.5 Q330 -22 236 -22 Q107 -22 33 43 L49 142 Z M435 880 L515 744 L442 744 L378 828 L288 744 L213 744 L336 880 L435 880 Z " />
<glyph glyph-name="Scommaaccent" unicode="&#x218;" horiz-adv-x="571" d="M49 142 Q138 64 247 64 Q301 64 337 84.5 Q373 105 390 137 Q407 169 407 203 Q407 233 390.5 254.5 Q374 276 334 296 L247 333 Q173 366 140.5 405 Q108 444 108 500 Q108 561 139 607.5 Q170 654 225.5 679 Q281 704 353 704 Q413 703 458 687.5 Q503 672 537 641 L522 548 Q445 618 343 619 Q281 619 241.5 588 Q202 557 202 509 Q202 482 221.5 463 Q241 444 293 420 L378 382 Q447 348 475.5 308.5 Q504 269 504 214 Q504 151 477 98 Q450 45 390 11.5 Q330 -22 236 -22 Q107 -22 33 43 L49 142 Z M240 -44 Q281 -44 281 -90 Q281 -134 252 -168 Q223 -202 171 -219 L178 -173 Q211 -161 221 -131 Q203 -129 193.5 -118.5 Q184 -108 184 -94 Q184 -72 199 -58 Q214 -44 240 -44 Z " />
<glyph glyph-name="Germandbls" unicode="&#x1e9e;" horiz-adv-x="716" d="M442 398 L483 387 Q567 366 609 320 Q651 274 651 208 Q651 102 582 40 Q513 -22 389 -22 Q326 -22 282 -7.5 Q238 7 204 36 L219 131 Q297 59 402 59 Q473 59 515 95 Q557 131 557 192 Q557 296 364 326 L331 331 L342 407 L545 613 L414 613 Q337 613 292 593 Q247 573 225 533.5 Q203 494 192 430 L125 0 L30 0 L97 430 Q112 528 151.5 584.5 Q191 641 258 665.5 Q325 690 428 690 L668 690 L656 614 L442 398 Z " />
<glyph glyph-name="T" unicode="T" horiz-adv-x="528" d="M77 690 L573 690 L560 609 L360 609 L264 0 L168 0 L265 609 L64 609 L77 690 Z " />
<glyph glyph-name="Tbar" unicode="&#x166;" horiz-adv-x="528" d="M322 369 L410 369 L401 305 L312 305 L264 0 L168 0 L217 305 L121 305 L130 369 L227 369 L265 609 L64 609 L77 690 L573 690 L560 609 L360 609 L322 369 Z " />
<glyph glyph-name="Tcaron" unicode="&#x164;" horiz-adv-x="528" d="M77 690 L573 690 L560 609 L360 609 L264 0 L168 0 L265 609 L64 609 L77 690 Z M286 744 L205 880 L278 880 L342 796 L433 880 L508 880 L384 744 L286 744 Z " />
<glyph glyph-name="uni0162" unicode="&#x162;" horiz-adv-x="528" d="M77 690 L573 690 L560 609 L360 609 L264 0 L168 0 L265 609 L64 609 L77 690 Z M210 -44 Q251 -44 251 -90 Q251 -134 222 -168 Q193 -202 141 -219 L148 -173 Q181 -161 191 -131 Q173 -129 163.5 -118.5 Q154 -108 154 -94 Q154 -72 169 -58 Q184 -44 210 -44 Z " />
<glyph glyph-name="uni021A" unicode="&#x21a;" horiz-adv-x="528" d="M77 690 L573 690 L560 609 L360 609 L264 0 L168 0 L265 609 L64 609 L77 690 Z M210 -44 Q251 -44 251 -90 Q251 -134 222 -168 Q193 -202 141 -219 L148 -173 Q181 -161 191 -131 Q173 -129 163.5 -118.5 Q154 -108 154 -94 Q154 -72 169 -58 Q184 -44 210 -44 Z " />
<glyph glyph-name="U" unicode="U" horiz-adv-x="690" d="M296 -22 Q194 -22 130 31.5 Q66 85 66 198 Q66 232 72 269 L138 690 L233 690 L165 257 Q161 234 161 209 Q161 139 198 99 Q235 59 304 59 Q394 59 443 112 Q492 165 507 257 L575 690 L669 690 L603 271 Q558 -22 296 -22 Z " />
<glyph glyph-name="Uacute" unicode="&#xda;" horiz-adv-x="690" d="M296 -22 Q194 -22 130 31.5 Q66 85 66 198 Q66 232 72 269 L138 690 L233 690 L165 257 Q161 234 161 209 Q161 139 198 99 Q235 59 304 59 Q394 59 443 112 Q492 165 507 257 L575 690 L669 690 L603 271 Q558 -22 296 -22 Z M361 744 L466 880 L564 880 L435 744 L361 744 Z " />
<glyph glyph-name="Ubreve" unicode="&#x16c;" horiz-adv-x="690" d="M296 -22 Q194 -22 130 31.5 Q66 85 66 198 Q66 232 72 269 L138 690 L233 690 L165 257 Q161 234 161 209 Q161 139 198 99 Q235 59 304 59 Q394 59 443 112 Q492 165 507 257 L575 690 L669 690 L603 271 Q558 -22 296 -22 Z M583 883 Q568 819 524.5 783 Q481 747 418 747 Q356 747 319 783.5 Q282 820 286 883 L352 883 Q349 852 370 830.5 Q391 809 423 809 Q455 809 483 830.5 Q511 852 518 883 L583 883 Z " />
<glyph glyph-name="Ucircumflex" unicode="&#xdb;" horiz-adv-x="690" d="M296 -22 Q194 -22 130 31.5 Q66 85 66 198 Q66 232 72 269 L138 690 L233 690 L165 257 Q161 234 161 209 Q161 139 198 99 Q235 59 304 59 Q394 59 443 112 Q492 165 507 257 L575 690 L669 690 L603 271 Q558 -22 296 -22 Z M484 880 L564 744 L491 744 L427 828 L337 744 L262 744 L385 880 L484 880 Z " />
<glyph glyph-name="Udieresis" unicode="&#xdc;" horiz-adv-x="690" d="M296 -22 Q194 -22 130 31.5 Q66 85 66 198 Q66 232 72 269 L138 690 L233 690 L165 257 Q161 234 161 209 Q161 139 198 99 Q235 59 304 59 Q394 59 443 112 Q492 165 507 257 L575 690 L669 690 L603 271 Q558 -22 296 -22 Z M300 758 Q279 758 265.5 772.5 Q252 787 252 808 Q252 834 272 852.5 Q292 871 318 871 Q339 871 352.5 857.5 Q366 844 366 823 Q366 797 346 777.5 Q326 758 300 758 Z M502 758 Q481 758 467.5 772.5 Q454 787 454 808 Q454 834 474 852.5 Q494 871 520 871 Q541 871 554.5 857.5 Q568 844 568 823 Q568 797 548 777.5 Q528 758 502 758 Z " />
<glyph glyph-name="Ugrave" unicode="&#xd9;" horiz-adv-x="690" d="M296 -22 Q194 -22 130 31.5 Q66 85 66 198 Q66 232 72 269 L138 690 L233 690 L165 257 Q161 234 161 209 Q161 139 198 99 Q235 59 304 59 Q394 59 443 112 Q492 165 507 257 L575 690 L669 690 L603 271 Q558 -22 296 -22 Z M460 744 L389 744 L301 880 L393 880 L460 744 Z " />
<glyph glyph-name="Uhungarumlaut" unicode="&#x170;" horiz-adv-x="690" d="M296 -22 Q194 -22 130 31.5 Q66 85 66 198 Q66 232 72 269 L138 690 L233 690 L165 257 Q161 234 161 209 Q161 139 198 99 Q235 59 304 59 Q394 59 443 112 Q492 165 507 257 L575 690 L669 690 L603 271 Q558 -22 296 -22 Z M309 744 L414 880 L512 880 L383 744 L309 744 Z M485 744 L590 880 L688 880 L559 744 L485 744 Z " />
<glyph glyph-name="Umacron" unicode="&#x16a;" horiz-adv-x="690" d="M296 -22 Q194 -22 130 31.5 Q66 85 66 198 Q66 232 72 269 L138 690 L233 690 L165 257 Q161 234 161 209 Q161 139 198 99 Q235 59 304 59 Q394 59 443 112 Q492 165 507 257 L575 690 L669 690 L603 271 Q558 -22 296 -22 Z M567 833 L557 769 L277 769 L287 833 L567 833 Z " />
<glyph glyph-name="Uogonek" unicode="&#x172;" horiz-adv-x="690" d="M603 271 Q587 163 542 100 Q497 37 425 3 Q387 -15 355 -48.5 Q323 -82 323 -114 Q323 -133 334.5 -144 Q346 -155 366 -155 Q389 -155 415 -143 L406 -204 Q394 -210 376 -214 Q358 -218 338 -218 Q297 -218 274 -195.5 Q251 -173 251 -137 Q251 -80 320 -21 L290 -22 Q190 -22 128 31 Q66 84 66 197 Q66 230 72 269 L138 690 L233 690 L165 257 Q161 234 161 209 Q161 139 198 99 Q235 59 304 59 Q394 59 443.5 112 Q493 165 507 257 L575 690 L669 690 L603 271 Z " />
<glyph glyph-name="Uring" unicode="&#x16e;" horiz-adv-x="690" d="M296 -22 Q194 -22 130 31.5 Q66 85 66 198 Q66 232 72 269 L138 690 L233 690 L165 257 Q161 234 161 209 Q161 139 198 99 Q235 59 304 59 Q394 59 443 112 Q492 165 507 257 L575 690 L669 690 L603 271 Q558 -22 296 -22 Z M429 965 Q478 965 512 931 Q546 897 546 849 Q546 801 512 766.5 Q478 732 429 732 Q382 732 347.5 766.5 Q313 801 313 849 Q313 897 347.5 931 Q382 965 429 965 Z M428 911 Q402 911 384 893 Q366 875 366 849 Q366 823 384.5 804.5 Q403 786 428 786 Q454 786 472 804.5 Q490 823 490 849 Q490 875 472 893 Q454 911 428 911 Z " />
<glyph glyph-name="Utilde" unicode="&#x168;" horiz-adv-x="690" d="M296 -22 Q194 -22 130 31.5 Q66 85 66 198 Q66 232 72 269 L138 690 L233 690 L165 257 Q161 234 161 209 Q161 139 198 99 Q235 59 304 59 Q394 59 443 112 Q492 165 507 257 L575 690 L669 690 L603 271 Q558 -22 296 -22 Z M258 748 Q270 804 299 836.5 Q328 869 370 869 Q390 869 407 861.5 Q424 854 442 839 Q459 826 470.5 819.5 Q482 813 494 813 Q510 813 522 827.5 Q534 842 540 869 L595 869 Q583 813 554.5 780.5 Q526 748 484 748 Q463 748 446 755 Q429 762 411 778 Q395 791 383.5 797.5 Q372 804 360 804 Q343 804 331 789.5 Q319 775 313 748 L258 748 Z " />
<glyph glyph-name="V" unicode="V" horiz-adv-x="617" d="M277 125 L571 690 L671 690 L304 0 L213 0 L64 690 L159 690 L277 125 Z " />
<glyph glyph-name="W" unicode="W" horiz-adv-x="910" d="M161 690 L242 150 L481 690 L547 690 L614 150 L865 690 L961 690 L634 0 L553 0 L487 516 L256 0 L176 0 L67 690 L161 690 Z " />
<glyph glyph-name="Wacute" unicode="&#x1e82;" horiz-adv-x="910" d="M161 690 L242 150 L481 690 L547 690 L614 150 L865 690 L961 690 L634 0 L553 0 L487 516 L256 0 L176 0 L67 690 L161 690 Z M472 744 L577 880 L675 880 L546 744 L472 744 Z " />
<glyph glyph-name="Wcircumflex" unicode="&#x174;" horiz-adv-x="910" d="M161 690 L242 150 L481 690 L547 690 L614 150 L865 690 L961 690 L634 0 L553 0 L487 516 L256 0 L176 0 L67 690 L161 690 Z M595 880 L675 744 L602 744 L538 828 L448 744 L373 744 L496 880 L595 880 Z " />
<glyph glyph-name="Wdieresis" unicode="&#x1e84;" horiz-adv-x="910" d="M161 690 L242 150 L481 690 L547 690 L614 150 L865 690 L961 690 L634 0 L553 0 L487 516 L256 0 L176 0 L67 690 L161 690 Z M411 758 Q390 758 376.5 772.5 Q363 787 363 808 Q363 834 383 852.5 Q403 871 429 871 Q450 871 463.5 857.5 Q477 844 477 823 Q477 797 457 777.5 Q437 758 411 758 Z M613 758 Q592 758 578.5 772.5 Q565 787 565 808 Q565 834 585 852.5 Q605 871 631 871 Q652 871 665.5 857.5 Q679 844 679 823 Q679 797 659 777.5 Q639 758 613 758 Z " />
<glyph glyph-name="Wgrave" unicode="&#x1e80;" horiz-adv-x="910" d="M161 690 L242 150 L481 690 L547 690 L614 150 L865 690 L961 690 L634 0 L553 0 L487 516 L256 0 L176 0 L67 690 L161 690 Z M570 744 L499 744 L411 880 L503 880 L570 744 Z " />
<glyph glyph-name="X" unicode="X" horiz-adv-x="612" d="M546 0 L439 0 L297 278 L75 0 L-32 0 L256 357 L86 690 L191 690 L326 428 L539 690 L646 690 L367 349 L546 0 Z " />
<glyph glyph-name="Y" unicode="Y" horiz-adv-x="564" d="M171 690 L262 439 Q283 383 289 358 L293 358 Q314 398 339 436 L510 690 L615 690 L325 273 L282 0 L187 0 L230 273 L71 690 L171 690 Z " />
<glyph glyph-name="Yacute" unicode="&#xdd;" horiz-adv-x="564" d="M171 690 L262 439 Q283 383 289 358 L293 358 Q314 398 339 436 L510 690 L615 690 L325 273 L282 0 L187 0 L230 273 L71 690 L171 690 Z M303 744 L408 880 L506 880 L377 744 L303 744 Z " />
<glyph glyph-name="Ycircumflex" unicode="&#x176;" horiz-adv-x="564" d="M171 690 L262 439 Q283 383 289 358 L293 358 Q314 398 339 436 L510 690 L615 690 L325 273 L282 0 L187 0 L230 273 L71 690 L171 690 Z M426 880 L506 744 L433 744 L369 828 L279 744 L204 744 L327 880 L426 880 Z " />
<glyph glyph-name="Ydieresis" unicode="&#x178;" horiz-adv-x="564" d="M171 690 L262 439 Q283 383 289 358 L293 358 Q314 398 339 436 L510 690 L615 690 L325 273 L282 0 L187 0 L230 273 L71 690 L171 690 Z M242 758 Q221 758 207.5 772.5 Q194 787 194 808 Q194 834 214 852.5 Q234 871 260 871 Q281 871 294.5 857.5 Q308 844 308 823 Q308 797 288 777.5 Q268 758 242 758 Z M444 758 Q423 758 409.5 772.5 Q396 787 396 808 Q396 834 416 852.5 Q436 871 462 871 Q483 871 496.5 857.5 Q510 844 510 823 Q510 797 490 777.5 Q470 758 444 758 Z " />
<glyph glyph-name="Ygrave" unicode="&#x1ef2;" horiz-adv-x="564" d="M171 690 L262 439 Q283 383 289 358 L293 358 Q314 398 339 436 L510 690 L615 690 L325 273 L282 0 L187 0 L230 273 L71 690 L171 690 Z M402 744 L331 744 L243 880 L335 880 L402 744 Z " />
<glyph glyph-name="Z" unicode="Z" horiz-adv-x="614" d="M603 612 L127 82 L535 82 L521 0 L-3 0 L10 77 L485 608 L111 608 L123 690 L615 690 L603 612 Z " />
<glyph glyph-name="Zacute" unicode="&#x179;" horiz-adv-x="614" d="M603 612 L127 82 L535 82 L521 0 L-3 0 L10 77 L485 608 L111 608 L123 690 L615 690 L603 612 Z M331 744 L436 880 L534 880 L405 744 L331 744 Z " />
<glyph glyph-name="Zcaron" unicode="&#x17d;" horiz-adv-x="614" d="M603 612 L127 82 L535 82 L521 0 L-3 0 L10 77 L485 608 L111 608 L123 690 L615 690 L603 612 Z M335 744 L254 880 L327 880 L391 796 L482 880 L557 880 L433 744 L335 744 Z " />
<glyph glyph-name="Zdotaccent" unicode="&#x17b;" horiz-adv-x="614" d="M603 612 L127 82 L535 82 L521 0 L-3 0 L10 77 L485 608 L111 608 L123 690 L615 690 L603 612 Z M390 768 Q369 768 355.5 782 Q342 796 342 817 Q342 843 362 862 Q382 881 408 881 Q429 881 442.5 867 Q456 853 456 832 Q456 807 436 787.5 Q416 768 390 768 Z " />
<glyph glyph-name="a" unicode="a" horiz-adv-x="534" d="M259 424 Q220 424 179.5 413.5 Q139 403 108 384 L121 465 Q151 483 193.5 493.5 Q236 504 276 504 Q373 504 420.5 463.5 Q468 423 468 340 Q468 318 463 283 L418 0 L331 0 L341 68 Q273 -17 156 -17 Q84 -17 44.5 18 Q5 53 5 112 Q5 203 71.5 253.5 Q138 304 250 304 Q325 304 375 289 Q378 307 378 322 Q378 424 259 424 Z M181 57 Q248 57 298.5 101 Q349 145 363 215 Q313 229 251 229 Q174 229 133 202 Q92 175 92 127 Q92 95 116 76 Q140 57 181 57 Z " />
<glyph glyph-name="aacute" unicode="&#xe1;" horiz-adv-x="534" d="M259 424 Q220 424 179.5 413.5 Q139 403 108 384 L121 465 Q151 483 193.5 493.5 Q236 504 276 504 Q373 504 420.5 463.5 Q468 423 468 340 Q468 318 463 283 L418 0 L331 0 L341 68 Q273 -17 156 -17 Q84 -17 44.5 18 Q5 53 5 112 Q5 203 71.5 253.5 Q138 304 250 304 Q325 304 375 289 Q378 307 378 322 Q378 424 259 424 Z M181 57 Q248 57 298.5 101 Q349 145 363 215 Q313 229 251 229 Q174 229 133 202 Q92 175 92 127 Q92 95 116 76 Q140 57 181 57 Z M252 562 L378 733 L484 733 L325 562 L252 562 Z " />
<glyph glyph-name="abreve" unicode="&#x103;" horiz-adv-x="534" d="M259 424 Q220 424 179.5 413.5 Q139 403 108 384 L121 465 Q151 483 193.5 493.5 Q236 504 276 504 Q373 504 420.5 463.5 Q468 423 468 340 Q468 318 463 283 L418 0 L331 0 L341 68 Q273 -17 156 -17 Q84 -17 44.5 18 Q5 53 5 112 Q5 203 71.5 253.5 Q138 304 250 304 Q325 304 375 289 Q378 307 378 322 Q378 424 259 424 Z M181 57 Q248 57 298.5 101 Q349 145 363 215 Q313 229 251 229 Q174 229 133 202 Q92 175 92 127 Q92 95 116 76 Q140 57 181 57 Z M479 733 Q465 653 419.5 607.5 Q374 562 305 562 Q243 562 207.5 599.5 Q172 637 172 702 Q172 711 174 733 L236 733 Q235 726 235 713 Q235 674 254.5 650.5 Q274 627 310 627 Q350 627 379 657 Q408 687 416 733 L479 733 Z " />
<glyph glyph-name="acircumflex" unicode="&#xe2;" horiz-adv-x="534" d="M259 424 Q220 424 179.5 413.5 Q139 403 108 384 L121 465 Q151 483 193.5 493.5 Q236 504 276 504 Q373 504 420.5 463.5 Q468 423 468 340 Q468 318 463 283 L418 0 L331 0 L341 68 Q273 -17 156 -17 Q84 -17 44.5 18 Q5 53 5 112 Q5 203 71.5 253.5 Q138 304 250 304 Q325 304 375 289 Q378 307 378 322 Q378 424 259 424 Z M181 57 Q248 57 298.5 101 Q349 145 363 215 Q313 229 251 229 Q174 229 133 202 Q92 175 92 127 Q92 95 116 76 Q140 57 181 57 Z M381 733 L470 562 L396 562 L323 677 L207 562 L130 562 L282 733 L381 733 Z " />
<glyph glyph-name="adieresis" unicode="&#xe4;" horiz-adv-x="534" d="M259 424 Q220 424 179.5 413.5 Q139 403 108 384 L121 465 Q151 483 193.5 493.5 Q236 504 276 504 Q373 504 420.5 463.5 Q468 423 468 340 Q468 318 463 283 L418 0 L331 0 L341 68 Q273 -17 156 -17 Q84 -17 44.5 18 Q5 53 5 112 Q5 203 71.5 253.5 Q138 304 250 304 Q325 304 375 289 Q378 307 378 322 Q378 424 259 424 Z M181 57 Q248 57 298.5 101 Q349 145 363 215 Q313 229 251 229 Q174 229 133 202 Q92 175 92 127 Q92 95 116 76 Q140 57 181 57 Z M203 568 Q182 568 168.5 582 Q155 596 155 617 Q155 643 175 662 Q195 681 221 681 Q242 681 255.5 667 Q269 653 269 632 Q269 607 249 587.5 Q229 568 203 568 Z M405 568 Q384 568 370.5 582 Q357 596 357 617 Q357 643 377 662 Q397 681 423 681 Q444 681 457.5 667 Q471 653 471 632 Q471 607 451 587.5 Q431 568 405 568 Z " />
<glyph glyph-name="agrave" unicode="&#xe0;" horiz-adv-x="534" d="M259 424 Q220 424 179.5 413.5 Q139 403 108 384 L121 465 Q151 483 193.5 493.5 Q236 504 276 504 Q373 504 420.5 463.5 Q468 423 468 340 Q468 318 463 283 L418 0 L331 0 L341 68 Q273 -17 156 -17 Q84 -17 44.5 18 Q5 53 5 112 Q5 203 71.5 253.5 Q138 304 250 304 Q325 304 375 289 Q378 307 378 322 Q378 424 259 424 Z M181 57 Q248 57 298.5 101 Q349 145 363 215 Q313 229 251 229 Q174 229 133 202 Q92 175 92 127 Q92 95 116 76 Q140 57 181 57 Z M350 562 L277 562 L170 733 L266 733 L350 562 Z " />
<glyph glyph-name="amacron" unicode="&#x101;" horiz-adv-x="534" d="M259 424 Q220 424 179.5 413.5 Q139 403 108 384 L121 465 Q151 483 193.5 493.5 Q236 504 276 504 Q373 504 420.5 463.5 Q468 423 468 340 Q468 318 463 283 L418 0 L331 0 L341 68 Q273 -17 156 -17 Q84 -17 44.5 18 Q5 53 5 112 Q5 203 71.5 253.5 Q138 304 250 304 Q325 304 375 289 Q378 307 378 322 Q378 424 259 424 Z M181 57 Q248 57 298.5 101 Q349 145 363 215 Q313 229 251 229 Q174 229 133 202 Q92 175 92 127 Q92 95 116 76 Q140 57 181 57 Z M447 672 L438 608 L158 608 L167 672 L447 672 Z " />
<glyph glyph-name="aogonek" unicode="&#x105;" horiz-adv-x="534" d="M276 504 Q373 504 420.5 463.5 Q468 423 468 340 Q468 318 463 283 L418 0 Q374 -32 350.5 -57 Q327 -82 327 -114 Q327 -133 338.5 -144 Q350 -155 370 -155 Q394 -155 418 -143 L408 -204 Q382 -218 341 -218 Q300 -218 277.5 -195.5 Q255 -173 255 -137 Q255 -97 281.5 -62 Q308 -27 346 0 L331 0 L341 68 Q273 -17 156 -17 Q84 -17 44.5 18 Q5 53 5 112 Q5 203 71.5 253.5 Q138 304 250 304 Q325 304 375 289 Q378 307 378 322 Q378 424 259 424 Q220 424 179.5 413.5 Q139 403 108 384 L121 465 Q151 483 193.5 493.5 Q236 504 276 504 Z M181 57 Q248 57 298.5 101 Q349 145 363 215 Q313 229 251 229 Q174 229 133 202 Q92 175 92 127 Q92 95 116 76 Q140 57 181 57 Z " />
<glyph glyph-name="aring" unicode="&#xe5;" horiz-adv-x="534" d="M259 424 Q220 424 179.5 413.5 Q139 403 108 384 L121 465 Q151 483 193.5 493.5 Q236 504 276 504 Q373 504 420.5 463.5 Q468 423 468 340 Q468 318 463 283 L418 0 L331 0 L341 68 Q273 -17 156 -17 Q84 -17 44.5 18 Q5 53 5 112 Q5 203 71.5 253.5 Q138 304 250 304 Q325 304 375 289 Q378 307 378 322 Q378 424 259 424 Z M181 57 Q248 57 298.5 101 Q349 145 363 215 Q313 229 251 229 Q174 229 133 202 Q92 175 92 127 Q92 95 116 76 Q140 57 181 57 Z M314 774 Q362 774 396 740 Q430 706 430 658 Q430 610 396 575.5 Q362 541 314 541 Q266 541 232 575.5 Q198 610 198 658 Q198 706 232 740 Q266 774 314 774 Z M313 720 Q287 720 269 702 Q251 684 251 658 Q251 632 269 613.5 Q287 595 313 595 Q339 595 357 613.5 Q375 632 375 658 Q375 684 357 702 Q339 720 313 720 Z " />
<glyph glyph-name="atilde" unicode="&#xe3;" horiz-adv-x="534" d="M259 424 Q220 424 179.5 413.5 Q139 403 108 384 L121 465 Q151 483 193.5 493.5 Q236 504 276 504 Q373 504 420.5 463.5 Q468 423 468 340 Q468 318 463 283 L418 0 L331 0 L341 68 Q273 -17 156 -17 Q84 -17 44.5 18 Q5 53 5 112 Q5 203 71.5 253.5 Q138 304 250 304 Q325 304 375 289 Q378 307 378 322 Q378 424 259 424 Z M181 57 Q248 57 298.5 101 Q349 145 363 215 Q313 229 251 229 Q174 229 133 202 Q92 175 92 127 Q92 95 116 76 Q140 57 181 57 Z M144 578 Q155 635 184 667.5 Q213 700 255 700 Q275 700 292 692.5 Q309 685 328 670 Q344 656 356 649.5 Q368 643 379 643 Q396 643 408 657.5 Q420 672 426 700 L480 700 Q469 643 440 610.5 Q411 578 369 578 Q349 578 332 585.5 Q315 593 297 608 Q281 622 269 628.5 Q257 635 245 635 Q229 635 216.5 620 Q204 605 199 578 L144 578 Z " />
<glyph glyph-name="ae" unicode="&#xe6;" horiz-adv-x="879" d="M649 504 Q744 504 793.5 450 Q843 396 843 307 Q843 274 839.5 256 Q836 238 828 215 L454 215 Q450 141 492 100.5 Q534 60 607 60 Q657 60 698 72.5 Q739 85 779 110 L767 35 Q690 -17 584 -17 Q514 -17 463 14.5 Q412 46 387 101 Q347 41 287.5 12 Q228 -17 166 -17 Q87 -17 46 16 Q5 49 5 111 Q5 203 71.5 253.5 Q138 304 250 304 Q325 304 375 289 Q378 307 378 323 Q378 425 256 425 Q218 425 178.5 414 Q139 403 107 384 L120 465 Q150 483 193 493.5 Q236 504 275 504 Q410 504 444 406 Q484 452 537.5 478 Q591 504 649 504 Z M756 288 Q757 296 757 311 Q757 365 726 397 Q695 429 641 429 Q578 429 530.5 387.5 Q483 346 466 288 L756 288 Z M181 57 Q254 57 301.5 100 Q349 143 363 215 Q315 229 251 229 Q174 229 133 202.5 Q92 176 92 127 Q92 95 115.5 76 Q139 57 181 57 Z " />
<glyph glyph-name="b" unicode="b" horiz-adv-x="603" d="M219 690 L177 422 Q207 459 254 481.5 Q301 504 361 504 Q419 504 465.5 475.5 Q512 447 538 397 Q564 347 564 284 Q564 202 525 133 Q486 64 422 23.5 Q358 -17 287 -17 Q225 -17 185 8 Q145 33 120 81 L107 0 L21 0 L130 690 L219 690 Z M472 273 Q472 339 434.5 381.5 Q397 424 333 424 Q283 424 240 397 Q197 370 171 322 Q145 274 145 214 Q145 147 183 105 Q221 63 277 63 Q328 63 373 91 Q418 119 445 167.5 Q472 216 472 273 Z " />
<glyph glyph-name="c" unicode="c" horiz-adv-x="487" d="M237 -18 Q176 -18 127 12 Q78 42 50 93.5 Q22 145 22 207 Q22 285 57.5 353 Q93 421 160.5 462.5 Q228 504 319 504 Q407 504 462 460 L447 369 Q396 423 314 423 Q256 423 210.5 393.5 Q165 364 140 316 Q115 268 115 213 Q115 146 153 104.5 Q191 63 257 63 Q298 63 339 78 Q380 93 412 122 L398 30 Q359 4 320 -7 Q281 -18 237 -18 Z " />
<glyph glyph-name="cacute" unicode="&#x107;" horiz-adv-x="487" d="M237 -18 Q176 -18 127 12 Q78 42 50 93.5 Q22 145 22 207 Q22 285 57.5 353 Q93 421 160.5 462.5 Q228 504 319 504 Q407 504 462 460 L447 369 Q396 423 314 423 Q256 423 210.5 393.5 Q165 364 140 316 Q115 268 115 213 Q115 146 153 104.5 Q191 63 257 63 Q298 63 339 78 Q380 93 412 122 L398 30 Q359 4 320 -7 Q281 -18 237 -18 Z M273 562 L399 733 L505 733 L346 562 L273 562 Z " />
<glyph glyph-name="ccaron" unicode="&#x10d;" horiz-adv-x="487" d="M237 -18 Q176 -18 127 12 Q78 42 50 93.5 Q22 145 22 207 Q22 285 57.5 353 Q93 421 160.5 462.5 Q228 504 319 504 Q407 504 462 460 L447 369 Q396 423 314 423 Q256 423 210.5 393.5 Q165 364 140 316 Q115 268 115 213 Q115 146 153 104.5 Q191 63 257 63 Q298 63 339 78 Q380 93 412 122 L398 30 Q359 4 320 -7 Q281 -18 237 -18 Z M271 562 L183 733 L257 733 L330 618 L446 733 L522 733 L371 562 L271 562 Z " />
<glyph glyph-name="ccedilla" unicode="&#xe7;" horiz-adv-x="487" d="M319 504 Q407 504 462 460 L447 369 Q396 423 314 423 Q256 423 210.5 393.5 Q165 364 140 316 Q115 268 115 213 Q115 146 153 104.5 Q191 63 257 63 Q298 63 339 78 Q380 93 412 122 L398 30 Q333 -13 253 -18 L231 -58 Q269 -61 292 -79 Q315 -97 315 -129 Q315 -176 279.5 -206 Q244 -236 183 -236 Q146 -236 108 -224 L117 -168 Q129 -173 148.5 -177 Q168 -181 187 -181 Q248 -181 248 -136 Q248 -98 156 -98 L200 -15 Q148 -7 107.5 24.5 Q67 56 44.5 103.5 Q22 151 22 207 Q22 285 57.5 353 Q93 421 160.5 462.5 Q228 504 319 504 Z " />
<glyph glyph-name="ccircumflex" unicode="&#x109;" horiz-adv-x="487" d="M237 -18 Q176 -18 127 12 Q78 42 50 93.5 Q22 145 22 207 Q22 285 57.5 353 Q93 421 160.5 462.5 Q228 504 319 504 Q407 504 462 460 L447 369 Q396 423 314 423 Q256 423 210.5 393.5 Q165 364 140 316 Q115 268 115 213 Q115 146 153 104.5 Q191 63 257 63 Q298 63 339 78 Q380 93 412 122 L398 30 Q359 4 320 -7 Q281 -18 237 -18 Z M403 733 L492 562 L418 562 L345 677 L229 562 L152 562 L304 733 L403 733 Z " />
<glyph glyph-name="cdotaccent" unicode="&#x10b;" horiz-adv-x="487" d="M237 -18 Q176 -18 127 12 Q78 42 50 93.5 Q22 145 22 207 Q22 285 57.5 353 Q93 421 160.5 462.5 Q228 504 319 504 Q407 504 462 460 L447 369 Q396 423 314 423 Q256 423 210.5 393.5 Q165 364 140 316 Q115 268 115 213 Q115 146 153 104.5 Q191 63 257 63 Q298 63 339 78 Q380 93 412 122 L398 30 Q359 4 320 -7 Q281 -18 237 -18 Z M324 568 Q303 568 289.5 582 Q276 596 276 617 Q276 643 296 662 Q316 681 342 681 Q363 681 376.5 667 Q390 653 390 632 Q390 607 370 587.5 Q350 568 324 568 Z " />
<glyph glyph-name="d" unicode="d" horiz-adv-x="612" d="M411 0 L423 75 Q391 33 343 8.5 Q295 -16 234 -16 Q176 -16 130 12 Q84 40 58 90 Q32 140 32 204 Q32 284 70.5 353.5 Q109 423 171.5 464 Q234 505 301 505 Q426 505 472 408 L517 690 L606 690 L497 0 L411 0 Z M124 216 Q124 150 161 107.5 Q198 65 262 65 Q312 65 355.5 92 Q399 119 425 167 Q451 215 451 275 Q451 342 413 383.5 Q375 425 318 425 Q268 425 223 397 Q178 369 151 321 Q124 273 124 216 Z " />
<glyph glyph-name="eth" unicode="&#xf0;" horiz-adv-x="593" d="M246 -17 Q181 -17 130.5 13 Q80 43 52 94.5 Q24 146 24 208 Q24 291 64 358.5 Q104 426 174 464 Q244 502 330 502 Q396 502 438 461 Q417 530 349 602 L225 526 L200 580 L311 649 Q268 693 215 733 L326 733 Q358 710 384 686 L478 744 L504 690 L425 641 Q485 573 519.5 490.5 Q554 408 554 314 Q554 218 515 142.5 Q476 67 405.5 25 Q335 -17 246 -17 Z M117 217 Q117 150 157.5 106.5 Q198 63 259 63 Q314 63 359.5 91 Q405 119 431.5 167 Q458 215 458 272 Q458 337 420 380.5 Q382 424 316 424 Q261 424 215 396.5 Q169 369 143 321.5 Q117 274 117 217 Z " />
<glyph glyph-name="dcaron" unicode="&#x10f;" horiz-adv-x="612" d="M411 0 L423 75 Q391 33 343 8.5 Q295 -16 234 -16 Q176 -16 130 12 Q84 40 58 90 Q32 140 32 204 Q32 284 70.5 353.5 Q109 423 171.5 464 Q234 505 301 505 Q426 505 472 408 L517 690 L606 690 L497 0 L411 0 Z M124 216 Q124 150 161 107.5 Q198 65 262 65 Q312 65 355.5 92 Q399 119 425 167 Q451 215 451 275 Q451 342 413 383.5 Q375 425 318 425 Q268 425 223 397 Q178 369 151 321 Q124 273 124 216 Z M620 517 L660 690 L738 690 L676 517 L620 517 Z " />
<glyph glyph-name="dslash" unicode="&#x111;" horiz-adv-x="612" d="M583 547 L497 0 L411 0 L423 75 Q391 33 343 8.5 Q295 -16 234 -16 Q176 -16 130 12 Q84 40 58 90 Q32 140 32 204 Q32 284 70.5 353.5 Q109 423 171.5 464 Q234 505 301 505 Q426 505 472 408 L494 547 L369 547 L378 607 L504 607 L517 690 L606 690 L593 607 L661 607 L652 547 L583 547 Z M262 65 Q312 65 355.5 92 Q399 119 425 167 Q451 215 451 275 Q451 342 413 383.5 Q375 425 318 425 Q268 425 223 397 Q178 369 151 321 Q124 273 124 216 Q124 150 161 107.5 Q198 65 262 65 Z " />
<glyph glyph-name="e" unicode="e" horiz-adv-x="539" d="M310 504 Q403 504 452.5 449.5 Q502 395 502 308 Q502 279 499 260 Q496 241 489 215 L113 215 Q110 140 152 99.5 Q194 59 266 59 Q316 59 357 71.5 Q398 84 438 109 L426 34 Q349 -18 244 -18 Q175 -18 124.5 11.5 Q74 41 47.5 93 Q21 145 21 210 Q21 274 53 342.5 Q85 411 150 457.5 Q215 504 310 504 Z M301 429 Q237 429 189.5 387.5 Q142 346 125 287 L415 287 Q416 295 416 309 Q416 365 386 397 Q356 429 301 429 Z " />
<glyph glyph-name="eacute" unicode="&#xe9;" horiz-adv-x="539" d="M310 504 Q403 504 452.5 449.5 Q502 395 502 308 Q502 279 499 260 Q496 241 489 215 L113 215 Q110 140 152 99.5 Q194 59 266 59 Q316 59 357 71.5 Q398 84 438 109 L426 34 Q349 -18 244 -18 Q175 -18 124.5 11.5 Q74 41 47.5 93 Q21 145 21 210 Q21 274 53 342.5 Q85 411 150 457.5 Q215 504 310 504 Z M301 429 Q237 429 189.5 387.5 Q142 346 125 287 L415 287 Q416 295 416 309 Q416 365 386 397 Q356 429 301 429 Z M276 562 L402 733 L508 733 L349 562 L276 562 Z " />
<glyph glyph-name="ebreve" unicode="&#x115;" horiz-adv-x="539" d="M310 504 Q403 504 452.5 449.5 Q502 395 502 308 Q502 279 499 260 Q496 241 489 215 L113 215 Q110 140 152 99.5 Q194 59 266 59 Q316 59 357 71.5 Q398 84 438 109 L426 34 Q349 -18 244 -18 Q175 -18 124.5 11.5 Q74 41 47.5 93 Q21 145 21 210 Q21 274 53 342.5 Q85 411 150 457.5 Q215 504 310 504 Z M301 429 Q237 429 189.5 387.5 Q142 346 125 287 L415 287 Q416 295 416 309 Q416 365 386 397 Q356 429 301 429 Z M504 733 Q490 653 444.5 607.5 Q399 562 330 562 Q268 562 232.5 599.5 Q197 637 197 702 Q197 711 199 733 L261 733 Q260 726 260 713 Q260 674 279.5 650.5 Q299 627 335 627 Q375 627 404 657 Q433 687 441 733 L504 733 Z " />
<glyph glyph-name="ecaron" unicode="&#x11b;" horiz-adv-x="539" d="M310 504 Q403 504 452.5 449.5 Q502 395 502 308 Q502 279 499 260 Q496 241 489 215 L113 215 Q110 140 152 99.5 Q194 59 266 59 Q316 59 357 71.5 Q398 84 438 109 L426 34 Q349 -18 244 -18 Q175 -18 124.5 11.5 Q74 41 47.5 93 Q21 145 21 210 Q21 274 53 342.5 Q85 411 150 457.5 Q215 504 310 504 Z M301 429 Q237 429 189.5 387.5 Q142 346 125 287 L415 287 Q416 295 416 309 Q416 365 386 397 Q356 429 301 429 Z M274 562 L186 733 L260 733 L333 618 L449 733 L525 733 L374 562 L274 562 Z " />
<glyph glyph-name="ecircumflex" unicode="&#xea;" horiz-adv-x="539" d="M310 504 Q403 504 452.5 449.5 Q502 395 502 308 Q502 279 499 260 Q496 241 489 215 L113 215 Q110 140 152 99.5 Q194 59 266 59 Q316 59 357 71.5 Q398 84 438 109 L426 34 Q349 -18 244 -18 Q175 -18 124.5 11.5 Q74 41 47.5 93 Q21 145 21 210 Q21 274 53 342.5 Q85 411 150 457.5 Q215 504 310 504 Z M301 429 Q237 429 189.5 387.5 Q142 346 125 287 L415 287 Q416 295 416 309 Q416 365 386 397 Q356 429 301 429 Z M406 733 L495 562 L421 562 L348 677 L232 562 L155 562 L307 733 L406 733 Z " />
<glyph glyph-name="edieresis" unicode="&#xeb;" horiz-adv-x="539" d="M310 504 Q403 504 452.5 449.5 Q502 395 502 308 Q502 279 499 260 Q496 241 489 215 L113 215 Q110 140 152 99.5 Q194 59 266 59 Q316 59 357 71.5 Q398 84 438 109 L426 34 Q349 -18 244 -18 Q175 -18 124.5 11.5 Q74 41 47.5 93 Q21 145 21 210 Q21 274 53 342.5 Q85 411 150 457.5 Q215 504 310 504 Z M301 429 Q237 429 189.5 387.5 Q142 346 125 287 L415 287 Q416 295 416 309 Q416 365 386 397 Q356 429 301 429 Z M228 568 Q207 568 193.5 582 Q180 596 180 617 Q180 643 200 662 Q220 681 246 681 Q267 681 280.5 667 Q294 653 294 632 Q294 607 274 587.5 Q254 568 228 568 Z M430 568 Q409 568 395.5 582 Q382 596 382 617 Q382 643 402 662 Q422 681 448 681 Q469 681 482.5 667 Q496 653 496 632 Q496 607 476 587.5 Q456 568 430 568 Z " />
<glyph glyph-name="edotaccent" unicode="&#x117;" horiz-adv-x="539" d="M310 504 Q403 504 452.5 449.5 Q502 395 502 308 Q502 279 499 260 Q496 241 489 215 L113 215 Q110 140 152 99.5 Q194 59 266 59 Q316 59 357 71.5 Q398 84 438 109 L426 34 Q349 -18 244 -18 Q175 -18 124.5 11.5 Q74 41 47.5 93 Q21 145 21 210 Q21 274 53 342.5 Q85 411 150 457.5 Q215 504 310 504 Z M301 429 Q237 429 189.5 387.5 Q142 346 125 287 L415 287 Q416 295 416 309 Q416 365 386 397 Q356 429 301 429 Z M327 568 Q306 568 292.5 582 Q279 596 279 617 Q279 643 299 662 Q319 681 345 681 Q366 681 379.5 667 Q393 653 393 632 Q393 607 373 587.5 Q353 568 327 568 Z " />
<glyph glyph-name="egrave" unicode="&#xe8;" horiz-adv-x="539" d="M310 504 Q403 504 452.5 449.5 Q502 395 502 308 Q502 279 499 260 Q496 241 489 215 L113 215 Q110 140 152 99.5 Q194 59 266 59 Q316 59 357 71.5 Q398 84 438 109 L426 34 Q349 -18 244 -18 Q175 -18 124.5 11.5 Q74 41 47.5 93 Q21 145 21 210 Q21 274 53 342.5 Q85 411 150 457.5 Q215 504 310 504 Z M301 429 Q237 429 189.5 387.5 Q142 346 125 287 L415 287 Q416 295 416 309 Q416 365 386 397 Q356 429 301 429 Z M375 562 L302 562 L195 733 L291 733 L375 562 Z " />
<glyph glyph-name="emacron" unicode="&#x113;" horiz-adv-x="539" d="M310 504 Q403 504 452.5 449.5 Q502 395 502 308 Q502 279 499 260 Q496 241 489 215 L113 215 Q110 140 152 99.5 Q194 59 266 59 Q316 59 357 71.5 Q398 84 438 109 L426 34 Q349 -18 244 -18 Q175 -18 124.5 11.5 Q74 41 47.5 93 Q21 145 21 210 Q21 274 53 342.5 Q85 411 150 457.5 Q215 504 310 504 Z M301 429 Q237 429 189.5 387.5 Q142 346 125 287 L415 287 Q416 295 416 309 Q416 365 386 397 Q356 429 301 429 Z M472 672 L463 608 L183 608 L192 672 L472 672 Z " />
<glyph glyph-name="eogonek" unicode="&#x119;" horiz-adv-x="539" d="M309 504 Q402 504 451.5 449.5 Q501 395 501 308 L500 288 Q499 264 495.5 248.5 Q492 233 486 215 L112 215 Q109 140 151 99.5 Q193 59 265 59 Q315 59 356 71.5 Q397 84 437 109 L425 34 Q381 14 356 -1 Q264 -58 264 -114 Q264 -133 276 -144 Q288 -155 308 -155 Q331 -155 357 -143 L347 -204 Q319 -218 278 -218 Q237 -218 214 -195.5 Q191 -173 191 -137 Q191 -103 211.5 -75 Q232 -47 265 -18 L237 -18 Q171 -17 122 11.5 Q73 40 46.5 89.5 Q20 139 20 201 Q20 210 22 232 Q30 307 68.5 369 Q107 431 170 467.5 Q233 504 309 504 Z M414 287 Q415 295 415 309 Q415 365 385 397 Q355 429 300 429 Q236 429 188.5 387.5 Q141 346 124 287 L414 287 Z " />
<glyph glyph-name="f" unicode="f" horiz-adv-x="346" d="M341 710 Q386 710 416 699 L404 626 Q377 635 347 635 Q303 635 278.5 609 Q254 583 244 523 L239 488 L359 488 L347 411 L227 411 L162 0 L73 0 L137 411 L41 411 L53 488 L150 488 L157 532 Q172 623 219 666.5 Q266 710 341 710 Z " />
<glyph glyph-name="g" unicode="g" horiz-adv-x="602" d="M301 504 Q414 504 464 406 L477 488 L564 488 L494 47 Q473 -89 391.5 -158.5 Q310 -228 185 -228 Q125 -228 82 -215.5 Q39 -203 17 -180 L30 -96 Q60 -125 99.5 -138 Q139 -151 191 -151 Q278 -151 334.5 -105 Q391 -59 405 31 L413 80 Q378 34 328 8.5 Q278 -17 217 -17 Q160 -17 115.5 12.5 Q71 42 46.5 92.5 Q22 143 22 206 Q22 288 61 356.5 Q100 425 164.5 464.5 Q229 504 301 504 Z M307 424 Q254 424 210 396.5 Q166 369 140 321.5 Q114 274 114 216 Q114 148 152 105.5 Q190 63 248 63 Q298 63 342 90.5 Q386 118 413 166 Q440 214 440 272 Q440 340 403.5 382 Q367 424 307 424 Z " />
<glyph glyph-name="gbreve" unicode="&#x11f;" horiz-adv-x="602" d="M301 504 Q414 504 464 406 L477 488 L564 488 L494 47 Q473 -89 391.5 -158.5 Q310 -228 185 -228 Q125 -228 82 -215.5 Q39 -203 17 -180 L30 -96 Q60 -125 99.5 -138 Q139 -151 191 -151 Q278 -151 334.5 -105 Q391 -59 405 31 L413 80 Q378 34 328 8.5 Q278 -17 217 -17 Q160 -17 115.5 12.5 Q71 42 46.5 92.5 Q22 143 22 206 Q22 288 61 356.5 Q100 425 164.5 464.5 Q229 504 301 504 Z M307 424 Q254 424 210 396.5 Q166 369 140 321.5 Q114 274 114 216 Q114 148 152 105.5 Q190 63 248 63 Q298 63 342 90.5 Q386 118 413 166 Q440 214 440 272 Q440 340 403.5 382 Q367 424 307 424 Z M515 733 Q501 653 455.5 607.5 Q410 562 341 562 Q279 562 243.5 599.5 Q208 637 208 702 Q208 711 210 733 L272 733 Q271 726 271 713 Q271 674 290.5 650.5 Q310 627 346 627 Q386 627 415 657 Q444 687 452 733 L515 733 Z " />
<glyph glyph-name="gcircumflex" unicode="&#x11d;" horiz-adv-x="602" d="M301 504 Q414 504 464 406 L477 488 L564 488 L494 47 Q473 -89 391.5 -158.5 Q310 -228 185 -228 Q125 -228 82 -215.5 Q39 -203 17 -180 L30 -96 Q60 -125 99.5 -138 Q139 -151 191 -151 Q278 -151 334.5 -105 Q391 -59 405 31 L413 80 Q378 34 328 8.5 Q278 -17 217 -17 Q160 -17 115.5 12.5 Q71 42 46.5 92.5 Q22 143 22 206 Q22 288 61 356.5 Q100 425 164.5 464.5 Q229 504 301 504 Z M307 424 Q254 424 210 396.5 Q166 369 140 321.5 Q114 274 114 216 Q114 148 152 105.5 Q190 63 248 63 Q298 63 342 90.5 Q386 118 413 166 Q440 214 440 272 Q440 340 403.5 382 Q367 424 307 424 Z M417 733 L506 562 L432 562 L359 677 L243 562 L166 562 L318 733 L417 733 Z " />
<glyph glyph-name="gcommaaccent" unicode="&#x123;" horiz-adv-x="602" d="M301 504 Q414 504 464 406 L477 488 L564 488 L494 47 Q473 -89 391.5 -158.5 Q310 -228 185 -228 Q125 -228 82 -215.5 Q39 -203 17 -180 L30 -96 Q60 -125 99.5 -138 Q139 -151 191 -151 Q278 -151 334.5 -105 Q391 -59 405 31 L413 80 Q378 34 328 8.5 Q278 -17 217 -17 Q160 -17 115.5 12.5 Q71 42 46.5 92.5 Q22 143 22 206 Q22 288 61 356.5 Q100 425 164.5 464.5 Q229 504 301 504 Z M307 424 Q254 424 210 396.5 Q166 369 140 321.5 Q114 274 114 216 Q114 148 152 105.5 Q190 63 248 63 Q298 63 342 90.5 Q386 118 413 166 Q440 214 440 272 Q440 340 403.5 382 Q367 424 307 424 Z M354 559 Q312 559 312 604 Q312 648 341 682 Q370 716 422 733 L415 688 Q381 675 372 646 Q409 640 409 608 Q409 587 394 573 Q379 559 354 559 Z " />
<glyph glyph-name="gdotaccent" unicode="&#x121;" horiz-adv-x="602" d="M301 504 Q414 504 464 406 L477 488 L564 488 L494 47 Q473 -89 391.5 -158.5 Q310 -228 185 -228 Q125 -228 82 -215.5 Q39 -203 17 -180 L30 -96 Q60 -125 99.5 -138 Q139 -151 191 -151 Q278 -151 334.5 -105 Q391 -59 405 31 L413 80 Q378 34 328 8.5 Q278 -17 217 -17 Q160 -17 115.5 12.5 Q71 42 46.5 92.5 Q22 143 22 206 Q22 288 61 356.5 Q100 425 164.5 464.5 Q229 504 301 504 Z M307 424 Q254 424 210 396.5 Q166 369 140 321.5 Q114 274 114 216 Q114 148 152 105.5 Q190 63 248 63 Q298 63 342 90.5 Q386 118 413 166 Q440 214 440 272 Q440 340 403.5 382 Q367 424 307 424 Z M338 568 Q317 568 303.5 582 Q290 596 290 617 Q290 643 310 662 Q330 681 356 681 Q377 681 390.5 667 Q404 653 404 632 Q404 607 384 587.5 Q364 568 338 568 Z " />
<glyph glyph-name="h" unicode="h" horiz-adv-x="594" d="M175 409 Q207 453 255 478.5 Q303 504 361 504 Q441 504 484.5 459 Q528 414 528 334 Q528 307 524 283 L479 0 L389 0 L433 277 Q436 297 436 313 Q436 366 407.5 395 Q379 424 325 424 Q258 424 210 376 Q162 328 150 252 L110 0 L21 0 L130 690 L220 690 L175 409 Z " />
<glyph glyph-name="hbar" unicode="&#x127;" horiz-adv-x="594" d="M361 504 Q441 504 484.5 459 Q528 414 528 334 Q528 307 524 283 L479 0 L389 0 L433 277 Q436 297 436 313 Q436 366 407.5 395 Q379 424 325 424 Q258 424 210 376 Q162 328 150 252 L110 0 L21 0 L107 547 L40 547 L49 607 L117 607 L130 690 L220 690 L207 607 L332 607 L323 547 L197 547 L175 409 Q207 453 255 478.5 Q303 504 361 504 Z " />
<glyph glyph-name="hcircumflex" unicode="&#x125;" horiz-adv-x="594" d="M175 409 Q207 453 255 478.5 Q303 504 361 504 Q441 504 484.5 459 Q528 414 528 334 Q528 307 524 283 L479 0 L389 0 L433 277 Q436 297 436 313 Q436 366 407.5 395 Q379 424 325 424 Q258 424 210 376 Q162 328 150 252 L110 0 L21 0 L130 690 L220 690 L175 409 Z M255 880 L335 744 L262 744 L198 828 L108 744 L33 744 L156 880 L255 880 Z " />
<glyph glyph-name="i" unicode="i" horiz-adv-x="225" d="M110 0 L21 0 L96 488 L186 488 L110 0 Z M155 568 Q134 568 120.5 582 Q107 596 107 617 Q107 643 127 662 Q147 681 173 681 Q194 681 207.5 667 Q221 653 221 632 Q221 607 201 587.5 Q181 568 155 568 Z " />
<glyph glyph-name="dotlessi" unicode="&#x131;" horiz-adv-x="225" d="M110 0 L21 0 L96 488 L186 488 L110 0 Z " />
<glyph glyph-name="iacute" unicode="&#xed;" horiz-adv-x="225" d="M110 0 L21 0 L96 488 L186 488 L110 0 Z M105 562 L231 733 L337 733 L178 562 L105 562 Z " />
<glyph glyph-name="ibreve" unicode="&#x12d;" horiz-adv-x="225" d="M110 0 L21 0 L96 488 L186 488 L110 0 Z M333 733 Q319 653 273.5 607.5 Q228 562 159 562 Q97 562 61.5 599.5 Q26 637 26 702 Q26 711 28 733 L90 733 Q89 726 89 713 Q89 674 108.5 650.5 Q128 627 164 627 Q204 627 233 657 Q262 687 270 733 L333 733 Z " />
<glyph glyph-name="icircumflex" unicode="&#xee;" horiz-adv-x="225" d="M110 0 L21 0 L96 488 L186 488 L110 0 Z M235 733 L324 562 L250 562 L177 677 L61 562 L-16 562 L136 733 L235 733 Z " />
<glyph glyph-name="idieresis" unicode="&#xef;" horiz-adv-x="225" d="M110 0 L21 0 L96 488 L186 488 L110 0 Z M56 568 Q35 568 21.5 582 Q8 596 8 617 Q8 643 28 662 Q48 681 74 681 Q95 681 108.5 667 Q122 653 122 632 Q122 607 102 587.5 Q82 568 56 568 Z M258 568 Q237 568 223.5 582 Q210 596 210 617 Q210 643 230 662 Q250 681 276 681 Q297 681 310.5 667 Q324 653 324 632 Q324 607 304 587.5 Q284 568 258 568 Z " />
<glyph glyph-name="igrave" unicode="&#xec;" horiz-adv-x="225" d="M110 0 L21 0 L96 488 L186 488 L110 0 Z M203 562 L130 562 L23 733 L119 733 L203 562 Z " />
<glyph glyph-name="ij" unicode="&#x133;" horiz-adv-x="450" d="M155 568 Q134 568 120.5 582 Q107 596 107 617 Q107 643 127 662 Q147 681 173 681 Q194 681 207.5 667 Q221 653 221 632 Q221 607 201 587.5 Q181 568 155 568 Z M381 568 Q360 568 346.5 582 Q333 596 333 617 Q333 643 353 662 Q373 681 399 681 Q420 681 433.5 667 Q447 653 447 632 Q447 607 427 587.5 Q407 568 381 568 Z M110 0 L21 0 L96 488 L186 488 L110 0 Z M331 -25 Q315 -127 265 -175 Q215 -223 138 -223 Q91 -223 61 -212 L74 -136 Q101 -145 133 -145 Q178 -145 204.5 -117 Q231 -89 242 -23 L323 488 L412 488 L331 -25 Z " />
<glyph glyph-name="imacron" unicode="&#x12b;" horiz-adv-x="225" d="M110 0 L21 0 L96 488 L186 488 L110 0 Z M300 672 L291 608 L11 608 L20 672 L300 672 Z " />
<glyph glyph-name="iogonek" unicode="&#x12f;" horiz-adv-x="225" d="M173 681 Q194 681 207.5 667 Q221 653 221 632 Q221 607 201 587.5 Q181 568 155 568 Q134 568 120.5 582 Q107 596 107 617 Q107 643 127 662 Q147 681 173 681 Z M186 488 L110 0 Q66 -32 42.5 -57 Q19 -82 19 -114 Q19 -133 30.5 -144 Q42 -155 62 -155 Q86 -155 110 -143 L100 -204 Q74 -218 33 -218 Q-8 -218 -30.5 -195.5 Q-53 -173 -53 -137 Q-53 -97 -26.5 -62 Q0 -27 38 0 L21 0 L96 488 L186 488 Z " />
<glyph glyph-name="itilde" unicode="&#x129;" horiz-adv-x="225" d="M110 0 L21 0 L96 488 L186 488 L110 0 Z M-3 578 Q8 635 37 667.5 Q66 700 108 700 Q128 700 145 692.5 Q162 685 181 670 Q197 656 209 649.5 Q221 643 232 643 Q249 643 261 657.5 Q273 672 279 700 L333 700 Q322 643 293 610.5 Q264 578 222 578 Q202 578 185 585.5 Q168 593 150 608 Q134 622 122 628.5 Q110 635 98 635 Q82 635 69.5 620 Q57 605 52 578 L-3 578 Z " />
<glyph glyph-name="j" unicode="j" horiz-adv-x="225" d="M106 -25 Q90 -127 40 -175 Q-10 -223 -87 -223 Q-134 -223 -164 -212 L-151 -136 Q-124 -145 -92 -145 Q-47 -145 -20.5 -117 Q6 -89 17 -23 L98 488 L187 488 L106 -25 Z M156 568 Q135 568 121.5 582 Q108 596 108 617 Q108 643 128 662 Q148 681 174 681 Q195 681 208.5 667 Q222 653 222 632 Q222 607 202 587.5 Q182 568 156 568 Z " />
<glyph glyph-name="dotlessj" unicode="&#x237;" horiz-adv-x="225" d="M106 -25 Q90 -127 40 -175 Q-10 -223 -87 -223 Q-134 -223 -164 -212 L-151 -136 Q-124 -145 -92 -145 Q-47 -145 -20.5 -117 Q6 -89 17 -23 L98 488 L187 488 L106 -25 Z " />
<glyph glyph-name="jcircumflex" unicode="&#x135;" horiz-adv-x="225" d="M106 -25 Q90 -127 40 -175 Q-10 -223 -87 -223 Q-134 -223 -164 -212 L-151 -136 Q-124 -145 -92 -145 Q-47 -145 -20.5 -117 Q6 -89 17 -23 L98 488 L187 488 L106 -25 Z M236 733 L325 562 L251 562 L178 677 L62 562 L-15 562 L137 733 L236 733 Z " />
<glyph glyph-name="k" unicode="k" horiz-adv-x="511" d="M456 0 L349 0 L207 238 L131 174 L103 0 L14 0 L122 690 L212 690 L148 287 L395 488 L509 488 L278 296 L456 0 Z " />
<glyph glyph-name="kcommaaccent" unicode="&#x137;" horiz-adv-x="511" d="M456 0 L349 0 L207 238 L131 174 L103 0 L14 0 L122 690 L212 690 L148 287 L395 488 L509 488 L278 296 L456 0 Z M232 -44 Q273 -44 273 -90 Q273 -134 244 -168 Q215 -202 163 -219 L170 -173 Q203 -161 213 -131 Q195 -129 185.5 -118.5 Q176 -108 176 -94 Q176 -72 191 -58 Q206 -44 232 -44 Z " />
<glyph glyph-name="kgreenlandic" unicode="&#x138;" horiz-adv-x="505" d="M450 0 L343 0 L205 232 L130 170 L103 0 L14 0 L89 478 L179 478 L148 284 L388 479 L502 479 L275 291 L450 0 Z " />
<glyph glyph-name="l" unicode="l" horiz-adv-x="225" d="M110 0 L21 0 L129 690 L219 690 L110 0 Z " />
<glyph glyph-name="lacute" unicode="&#x13a;" horiz-adv-x="225" d="M110 0 L21 0 L129 690 L219 690 L110 0 Z M131 744 L236 880 L334 880 L205 744 L131 744 Z " />
<glyph glyph-name="lcaron" unicode="&#x13e;" horiz-adv-x="225" d="M110 0 L21 0 L129 690 L219 690 L110 0 Z M233 517 L273 690 L351 690 L289 517 L233 517 Z " />
<glyph glyph-name="lcommaaccent" unicode="&#x13c;" horiz-adv-x="225" d="M110 0 L21 0 L129 690 L219 690 L110 0 Z M60 -44 Q101 -44 101 -90 Q101 -134 72 -168 Q43 -202 -9 -219 L-2 -173 Q31 -161 41 -131 Q23 -129 13.5 -118.5 Q4 -108 4 -94 Q4 -72 19 -58 Q34 -44 60 -44 Z " />
<glyph glyph-name="ldot" unicode="&#x140;" horiz-adv-x="321" d="M106 0 L17 0 L125 690 L215 690 L106 0 Z M273 296 Q250 296 235 312 Q220 328 220 351 Q220 379 242 400 Q264 421 293 421 Q315 421 330 405.5 Q345 390 345 367 Q345 339 323 317.5 Q301 296 273 296 Z " />
<glyph glyph-name="lslash" unicode="&#x142;" horiz-adv-x="243" d="M175 361 L118 0 L29 0 L75 294 L-14 235 L-2 314 L87 374 L137 690 L227 690 L188 440 L277 500 L265 421 L175 361 Z " />
<glyph glyph-name="m" unicode="m" horiz-adv-x="904" d="M684 504 Q761 504 800.5 462.5 Q840 421 840 348 Q840 321 836 298 L790 0 L700 0 L747 291 Q750 309 750 324 Q750 371 726 397.5 Q702 424 653 424 Q591 424 546.5 376 Q502 328 490 252 L450 0 L361 0 L405 277 Q408 298 408 315 Q408 367 383.5 395.5 Q359 424 315 424 Q256 424 210 376 Q164 328 150 252 L110 0 L21 0 L98 488 L184 488 L172 409 Q204 453 248.5 478.5 Q293 504 349 504 Q405 504 442 476 Q479 448 492 396 Q563 504 684 504 Z " />
<glyph glyph-name="n" unicode="n" horiz-adv-x="593" d="M361 504 Q440 504 483.5 459.5 Q527 415 527 335 Q527 307 523 283 L478 0 L389 0 L433 277 Q436 297 436 313 Q436 366 407.5 395 Q379 424 325 424 Q258 424 209.5 376 Q161 328 150 252 L110 0 L21 0 L98 488 L184 488 L171 409 Q203 452 253 478 Q303 504 361 504 Z " />
<glyph glyph-name="nacute" unicode="&#x144;" horiz-adv-x="593" d="M361 504 Q440 504 483.5 459.5 Q527 415 527 335 Q527 307 523 283 L478 0 L389 0 L433 277 Q436 297 436 313 Q436 366 407.5 395 Q379 424 325 424 Q258 424 209.5 376 Q161 328 150 252 L110 0 L21 0 L98 488 L184 488 L171 409 Q203 452 253 478 Q303 504 361 504 Z M288 562 L414 733 L520 733 L361 562 L288 562 Z " />
<glyph glyph-name="napostrophe" unicode="&#x149;" horiz-adv-x="641" d="M407 504 Q486 504 529.5 459.5 Q573 415 573 335 Q573 307 569 283 L524 0 L435 0 L479 277 Q482 297 482 313 Q482 366 453.5 395 Q425 424 371 424 Q304 424 255.5 376 Q207 328 196 252 L156 0 L67 0 L144 488 L230 488 L217 409 Q249 452 299 478 Q349 504 407 504 Z M120 704 Q144 704 159.5 687 Q175 670 175 641 Q175 580 137 525.5 Q99 471 32 442 L42 509 Q63 523 74 538 Q85 553 92 579 Q72 585 61 600 Q50 615 50 637 Q50 664 70 684 Q90 704 120 704 Z " />
<glyph glyph-name="ncaron" unicode="&#x148;" horiz-adv-x="593" d="M361 504 Q440 504 483.5 459.5 Q527 415 527 335 Q527 307 523 283 L478 0 L389 0 L433 277 Q436 297 436 313 Q436 366 407.5 395 Q379 424 325 424 Q258 424 209.5 376 Q161 328 150 252 L110 0 L21 0 L98 488 L184 488 L171 409 Q203 452 253 478 Q303 504 361 504 Z M286 562 L198 733 L272 733 L345 618 L461 733 L537 733 L386 562 L286 562 Z " />
<glyph glyph-name="ncommaaccent" unicode="&#x146;" horiz-adv-x="593" d="M361 504 Q440 504 483.5 459.5 Q527 415 527 335 Q527 307 523 283 L478 0 L389 0 L433 277 Q436 297 436 313 Q436 366 407.5 395 Q379 424 325 424 Q258 424 209.5 376 Q161 328 150 252 L110 0 L21 0 L98 488 L184 488 L171 409 Q203 452 253 478 Q303 504 361 504 Z M240 -44 Q281 -44 281 -90 Q281 -134 252 -168 Q223 -202 171 -219 L178 -173 Q211 -161 221 -131 Q203 -129 193.5 -118.5 Q184 -108 184 -94 Q184 -72 199 -58 Q214 -44 240 -44 Z " />
<glyph glyph-name="eng" unicode="&#x14b;" horiz-adv-x="593" d="M361 504 Q440 504 483.5 459.5 Q527 415 527 335 Q527 307 523 283 L475 -25 Q458 -127 407.5 -175 Q357 -223 280 -223 Q234 -223 204 -212 L216 -136 Q243 -145 276 -145 Q321 -145 348 -117 Q375 -89 386 -23 L433 277 Q436 295 436 312 Q436 366 407.5 395 Q379 424 325 424 Q258 424 209.5 376 Q161 328 150 252 L110 0 L21 0 L98 488 L184 488 L171 403 Q202 450 252 477 Q302 504 361 504 Z " />
<glyph glyph-name="ntilde" unicode="&#xf1;" horiz-adv-x="593" d="M361 504 Q440 504 483.5 459.5 Q527 415 527 335 Q527 307 523 283 L478 0 L389 0 L433 277 Q436 297 436 313 Q436 366 407.5 395 Q379 424 325 424 Q258 424 209.5 376 Q161 328 150 252 L110 0 L21 0 L98 488 L184 488 L171 409 Q203 452 253 478 Q303 504 361 504 Z M180 578 Q191 635 220 667.5 Q249 700 291 700 Q311 700 328 692.5 Q345 685 364 670 Q380 656 392 649.5 Q404 643 415 643 Q432 643 444 657.5 Q456 672 462 700 L516 700 Q505 643 476 610.5 Q447 578 405 578 Q385 578 368 585.5 Q351 593 333 608 Q317 622 305 628.5 Q293 635 281 635 Q265 635 252.5 620 Q240 605 235 578 L180 578 Z " />
<glyph glyph-name="o" unicode="o" horiz-adv-x="576" d="M314 504 Q379 504 429.5 475 Q480 446 508 394.5 Q536 343 536 278 Q536 204 499.5 136 Q463 68 396.5 25.5 Q330 -17 244 -17 Q180 -17 129.5 12 Q79 41 50.5 93 Q22 145 22 210 Q22 285 58.5 352.5 Q95 420 161.5 462 Q228 504 314 504 Z M311 423 Q253 423 207.5 393.5 Q162 364 137.5 315.5 Q113 267 113 214 Q113 148 150.5 105.5 Q188 63 247 63 Q305 63 350 93.5 Q395 124 420 173 Q445 222 445 275 Q445 340 407.5 381.5 Q370 423 311 423 Z " />
<glyph glyph-name="oacute" unicode="&#xf3;" horiz-adv-x="576" d="M314 504 Q379 504 429.5 475 Q480 446 508 394.5 Q536 343 536 278 Q536 204 499.5 136 Q463 68 396.5 25.5 Q330 -17 244 -17 Q180 -17 129.5 12 Q79 41 50.5 93 Q22 145 22 210 Q22 285 58.5 352.5 Q95 420 161.5 462 Q228 504 314 504 Z M311 423 Q253 423 207.5 393.5 Q162 364 137.5 315.5 Q113 267 113 214 Q113 148 150.5 105.5 Q188 63 247 63 Q305 63 350 93.5 Q395 124 420 173 Q445 222 445 275 Q445 340 407.5 381.5 Q370 423 311 423 Z M282 562 L408 733 L514 733 L355 562 L282 562 Z " />
<glyph glyph-name="obreve" unicode="&#x14f;" horiz-adv-x="576" d="M314 504 Q379 504 429.5 475 Q480 446 508 394.5 Q536 343 536 278 Q536 204 499.5 136 Q463 68 396.5 25.5 Q330 -17 244 -17 Q180 -17 129.5 12 Q79 41 50.5 93 Q22 145 22 210 Q22 285 58.5 352.5 Q95 420 161.5 462 Q228 504 314 504 Z M311 423 Q253 423 207.5 393.5 Q162 364 137.5 315.5 Q113 267 113 214 Q113 148 150.5 105.5 Q188 63 247 63 Q305 63 350 93.5 Q395 124 420 173 Q445 222 445 275 Q445 340 407.5 381.5 Q370 423 311 423 Z M510 733 Q496 653 450.5 607.5 Q405 562 336 562 Q274 562 238.5 599.5 Q203 637 203 702 Q203 711 205 733 L267 733 Q266 726 266 713 Q266 674 285.5 650.5 Q305 627 341 627 Q381 627 410 657 Q439 687 447 733 L510 733 Z " />
<glyph glyph-name="ocircumflex" unicode="&#xf4;" horiz-adv-x="576" d="M314 504 Q379 504 429.5 475 Q480 446 508 394.5 Q536 343 536 278 Q536 204 499.5 136 Q463 68 396.5 25.5 Q330 -17 244 -17 Q180 -17 129.5 12 Q79 41 50.5 93 Q22 145 22 210 Q22 285 58.5 352.5 Q95 420 161.5 462 Q228 504 314 504 Z M311 423 Q253 423 207.5 393.5 Q162 364 137.5 315.5 Q113 267 113 214 Q113 148 150.5 105.5 Q188 63 247 63 Q305 63 350 93.5 Q395 124 420 173 Q445 222 445 275 Q445 340 407.5 381.5 Q370 423 311 423 Z M412 733 L501 562 L427 562 L354 677 L238 562 L161 562 L313 733 L412 733 Z " />
<glyph glyph-name="odieresis" unicode="&#xf6;" horiz-adv-x="576" d="M314 504 Q379 504 429.5 475 Q480 446 508 394.5 Q536 343 536 278 Q536 204 499.5 136 Q463 68 396.5 25.5 Q330 -17 244 -17 Q180 -17 129.5 12 Q79 41 50.5 93 Q22 145 22 210 Q22 285 58.5 352.5 Q95 420 161.5 462 Q228 504 314 504 Z M311 423 Q253 423 207.5 393.5 Q162 364 137.5 315.5 Q113 267 113 214 Q113 148 150.5 105.5 Q188 63 247 63 Q305 63 350 93.5 Q395 124 420 173 Q445 222 445 275 Q445 340 407.5 381.5 Q370 423 311 423 Z M234 568 Q213 568 199.5 582 Q186 596 186 617 Q186 643 206 662 Q226 681 252 681 Q273 681 286.5 667 Q300 653 300 632 Q300 607 280 587.5 Q260 568 234 568 Z M436 568 Q415 568 401.5 582 Q388 596 388 617 Q388 643 408 662 Q428 681 454 681 Q475 681 488.5 667 Q502 653 502 632 Q502 607 482 587.5 Q462 568 436 568 Z " />
<glyph glyph-name="ograve" unicode="&#xf2;" horiz-adv-x="576" d="M314 504 Q379 504 429.5 475 Q480 446 508 394.5 Q536 343 536 278 Q536 204 499.5 136 Q463 68 396.5 25.5 Q330 -17 244 -17 Q180 -17 129.5 12 Q79 41 50.5 93 Q22 145 22 210 Q22 285 58.5 352.5 Q95 420 161.5 462 Q228 504 314 504 Z M311 423 Q253 423 207.5 393.5 Q162 364 137.5 315.5 Q113 267 113 214 Q113 148 150.5 105.5 Q188 63 247 63 Q305 63 350 93.5 Q395 124 420 173 Q445 222 445 275 Q445 340 407.5 381.5 Q370 423 311 423 Z M381 562 L308 562 L201 733 L297 733 L381 562 Z " />
<glyph glyph-name="ohungarumlaut" unicode="&#x151;" horiz-adv-x="576" d="M314 504 Q379 504 429.5 475 Q480 446 508 394.5 Q536 343 536 278 Q536 204 499.5 136 Q463 68 396.5 25.5 Q330 -17 244 -17 Q180 -17 129.5 12 Q79 41 50.5 93 Q22 145 22 210 Q22 285 58.5 352.5 Q95 420 161.5 462 Q228 504 314 504 Z M311 423 Q253 423 207.5 393.5 Q162 364 137.5 315.5 Q113 267 113 214 Q113 148 150.5 105.5 Q188 63 247 63 Q305 63 350 93.5 Q395 124 420 173 Q445 222 445 275 Q445 340 407.5 381.5 Q370 423 311 423 Z M184 562 L310 733 L416 733 L258 562 L184 562 Z M359 562 L485 733 L591 733 L433 562 L359 562 Z " />
<glyph glyph-name="omacron" unicode="&#x14d;" horiz-adv-x="576" d="M314 504 Q379 504 429.5 475 Q480 446 508 394.5 Q536 343 536 278 Q536 204 499.5 136 Q463 68 396.5 25.5 Q330 -17 244 -17 Q180 -17 129.5 12 Q79 41 50.5 93 Q22 145 22 210 Q22 285 58.5 352.5 Q95 420 161.5 462 Q228 504 314 504 Z M311 423 Q253 423 207.5 393.5 Q162 364 137.5 315.5 Q113 267 113 214 Q113 148 150.5 105.5 Q188 63 247 63 Q305 63 350 93.5 Q395 124 420 173 Q445 222 445 275 Q445 340 407.5 381.5 Q370 423 311 423 Z M478 672 L469 608 L189 608 L198 672 L478 672 Z " />
<glyph glyph-name="oslash" unicode="&#xf8;" horiz-adv-x="582" d="M490 422 Q536 362 536 278 Q536 204 499.5 136 Q463 68 396.5 25.5 Q330 -17 244 -17 Q163 -17 106 28 L37 -43 L-7 -2 L64 71 Q22 129 22 210 Q22 285 58.5 352.5 Q95 420 161.5 462 Q228 504 314 504 Q390 504 448 463 L513 530 L555 489 L490 422 Z M113 214 Q113 173 129 138 L386 400 Q354 423 311 423 Q253 423 207.5 393.5 Q162 364 137.5 315.5 Q113 267 113 214 Z M445 275 Q445 320 426 356 L167 90 Q202 63 247 63 Q305 63 350 93.5 Q395 124 420 173 Q445 222 445 275 Z " />
<glyph glyph-name="otilde" unicode="&#xf5;" horiz-adv-x="576" d="M314 504 Q379 504 429.5 475 Q480 446 508 394.5 Q536 343 536 278 Q536 204 499.5 136 Q463 68 396.5 25.5 Q330 -17 244 -17 Q180 -17 129.5 12 Q79 41 50.5 93 Q22 145 22 210 Q22 285 58.5 352.5 Q95 420 161.5 462 Q228 504 314 504 Z M311 423 Q253 423 207.5 393.5 Q162 364 137.5 315.5 Q113 267 113 214 Q113 148 150.5 105.5 Q188 63 247 63 Q305 63 350 93.5 Q395 124 420 173 Q445 222 445 275 Q445 340 407.5 381.5 Q370 423 311 423 Z M175 578 Q186 635 215 667.5 Q244 700 286 700 Q306 700 323 692.5 Q340 685 359 670 Q375 656 387 649.5 Q399 643 410 643 Q427 643 439 657.5 Q451 672 457 700 L511 700 Q500 643 471 610.5 Q442 578 400 578 Q380 578 363 585.5 Q346 593 328 608 Q312 622 300 628.5 Q288 635 276 635 Q260 635 247.5 620 Q235 605 230 578 L175 578 Z " />
<glyph glyph-name="oe" unicode="&#x153;" horiz-adv-x="955" d="M726 504 Q819 504 869 449 Q919 394 919 306 Q919 280 916 262.5 Q913 245 905 215 L529 215 Q526 140 568 99.5 Q610 59 682 59 Q732 59 773 71.5 Q814 84 854 109 L842 34 Q765 -18 660 -18 Q591 -18 542 12.5 Q493 43 469 97 Q427 42 372 12.5 Q317 -17 242 -17 Q178 -17 128 12.5 Q78 42 50.5 94 Q23 146 23 212 Q23 286 59 353.5 Q95 421 162 462.5 Q229 504 317 504 Q381 504 429.5 472.5 Q478 441 502 388 Q539 440 595 472 Q651 504 726 504 Z M717 429 Q653 429 605.5 387.5 Q558 346 541 287 L831 287 Q832 295 832 309 Q832 365 802 397 Q772 429 717 429 Z M312 423 Q253 423 208 393 Q163 363 138 315 Q113 267 113 215 Q113 148 151 105.5 Q189 63 248 63 Q305 63 350 93.5 Q395 124 420 173 Q445 222 445 273 Q445 339 408.5 381 Q372 423 312 423 Z " />
<glyph glyph-name="p" unicode="p" horiz-adv-x="603" d="M185 488 L173 413 Q205 455 253 479.5 Q301 504 362 504 Q419 504 465.5 475.5 Q512 447 538 397 Q564 347 564 284 Q564 204 525.5 134.5 Q487 65 424.5 24 Q362 -17 295 -17 Q169 -17 123 80 L77 -211 L-13 -211 L98 488 L185 488 Z M472 272 Q472 338 434.5 380.5 Q397 423 333 423 Q283 423 239.5 396 Q196 369 170 321 Q144 273 144 213 Q144 147 182 105 Q220 63 277 63 Q328 63 373 91 Q418 119 445 167 Q472 215 472 272 Z " />
<glyph glyph-name="thorn" unicode="&#xfe;" horiz-adv-x="604" d="M220 690 L176 417 Q205 455 253.5 479.5 Q302 504 362 504 Q420 504 466 475.5 Q512 447 538 397 Q564 347 564 284 Q564 204 525 134.5 Q486 65 421.5 24 Q357 -17 286 -17 Q225 -17 184.5 8.5 Q144 34 124 80 L77 -211 L-12 -211 L130 690 L220 690 Z M472 273 Q472 339 434.5 381 Q397 423 333 423 Q284 423 241 396.5 Q198 370 172 322 Q146 274 146 214 Q146 147 184 105 Q222 63 278 63 Q329 63 373.5 91 Q418 119 445 167 Q472 215 472 273 Z " />
<glyph glyph-name="q" unicode="q" horiz-adv-x="602" d="M365 -202 L408 66 Q378 29 331 6.5 Q284 -16 224 -16 Q165 -16 118.5 12.5 Q72 41 46 91 Q20 141 20 204 Q20 285 59 354.5 Q98 424 162.5 464.5 Q227 505 297 505 Q359 505 399 480 Q439 455 464 406 L477 488 L563 488 L455 -202 L365 -202 Z M112 215 Q112 149 149.5 106.5 Q187 64 251 64 Q301 64 344.5 91 Q388 118 414 166 Q440 214 440 274 Q440 341 402 383 Q364 425 307 425 Q256 425 211 397 Q166 369 139 320.5 Q112 272 112 215 Z " />
<glyph glyph-name="r" unicode="r" horiz-adv-x="347" d="M342 410 Q324 413 303 413 Q244 413 203 370.5 Q162 328 149 247 L110 0 L21 0 L98 488 L184 488 L171 405 Q231 491 315 491 Q336 491 354 488 L342 410 Z " />
<glyph glyph-name="racute" unicode="&#x155;" horiz-adv-x="347" d="M342 410 Q324 413 303 413 Q244 413 203 370.5 Q162 328 149 247 L110 0 L21 0 L98 488 L184 488 L171 405 Q231 491 315 491 Q336 491 354 488 L342 410 Z M193 562 L319 733 L425 733 L266 562 L193 562 Z " />
<glyph glyph-name="rcaron" unicode="&#x159;" horiz-adv-x="347" d="M342 410 Q324 413 303 413 Q244 413 203 370.5 Q162 328 149 247 L110 0 L21 0 L98 488 L184 488 L171 405 Q231 491 315 491 Q336 491 354 488 L342 410 Z M191 562 L103 733 L177 733 L250 618 L366 733 L442 733 L291 562 L191 562 Z " />
<glyph glyph-name="rcommaaccent" unicode="&#x157;" horiz-adv-x="347" d="M342 410 Q324 413 303 413 Q244 413 203 370.5 Q162 328 149 247 L110 0 L21 0 L98 488 L184 488 L171 405 Q231 491 315 491 Q336 491 354 488 L342 410 Z M59 -44 Q100 -44 100 -90 Q100 -134 71 -168 Q42 -202 -10 -219 L-3 -173 Q30 -161 40 -131 Q22 -129 12.5 -118.5 Q3 -108 3 -94 Q3 -72 18 -58 Q33 -44 59 -44 Z " />
<glyph glyph-name="s" unicode="s" horiz-adv-x="446" d="M186 -16 Q136 -16 91.5 1 Q47 18 20 46 L34 133 Q64 96 106.5 77 Q149 58 193 58 Q241 58 268 79 Q295 100 295 137 Q295 165 273 181 Q251 197 199 216 Q127 242 94.5 269.5 Q62 297 62 346 Q62 392 88 428 Q114 464 159 483.5 Q204 503 261 503 Q355 503 407 454 L395 373 Q368 401 330.5 415.5 Q293 430 249 430 Q206 430 179 410 Q152 390 152 359 Q152 332 176 317 Q200 302 262 280 Q324 257 354.5 229 Q385 201 385 152 Q385 75 330.5 29.5 Q276 -16 186 -16 Z " />
<glyph glyph-name="sacute" unicode="&#x15b;" horiz-adv-x="446" d="M186 -16 Q136 -16 91.5 1 Q47 18 20 46 L34 133 Q64 96 106.5 77 Q149 58 193 58 Q241 58 268 79 Q295 100 295 137 Q295 165 273 181 Q251 197 199 216 Q127 242 94.5 269.5 Q62 297 62 346 Q62 392 88 428 Q114 464 159 483.5 Q204 503 261 503 Q355 503 407 454 L395 373 Q368 401 330.5 415.5 Q293 430 249 430 Q206 430 179 410 Q152 390 152 359 Q152 332 176 317 Q200 302 262 280 Q324 257 354.5 229 Q385 201 385 152 Q385 75 330.5 29.5 Q276 -16 186 -16 Z M229 562 L355 733 L461 733 L302 562 L229 562 Z " />
<glyph glyph-name="scaron" unicode="&#x161;" horiz-adv-x="446" d="M186 -16 Q136 -16 91.5 1 Q47 18 20 46 L34 133 Q64 96 106.5 77 Q149 58 193 58 Q241 58 268 79 Q295 100 295 137 Q295 165 273 181 Q251 197 199 216 Q127 242 94.5 269.5 Q62 297 62 346 Q62 392 88 428 Q114 464 159 483.5 Q204 503 261 503 Q355 503 407 454 L395 373 Q368 401 330.5 415.5 Q293 430 249 430 Q206 430 179 410 Q152 390 152 359 Q152 332 176 317 Q200 302 262 280 Q324 257 354.5 229 Q385 201 385 152 Q385 75 330.5 29.5 Q276 -16 186 -16 Z M227 562 L139 733 L213 733 L286 618 L402 733 L478 733 L327 562 L227 562 Z " />
<glyph glyph-name="scedilla" unicode="&#x15f;" horiz-adv-x="446" d="M261 503 Q355 503 407 454 L395 373 Q368 401 330.5 415.5 Q293 430 249 430 Q206 430 179 410 Q152 390 152 359 Q152 332 176 317 Q200 302 262 280 Q324 257 354.5 229 Q385 201 385 152 Q385 81 338 36.5 Q291 -8 212 -15 L188 -58 Q226 -61 249 -79 Q272 -97 272 -129 Q272 -176 236.5 -206 Q201 -236 140 -236 Q103 -236 65 -224 L74 -168 Q86 -173 105.5 -177 Q125 -181 144 -181 Q205 -181 205 -136 Q205 -98 113 -98 L158 -15 Q115 -11 79 5.5 Q43 22 20 46 L34 133 Q64 96 106.5 77 Q149 58 193 58 Q241 58 268 79 Q295 100 295 137 Q295 165 273 181 Q251 197 199 216 Q127 242 94.5 269.5 Q62 297 62 346 Q62 392 88 428 Q114 464 159 483.5 Q204 503 261 503 Z " />
<glyph glyph-name="scircumflex" unicode="&#x15d;" horiz-adv-x="446" d="M186 -16 Q136 -16 91.5 1 Q47 18 20 46 L34 133 Q64 96 106.5 77 Q149 58 193 58 Q241 58 268 79 Q295 100 295 137 Q295 165 273 181 Q251 197 199 216 Q127 242 94.5 269.5 Q62 297 62 346 Q62 392 88 428 Q114 464 159 483.5 Q204 503 261 503 Q355 503 407 454 L395 373 Q368 401 330.5 415.5 Q293 430 249 430 Q206 430 179 410 Q152 390 152 359 Q152 332 176 317 Q200 302 262 280 Q324 257 354.5 229 Q385 201 385 152 Q385 75 330.5 29.5 Q276 -16 186 -16 Z M359 733 L448 562 L374 562 L301 677 L185 562 L108 562 L260 733 L359 733 Z " />
<glyph glyph-name="scommaaccent" unicode="&#x219;" horiz-adv-x="446" d="M186 -16 Q136 -16 91.5 1 Q47 18 20 46 L34 133 Q64 96 106.5 77 Q149 58 193 58 Q241 58 268 79 Q295 100 295 137 Q295 165 273 181 Q251 197 199 216 Q127 242 94.5 269.5 Q62 297 62 346 Q62 392 88 428 Q114 464 159 483.5 Q204 503 261 503 Q355 503 407 454 L395 373 Q368 401 330.5 415.5 Q293 430 249 430 Q206 430 179 410 Q152 390 152 359 Q152 332 176 317 Q200 302 262 280 Q324 257 354.5 229 Q385 201 385 152 Q385 75 330.5 29.5 Q276 -16 186 -16 Z M184 -44 Q225 -44 225 -90 Q225 -134 196 -168 Q167 -202 115 -219 L122 -173 Q155 -161 165 -131 Q147 -129 137.5 -118.5 Q128 -108 128 -94 Q128 -72 143 -58 Q158 -44 184 -44 Z " />
<glyph glyph-name="germandbls" unicode="&#xdf;" horiz-adv-x="591" d="M438 293 Q492 264 517 235 Q542 206 542 157 Q542 76 484 30 Q426 -16 333 -16 Q287 -16 248.5 -1 Q210 14 184 39 L198 126 Q259 58 349 58 Q397 58 424.5 80.5 Q452 103 452 144 Q452 172 431 193.5 Q410 215 360 242 Q311 267 291 290 Q271 313 271 345 Q271 381 291 407 Q311 433 356 473 Q394 507 406.5 525 Q419 543 419 573 Q419 601 397 620 Q375 639 334 639 Q212 639 189 503 L110 0 L21 0 L100 504 Q116 604 181 657.5 Q246 711 347 711 Q427 711 469 676.5 Q511 642 511 589 Q511 547 491.5 517.5 Q472 488 431 450 L409 430 Q384 408 373 394.5 Q362 381 362 363 Q362 344 378.5 330 Q395 316 438 293 Z " />
<glyph glyph-name="t" unicode="t" horiz-adv-x="358" d="M141 488 L165 644 L255 644 L230 488 L347 488 L335 411 L218 411 L178 162 Q175 146 175 132 Q175 66 236 66 Q257 66 283 74 L272 0 Q257 -4 241.5 -6.5 Q226 -9 208 -9 Q148 -9 116 23 Q84 55 84 114 Q84 126 88 156 L128 411 L32 411 L44 488 L141 488 Z " />
<glyph glyph-name="tbar" unicode="&#x167;" horiz-adv-x="358" d="M178 162 Q175 146 175 132 Q175 66 236 66 Q257 66 283 74 L272 0 Q257 -4 241.5 -6.5 Q226 -9 208 -9 Q148 -9 116 23 Q84 55 84 114 Q84 126 88 156 L128 411 L32 411 L44 488 L141 488 L165 644 L255 644 L230 488 L347 488 L335 411 L218 411 L178 162 Z " />
<glyph glyph-name="tcaron" unicode="&#x165;" horiz-adv-x="358" d="M141 488 L165 644 L255 644 L230 488 L347 488 L335 411 L218 411 L178 162 Q175 146 175 132 Q175 66 236 66 Q257 66 283 74 L272 0 Q257 -4 241.5 -6.5 Q226 -9 208 -9 Q148 -9 116 23 Q84 55 84 114 Q84 126 88 156 L128 411 L32 411 L44 488 L141 488 Z M295 536 L335 709 L413 709 L351 536 L295 536 Z " />
<glyph glyph-name="uni0163" unicode="&#x163;" horiz-adv-x="358" d="M141 488 L165 644 L255 644 L230 488 L347 488 L335 411 L218 411 L178 162 Q175 146 175 132 Q175 66 236 66 Q257 66 283 74 L272 0 Q257 -4 241.5 -6.5 Q226 -9 208 -9 Q148 -9 116 23 Q84 55 84 114 Q84 126 88 156 L128 411 L32 411 L44 488 L141 488 Z M171 -44 Q212 -44 212 -90 Q212 -134 183 -168 Q154 -202 102 -219 L109 -173 Q142 -161 152 -131 Q134 -129 124.5 -118.5 Q115 -108 115 -94 Q115 -72 130 -58 Q145 -44 171 -44 Z " />
<glyph glyph-name="uni021B" unicode="&#x21b;" horiz-adv-x="358" d="M141 488 L165 644 L255 644 L230 488 L347 488 L335 411 L218 411 L178 162 Q175 146 175 132 Q175 66 236 66 Q257 66 283 74 L272 0 Q257 -4 241.5 -6.5 Q226 -9 208 -9 Q148 -9 116 23 Q84 55 84 114 Q84 126 88 156 L128 411 L32 411 L44 488 L141 488 Z M171 -44 Q212 -44 212 -90 Q212 -134 183 -168 Q154 -202 102 -219 L109 -173 Q142 -161 152 -131 Q134 -129 124.5 -118.5 Q115 -108 115 -94 Q115 -72 130 -58 Q145 -44 171 -44 Z " />
<glyph glyph-name="u" unicode="u" horiz-adv-x="593" d="M405 85 Q374 37 324 10 Q274 -17 215 -17 Q136 -17 92.5 27.5 Q49 72 49 152 Q49 180 53 204 L98 488 L187 488 L144 211 Q141 192 141 174 Q141 121 169.5 92.5 Q198 64 251 64 Q318 64 366.5 112 Q415 160 426 236 L466 488 L555 488 L478 0 L391 0 L405 85 Z " />
<glyph glyph-name="uacute" unicode="&#xfa;" horiz-adv-x="593" d="M405 85 Q374 37 324 10 Q274 -17 215 -17 Q136 -17 92.5 27.5 Q49 72 49 152 Q49 180 53 204 L98 488 L187 488 L144 211 Q141 192 141 174 Q141 121 169.5 92.5 Q198 64 251 64 Q318 64 366.5 112 Q415 160 426 236 L466 488 L555 488 L478 0 L391 0 L405 85 Z M290 562 L416 733 L522 733 L363 562 L290 562 Z " />
<glyph glyph-name="ubreve" unicode="&#x16d;" horiz-adv-x="593" d="M405 85 Q374 37 324 10 Q274 -17 215 -17 Q136 -17 92.5 27.5 Q49 72 49 152 Q49 180 53 204 L98 488 L187 488 L144 211 Q141 192 141 174 Q141 121 169.5 92.5 Q198 64 251 64 Q318 64 366.5 112 Q415 160 426 236 L466 488 L555 488 L478 0 L391 0 L405 85 Z M518 733 Q504 653 458.5 607.5 Q413 562 344 562 Q282 562 246.5 599.5 Q211 637 211 702 Q211 711 213 733 L275 733 Q274 726 274 713 Q274 674 293.5 650.5 Q313 627 349 627 Q389 627 418 657 Q447 687 455 733 L518 733 Z " />
<glyph glyph-name="ucircumflex" unicode="&#xfb;" horiz-adv-x="593" d="M405 85 Q374 37 324 10 Q274 -17 215 -17 Q136 -17 92.5 27.5 Q49 72 49 152 Q49 180 53 204 L98 488 L187 488 L144 211 Q141 192 141 174 Q141 121 169.5 92.5 Q198 64 251 64 Q318 64 366.5 112 Q415 160 426 236 L466 488 L555 488 L478 0 L391 0 L405 85 Z M420 733 L509 562 L435 562 L362 677 L246 562 L169 562 L321 733 L420 733 Z " />
<glyph glyph-name="udieresis" unicode="&#xfc;" horiz-adv-x="593" d="M405 85 Q374 37 324 10 Q274 -17 215 -17 Q136 -17 92.5 27.5 Q49 72 49 152 Q49 180 53 204 L98 488 L187 488 L144 211 Q141 192 141 174 Q141 121 169.5 92.5 Q198 64 251 64 Q318 64 366.5 112 Q415 160 426 236 L466 488 L555 488 L478 0 L391 0 L405 85 Z M242 568 Q221 568 207.5 582 Q194 596 194 617 Q194 643 214 662 Q234 681 260 681 Q281 681 294.5 667 Q308 653 308 632 Q308 607 288 587.5 Q268 568 242 568 Z M444 568 Q423 568 409.5 582 Q396 596 396 617 Q396 643 416 662 Q436 681 462 681 Q483 681 496.5 667 Q510 653 510 632 Q510 607 490 587.5 Q470 568 444 568 Z " />
<glyph glyph-name="ugrave" unicode="&#xf9;" horiz-adv-x="593" d="M405 85 Q374 37 324 10 Q274 -17 215 -17 Q136 -17 92.5 27.5 Q49 72 49 152 Q49 180 53 204 L98 488 L187 488 L144 211 Q141 192 141 174 Q141 121 169.5 92.5 Q198 64 251 64 Q318 64 366.5 112 Q415 160 426 236 L466 488 L555 488 L478 0 L391 0 L405 85 Z M388 562 L315 562 L208 733 L304 733 L388 562 Z " />
<glyph glyph-name="uhungarumlaut" unicode="&#x171;" horiz-adv-x="593" d="M405 85 Q374 37 324 10 Q274 -17 215 -17 Q136 -17 92.5 27.5 Q49 72 49 152 Q49 180 53 204 L98 488 L187 488 L144 211 Q141 192 141 174 Q141 121 169.5 92.5 Q198 64 251 64 Q318 64 366.5 112 Q415 160 426 236 L466 488 L555 488 L478 0 L391 0 L405 85 Z M192 562 L318 733 L424 733 L266 562 L192 562 Z M367 562 L493 733 L599 733 L441 562 L367 562 Z " />
<glyph glyph-name="umacron" unicode="&#x16b;" horiz-adv-x="593" d="M405 85 Q374 37 324 10 Q274 -17 215 -17 Q136 -17 92.5 27.5 Q49 72 49 152 Q49 180 53 204 L98 488 L187 488 L144 211 Q141 192 141 174 Q141 121 169.5 92.5 Q198 64 251 64 Q318 64 366.5 112 Q415 160 426 236 L466 488 L555 488 L478 0 L391 0 L405 85 Z M485 672 L476 608 L196 608 L205 672 L485 672 Z " />
<glyph glyph-name="uogonek" unicode="&#x173;" horiz-adv-x="593" d="M478 0 Q434 -32 410.5 -57 Q387 -82 387 -114 Q387 -133 398.5 -144 Q410 -155 430 -155 Q454 -155 478 -143 L468 -204 Q442 -218 401 -218 Q360 -218 337.5 -195.5 Q315 -173 315 -137 Q315 -97 341.5 -62 Q368 -27 406 0 L391 0 L405 85 Q374 37 324 10 Q274 -17 215 -17 Q136 -17 92.5 27.5 Q49 72 49 152 Q49 180 53 204 L98 488 L187 488 L144 211 Q141 192 141 174 Q141 121 169.5 92.5 Q198 64 251 64 Q318 64 366.5 112 Q415 160 426 236 L466 488 L555 488 L478 0 Z " />
<glyph glyph-name="uring" unicode="&#x16f;" horiz-adv-x="593" d="M405 85 Q374 37 324 10 Q274 -17 215 -17 Q136 -17 92.5 27.5 Q49 72 49 152 Q49 180 53 204 L98 488 L187 488 L144 211 Q141 192 141 174 Q141 121 169.5 92.5 Q198 64 251 64 Q318 64 366.5 112 Q415 160 426 236 L466 488 L555 488 L478 0 L391 0 L405 85 Z M352 774 Q400 774 434 740 Q468 706 468 658 Q468 610 434 575.5 Q400 541 352 541 Q304 541 270 575.5 Q236 610 236 658 Q236 706 270 740 Q304 774 352 774 Z M351 720 Q325 720 307 702 Q289 684 289 658 Q289 632 307 613.5 Q325 595 351 595 Q377 595 395 613.5 Q413 632 413 658 Q413 684 395 702 Q377 720 351 720 Z " />
<glyph glyph-name="utilde" unicode="&#x169;" horiz-adv-x="593" d="M405 85 Q374 37 324 10 Q274 -17 215 -17 Q136 -17 92.5 27.5 Q49 72 49 152 Q49 180 53 204 L98 488 L187 488 L144 211 Q141 192 141 174 Q141 121 169.5 92.5 Q198 64 251 64 Q318 64 366.5 112 Q415 160 426 236 L466 488 L555 488 L478 0 L391 0 L405 85 Z M182 578 Q193 635 222 667.5 Q251 700 293 700 Q313 700 330 692.5 Q347 685 366 670 Q382 656 394 649.5 Q406 643 417 643 Q434 643 446 657.5 Q458 672 464 700 L518 700 Q507 643 478 610.5 Q449 578 407 578 Q387 578 370 585.5 Q353 593 335 608 Q319 622 307 628.5 Q295 635 283 635 Q267 635 254.5 620 Q242 605 237 578 L182 578 Z " />
<glyph glyph-name="v" unicode="v" horiz-adv-x="471" d="M230 0 L147 0 L31 488 L120 488 L203 107 L406 488 L499 488 L230 0 Z " />
<glyph glyph-name="w" unicode="w" horiz-adv-x="719" d="M512 0 L422 0 L370 375 L199 0 L110 0 L40 488 L129 488 L173 104 L345 488 L429 488 L480 105 L645 488 L736 488 L512 0 Z " />
<glyph glyph-name="wacute" unicode="&#x1e83;" horiz-adv-x="719" d="M512 0 L422 0 L370 375 L199 0 L110 0 L40 488 L129 488 L173 104 L345 488 L429 488 L480 105 L645 488 L736 488 L512 0 Z M351 562 L477 733 L583 733 L424 562 L351 562 Z " />
<glyph glyph-name="wcircumflex" unicode="&#x175;" horiz-adv-x="719" d="M512 0 L422 0 L370 375 L199 0 L110 0 L40 488 L129 488 L173 104 L345 488 L429 488 L480 105 L645 488 L736 488 L512 0 Z M481 733 L570 562 L496 562 L423 677 L307 562 L230 562 L382 733 L481 733 Z " />
<glyph glyph-name="wdieresis" unicode="&#x1e85;" horiz-adv-x="719" d="M512 0 L422 0 L370 375 L199 0 L110 0 L40 488 L129 488 L173 104 L345 488 L429 488 L480 105 L645 488 L736 488 L512 0 Z M303 568 Q282 568 268.5 582 Q255 596 255 617 Q255 643 275 662 Q295 681 321 681 Q342 681 355.5 667 Q369 653 369 632 Q369 607 349 587.5 Q329 568 303 568 Z M505 568 Q484 568 470.5 582 Q457 596 457 617 Q457 643 477 662 Q497 681 523 681 Q544 681 557.5 667 Q571 653 571 632 Q571 607 551 587.5 Q531 568 505 568 Z " />
<glyph glyph-name="wgrave" unicode="&#x1e81;" horiz-adv-x="719" d="M512 0 L422 0 L370 375 L199 0 L110 0 L40 488 L129 488 L173 104 L345 488 L429 488 L480 105 L645 488 L736 488 L512 0 Z M449 562 L376 562 L269 733 L365 733 L449 562 Z " />
<glyph glyph-name="x" unicode="x" horiz-adv-x="492" d="M150 488 L247 318 L388 488 L494 488 L289 247 L433 0 L334 0 L229 187 L71 0 L-35 0 L187 258 L53 488 L150 488 Z " />
<glyph glyph-name="y" unicode="y" horiz-adv-x="476" d="M146 19 L31 488 L121 488 L208 123 L408 488 L504 488 L106 -211 L11 -211 L146 19 Z " />
<glyph glyph-name="yacute" unicode="&#xfd;" horiz-adv-x="476" d="M146 19 L31 488 L121 488 L208 123 L408 488 L504 488 L106 -211 L11 -211 L146 19 Z M231 562 L357 733 L463 733 L304 562 L231 562 Z " />
<glyph glyph-name="ycircumflex" unicode="&#x177;" horiz-adv-x="476" d="M146 19 L31 488 L121 488 L208 123 L408 488 L504 488 L106 -211 L11 -211 L146 19 Z M361 733 L450 562 L376 562 L303 677 L187 562 L110 562 L262 733 L361 733 Z " />
<glyph glyph-name="ydieresis" unicode="&#xff;" horiz-adv-x="476" d="M146 19 L31 488 L121 488 L208 123 L408 488 L504 488 L106 -211 L11 -211 L146 19 Z M183 568 Q162 568 148.5 582 Q135 596 135 617 Q135 643 155 662 Q175 681 201 681 Q222 681 235.5 667 Q249 653 249 632 Q249 607 229 587.5 Q209 568 183 568 Z M385 568 Q364 568 350.5 582 Q337 596 337 617 Q337 643 357 662 Q377 681 403 681 Q424 681 437.5 667 Q451 653 451 632 Q451 607 431 587.5 Q411 568 385 568 Z " />
<glyph glyph-name="ygrave" unicode="&#x1ef3;" horiz-adv-x="476" d="M146 19 L31 488 L121 488 L208 123 L408 488 L504 488 L106 -211 L11 -211 L146 19 Z M330 562 L257 562 L150 733 L246 733 L330 562 Z " />
<glyph glyph-name="z" unicode="z" horiz-adv-x="473" d="M470 426 L115 77 L415 77 L403 0 L-21 0 L-10 65 L342 411 L55 411 L68 488 L481 488 L470 426 Z " />
<glyph glyph-name="zacute" unicode="&#x17a;" horiz-adv-x="473" d="M470 426 L115 77 L415 77 L403 0 L-21 0 L-10 65 L342 411 L55 411 L68 488 L481 488 L470 426 Z M238 562 L364 733 L470 733 L311 562 L238 562 Z " />
<glyph glyph-name="zcaron" unicode="&#x17e;" horiz-adv-x="473" d="M470 426 L115 77 L415 77 L403 0 L-21 0 L-10 65 L342 411 L55 411 L68 488 L481 488 L470 426 Z M236 562 L148 733 L222 733 L295 618 L411 733 L487 733 L336 562 L236 562 Z " />
<glyph glyph-name="zdotaccent" unicode="&#x17c;" horiz-adv-x="473" d="M470 426 L115 77 L415 77 L403 0 L-21 0 L-10 65 L342 411 L55 411 L68 488 L481 488 L470 426 Z M289 568 Q268 568 254.5 582 Q241 596 241 617 Q241 643 261 662 Q281 681 307 681 Q328 681 341.5 667 Q355 653 355 632 Q355 607 335 587.5 Q315 568 289 568 Z " />
<glyph glyph-name="fi" unicode="&#xfb01;" horiz-adv-x="559" d="M437 0 L348 0 L411 411 L228 411 L162 0 L73 0 L138 411 L41 411 L53 488 L150 488 L161 552 Q173 632 219 674.5 Q265 717 342 717 Q381 717 412 708 L400 634 Q378 642 347 642 Q304 642 280.5 618 Q257 594 249 546 L240 488 L513 488 L437 0 Z M500 681 Q521 681 534.5 667 Q548 653 548 632 Q548 607 528 587.5 Q508 568 482 568 Q461 568 447.5 582 Q434 596 434 617 Q434 643 454 662 Q474 681 500 681 Z " />
<glyph glyph-name="fl" unicode="&#xfb02;" horiz-adv-x="571" d="M341 710 Q386 710 416 699 L404 626 Q377 635 347 635 Q303 635 278.5 609 Q254 583 244 523 L239 488 L359 488 L347 411 L227 411 L162 0 L73 0 L137 411 L41 411 L53 488 L150 488 L157 532 Q172 623 219 666.5 Q266 710 341 710 Z M456 0 L367 0 L475 690 L565 690 L456 0 Z " />
<glyph glyph-name="ordfeminine" unicode="&#xaa;" horiz-adv-x="390" d="M227 636 Q199 636 170 627.5 Q141 619 119 605 L129 668 Q151 681 181.5 688.5 Q212 696 241 696 Q383 696 383 577 Q383 560 380 537 L347 331 L280 331 L287 378 Q266 351 232.5 336.5 Q199 322 156 322 Q103 322 73.5 347 Q44 372 44 415 Q44 478 93 515 Q142 552 224 552 Q276 552 311 541 Q313 559 313 565 Q313 639 227 636 Z M177 376 Q228 376 261 406 Q294 436 303 488 Q265 498 226 498 Q171 498 141.5 478 Q112 458 112 424 Q112 401 129 388.5 Q146 376 177 376 Z " />
<glyph glyph-name="ordmasculine" unicode="&#xba;" horiz-adv-x="453" d="M68 482 Q68 543 98.5 592 Q129 641 180.5 668.5 Q232 696 290 696 Q363 696 408.5 651 Q454 606 454 535 Q454 476 423.5 427.5 Q393 379 342 350.5 Q291 322 232 322 Q161 322 114.5 366.5 Q68 411 68 482 Z M135 491 Q135 444 164.5 413.5 Q194 383 241 383 Q281 383 314.5 402 Q348 421 367.5 454 Q387 487 387 526 Q387 573 358 604.5 Q329 636 281 636 Q242 636 208 616.5 Q174 597 154.5 564 Q135 531 135 491 Z " />
<glyph glyph-name="n.superior" unicode="&#x207f;" horiz-adv-x="462" d="M191 628 Q214 662 249 679 Q284 696 324 696 Q376 696 406.5 665.5 Q437 635 437 575 Q437 557 434 534 L401 328 L336 328 L369 536 Q371 552 371 560 Q371 596 351.5 616 Q332 636 297 636 Q251 636 217 604.5 Q183 573 174 519 L145 328 L79 328 L136 690 L201 690 L191 628 Z " />
<glyph glyph-name="uni0394" unicode="&#x394;" horiz-adv-x="659" d="M596 0 L-40 0 L344 682 L435 682 L596 0 Z M398 442 Q376 538 370 575 L365 575 L293 437 L92 77 L484 77 L398 442 Z " />
<glyph glyph-name="uni03A9" unicode="&#x3a9;" horiz-adv-x="760" d="M190 82 L192 97 Q122 130 85 193.5 Q48 257 48 336 Q48 438 98 522.5 Q148 607 238 655.5 Q328 704 442 704 Q533 704 598.5 666 Q664 628 698 564 Q732 500 732 424 Q732 348 701.5 282 Q671 216 618 168 Q565 120 500 98 L497 82 L679 82 L666 0 L397 0 L417 133 Q480 150 528.5 190 Q577 230 604.5 287.5 Q632 345 632 412 Q632 472 607 519 Q582 566 535.5 592.5 Q489 619 427 619 Q351 619 286.5 582 Q222 545 184 480.5 Q146 416 146 335 Q146 260 183.5 206 Q221 152 286 133 L265 0 L-5 0 L8 82 L190 82 Z " />
<glyph glyph-name="uni03BC" unicode="&#x3bc;" horiz-adv-x="606" d="M477 156 Q474 141 474 127 Q474 98 487.5 83 Q501 68 526 68 Q544 68 559 72 L548 -2 Q525 -9 497 -9 Q411 -9 403 73 Q338 -17 246 -17 Q197 -17 162.5 7.5 Q128 32 118 76 L73 -211 L-13 -211 L97 488 L186 488 L144 223 Q141 207 141 189 Q141 134 168.5 99 Q196 64 247 64 Q307 64 347 110 Q387 156 398 223 L440 488 L529 488 L477 156 Z " />
<glyph glyph-name="pi" unicode="&#x3c0;" horiz-adv-x="587" d="M522 -2 Q503 -9 472 -9 Q417 -9 387.5 20 Q358 49 358 104 Q358 122 361 143 L403 411 L213 411 L148 0 L59 0 L123 411 L32 411 L44 488 L594 488 L582 411 L492 411 L452 156 Q449 141 449 127 Q449 98 462.5 83 Q476 68 501 68 Q519 68 534 72 L522 -2 Z " />
<glyph glyph-name="zero" unicode="0" horiz-adv-x="577" d="M353 704 Q442 704 499 645.5 Q556 587 556 455 Q556 338 521 228.5 Q486 119 415.5 48.5 Q345 -22 242 -22 Q152 -22 93.5 37 Q35 96 35 233 Q35 348 69.5 456 Q104 564 176 634 Q248 704 353 704 Z M343 619 Q268 619 219.5 556 Q171 493 149.5 403 Q128 313 128 228 Q128 63 248 63 Q321 63 369.5 127.5 Q418 192 440.5 284 Q463 376 463 458 Q463 538 432.5 578.5 Q402 619 343 619 Z " />
<glyph glyph-name="one" unicode="1" horiz-adv-x="577" d="M464 83 L451 0 L45 0 L58 83 L214 83 L292 578 L151 521 L166 613 L359 690 L404 690 L309 83 L464 83 Z " />
<glyph glyph-name="two" unicode="2" horiz-adv-x="577" d="M283 292 Q358 365 394 418.5 Q430 472 430 525 Q430 569 401.5 593 Q373 617 317 617 Q215 617 122 532 L138 634 Q222 704 345 704 Q437 704 482.5 660.5 Q528 617 528 549 Q528 473 483 401.5 Q438 330 349 246 L181 83 L462 83 L449 0 L27 0 L34 47 L283 292 Z " />
<glyph glyph-name="three" unicode="3" horiz-adv-x="577" d="M45 135 Q81 99 123.5 80 Q166 61 222 61 Q277 61 317 82.5 Q357 104 378 139 Q399 174 399 213 Q399 262 361 293.5 Q323 325 248 325 L201 325 L214 402 L255 402 Q328 402 374.5 439 Q421 476 421 534 Q421 573 393 598 Q365 623 306 623 Q255 623 207.5 603.5 Q160 584 121 548 L137 646 Q215 704 326 704 Q419 704 469 662.5 Q519 621 519 556 Q519 487 475.5 439 Q432 391 358 372 Q418 360 455 319 Q492 278 492 215 Q492 152 459.5 98 Q427 44 364 11 Q301 -22 213 -22 Q95 -22 30 40 L45 135 Z " />
<glyph glyph-name="four" unicode="4" horiz-adv-x="577" d="M298 0 L320 144 L11 144 L22 220 L421 698 L497 698 L423 223 L520 223 L508 144 L410 144 L387 0 L298 0 Z M386 554 L120 223 L333 223 L386 554 Z " />
<glyph glyph-name="five" unicode="5" horiz-adv-x="577" d="M60 130 Q134 61 224 61 Q273 61 315 83.5 Q357 106 381.5 145 Q406 184 406 231 Q406 286 369 322.5 Q332 359 269 359 Q197 359 118 342 L172 690 L529 690 L515 607 L246 607 L219 431 Q269 437 304 437 Q361 437 406 411.5 Q451 386 476.5 341 Q502 296 502 241 Q502 172 465.5 111.5 Q429 51 362 14.5 Q295 -22 208 -22 Q160 -22 118.5 -7 Q77 8 45 35 L60 130 Z " />
<glyph glyph-name="six" unicode="6" horiz-adv-x="577" d="M14 179 Q14 295 115.5 433 Q217 571 358 690 L471 690 Q387 621 312.5 544.5 Q238 468 192 402 Q242 438 306 438 Q365 438 412.5 413 Q460 388 487 342.5 Q514 297 514 239 Q514 171 475.5 110.5 Q437 50 371 14 Q305 -22 226 -22 Q163 -22 115 4.5 Q67 31 40.5 77 Q14 123 14 179 Z M239 59 Q284 59 325.5 82 Q367 105 392.5 143.5 Q418 182 418 227 Q418 263 401 293 Q384 323 354 341 Q324 359 286 359 Q242 359 201 336 Q160 313 134.5 274 Q109 235 109 190 Q109 135 146.5 97 Q184 59 239 59 Z " />
<glyph glyph-name="seven" unicode="7" horiz-adv-x="577" d="M103 0 L494 607 L141 607 L154 690 L609 690 L597 611 L204 0 L103 0 Z " />
<glyph glyph-name="eight" unicode="8" horiz-adv-x="577" d="M512 218 Q512 150 479.5 95.5 Q447 41 386 9.5 Q325 -22 244 -22 Q147 -22 94 26 Q41 74 41 154 Q41 230 82 285.5 Q123 341 198 368 Q158 384 136.5 418.5 Q115 453 115 499 Q115 558 147 605 Q179 652 234.5 678 Q290 704 359 704 Q443 704 494 661.5 Q545 619 545 551 Q545 487 509 439.5 Q473 392 411 369 Q461 351 486.5 311.5 Q512 272 512 218 Z M204 497 Q204 451 233.5 424.5 Q263 398 310 398 Q371 398 411 435 Q451 472 451 531 Q451 575 422 601.5 Q393 628 345 628 Q286 628 245 591.5 Q204 555 204 497 Z M137 169 Q137 117 169.5 86 Q202 55 257 55 Q302 55 339 74.5 Q376 94 397.5 130 Q419 166 419 214 Q419 266 387 297 Q355 328 300 328 Q230 328 183.5 285 Q137 242 137 169 Z " />
<glyph glyph-name="nine" unicode="9" horiz-adv-x="577" d="M588 511 Q588 395 486.5 257 Q385 119 244 0 L132 0 Q215 69 289.5 145.5 Q364 222 410 288 Q388 272 358.5 262 Q329 252 296 252 Q238 252 190.5 277 Q143 302 116 347.5 Q89 393 89 451 Q89 519 127 579.5 Q165 640 231 676 Q297 712 376 712 Q439 712 487 685.5 Q535 659 561.5 613 Q588 567 588 511 Z M363 631 Q318 631 276.5 608 Q235 585 209.5 546.5 Q184 508 184 463 Q184 427 201 397 Q218 367 248 349 Q278 331 316 331 Q360 331 401 354 Q442 377 467.5 416 Q493 455 493 500 Q493 555 455.5 593 Q418 631 363 631 Z " />
<glyph glyph-name="fraction" unicode="&#x2044;" horiz-adv-x="126" d="M-263 0 L321 682 L390 682 L-194 0 L-263 0 Z " />
<glyph glyph-name="onehalf" unicode="&#xbd;" horiz-adv-x="736" d="M306 344 L51 344 L60 401 L154 401 L188 618 L105 590 L114 653 L237 696 L267 696 L221 401 L315 401 L306 344 Z M58 0 L642 682 L711 682 L127 0 L58 0 Z M546 156 Q588 192 606.5 213 Q625 234 625 255 Q625 275 608 287.5 Q591 300 562 300 Q505 300 451 257 L461 322 Q513 359 584 359 Q639 359 668 335.5 Q697 312 697 274 Q697 248 687.5 228 Q678 208 661 191 Q644 174 610 143 L593 128 L517 61 L677 61 L667 0 L405 0 L411 38 L546 156 Z " />
<glyph glyph-name="onequarter" unicode="&#xbc;" horiz-adv-x="694" d="M306 344 L51 344 L60 401 L154 401 L188 618 L105 590 L114 653 L237 696 L267 696 L221 401 L315 401 L306 344 Z M50 0 L634 682 L703 682 L119 0 L50 0 Z M502 0 L511 63 L327 63 L336 118 L565 356 L622 356 L585 120 L642 120 L633 63 L576 63 L566 0 L502 0 Z M546 265 L406 120 L522 120 L546 265 Z " />
<glyph glyph-name="threequarters" unicode="&#xbe;" horiz-adv-x="693" d="M61 428 Q84 409 107.5 400 Q131 391 164 391 Q207 391 231.5 409 Q256 427 256 453 Q256 475 235 489 Q214 503 173 503 L143 503 L151 553 L180 553 Q216 553 239.5 567 Q263 581 263 605 Q263 624 247.5 635 Q232 646 199 646 Q143 646 96 615 L106 678 Q150 703 215 703 Q273 703 304.5 681 Q336 659 336 623 Q336 590 313 566.5 Q290 543 253 534 Q285 527 305 505 Q325 483 325 452 Q325 401 281 367 Q237 333 158 333 Q88 333 50 362 L61 428 Z M50 0 L634 682 L703 682 L119 0 L50 0 Z M502 0 L511 63 L327 63 L336 118 L565 356 L622 356 L585 120 L642 120 L633 63 L576 63 L566 0 L502 0 Z M546 265 L406 120 L522 120 L546 265 Z " />
<glyph glyph-name="zero.inferior" unicode="&#x2080;" horiz-adv-x="359" d="M-13 3 Q-13 83 14.5 133.5 Q42 184 83.5 206.5 Q125 229 170 229 Q221 229 256 195 Q291 161 291 86 Q291 3 263 -47.5 Q235 -98 193.5 -119.5 Q152 -141 109 -141 Q58 -141 22.5 -107 Q-13 -73 -13 3 Z M224 75 Q224 121 206 145 Q188 169 159 169 Q132 169 107.5 151.5 Q83 134 68 99 Q53 64 53 13 Q53 -34 71.5 -57.5 Q90 -81 120 -81 Q146 -81 170 -63.5 Q194 -46 209 -11 Q224 24 224 75 Z " />
<glyph glyph-name="one.inferior" unicode="&#x2081;" horiz-adv-x="329" d="M231 -130 L-24 -130 L-15 -73 L79 -73 L113 144 L30 116 L39 179 L162 222 L192 222 L146 -73 L240 -73 L231 -130 Z " />
<glyph glyph-name="two.inferior" unicode="&#x2082;" horiz-adv-x="322" d="M112 26 Q154 62 172.5 83 Q191 104 191 125 Q191 145 174 157.5 Q157 170 128 170 Q71 170 17 127 L27 192 Q79 229 150 229 Q205 229 234 205.5 Q263 182 263 144 Q263 118 253.5 98 Q244 78 227 61 Q210 44 176 13 L159 -2 L83 -69 L243 -69 L233 -130 L-29 -130 L-23 -92 L112 26 Z " />
<glyph glyph-name="three.inferior" unicode="&#x2083;" horiz-adv-x="324" d="M-14 -46 Q9 -65 32.5 -74 Q56 -83 89 -83 Q132 -83 156.5 -65 Q181 -47 181 -21 Q181 1 160 15 Q139 29 98 29 L68 29 L76 79 L105 79 Q141 79 164.5 93 Q188 107 188 131 Q188 150 172.5 161 Q157 172 124 172 Q68 172 21 141 L31 204 Q75 229 140 229 Q198 229 229.5 207 Q261 185 261 149 Q261 116 238 92.5 Q215 69 178 60 Q210 53 230 31 Q250 9 250 -22 Q250 -73 206 -107 Q162 -141 83 -141 Q13 -141 -25 -112 L-14 -46 Z " />
<glyph glyph-name="four.inferior" unicode="&#x2084;" horiz-adv-x="356" d="M144 -130 L153 -67 L-31 -67 L-22 -12 L207 226 L264 226 L227 -10 L284 -10 L275 -67 L218 -67 L208 -130 L144 -130 Z M188 135 L48 -10 L164 -10 L188 135 Z " />
<glyph glyph-name="five.inferior" unicode="&#x2085;" horiz-adv-x="325" d="M-12 -53 Q9 -68 32.5 -75 Q56 -82 88 -82 Q127 -82 154.5 -63.5 Q182 -45 182 -13 Q182 12 161.5 27 Q141 42 101 42 Q54 42 10 30 L40 222 L260 222 L251 165 L95 165 L83 91 Q101 95 135 95 Q181 95 214.5 66.5 Q248 38 248 -7 Q248 -68 203 -104.5 Q158 -141 87 -141 Q49 -141 23.5 -135 Q-2 -129 -23 -117 L-12 -53 Z " />
<glyph glyph-name="six.inferior" unicode="&#x2086;" horiz-adv-x="353" d="M-21 -30 Q-21 46 35 110.5 Q91 175 164 222 L261 222 Q185 180 147 148 Q108 117 77 74 Q108 95 152 95 Q205 95 242 67 Q279 39 279 -7 Q279 -44 258 -74.5 Q237 -105 198.5 -123 Q160 -141 109 -141 Q49 -141 14 -110.5 Q-21 -80 -21 -30 Z M119 -86 Q158 -86 186 -65.5 Q214 -45 214 -15 Q214 10 193 27 Q172 44 139 44 Q100 44 72.5 23.5 Q45 3 45 -28 Q45 -54 65.5 -70 Q86 -86 119 -86 Z " />
<glyph glyph-name="seven.inferior" unicode="&#x2087;" horiz-adv-x="314" d="M-11 -130 L202 165 L11 165 L20 222 L295 222 L289 184 L62 -130 L-11 -130 Z " />
<glyph glyph-name="eight.inferior" unicode="&#x2088;" horiz-adv-x="358" d="M275 -19 Q275 -72 231 -106.5 Q187 -141 112 -141 Q50 -141 16.5 -116 Q-17 -91 -17 -49 Q-17 -10 6 17.5 Q29 45 71 58 Q47 67 34.5 84.5 Q22 102 22 125 Q22 171 63.5 200 Q105 229 171 229 Q225 229 257 207 Q289 185 289 149 Q289 117 268.5 93 Q248 69 214 58 Q244 48 259.5 28 Q275 8 275 -19 Z M87 121 Q87 102 103.5 89.5 Q120 77 146 77 Q177 77 199 93 Q221 109 221 132 Q221 151 204.5 162.5 Q188 174 161 174 Q130 174 108.5 159 Q87 144 87 121 Z M53 -35 Q53 -58 71.5 -72 Q90 -86 121 -86 Q157 -86 182 -67.5 Q207 -49 207 -21 Q207 2 188.5 16 Q170 30 139 30 Q103 30 78 11.5 Q53 -7 53 -35 Z " />
<glyph glyph-name="nine.inferior" unicode="&#x2089;" horiz-adv-x="353" d="M293 118 Q293 41 238 -23 Q183 -87 109 -134 L12 -134 Q83 -95 126 -60 Q164 -30 196 13 Q165 -7 120 -7 Q67 -7 30.5 21 Q-6 49 -6 95 Q-6 131 15 162 Q36 193 74.5 211 Q113 229 163 229 Q223 229 258 198.5 Q293 168 293 118 Z M154 173 Q115 173 87 153 Q59 133 59 103 Q59 77 80 60.5 Q101 44 134 44 Q173 44 200.5 64.5 Q228 85 228 116 Q228 141 207 157 Q186 173 154 173 Z " />
<glyph glyph-name="zero.superior" unicode="&#x2070;" horiz-adv-x="359" d="M63 477 Q63 557 90.5 607.5 Q118 658 159.5 680.5 Q201 703 246 703 Q297 703 332 669 Q367 635 367 560 Q367 477 339 426.5 Q311 376 269.5 354.5 Q228 333 185 333 Q134 333 98.5 367 Q63 401 63 477 Z M300 549 Q300 595 282 619 Q264 643 235 643 Q208 643 183.5 625.5 Q159 608 144 573 Q129 538 129 487 Q129 440 147.5 416.5 Q166 393 196 393 Q222 393 246 410.5 Q270 428 285 463 Q300 498 300 549 Z " />
<glyph glyph-name="onesuperior" unicode="&#xb9;" horiz-adv-x="329" d="M306 344 L51 344 L60 401 L154 401 L188 618 L105 590 L114 653 L237 696 L267 696 L221 401 L315 401 L306 344 Z " />
<glyph glyph-name="twosuperior" unicode="&#xb2;" horiz-adv-x="322" d="M187 500 Q229 536 247.5 557 Q266 578 266 599 Q266 619 249 631.5 Q232 644 203 644 Q146 644 92 601 L102 666 Q154 703 225 703 Q280 703 309 679.5 Q338 656 338 618 Q338 592 328.5 572 Q319 552 302 535 Q285 518 251 487 L234 472 L158 405 L318 405 L308 344 L46 344 L52 382 L187 500 Z " />
<glyph glyph-name="threesuperior" unicode="&#xb3;" horiz-adv-x="324" d="M61 428 Q84 409 107.5 400 Q131 391 164 391 Q207 391 231.5 409 Q256 427 256 453 Q256 475 235 489 Q214 503 173 503 L143 503 L151 553 L180 553 Q216 553 239.5 567 Q263 581 263 605 Q263 624 247.5 635 Q232 646 199 646 Q143 646 96 615 L106 678 Q150 703 215 703 Q273 703 304.5 681 Q336 659 336 623 Q336 590 313 566.5 Q290 543 253 534 Q285 527 305 505 Q325 483 325 452 Q325 401 281 367 Q237 333 158 333 Q88 333 50 362 L61 428 Z " />
<glyph glyph-name="four.superior" unicode="&#x2074;" horiz-adv-x="356" d="M219 344 L228 407 L44 407 L53 462 L282 700 L339 700 L302 464 L359 464 L350 407 L293 407 L283 344 L219 344 Z M263 609 L123 464 L239 464 L263 609 Z " />
<glyph glyph-name="five.superior" unicode="&#x2075;" horiz-adv-x="325" d="M63 421 Q84 406 107.5 399 Q131 392 163 392 Q202 392 229.5 410.5 Q257 429 257 461 Q257 486 236.5 501 Q216 516 176 516 Q129 516 85 504 L115 696 L335 696 L326 639 L170 639 L158 565 Q176 569 210 569 Q256 569 289.5 540.5 Q323 512 323 467 Q323 406 278 369.5 Q233 333 162 333 Q124 333 98.5 339 Q73 345 52 357 L63 421 Z " />
<glyph glyph-name="six.superior" unicode="&#x2076;" horiz-adv-x="353" d="M54 444 Q54 520 110 584.5 Q166 649 239 696 L336 696 Q260 654 222 622 Q183 591 152 548 Q183 569 227 569 Q280 569 317 541 Q354 513 354 467 Q354 430 333 399.5 Q312 369 273.5 351 Q235 333 184 333 Q124 333 89 363.5 Q54 394 54 444 Z M194 388 Q233 388 261 408.5 Q289 429 289 459 Q289 484 268 501 Q247 518 214 518 Q175 518 147.5 497.5 Q120 477 120 446 Q120 420 140.5 404 Q161 388 194 388 Z " />
<glyph glyph-name="seven.superior" unicode="&#x2077;" horiz-adv-x="314" d="M64 344 L277 639 L86 639 L95 696 L370 696 L364 658 L137 344 L64 344 Z " />
<glyph glyph-name="eight.superior" unicode="&#x2078;" horiz-adv-x="358" d="M351 455 Q351 402 307 367.5 Q263 333 188 333 Q126 333 92.5 358 Q59 383 59 425 Q59 464 82 491.5 Q105 519 147 532 Q123 541 110.5 558.5 Q98 576 98 599 Q98 645 139.5 674 Q181 703 247 703 Q301 703 333 681 Q365 659 365 623 Q365 591 344.5 567 Q324 543 290 532 Q320 522 335.5 502 Q351 482 351 455 Z M163 595 Q163 576 179.5 563.5 Q196 551 222 551 Q253 551 275 567 Q297 583 297 606 Q297 625 280.5 636.5 Q264 648 237 648 Q206 648 184.5 633 Q163 618 163 595 Z M129 439 Q129 416 147.5 402 Q166 388 197 388 Q233 388 258 406.5 Q283 425 283 453 Q283 476 264.5 490 Q246 504 215 504 Q179 504 154 485.5 Q129 467 129 439 Z " />
<glyph glyph-name="nine.superior" unicode="&#x2079;" horiz-adv-x="353" d="M367 592 Q367 515 312 451 Q257 387 183 340 L86 340 Q157 379 200 414 Q238 444 270 487 Q239 467 194 467 Q141 467 104.5 495 Q68 523 68 569 Q68 605 89 636 Q110 667 148.5 685 Q187 703 237 703 Q297 703 332 672.5 Q367 642 367 592 Z M228 647 Q189 647 161 627 Q133 607 133 577 Q133 551 154 534.5 Q175 518 208 518 Q247 518 274.5 538.5 Q302 559 302 590 Q302 615 281 631 Q260 647 228 647 Z " />
<glyph glyph-name="asterisk" unicode="&#x2a;" horiz-adv-x="422" d="M406 460 L362 401 L267 467 L250 340 L181 340 L205 467 L88 401 L63 460 L183 520 L82 581 L126 641 L222 574 L238 701 L307 701 L283 574 L401 641 L425 581 L305 521 L406 460 Z " />
<glyph glyph-name="backslash" unicode="&#x5c;" horiz-adv-x="399" d="M154 721 L341 -114 L263 -114 L75 721 L154 721 Z " />
<glyph glyph-name="middot" unicode="&#xb7;" horiz-adv-x="250" d="M106 202 Q83 202 68 218 Q53 234 53 257 Q53 285 75 306 Q97 327 126 327 Q148 327 163 311.5 Q178 296 178 273 Q178 245 156 223.5 Q134 202 106 202 Z " />
<glyph glyph-name="bullet" unicode="&#x2022;" horiz-adv-x="419" d="M70 285 Q70 327 93 363.5 Q116 400 153.5 422 Q191 444 232 444 Q283 444 317.5 408.5 Q352 373 352 321 Q352 280 328.5 243.5 Q305 207 267 185.5 Q229 164 188 164 Q137 164 103.5 199 Q70 234 70 285 Z " />
<glyph glyph-name="colon" unicode="&#x3a;" horiz-adv-x="251" d="M73 -12 Q50 -12 35 3.5 Q20 19 20 42 Q20 71 41.5 92 Q63 113 92 113 Q115 113 130 97 Q145 81 145 58 Q145 30 123 9 Q101 -12 73 -12 Z M131 356 Q108 356 93 371.5 Q78 387 78 410 Q78 439 99.5 460 Q121 481 150 481 Q173 481 188 465 Q203 449 203 426 Q203 398 181 377 Q159 356 131 356 Z " />
<glyph glyph-name="comma" unicode="&#x2c;" horiz-adv-x="261" d="M99 113 Q123 113 138 96 Q153 79 153 50 Q153 -11 115 -66 Q77 -121 10 -149 L20 -82 Q42 -68 53 -53 Q64 -38 70 -12 Q51 -6 40 9.5 Q29 25 29 46 Q29 73 49 93 Q69 113 99 113 Z " />
<glyph glyph-name="ellipsis" unicode="&#x2026;" horiz-adv-x="722" d="M72 -12 Q49 -12 34 3.5 Q19 19 19 42 Q19 71 40.5 92 Q62 113 91 113 Q114 113 129 97 Q144 81 144 58 Q144 30 122 9 Q100 -12 72 -12 Z M308 -12 Q285 -12 270 3.5 Q255 19 255 42 Q255 71 276.5 92 Q298 113 327 113 Q350 113 365 97 Q380 81 380 58 Q380 30 358 9 Q336 -12 308 -12 Z M544 -12 Q521 -12 506 3.5 Q491 19 491 42 Q491 71 512.5 92 Q534 113 563 113 Q586 113 601 97 Q616 81 616 58 Q616 30 594 9 Q572 -12 544 -12 Z " />
<glyph glyph-name="exclam" unicode="&#x21;" horiz-adv-x="263" d="M76 190 L144 690 L242 690 L153 190 L76 190 Z M83 -12 Q60 -12 45 3.5 Q30 19 30 42 Q30 71 51.5 92 Q73 113 102 113 Q125 113 140 97 Q155 81 155 58 Q155 30 133 9 Q111 -12 83 -12 Z " />
<glyph glyph-name="exclamdown" unicode="&#xa1;" horiz-adv-x="263" d="M153 495 Q176 495 191 479.5 Q206 464 206 441 Q206 412 184.5 391 Q163 370 134 370 Q111 370 96 385.5 Q81 401 81 424 Q81 452 103 473.5 Q125 495 153 495 Z M160 292 L92 -207 L-6 -207 L83 292 L160 292 Z " />
<glyph glyph-name="numbersign" unicode="&#x23;" horiz-adv-x="639" d="M509 417 L451 260 L569 260 L547 200 L430 200 L355 0 L284 0 L358 200 L187 200 L111 0 L40 0 L116 200 L0 200 L22 260 L138 260 L197 417 L80 417 L102 477 L219 477 L295 682 L366 682 L290 477 L460 477 L537 682 L608 682 L531 477 L648 477 L624 417 L509 417 Z M380 260 L438 417 L268 417 L209 260 L380 260 Z " />
<glyph glyph-name="overline" unicode="&#x203e;" horiz-adv-x="452" d="M541 810 L530 740 L78 740 L89 810 L541 810 Z " />
<glyph glyph-name="period" unicode="&#x2e;" horiz-adv-x="250" d="M72 -12 Q49 -12 34 3.5 Q19 19 19 42 Q19 71 40.5 92 Q62 113 91 113 Q114 113 129 97 Q144 81 144 58 Q144 30 122 9 Q100 -12 72 -12 Z " />
<glyph glyph-name="question" unicode="&#x3f;" horiz-adv-x="459" d="M280 704 Q362 704 406.5 662 Q451 620 451 550 Q451 500 435 465 Q419 430 393 404 Q367 378 312 333 Q263 292 245.5 261.5 Q228 231 220 182 L142 182 Q152 246 169.5 283.5 Q187 321 235 364 L273 398 Q307 428 323 445 Q339 462 347.5 481.5 Q356 501 356 530 Q356 571 330 597 Q304 623 254 623 Q159 623 74 548 L89 646 Q173 704 280 704 Z M151 -12 Q128 -12 113 3.5 Q98 19 98 42 Q98 71 120 92 Q142 113 171 113 Q193 113 208 97 Q223 81 223 58 Q223 30 201.5 9 Q180 -12 151 -12 Z " />
<glyph glyph-name="questiondown" unicode="&#xbf;" horiz-adv-x="459" d="M287 495 Q310 495 325 479.5 Q340 464 340 441 Q340 412 318.5 391 Q297 370 268 370 Q245 370 230 385.5 Q215 401 215 424 Q215 452 237 473.5 Q259 495 287 495 Z M158 -221 Q76 -221 31.5 -179 Q-13 -137 -13 -67 Q-13 -17 3.5 18 Q20 53 45.5 78.5 Q71 104 127 150 Q176 191 193 221.5 Q210 252 218 300 L296 300 Q287 238 269 200.5 Q251 163 204 119 L166 85 Q132 55 116 38 Q100 21 91.5 1.5 Q83 -18 83 -47 Q83 -88 109 -114 Q135 -140 185 -140 Q279 -140 365 -65 L349 -163 Q270 -221 158 -221 Z " />
<glyph glyph-name="quotedbl" unicode="&#x22;" horiz-adv-x="374" d="M91 468 L120 690 L203 690 L162 468 L91 468 Z M256 468 L285 690 L368 690 L327 468 L256 468 Z " />
<glyph glyph-name="quotesingle" unicode="&#x27;" horiz-adv-x="209" d="M91 468 L120 690 L203 690 L162 468 L91 468 Z " />
<glyph glyph-name="semicolon" unicode="&#x3b;" horiz-adv-x="263" d="M131 356 Q108 356 93 371.5 Q78 387 78 410 Q78 439 99.5 460 Q121 481 150 481 Q173 481 188 465 Q203 449 203 426 Q203 398 181 377 Q159 356 131 356 Z M100 113 Q124 113 139 96 Q154 79 154 50 Q154 -11 116 -66 Q78 -121 11 -149 L21 -82 Q43 -68 54 -53 Q65 -38 71 -12 Q52 -6 41 9.5 Q30 25 30 46 Q30 73 50 93 Q70 113 100 113 Z " />
<glyph glyph-name="slash" unicode="&#x2f;" horiz-adv-x="399" d="M-69 -114 L382 721 L461 721 L9 -114 L-69 -114 Z " />
<glyph glyph-name="underscore" unicode="&#x5f;" horiz-adv-x="452" d="M406 -50 L394 -120 L-58 -120 L-46 -50 L406 -50 Z " />
<glyph glyph-name="braceleft" unicode="&#x7b;" horiz-adv-x="371" d="M370 671 Q332 669 307 648.5 Q282 628 277 591 L244 387 Q238 342 214.5 309.5 Q191 277 149 264 L149 262 Q207 241 207 167 Q207 152 204 132 L175 -51 Q173 -67 173 -74 Q173 -140 242 -143 L230 -215 Q157 -214 124 -184.5 Q91 -155 91 -97 Q91 -73 95 -50 L124 132 Q125 138 125 150 Q125 183 105.5 204.5 Q86 226 44 227 L56 299 Q104 301 130.5 325 Q157 349 163 386 L196 593 Q207 663 253.5 702.5 Q300 742 382 743 L370 671 Z " />
<glyph glyph-name="braceright" unicode="&#x7d;" horiz-adv-x="371" d="M125 743 Q196 742 231.5 712 Q267 682 267 627 Q267 611 264 593 L231 386 Q229 374 229 368 Q229 338 249.5 319.5 Q270 301 311 299 L300 227 Q252 226 225 198.5 Q198 171 191 132 L162 -50 Q149 -133 103 -173.5 Q57 -214 -25 -215 L-14 -143 Q66 -140 82 -51 L110 132 Q126 236 207 262 L207 264 Q147 285 147 356 Q147 371 150 387 L183 591 Q184 597 184 608 Q184 637 166 653 Q148 669 114 671 L125 743 Z " />
<glyph glyph-name="bracketleft" unicode="&#x5b;" horiz-adv-x="364" d="M112 -142 L238 -142 L227 -215 L20 -215 L171 743 L378 743 L366 670 L240 670 L112 -142 Z " />
<glyph glyph-name="bracketright" unicode="&#x5d;" horiz-adv-x="364" d="M234 670 L108 670 L119 743 L326 743 L175 -215 L-32 -215 L-20 -142 L106 -142 L234 670 Z " />
<glyph glyph-name="parenleft" unicode="&#x28;" horiz-adv-x="371" d="M166 -215 Q120 -140 95.5 -35.5 Q71 69 71 169 Q71 316 137 469 Q203 622 317 743 L406 743 Q288 616 223 462.5 Q158 309 158 163 Q158 63 182 -39.5 Q206 -142 252 -215 L166 -215 Z " />
<glyph glyph-name="uni208D" unicode="&#x208d;" horiz-adv-x="201" d="M46 -168 Q24 -131 11 -82.5 Q-2 -34 -2 12 Q-2 76 29 141.5 Q60 207 111 265 L172 265 Q121 210 89 143.5 Q57 77 57 11 Q57 -36 69.5 -84.5 Q82 -133 104 -168 L46 -168 Z " />
<glyph glyph-name="parenleftsuperior" unicode="&#x207d;" horiz-adv-x="201" d="M121 306 Q99 343 86 391.5 Q73 440 73 486 Q73 550 104 615.5 Q135 681 186 739 L247 739 Q196 684 164 617.5 Q132 551 132 485 Q132 438 144.5 389.5 Q157 341 179 306 L121 306 Z " />
<glyph glyph-name="parenright" unicode="&#x29;" horiz-adv-x="371" d="M-54 -215 Q63 -91 129 64 Q195 219 195 365 Q195 464 170.5 566.5 Q146 669 101 743 L186 743 Q232 667 257 563 Q282 459 282 359 Q282 212 215.5 57.5 Q149 -97 35 -215 L-54 -215 Z " />
<glyph glyph-name="uni208E" unicode="&#x208e;" horiz-adv-x="201" d="M79 265 Q101 228 114 179 Q127 130 127 84 Q127 20 96.5 -45.5 Q66 -111 14 -168 L-47 -168 Q4 -113 36 -46.5 Q68 20 68 86 Q68 133 55.5 181.5 Q43 230 21 265 L79 265 Z " />
<glyph glyph-name="parenrightsuperior" unicode="&#x207e;" horiz-adv-x="201" d="M154 740 Q176 703 189 654 Q202 605 202 559 Q202 495 171.5 429.5 Q141 364 89 307 L28 307 Q79 362 111 428.5 Q143 495 143 561 Q143 608 130.5 656.5 Q118 705 96 740 L154 740 Z " />
<glyph glyph-name="emdash" unicode="&#x2014;" horiz-adv-x="899" d="M825 301 L814 229 L57 229 L69 301 L825 301 Z " />
<glyph glyph-name="endash" unicode="&#x2013;" horiz-adv-x="592" d="M518 300 L507 230 L57 230 L69 300 L518 300 Z " />
<glyph glyph-name="uni2015" unicode="&#x2015;" horiz-adv-x="813" d="M700 296 L691 232 L94 232 L103 296 L700 296 Z " />
<glyph glyph-name="hyphen" unicode="&#x2d;" horiz-adv-x="449" d="M375 300 L364 230 L57 230 L69 300 L375 300 Z " />
<glyph glyph-name="uni00AD" unicode="&#xad;" horiz-adv-x="449" d="M375 300 L364 230 L57 230 L69 300 L375 300 Z " />
<glyph glyph-name="guillemotleft" unicode="&#xab;" horiz-adv-x="476" d="M194 52 L115 52 L49 235 L173 420 L251 420 L133 235 L194 52 Z M371 52 L291 52 L225 235 L349 420 L428 420 L309 235 L371 52 Z " />
<glyph glyph-name="guillemotright" unicode="&#xbb;" horiz-adv-x="476" d="M146 236 L84 420 L164 420 L230 236 L106 52 L27 52 L146 236 Z M322 236 L261 420 L340 420 L406 236 L282 52 L204 52 L322 236 Z " />
<glyph glyph-name="guilsinglleft" unicode="&#x2039;" horiz-adv-x="299" d="M133 235 L194 52 L115 52 L49 235 L173 420 L251 420 L133 235 Z " />
<glyph glyph-name="guilsinglright" unicode="&#x203a;" horiz-adv-x="299" d="M145 236 L84 420 L163 420 L229 236 L105 52 L26 52 L145 236 Z " />
<glyph glyph-name="quotedblbase" unicode="&#x201e;" horiz-adv-x="445" d="M99 113 Q123 113 138 96 Q153 79 153 50 Q153 -11 115 -66 Q77 -121 10 -149 L20 -82 Q42 -68 53 -53 Q64 -38 70 -12 Q51 -6 40 9.5 Q29 25 29 46 Q29 73 49 93 Q69 113 99 113 Z M283 113 Q307 113 322 96 Q337 79 337 50 Q337 -11 299 -66 Q261 -121 194 -149 L204 -82 Q226 -68 237 -53 Q248 -38 254 -12 Q235 -6 224 9.5 Q213 25 213 46 Q213 73 233 93 Q253 113 283 113 Z " />
<glyph glyph-name="quotedblleft" unicode="&#x201c;" horiz-adv-x="445" d="M158 442 Q134 442 118.5 459 Q103 476 103 505 Q103 566 141 621 Q179 676 246 704 L236 637 Q215 623 204 608 Q193 593 186 567 Q206 561 217 546 Q228 531 228 509 Q228 483 207.5 462.5 Q187 442 158 442 Z M341 442 Q317 442 302 459 Q287 476 287 505 Q287 566 325 621 Q363 676 430 704 L420 637 Q398 623 387 608 Q376 593 370 567 Q390 561 400.5 546 Q411 531 411 509 Q411 483 391 462.5 Q371 442 341 442 Z " />
<glyph glyph-name="quotedblright" unicode="&#x201d;" horiz-adv-x="445" d="M192 704 Q216 704 231 687 Q246 670 246 641 Q246 580 208 525 Q170 470 103 442 L113 509 Q135 523 146 538 Q157 553 163 579 Q144 585 133 600.5 Q122 616 122 637 Q122 664 142 684 Q162 704 192 704 Z M376 704 Q400 704 415 687 Q430 670 430 641 Q430 580 392 525 Q354 470 287 442 L297 509 Q319 523 330 538 Q341 553 347 579 Q328 585 317 600.5 Q306 616 306 637 Q306 664 326 684 Q346 704 376 704 Z " />
<glyph glyph-name="quotedblrightreversed" unicode="&#x201f;" horiz-adv-x="443" d="M198 704 Q224 704 239 688.5 Q254 673 254 648 Q254 639 253 634 Q249 612 230.5 595.5 Q212 579 186 578 Q177 563 177 544 Q179 520 194 507 L180 444 Q146 462 128 493 Q110 524 110 566 Q110 618 132.5 661 Q155 704 198 704 Z M380 704 Q406 704 421 688.5 Q436 673 436 648 Q436 639 435 634 Q431 612 412.5 595.5 Q394 579 368 578 Q359 563 359 544 Q361 520 376 507 L362 444 Q328 462 310 493 Q292 524 292 566 Q292 618 314.5 661 Q337 704 380 704 Z " />
<glyph glyph-name="quoteleft" unicode="&#x2018;" horiz-adv-x="261" d="M149 442 Q125 442 109.5 459 Q94 476 94 505 Q94 566 132.5 621 Q171 676 238 704 L227 637 Q206 623 195 608 Q184 593 177 567 Q197 561 208 546 Q219 531 219 509 Q219 483 199 462.5 Q179 442 149 442 Z " />
<glyph glyph-name="quotereversed" unicode="&#x201b;" horiz-adv-x="261" d="M198 704 Q224 704 239 688.5 Q254 673 254 648 Q254 639 253 634 Q249 612 230.5 595.5 Q212 579 186 578 Q177 563 177 544 Q179 520 194 507 L180 444 Q146 462 128 493 Q110 524 110 566 Q110 618 132.5 661 Q155 704 198 704 Z " />
<glyph glyph-name="quoteright" unicode="&#x2019;" horiz-adv-x="261" d="M192 704 Q216 704 231.5 687 Q247 670 247 641 Q247 580 209 525.5 Q171 471 104 442 L114 509 Q135 523 146 538 Q157 553 164 579 Q144 585 133 600 Q122 615 122 637 Q122 664 142 684 Q162 704 192 704 Z " />
<glyph glyph-name="quotesinglbase" unicode="&#x201a;" horiz-adv-x="261" d="M99 113 Q123 113 138 96 Q153 79 153 50 Q153 -11 115 -66 Q77 -121 10 -149 L20 -82 Q42 -68 53 -53 Q64 -38 70 -12 Q51 -6 40 9.5 Q29 25 29 46 Q29 73 49 93 Q69 113 99 113 Z " />
<glyph glyph-name="uni00A0" unicode="&#xa0;" horiz-adv-x="243" d="" />
<glyph glyph-name="zerowidthspace" unicode="&#x200b;" d="" />
<glyph glyph-name="uni200D" unicode="&#x200d;" horiz-adv-x="600" d="" />
<glyph glyph-name="uni200C" unicode="&#x200c;" horiz-adv-x="600" d="" />
<glyph glyph-name="baht" unicode="&#xe3f;" horiz-adv-x="600" d="M402 362 Q467 354 502.5 315.5 Q538 277 538 218 Q538 115 465 57.5 Q392 0 264 0 L263 0 L251 -75 L188 -75 L200 0 L30 0 L139 690 L308 690 L316 740 L380 740 L372 690 Q464 687 508 652 Q552 617 552 547 Q552 474 511.5 427 Q471 380 402 362 Z M261 390 L297 618 L209 618 L173 390 L261 390 Z M464 529 Q464 573 439.5 595 Q415 617 361 618 L325 391 Q388 395 426 433 Q464 471 464 529 Z M250 319 L161 319 L123 73 L211 73 L250 319 Z M290 73 Q365 73 408 110.5 Q451 148 451 214 Q451 263 416.5 291 Q382 319 319 319 L313 319 L274 73 L290 73 Z " />
<glyph glyph-name="cent" unicode="&#xa2;" horiz-adv-x="487" d="M357 603 Q430 598 478 560 L463 469 Q417 518 344 523 L287 163 Q325 166 362 181 Q399 196 428 222 L414 130 Q351 88 274 83 L261 -1 L190 -1 L204 87 Q130 104 84 165 Q38 226 38 307 Q38 378 67.5 441 Q97 504 153 547 Q209 590 286 601 L296 666 L367 666 L357 603 Z M131 313 Q131 262 153.5 225 Q176 188 218 173 L272 515 Q208 495 169.5 438.5 Q131 382 131 313 Z " />
<glyph glyph-name="currency" unicode="&#xa4;" horiz-adv-x="574" d="M118 239 Q96 283 96 330 Q96 366 111 402 Q126 438 154 469 L97 535 L149 581 L206 515 Q264 552 327 552 Q356 552 385.5 542.5 Q415 533 437 515 L515 581 L553 535 L475 469 Q486 450 491.5 426 Q497 402 497 380 Q497 309 439 239 L496 174 L444 128 L387 194 Q330 157 265 157 Q237 157 207.5 166 Q178 175 155 194 L78 128 L40 174 L118 239 Z M431 372 Q431 422 397.5 455 Q364 488 318 488 Q277 488 240.5 467 Q204 446 182.5 411.5 Q161 377 161 338 Q161 289 193.5 255 Q226 221 275 221 Q314 221 350.5 242 Q387 263 409 298 Q431 333 431 372 Z " />
<glyph glyph-name="dollar" unicode="&#x24;" horiz-adv-x="574" d="M511 526 Q444 580 368 590 L338 395 Q422 364 459.5 324 Q497 284 497 227 Q497 142 438 86 Q379 30 279 20 L264 -75 L193 -75 L208 19 Q153 22 115 36 Q77 50 45 76 L60 173 Q133 109 221 100 L257 331 Q176 362 139 399.5 Q102 437 102 489 Q102 565 159.5 615 Q217 665 310 673 L321 740 L392 740 L381 672 Q472 663 526 618 L511 526 Z M186 499 Q186 476 204.5 458.5 Q223 441 271 421 L297 590 Q243 584 214.5 559.5 Q186 535 186 499 Z M409 215 Q409 245 390 265 Q371 285 324 305 L292 102 Q351 109 380 139 Q409 169 409 215 Z " />
<glyph glyph-name="Euro" unicode="&#x20ac;" horiz-adv-x="574" d="M418 703 Q474 703 507 687.5 Q540 672 571 641 L555 540 Q528 579 495 599.5 Q462 620 410 620 Q348 620 293 571 Q238 522 209 429 L451 429 L443 373 L195 373 Q191 353 188 320 L187 306 L432 306 L423 250 L184 250 Q186 159 223 110 Q260 61 317 61 Q372 61 412.5 82 Q453 103 492 142 L476 40 Q435 9 396.5 -6.5 Q358 -22 299 -22 Q203 -22 145.5 48.5 Q88 119 87 250 L38 250 L47 306 L88 306 Q92 352 96 373 L57 373 L66 429 L108 429 Q142 560 225 631.5 Q308 703 418 703 Z " />
<glyph glyph-name="florin" unicode="&#x192;" horiz-adv-x="568" d="M-31 -175 Q-13 -181 16 -181 Q51 -181 74 -162 Q97 -143 111 -99 L271 407 L196 407 L208 482 L294 482 L315 547 Q340 630 385.5 667 Q431 704 497 704 Q531 704 559 697 L547 622 Q526 628 501 628 Q465 628 442 608.5 Q419 589 404 545 L384 482 L470 482 L459 407 L361 407 L202 -97 Q175 -181 131 -219 Q87 -257 19 -257 Q-21 -257 -43 -250 L-31 -175 Z " />
<glyph glyph-name="franc" unicode="&#x20a3;" horiz-adv-x="499" d="M189 382 L426 382 L415 305 L178 305 L163 211 L296 211 L286 149 L153 149 L129 0 L34 0 L58 149 L-17 149 L-8 211 L67 211 L143 690 L542 690 L529 608 L225 608 L189 382 Z " />
<glyph glyph-name="lira" unicode="&#x20a4;" horiz-adv-x="603" d="M408 704 Q516 704 576 646 L561 548 Q501 623 403 623 Q335 623 298 593 Q261 563 254 516 L242 445 L438 445 L429 383 L233 383 L219 298 L415 298 L406 236 L210 236 L185 81 L493 81 L480 0 L10 0 L23 80 L90 80 L115 236 L47 236 L57 298 L125 298 L138 383 L70 383 L80 445 L147 445 L161 529 Q173 606 239 655 Q305 704 408 704 Z " />
<glyph glyph-name="uni20BA" unicode="&#x20ba;" horiz-adv-x="621" d="M563 293 Q538 141 454.5 70.5 Q371 0 250 0 L73 0 L105 203 L32 157 L45 236 L118 282 L126 338 L53 292 L66 371 L139 417 L182 690 L277 690 L244 483 L397 579 L385 499 L231 403 L223 348 L375 444 L363 364 L210 268 L180 81 L263 81 Q353 81 401.5 134 Q450 187 465 279 L471 312 L566 312 L563 293 Z " />
<glyph glyph-name="peseta" unicode="&#x20a7;" horiz-adv-x="1298" d="M844 488 L832 411 L715 411 L675 162 Q672 145 672 132 Q672 66 733 66 Q754 66 780 74 L769 0 Q754 -4 738.5 -6.5 Q723 -9 705 -9 Q644 -9 612.5 23 Q581 55 581 114 Q581 126 585 156 L625 411 L556 411 Q531 333 463 289 Q395 245 283 245 L163 245 L124 0 L29 0 L138 690 L348 690 Q458 690 513.5 640 Q569 590 569 504 L569 488 L638 488 L662 644 L752 644 L727 488 L844 488 Z M293 322 Q384 322 427.5 370.5 Q471 419 471 493 Q471 547 437 580 Q403 613 334 613 L221 613 L175 322 L293 322 Z M1112 503 Q1207 503 1259 454 L1247 373 Q1220 401 1182 415.5 Q1144 430 1101 430 Q1058 430 1031 410 Q1004 390 1004 359 Q1004 332 1028 317 Q1052 302 1114 280 Q1176 257 1206.5 229 Q1237 201 1237 152 Q1237 75 1182.5 29.5 Q1128 -16 1038 -16 Q988 -16 943.5 1 Q899 18 872 46 L886 133 Q916 96 958.5 77 Q1001 58 1045 58 Q1093 58 1120 79 Q1147 100 1147 137 Q1147 165 1124.5 181 Q1102 197 1050 216 Q979 242 946.5 270 Q914 298 914 346 Q914 392 940 428 Q966 464 1011 483.5 Q1056 503 1112 503 Z " />
<glyph glyph-name="uni20B1" unicode="&#x20b1;" horiz-adv-x="566" d="M562 499 Q562 470 555 435 L610 435 L602 388 L540 388 Q512 320 446 282.5 Q380 245 277 245 L157 245 L118 0 L23 0 L84 388 L17 388 L25 435 L92 435 L102 499 L35 499 L43 549 L110 549 L132 690 L342 690 Q436 690 490.5 652.5 Q545 615 558 549 L628 549 L621 499 L562 499 Z M453 549 Q423 613 328 613 L215 613 L205 549 L453 549 Z M464 499 L197 499 L187 435 L457 435 Q464 460 464 493 L464 499 Z M286 322 Q389 322 435 388 L179 388 L169 322 L286 322 Z " />
<glyph glyph-name="uni20BD" unicode="&#x20bd;" horiz-adv-x="547" d="M164 192 L298 192 L288 130 L155 130 L134 0 L39 0 L60 130 L-16 130 L-6 192 L69 192 L80 260 L5 260 L17 337 L92 337 L148 690 L343 690 Q449 690 508 644 Q567 598 567 510 Q567 396 493.5 328 Q420 260 270 260 L175 260 L164 192 Z M292 337 Q383 337 425.5 382.5 Q468 428 468 497 Q468 550 434 581.5 Q400 613 331 613 L231 613 L187 337 L292 337 Z " />
<glyph glyph-name="uni20B9" unicode="&#x20b9;" horiz-adv-x="574" d="M451 626 Q489 583 489 514 L489 511 L549 511 L539 447 L481 447 Q462 367 393.5 320 Q325 273 207 270 L435 0 L308 0 L86 270 L98 347 L215 347 Q286 347 327 374 Q368 401 383 447 L114 447 L124 511 L391 511 Q387 557 352.5 585 Q318 613 252 613 L140 613 L142 626 L152 690 L576 690 L567 626 L451 626 Z " />
<glyph glyph-name="uni20AA" unicode="&#x20aa;" horiz-adv-x="723" d="M342 570 Q417 570 453.5 536 Q490 502 490 427 Q490 398 484 362 L458 198 L393 198 L419 362 Q423 385 423 410 Q423 454 402.5 477.5 Q382 501 336 501 L187 501 L108 0 L32 0 L122 570 L342 570 Z M326 372 L278 69 L427 69 Q484 69 513.5 104 Q543 139 553 208 L611 570 L686 570 L629 208 Q612 100 557 50 Q502 0 411 0 L202 0 L260 372 L326 372 Z " />
<glyph glyph-name="sterling" unicode="&#xa3;" horiz-adv-x="603" d="M418 704 Q526 704 586 646 L571 548 Q511 623 413 623 Q345 623 308 593 Q271 563 263 516 L243 388 L439 388 L428 319 L232 319 L195 81 L502 81 L490 0 L20 0 L32 80 L100 80 L137 319 L70 319 L81 388 L148 388 L171 529 Q183 606 249 655 Q315 704 418 704 Z " />
<glyph glyph-name="yen" unicode="&#xa5;" horiz-adv-x="564" d="M512 332 L501 266 L322 266 L312 200 L491 200 L480 134 L301 134 L280 0 L185 0 L206 134 L27 134 L37 200 L217 200 L227 266 L48 266 L58 332 L205 332 L68 690 L169 690 L260 439 Q278 392 287 358 L291 358 Q312 399 337 436 L508 690 L613 690 L364 332 L512 332 Z " />
<glyph glyph-name="Omega" unicode="&#x2126;" horiz-adv-x="760" d="M190 82 L192 97 Q122 130 85 193.5 Q48 257 48 336 Q48 438 98 522.5 Q148 607 238 655.5 Q328 704 442 704 Q533 704 598.5 666 Q664 628 698 564 Q732 500 732 424 Q732 348 701.5 282 Q671 216 618 168 Q565 120 500 98 L497 82 L679 82 L666 0 L397 0 L417 133 Q480 150 528.5 190 Q577 230 604.5 287.5 Q632 345 632 412 Q632 472 607 519 Q582 566 535.5 592.5 Q489 619 427 619 Q351 619 286.5 582 Q222 545 184 480.5 Q146 416 146 335 Q146 260 183.5 206 Q221 152 286 133 L265 0 L-5 0 L8 82 L190 82 Z " />
<glyph glyph-name="approxequal" unicode="&#x2248;" horiz-adv-x="678" d="M631 393 Q591 351 548.5 326.5 Q506 302 454 302 Q395 302 339 339 Q284 377 239 377 Q177 377 118 309 L74 354 Q115 398 155.5 422 Q196 446 248 446 Q281 446 311 435.5 Q341 425 364 410 Q395 390 418 380.5 Q441 371 465 371 Q526 371 587 439 L631 393 Z M596 174 Q557 132 514.5 108 Q472 84 419 84 Q359 84 304 121 Q273 140 251 149 Q229 158 204 158 Q144 158 83 90 L39 136 Q81 179 121.5 203 Q162 227 213 227 Q273 227 329 191 Q386 153 430 153 Q492 153 552 220 L596 174 Z " />
<glyph glyph-name="asciitilde" unicode="&#x7e;" horiz-adv-x="592" d="M534 337 Q517 262 471 225.5 Q425 189 371 189 Q346 189 323.5 199.5 Q301 210 277 228 Q245 251 229 260.5 Q213 270 197 270 Q169 270 145.5 250.5 Q122 231 112 192 L47 192 Q63 267 109 303.5 Q155 340 209 340 Q234 340 255 330 Q276 320 304 301 Q310 297 327.5 284 Q345 271 358.5 264.5 Q372 258 384 258 Q412 258 435.5 278 Q459 298 468 337 L534 337 Z " />
<glyph glyph-name="uni2219" unicode="&#x2219;" horiz-adv-x="250" d="M106 202 Q83 202 68 218 Q53 234 53 257 Q53 285 75 306 Q97 327 126 327 Q148 327 163 311.5 Q178 296 178 273 Q178 245 156 223.5 Q134 202 106 202 Z " />
<glyph glyph-name="divide" unicode="&#xf7;" horiz-adv-x="592" d="M324 496 Q345 496 358.5 482 Q372 468 372 447 Q372 422 352 402.5 Q332 383 306 383 Q285 383 271.5 397 Q258 411 258 432 Q258 458 278 477 Q298 496 324 496 Z M57 230 L69 300 L518 300 L507 230 L57 230 Z M268 147 Q289 147 303 132.5 Q317 118 317 97 Q317 72 297 53 Q277 34 251 34 Q230 34 216.5 48 Q203 62 203 83 Q203 108 222.5 127.5 Q242 147 268 147 Z " />
<glyph glyph-name="uni2215" unicode="&#x2215;" horiz-adv-x="517" d="M-63 0 L511 690 L596 690 L21 0 L-63 0 Z " />
<glyph glyph-name="equal" unicode="&#x3d;" horiz-adv-x="593" d="M503 202 L492 132 L42 132 L54 202 L503 202 Z M534 398 L523 328 L73 328 L85 398 L534 398 Z " />
<glyph glyph-name="uni208C" unicode="&#x208c;" horiz-adv-x="363" d="M19 51 L27 99 L306 99 L298 51 L19 51 Z M-2 -77 L6 -29 L285 -29 L277 -77 L-2 -77 Z " />
<glyph glyph-name="equalsuperior" unicode="&#x207c;" horiz-adv-x="363" d="M77 525 L85 573 L364 573 L356 525 L77 525 Z M57 397 L65 445 L344 445 L336 397 L57 397 Z " />
<glyph glyph-name="greater" unicode="&#x3e;" horiz-adv-x="593" d="M508 234 L22 2 L34 79 L415 264 L415 266 L92 451 L105 527 L518 295 L508 234 Z " />
<glyph glyph-name="greaterequal" unicode="&#x2265;" horiz-adv-x="593" d="M524 334 L42 129 L54 206 L422 364 L422 366 L104 524 L116 600 L534 396 L524 334 Z M22 0 L33 70 L482 70 L471 0 L22 0 Z " />
<glyph glyph-name="increment" unicode="&#x2206;" horiz-adv-x="659" d="M596 0 L-40 0 L344 682 L435 682 L596 0 Z M398 442 Q376 538 370 575 L365 575 L293 437 L92 77 L484 77 L398 442 Z " />
<glyph glyph-name="infinity" unicode="&#x221e;" horiz-adv-x="842" d="M781 319 Q781 267 755.5 222.5 Q730 178 685 151.5 Q640 125 584 125 Q525 125 481.5 156.5 Q438 188 413 239 L411 239 Q369 189 315.5 157 Q262 125 207 125 Q138 125 98.5 164 Q59 203 59 265 Q59 319 84.5 363 Q110 407 155.5 432.5 Q201 458 257 458 Q318 458 360 426.5 Q402 395 428 344 L430 344 Q469 391 521 424.5 Q573 458 632 458 Q700 458 740.5 420 Q781 382 781 319 Z M385 292 Q363 338 327.5 366.5 Q292 395 252 395 Q196 395 164.5 359 Q133 323 133 274 Q133 236 157 212 Q181 188 220 188 Q262 188 304.5 216.5 Q347 245 385 292 Z M708 309 Q708 347 686 371 Q664 395 620 395 Q539 395 455 292 Q478 243 512 216 Q546 189 588 189 Q645 189 676.5 224.5 Q708 260 708 309 Z " />
<glyph glyph-name="integral" unicode="&#x222b;" horiz-adv-x="340" d="M349 704 Q388 704 417 695 L406 621 Q382 629 353 629 Q312 629 288.5 605.5 Q265 582 257 535 L164 -60 Q151 -139 105.5 -180.5 Q60 -222 -16 -222 Q-55 -222 -84 -213 L-73 -139 Q-49 -147 -20 -147 Q22 -147 45 -123.5 Q68 -100 76 -53 L169 541 Q182 620 227.5 662 Q273 704 349 704 Z " />
<glyph glyph-name="less" unicode="&#x3c;" horiz-adv-x="593" d="M76 295 L562 527 L550 450 L169 265 L169 263 L492 78 L479 2 L66 233 L76 295 Z " />
<glyph glyph-name="lessequal" unicode="&#x2264;" horiz-adv-x="614" d="M92 396 L574 600 L562 523 L194 365 L194 363 L512 205 L500 129 L83 333 L92 396 Z M30 0 L41 70 L491 70 L480 0 L30 0 Z " />
<glyph glyph-name="logicalnot" unicode="&#xac;" horiz-adv-x="592" d="M415 142 L443 318 L71 318 L83 389 L532 389 L493 142 L415 142 Z " />
<glyph glyph-name="mu" unicode="&#xb5;" horiz-adv-x="606" d="M477 156 Q474 141 474 127 Q474 98 487.5 83 Q501 68 526 68 Q544 68 559 72 L548 -2 Q525 -9 497 -9 Q411 -9 403 73 Q338 -17 246 -17 Q197 -17 162.5 7.5 Q128 32 118 76 L73 -211 L-13 -211 L97 488 L186 488 L144 223 Q141 207 141 189 Q141 134 168.5 99 Q196 64 247 64 Q307 64 347 110 Q387 156 398 223 L440 488 L529 488 L477 156 Z " />
<glyph glyph-name="minus" unicode="&#x2212;" horiz-adv-x="592" d="M518 300 L507 230 L57 230 L69 300 L518 300 Z " />
<glyph glyph-name="uni208B" unicode="&#x208b;" horiz-adv-x="362" d="M23 -13 L31 35 L310 35 L302 -13 L23 -13 Z " />
<glyph glyph-name="uni207B" unicode="&#x207b;" horiz-adv-x="362" d="M67 461 L75 509 L354 509 L346 461 L67 461 Z " />
<glyph glyph-name="multiply" unicode="&#xd7;" horiz-adv-x="470" d="M396 130 L339 82 L227 216 L70 79 L27 131 L184 268 L72 402 L128 450 L240 316 L395 451 L438 399 L283 265 L396 130 Z " />
<glyph glyph-name="notequal" unicode="&#x2260;" horiz-adv-x="593" d="M288 202 L503 202 L492 132 L240 132 L154 5 L78 5 L164 132 L42 132 L54 202 L212 202 L297 328 L73 328 L85 398 L345 398 L431 525 L508 525 L422 398 L534 398 L523 328 L374 328 L288 202 Z " />
<glyph glyph-name="partialdiff" unicode="&#x2202;" horiz-adv-x="583" d="M242 -17 Q178 -17 128.5 12 Q79 41 51.5 91.5 Q24 142 24 205 Q24 287 62.5 352.5 Q101 418 169.5 455.5 Q238 493 324 493 Q388 493 429 453 Q404 526 344.5 596 Q285 666 211 720 L321 720 Q411 656 477.5 548.5 Q544 441 544 306 Q544 213 506 139.5 Q468 66 399 24.5 Q330 -17 242 -17 Z M116 213 Q116 148 155.5 106 Q195 64 255 64 Q308 64 352.5 91.5 Q397 119 423 165.5 Q449 212 449 267 Q449 330 411 372 Q373 414 310 414 Q256 414 211.5 387 Q167 360 141.5 314 Q116 268 116 213 Z " />
<glyph glyph-name="percent" unicode="&#x25;" horiz-adv-x="803" d="M70 477 Q70 553 98.5 604 Q127 655 171.5 679 Q216 703 265 703 Q318 703 356 666.5 Q394 630 394 554 Q394 470 364 418.5 Q334 367 290.5 346 Q247 325 203 325 Q149 325 109.5 362 Q70 399 70 477 Z M92 0 L644 682 L715 682 L163 0 L92 0 Z M324 546 Q324 591 305 615.5 Q286 640 251 640 Q205 640 172 600 Q139 560 139 483 Q139 436 158.5 412 Q178 388 213 388 Q259 388 291.5 428.5 Q324 469 324 546 Z M418 131 Q418 207 447 258 Q476 309 520.5 333 Q565 357 614 357 Q667 357 704.5 321 Q742 285 742 209 Q742 125 711.5 73.5 Q681 22 637.5 0.5 Q594 -21 551 -21 Q497 -21 457.5 16 Q418 53 418 131 Z M673 200 Q673 246 654 270 Q635 294 600 294 Q553 294 520 254 Q487 214 487 136 Q487 87 506.5 63 Q526 39 560 39 Q589 39 615 57 Q641 75 657 111 Q673 147 673 200 Z " />
<glyph glyph-name="perthousand" unicode="&#x2030;" horiz-adv-x="1165" d="M70 477 Q70 553 98.5 604 Q127 655 171.5 679 Q216 703 265 703 Q318 703 356 666.5 Q394 630 394 554 Q394 470 364 418.5 Q334 367 290.5 346 Q247 325 203 325 Q149 325 109.5 362 Q70 399 70 477 Z M92 0 L644 682 L715 682 L163 0 L92 0 Z M324 546 Q324 591 305 615.5 Q286 640 251 640 Q205 640 172 600 Q139 560 139 483 Q139 436 158.5 412 Q178 388 213 388 Q259 388 291.5 428.5 Q324 469 324 546 Z M418 131 Q418 207 447 258 Q476 309 520.5 333 Q565 357 614 357 Q667 357 704.5 321 Q742 285 742 209 Q742 125 711.5 73.5 Q681 22 637.5 0.5 Q594 -21 551 -21 Q497 -21 457.5 16 Q418 53 418 131 Z M779 131 Q779 207 808 258 Q837 309 881.5 333 Q926 357 975 357 Q1028 357 1066 321 Q1104 285 1104 209 Q1104 125 1073.5 73.5 Q1043 22 999.5 0.5 Q956 -21 912 -21 Q858 -21 818.5 16 Q779 53 779 131 Z M673 200 Q673 246 654 270 Q635 294 600 294 Q553 294 520 254 Q487 214 487 136 Q487 87 506.5 63 Q526 39 560 39 Q589 39 615 57 Q641 75 657 111 Q673 147 673 200 Z M1034 200 Q1034 246 1015 270 Q996 294 961 294 Q914 294 881.5 254.5 Q849 215 849 138 Q849 90 868.5 66 Q888 42 923 42 Q951 42 976.5 59 Q1002 76 1018 112 Q1034 148 1034 200 Z " />
<glyph glyph-name="plus" unicode="&#x2b;" horiz-adv-x="592" d="M318 230 L288 39 L218 39 L248 230 L57 230 L69 300 L259 300 L289 491 L360 491 L330 300 L518 300 L507 230 L318 230 Z " />
<glyph glyph-name="uni208A" unicode="&#x208a;" horiz-adv-x="362" d="M156 -13 L137 -130 L89 -130 L107 -13 L-8 -13 L0 35 L115 35 L133 152 L182 152 L163 35 L279 35 L271 -13 L156 -13 Z " />
<glyph glyph-name="plusminus" unicode="&#xb1;" horiz-adv-x="592" d="M482 70 L471 0 L21 0 L33 70 L482 70 Z M333 325 L303 134 L233 134 L263 325 L72 325 L84 395 L274 395 L304 586 L375 586 L345 395 L533 395 L522 325 L333 325 Z " />
<glyph glyph-name="plussuperior" unicode="&#x207a;" horiz-adv-x="362" d="M231 461 L212 344 L164 344 L182 461 L67 461 L75 509 L190 509 L208 626 L257 626 L238 509 L354 509 L346 461 L231 461 Z " />
<glyph glyph-name="product" unicode="&#x220f;" horiz-adv-x="717" d="M696 690 L554 -211 L459 -211 L589 608 L221 608 L92 -211 L-3 -211 L139 690 L696 690 Z " />
<glyph glyph-name="radical" unicode="&#x221a;" horiz-adv-x="612" d="M308 0 L223 0 L128 402 L30 402 L42 479 L200 479 L283 111 L576 690 L670 690 L308 0 Z " />
<glyph glyph-name="summation" unicode="&#x2211;" horiz-adv-x="654" d="M348 235 L117 618 L127 685 L662 685 L649 602 L242 602 L461 233 L102 -150 L557 -150 L544 -232 L-43 -232 L-33 -171 L348 235 Z " />
<glyph glyph-name="lozenge" unicode="&#x25ca;" horiz-adv-x="584" d="M216 0 L39 347 L324 690 L390 690 L568 343 L281 0 L216 0 Z M137 345 L262 96 L468 345 L342 594 L137 345 Z " />
<glyph glyph-name="uniF8FF" unicode="&#xf8ff;" horiz-adv-x="736" d="M280 276 Q257 276 244.5 262.5 Q232 249 229 231 L193 0 L60 0 Q51 0 45 7 Q39 14 40 23 L140 662 Q142 673 151.5 681.5 Q161 690 174 690 L399 690 Q529 690 584 631 Q619 593 619 533 Q619 452 576.5 381.5 Q534 311 451 288 Q406 276 351 276 L280 276 Z M348 242 Q605 242 648 483 Q697 450 697 373 Q697 307 671.5 252 Q646 197 590 163 Q534 129 447 129 L428 129 Q417 129 408.5 122 Q400 115 399 103 L372 -61 Q371 -72 362.5 -79.5 Q354 -87 343 -87 L233 -87 Q225 -87 219.5 -81 Q214 -75 215 -67 L262 227 Q263 234 268 238 Q273 242 280 242 L348 242 Z " />
<glyph glyph-name="bar" unicode="&#x7c;" horiz-adv-x="322" d="M261 690 L119 -210 L37 -210 L179 690 L261 690 Z " />
<glyph glyph-name="brokenbar" unicode="&#xa6;" horiz-adv-x="317" d="M257 690 L203 350 L125 350 L179 690 L257 690 Z M168 129 L115 -211 L37 -211 L90 129 L168 129 Z " />
<glyph glyph-name="at" unicode="&#x40;" horiz-adv-x="968" d="M47 188 Q47 329 115.5 447.5 Q184 566 303 635 Q422 704 566 704 Q677 704 757 663.5 Q837 623 879.5 549.5 Q922 476 922 379 Q922 277 885.5 202 Q849 127 790.5 87 Q732 47 667 47 Q613 47 586 73 Q559 99 561 146 Q486 47 385 47 Q323 47 288.5 88 Q254 129 254 197 Q254 269 288.5 338 Q323 407 383 451 Q443 495 516 495 Q560 495 587.5 471 Q615 447 623 409 L646 479 L722 479 L644 229 Q628 179 628 160 Q628 138 641.5 124 Q655 110 684 110 Q728 110 765 144 Q802 178 824 238 Q846 298 846 372 Q846 497 770.5 567 Q695 637 551 637 Q427 637 329 576 Q231 515 177 414 Q123 313 123 198 Q123 113 159.5 48.5 Q196 -16 264.5 -51.5 Q333 -87 424 -87 Q497 -87 560.5 -73 Q624 -59 667 -36 L656 -107 Q564 -155 411 -155 Q301 -155 219 -113 Q137 -71 92 6.5 Q47 84 47 188 Z M337 208 Q337 164 356 138 Q375 112 413 112 Q461 112 502.5 145 Q544 178 568.5 229 Q593 280 593 332 Q593 375 572 401 Q551 427 513 427 Q465 427 424.5 395 Q384 363 360.5 312 Q337 261 337 208 Z " />
<glyph glyph-name="ampersand" unicode="&#x26;" horiz-adv-x="652" d="M594 333 Q585 272 555 210 Q525 148 485 109 Q504 79 520.5 69 Q537 59 558 59 Q577 59 589 62 L578 -10 Q553 -15 535 -15 Q496 -15 470.5 0.5 Q445 16 421 53 Q379 22 324.5 2 Q270 -18 216 -18 Q122 -18 75 28.5 Q28 75 28 146 Q28 224 75.5 277 Q123 330 220 376 Q200 411 188.5 448 Q177 485 177 519 Q177 566 200.5 608 Q224 650 270.5 676 Q317 702 382 702 Q448 702 490.5 666 Q533 630 533 571 Q533 503 486 452.5 Q439 402 331 353 L440 172 Q468 203 486.5 244.5 Q505 286 512 330 L514 342 L596 342 L594 333 Z M264 523 Q264 472 298 412 Q383 448 417 480.5 Q451 513 451 558 Q451 589 430 610 Q409 631 370 631 Q319 631 291.5 599.5 Q264 568 264 523 Z M231 53 Q266 53 306.5 68.5 Q347 84 377 111 L253 316 Q181 281 148.5 245.5 Q116 210 116 159 Q116 112 146.5 82.5 Q177 53 231 53 Z " />
<glyph glyph-name="paragraph" unicode="&#xb6;" horiz-adv-x="538" d="M279 0 L377 621 L300 621 L202 0 L132 0 L192 380 Q131 381 94.5 417 Q58 453 58 510 Q58 564 85.5 603 Q113 642 156 662 Q199 682 245 682 L515 682 L505 621 L445 621 L347 0 L279 0 Z " />
<glyph glyph-name="uni2105" unicode="&#x2105;" horiz-adv-x="879" d="M292 702 Q345 702 386 677 L374 603 Q359 621 335.5 631.5 Q312 642 282 642 Q244 642 211 622.5 Q178 603 158.5 570 Q139 537 139 497 Q139 451 167.5 422 Q196 393 242 393 Q309 393 351 432 L340 357 Q290 328 233 328 Q163 328 117 373 Q71 418 71 489 Q71 550 100 599 Q129 648 179.5 675 Q230 702 292 702 Z M126 0 L678 682 L748 682 L196 0 L126 0 Z M668 355 Q735 355 777.5 310.5 Q820 266 820 196 Q820 136 792.5 87 Q765 38 716.5 9.5 Q668 -19 609 -19 Q542 -19 499.5 25 Q457 69 457 140 Q457 201 485 250.5 Q513 300 561 327.5 Q609 355 668 355 Z M658 294 Q621 294 589 274.5 Q557 255 538.5 222 Q520 189 520 149 Q520 103 547 72 Q574 41 618 41 Q656 41 688 60.5 Q720 80 738.5 113.5 Q757 147 757 186 Q757 233 730 263.5 Q703 294 658 294 Z " />
<glyph glyph-name="copyright" unicode="&#xa9;" horiz-adv-x="829" d="M56 294 Q56 402 116 496.5 Q176 591 274 647.5 Q372 704 480 704 Q569 704 639.5 662 Q710 620 749.5 547.5 Q789 475 789 388 Q789 280 729.5 185.5 Q670 91 572 34.5 Q474 -22 365 -22 Q277 -22 206.5 20 Q136 62 96 134.5 Q56 207 56 294 Z M109 301 Q109 227 143 164.5 Q177 102 238 66 Q299 30 374 30 Q467 30 550.5 78.5 Q634 127 685 208 Q736 289 736 382 Q736 457 702 518.5 Q668 580 608 616 Q548 652 472 652 Q380 652 296 603.5 Q212 555 160.5 474.5 Q109 394 109 301 Z M390 106 Q334 106 291 131.5 Q248 157 224 202 Q200 247 200 304 Q200 379 236.5 440.5 Q273 502 334 538 Q395 574 464 574 Q507 574 540.5 562 Q574 550 601 523 L589 446 Q562 479 530.5 494 Q499 509 460 509 Q407 509 363.5 483 Q320 457 295.5 412 Q271 367 271 311 Q271 250 306.5 211 Q342 172 401 172 Q444 172 487 190.5 Q530 209 563 246 L550 165 Q479 106 390 106 Z " />
<glyph glyph-name="registered" unicode="&#xae;" horiz-adv-x="502" d="M71 468 Q71 530 105.5 584.5 Q140 639 196.5 671.5 Q253 704 315 704 Q365 704 405 680 Q445 656 467.5 614.5 Q490 573 490 522 Q490 460 456 405.5 Q422 351 366 319 Q310 287 249 287 Q198 287 157.5 311 Q117 335 94 376.5 Q71 418 71 468 Z M112 473 Q112 432 130.5 399 Q149 366 182 346.5 Q215 327 255 327 Q305 327 349.5 353 Q394 379 421 422.5 Q448 466 448 517 Q448 557 430 590 Q412 623 380.5 642.5 Q349 662 308 662 Q258 662 212.5 636 Q167 610 139.5 566.5 Q112 523 112 473 Z M270 468 L245 468 L232 383 L181 383 L217 612 L307 612 Q346 612 365.5 594 Q385 576 385 550 Q385 521 366.5 500 Q348 479 321 473 L374 383 L317 383 L270 468 Z M331 544 Q331 572 294 572 L262 572 L251 505 L282 505 Q331 505 331 544 Z " />
<glyph glyph-name="uni2117" unicode="&#x2117;" horiz-adv-x="829" d="M56 294 Q56 402 116 496.5 Q176 591 274 647.5 Q372 704 480 704 Q569 704 639.5 662 Q710 620 749.5 547.5 Q789 475 789 388 Q789 280 729.5 185.5 Q670 91 572 34.5 Q474 -22 365 -22 Q277 -22 206.5 20 Q136 62 96 134.5 Q56 207 56 294 Z M109 301 Q109 226 143 164 Q177 102 238 66 Q299 30 374 30 Q467 30 550.5 78.5 Q634 127 685 208 Q736 289 736 382 Q736 457 702 518.5 Q668 580 608 616 Q548 652 472 652 Q380 652 296 603.5 Q212 555 160.5 474.5 Q109 394 109 301 Z M463 547 Q525 547 560 520 Q595 493 595 441 Q595 374 550 334 Q505 294 420 294 L373 294 L350 147 L282 147 L346 547 L463 547 Z M526 432 Q526 459 508.5 475.5 Q491 492 454 492 L404 492 L382 350 L430 350 Q483 350 504.5 373.5 Q526 397 526 432 Z " />
<glyph glyph-name="section" unicode="&#xa7;" horiz-adv-x="470" d="M299 703 Q351 703 392 687 Q433 671 459 642 L446 556 Q415 592 373.5 611 Q332 630 288 630 Q241 630 215.5 610.5 Q190 591 190 556 Q190 529 210.5 514.5 Q231 500 284 478 Q331 458 358 443 Q385 428 401.5 406 Q418 384 418 352 Q418 311 394 280.5 Q370 250 329 231 Q384 194 384 135 Q384 62 330.5 21.5 Q277 -19 186 -19 Q134 -18 93 -2 Q52 14 26 43 L39 129 Q70 93 111.5 74 Q153 55 197 55 Q244 55 269.5 74.5 Q295 94 295 129 Q295 156 274 171 Q253 186 201 207 Q155 226 127.5 241 Q100 256 83.5 278.5 Q67 301 67 333 Q67 374 90.5 404.5 Q114 435 155 453 Q129 472 115 495 Q101 518 101 550 Q101 622 154.5 662.5 Q208 703 299 703 Z M335 333 Q335 352 320.5 366.5 Q306 381 287 390 Q268 399 221 419 Q187 411 168 393.5 Q149 376 149 351 Q149 332 164 318 Q179 304 198.5 294.5 Q218 285 265 265 Q298 273 316.5 290.5 Q335 308 335 333 Z " />
<glyph glyph-name="trademark" unicode="&#x2122;" horiz-adv-x="593" d="M285 633 L223 633 L195 454 L142 454 L170 633 L108 633 L116 682 L292 682 L285 633 Z M501 568 L506 616 L503 616 Q501 611 496.5 597.5 Q492 584 485 568 L430 454 L390 454 L373 561 Q369 589 369 616 L367 616 Q362 587 356 565 L329 454 L276 454 L331 682 L404 682 L418 575 Q423 542 422 536 L423 536 Q426 543 430 552.5 Q434 562 441 576 L491 682 L564 682 L544 454 L491 454 L501 568 Z " />
<glyph glyph-name="degree" unicode="&#xb0;" horiz-adv-x="422" d="M386 585 Q386 546 364.5 512 Q343 478 308 457.5 Q273 437 234 437 Q186 437 154 470.5 Q122 504 122 552 Q122 591 143.5 625 Q165 659 200.5 679 Q236 699 275 699 Q323 699 354.5 666 Q386 633 386 585 Z M334 580 Q334 610 315.5 629.5 Q297 649 268 649 Q231 649 202.5 622 Q174 595 174 557 Q174 527 192.5 506.5 Q211 486 241 486 Q278 486 306 514 Q334 542 334 580 Z " />
<glyph glyph-name="estimated" unicode="&#x212e;" horiz-adv-x="881" d="M441 704 Q561 704 649.5 654 Q738 604 785 519.5 Q832 435 832 334 L207 334 Q201 334 197 330.5 Q193 327 193 322 L193 151 Q193 135 196.5 125 Q200 115 209 107 Q303 13 441 13 Q514 13 578.5 44 Q643 75 685 125 L755 125 Q714 69 634.5 28.5 Q555 -12 441 -12 Q324 -12 235 34 Q146 80 97 160.5 Q48 241 48 344 Q48 446 95.5 528 Q143 610 232 657 Q321 704 441 704 Z M441 677 Q304 677 209 582 Q200 573 196.5 564 Q193 555 193 540 L193 370 Q193 364 197 360.5 Q201 357 207 357 L672 357 Q678 357 682 360.5 Q686 364 686 370 L686 540 Q686 555 682.5 564 Q679 573 670 582 Q574 677 441 677 Z " />
<glyph glyph-name="uni2113" unicode="&#x2113;" horiz-adv-x="429" d="M301 33 Q244 -17 161 -17 Q103 -17 71 14.5 Q39 46 39 103 Q39 119 42 137 L104 532 Q117 614 167.5 662 Q218 710 289 710 Q354 710 388.5 673 Q423 636 423 570 Q423 497 386 438 Q349 379 296.5 336.5 Q244 294 145 224 L132 143 Q131 136 131 125 Q131 64 198 64 Q255 64 315 119 L301 33 Z M334 556 Q334 629 278 629 Q246 629 223.5 603.5 Q201 578 193 527 L160 320 Q225 367 260 399 Q295 431 314.5 468.5 Q334 506 334 556 Z " />
<glyph glyph-name="asciicircum" unicode="&#x5e;" horiz-adv-x="607" d="M353 623 L119 326 L36 326 L335 704 L401 704 L581 326 L498 326 L357 623 L353 623 Z " />
<glyph glyph-name="dagger" unicode="&#x2020;" horiz-adv-x="496" d="M487 479 L475 402 L306 402 L221 -140 L131 -140 L216 402 L49 402 L61 479 L229 479 L262 690 L352 690 L319 479 L487 479 Z " />
<glyph glyph-name="daggerdbl" unicode="&#x2021;" horiz-adv-x="498" d="M435 148 L423 71 L255 71 L222 -140 L132 -140 L165 71 L-3 71 L9 148 L177 148 L217 402 L49 402 L61 479 L230 479 L263 690 L353 690 L320 479 L487 479 L475 402 L307 402 L267 148 L435 148 Z " />
<glyph glyph-name="minute" unicode="&#x2032;" horiz-adv-x="209" d="M61 468 L150 690 L233 690 L132 468 L61 468 Z " />
<glyph glyph-name="second" unicode="&#x2033;" horiz-adv-x="374" d="M61 468 L150 690 L233 690 L132 468 L61 468 Z M226 468 L315 690 L398 690 L297 468 L226 468 Z " />
<glyph glyph-name="acute" unicode="&#xb4;" horiz-adv-x="338" d="M117 562 L243 733 L349 733 L190 562 L117 562 Z " />
<glyph glyph-name="breve" unicode="&#x2d8;" horiz-adv-x="338" d="M399 733 Q385 653 339.5 607.5 Q294 562 225 562 Q163 562 127.5 599.5 Q92 637 92 702 Q92 711 94 733 L156 733 Q155 726 155 713 Q155 674 174.5 650.5 Q194 627 230 627 Q270 627 299 657 Q328 687 336 733 L399 733 Z " />
<glyph glyph-name="caron" unicode="&#x2c7;" horiz-adv-x="338" d="M165 562 L77 733 L151 733 L224 618 L340 733 L416 733 L265 562 L165 562 Z " />
<glyph glyph-name="cedilla" unicode="&#xb8;" horiz-adv-x="338" d="M121 -58 Q159 -61 182 -79 Q205 -97 205 -129 Q205 -176 169.5 -206 Q134 -236 73 -236 Q36 -236 -2 -224 L7 -168 Q19 -173 38.5 -177 Q58 -181 77 -181 Q138 -181 138 -136 Q138 -98 46 -98 L107 16 L162 16 L121 -58 Z " />
<glyph glyph-name="circumflex" unicode="&#x2c6;" horiz-adv-x="338" d="M300 733 L389 562 L315 562 L242 677 L126 562 L49 562 L201 733 L300 733 Z " />
<glyph glyph-name="dieresis" unicode="&#xa8;" horiz-adv-x="338" d="M123 568 Q102 568 88.5 582 Q75 596 75 617 Q75 643 95 662 Q115 681 141 681 Q162 681 175.5 667 Q189 653 189 632 Q189 607 169 587.5 Q149 568 123 568 Z M325 568 Q304 568 290.5 582 Q277 596 277 617 Q277 643 297 662 Q317 681 343 681 Q364 681 377.5 667 Q391 653 391 632 Q391 607 371 587.5 Q351 568 325 568 Z " />
<glyph glyph-name="dotaccent" unicode="&#x2d9;" horiz-adv-x="338" d="M220 568 Q199 568 185.5 582 Q172 596 172 617 Q172 643 192 662 Q212 681 238 681 Q259 681 272.5 667 Q286 653 286 632 Q286 607 266 587.5 Q246 568 220 568 Z " />
<glyph glyph-name="grave" unicode="&#x60;" horiz-adv-x="338" d="M323 562 L250 562 L143 733 L239 733 L323 562 Z " />
<glyph glyph-name="hungarumlaut" unicode="&#x2dd;" horiz-adv-x="338" d="M29 562 L155 733 L261 733 L103 562 L29 562 Z M204 562 L330 733 L436 733 L278 562 L204 562 Z " />
<glyph glyph-name="overscore" unicode="&#xaf;" horiz-adv-x="338" d="M376 672 L367 608 L87 608 L96 672 L376 672 Z " />
<glyph glyph-name="ogonek" unicode="&#x2db;" horiz-adv-x="338" d="M190 0 Q146 -32 122.5 -57 Q99 -82 99 -114 Q99 -133 110.5 -144 Q122 -155 142 -155 Q166 -155 190 -143 L180 -204 Q154 -218 113 -218 Q72 -218 49.5 -195.5 Q27 -173 27 -137 Q27 -91 61 -52.5 Q95 -14 138 13 L190 0 Z " />
<glyph glyph-name="ring" unicode="&#x2da;" horiz-adv-x="338" d="M234 774 Q282 774 316 740 Q350 706 350 658 Q350 610 316 575.5 Q282 541 234 541 Q186 541 152 575.5 Q118 610 118 658 Q118 706 152 740 Q186 774 234 774 Z M233 720 Q207 720 189 702 Q171 684 171 658 Q171 632 189 613.5 Q207 595 233 595 Q259 595 277 613.5 Q295 632 295 658 Q295 684 277 702 Q259 720 233 720 Z " />
<glyph glyph-name="tilde" unicode="&#x2dc;" horiz-adv-x="338" d="M63 578 Q74 635 103 667.5 Q132 700 174 700 Q194 700 211 692.5 Q228 685 247 670 Q263 656 275 649.5 Q287 643 298 643 Q315 643 327 657.5 Q339 672 345 700 L399 700 Q388 643 359 610.5 Q330 578 288 578 Q268 578 251 585.5 Q234 593 216 608 Q200 622 188 628.5 Q176 635 164 635 Q148 635 135.5 620 Q123 605 118 578 L63 578 Z " />
<glyph glyph-name="uni0326" unicode="&#x326;" d="M122 -44 Q163 -44 163 -90 Q163 -134 134 -168 Q105 -202 53 -219 L60 -173 Q93 -161 103 -131 Q85 -129 75.5 -118.5 Q66 -108 66 -94 Q66 -72 81 -58 Q96 -44 122 -44 Z " />
</font>
</svg>
