<?xml version="1.0" encoding="UTF-8"?>
<svg xmlns="http://www.w3.org/2000/svg" xmlns:xlink="http://www.w3.org/1999/xlink" version="1.2" >
<font id="PayPal Forward Light">
<font-face  font-family="PayPal Forward" units-per-em="1000" ascent="741" descent="-259" font-style="normal" font-weight="300" font-stretch="normal" cap-height="690" x-height="480" underline-position="-100" underline-thickness="50" />
<missing-glyph  horiz-adv-x="519" d="M497 0 L22 0 L22 665 L497 665 L497 0 Z M98 618 L260 375 L421 618 L98 618 Z M70 575 L70 91 L231 333 L70 575 Z M450 575 L288 333 L450 90 L450 575 Z M421 48 L260 290 L98 48 L421 48 Z " />
<glyph glyph-name="space" unicode="&#x20;" horiz-adv-x="239" d="" />
<glyph glyph-name="exclam" unicode="&#x21;" horiz-adv-x="241" d="M101 170 L96 682 L147 682 L141 170 L101 170 Z M123 -6 Q104 -6 91.5 7 Q79 20 79 38 Q79 57 91.5 69.5 Q104 82 123 82 Q141 82 154 69.5 Q167 57 167 38 Q167 20 154 7 Q141 -6 123 -6 Z " />
<glyph glyph-name="quotedbl" unicode="&#x22;" horiz-adv-x="321" d="M73 492 L69 690 L117 690 L113 492 L73 492 Z M207 492 L203 690 L251 690 L247 492 L207 492 Z " />
<glyph glyph-name="numbersign" unicode="&#x23;" horiz-adv-x="631" d="M476 429 L438 247 L565 247 L559 209 L430 209 L384 0 L339 0 L385 209 L192 209 L146 0 L101 0 L147 209 L20 209 L27 247 L155 247 L194 429 L66 429 L74 467 L202 467 L249 682 L294 682 L247 467 L439 467 L485 682 L530 682 L483 467 L611 467 L602 429 L476 429 Z M393 247 L431 429 L239 429 L200 247 L393 247 Z " />
<glyph glyph-name="dollar" unicode="&#x24;" horiz-adv-x="570" d="M493 197 Q493 122 443 74 Q393 26 306 19 L306 -75 L262 -75 L262 18 Q205 20 161 34.5 Q117 49 80 79 L80 133 Q160 66 262 62 L262 351 Q163 385 120.5 425.5 Q78 466 78 525 Q78 589 128.5 629.5 Q179 670 262 674 L262 740 L306 740 L306 673 Q356 669 396 654.5 Q436 640 469 613 L469 559 Q398 619 306 628 L306 390 Q405 355 449 310 Q493 265 493 197 Z M127 525 Q127 497 139 477.5 Q151 458 180 441 Q209 424 262 405 L262 629 Q199 625 163 596.5 Q127 568 127 525 Z M306 64 Q371 71 407.5 105 Q444 139 444 193 Q444 246 414.5 277 Q385 308 306 336 L306 64 Z " />
<glyph glyph-name="percent" unicode="&#x25;" horiz-adv-x="774" d="M45 519 Q45 582 67.5 623.5 Q90 665 125.5 684 Q161 703 200 703 Q259 703 302.5 659.5 Q346 616 346 521 Q346 450 322 407.5 Q298 365 264.5 348 Q231 331 197 331 Q159 331 124.5 349 Q90 367 67.5 409 Q45 451 45 519 Z M149 0 L579 682 L624 682 L194 0 L149 0 Z M302 519 Q302 590 274 626 Q246 662 196 662 Q150 662 120 627 Q90 592 90 520 Q90 444 118.5 408 Q147 372 197 372 Q242 372 272 408 Q302 444 302 519 Z M428 166 Q428 229 450.5 270.5 Q473 312 508.5 331.5 Q544 351 583 351 Q619 351 652.5 333 Q686 315 707.5 274 Q729 233 729 168 Q729 97 705 55 Q681 13 647 -4 Q613 -21 580 -21 Q518 -21 473 23.5 Q428 68 428 166 Z M684 166 Q684 237 656.5 273.5 Q629 310 579 310 Q533 310 503 275 Q473 240 473 167 Q473 91 501.5 55 Q530 19 580 19 Q625 19 654.5 55.5 Q684 92 684 166 Z " />
<glyph glyph-name="ampersand" unicode="&#x26;" horiz-adv-x="647" d="M565 329 Q565 267 542 200 Q519 133 484 93 Q513 54 534 40.5 Q555 27 578 27 Q591 27 609 31 L609 -10 Q591 -14 575 -14 Q540 -14 512.5 3.5 Q485 21 454 61 Q414 25 362 3.5 Q310 -18 257 -18 Q187 -18 139 8.5 Q91 35 68 79 Q45 123 45 177 Q45 245 89 291.5 Q133 338 217 376 Q183 418 163.5 463 Q144 508 144 550 Q144 614 186.5 658 Q229 702 306 702 Q373 702 419 662.5 Q465 623 465 554 Q465 494 422 450 Q379 406 282 360 L457 128 Q487 166 503 220 Q519 274 519 325 L519 338 L565 338 L565 329 Z M192 549 Q192 510 210 470 Q228 430 257 394 Q344 432 380.5 469 Q417 506 417 554 Q417 598 387.5 628.5 Q358 659 305 659 Q249 659 220.5 627.5 Q192 596 192 549 Z M258 25 Q303 25 349 44 Q395 63 427 96 L241 342 Q167 309 131 270 Q95 231 95 177 Q95 109 139 67 Q183 25 258 25 Z " />
<glyph glyph-name="quotesingle" unicode="&#x27;" horiz-adv-x="187" d="M73 492 L69 690 L117 690 L113 492 L73 492 Z " />
<glyph glyph-name="parenleft" unicode="&#x28;" horiz-adv-x="363" d="M267 -215 Q186 -114 140 14.5 Q94 143 94 263 Q94 385 139.5 512.5 Q185 640 267 743 L313 743 Q231 640 185.5 512.5 Q140 385 140 263 Q140 143 186 14.5 Q232 -114 313 -215 L267 -215 Z " />
<glyph glyph-name="parenright" unicode="&#x29;" horiz-adv-x="363" d="M50 -215 Q131 -114 177 14.5 Q223 143 223 263 Q223 385 177.5 512.5 Q132 640 50 743 L96 743 Q178 640 223.5 512.5 Q269 385 269 263 Q269 143 223 14.5 Q177 -114 96 -215 L50 -215 Z " />
<glyph glyph-name="asterisk" unicode="&#x2a;" horiz-adv-x="386" d="M355 458 L333 420 L211 495 L215 352 L171 352 L175 495 L53 420 L31 458 L156 527 L31 595 L53 633 L175 558 L171 701 L215 701 L211 558 L333 633 L355 595 L230 527 L355 458 Z " />
<glyph glyph-name="plus" unicode="&#x2b;" horiz-adv-x="563" d="M302 243 L302 52 L261 52 L261 243 L70 243 L70 285 L261 285 L261 476 L302 476 L302 285 L493 285 L493 243 L302 243 Z " />
<glyph glyph-name="comma" unicode="&#x2c;" horiz-adv-x="239" d="M118 82 Q164 82 164 20 Q164 -26 141.5 -67.5 Q119 -109 76 -133 L76 -87 Q96 -71 103.5 -51 Q111 -31 111 -5 Q95 -2 84.5 10 Q74 22 74 38 Q74 57 86.5 69.5 Q99 82 118 82 Z " />
<glyph glyph-name="hyphen" unicode="&#x2d;" horiz-adv-x="443" d="M373 285 L373 243 L70 243 L70 285 L373 285 Z " />
<glyph glyph-name="period" unicode="&#x2e;" horiz-adv-x="227" d="M113 -6 Q94 -6 81.5 7 Q69 20 69 38 Q69 57 81.5 69.5 Q94 82 113 82 Q131 82 144 69.5 Q157 57 157 38 Q157 20 144 7 Q131 -6 113 -6 Z " />
<glyph glyph-name="slash" unicode="&#x2f;" horiz-adv-x="372" d="M-15 -114 L306 721 L351 721 L29 -114 L-15 -114 Z " />
<glyph glyph-name="zero" unicode="0" horiz-adv-x="571" d="M40 353 Q40 475 75.5 553.5 Q111 632 167.5 668 Q224 704 290 704 Q351 704 405.5 670 Q460 636 495.5 556.5 Q531 477 531 349 Q531 209 492 126 Q453 43 397.5 10.5 Q342 -22 284 -22 Q221 -22 166 13 Q111 48 75.5 131.5 Q40 215 40 353 Z M479 345 Q479 500 428.5 579.5 Q378 659 284 659 Q200 659 146 585 Q92 511 92 356 Q92 184 143 103.5 Q194 23 286 23 Q339 23 382.5 55.5 Q426 88 452.5 160 Q479 232 479 345 Z " />
<glyph glyph-name="one" unicode="1" horiz-adv-x="571" d="M475 46 L475 0 L102 0 L102 46 L263 46 L263 631 L124 570 L124 619 L289 690 L313 690 L313 46 L475 46 Z " />
<glyph glyph-name="two" unicode="2" horiz-adv-x="571" d="M304 278 Q366 348 397 408 Q428 468 428 527 Q428 588 389.5 622.5 Q351 657 275 657 Q168 657 94 571 L94 637 Q127 667 171 685.5 Q215 704 281 704 Q382 704 431.5 653.5 Q481 603 481 529 Q481 408 344 250 L167 46 L493 46 L493 0 L81 0 L81 24 L304 278 Z " />
<glyph glyph-name="three" unicode="3" horiz-adv-x="571" d="M82 101 Q163 22 277 22 Q366 22 412 70 Q458 118 458 189 Q458 257 408 302 Q358 347 257 347 L217 347 L217 390 L245 390 Q328 390 380 429 Q432 468 432 536 Q432 589 394 624.5 Q356 660 276 660 Q216 660 169.5 636 Q123 612 93 572 L93 638 Q125 668 169 686 Q213 704 278 704 Q343 704 389.5 682 Q436 660 460 623 Q484 586 484 541 Q484 475 444.5 432 Q405 389 338 373 Q412 362 460.5 313.5 Q509 265 509 187 Q509 130 483 82.5 Q457 35 405 6.5 Q353 -22 277 -22 Q213 -22 166 -4.5 Q119 13 82 45 L82 101 Z " />
<glyph glyph-name="four" unicode="4" horiz-adv-x="571" d="M368 0 L368 166 L49 166 L49 209 L376 698 L418 698 L418 211 L521 211 L521 166 L418 166 L418 0 L368 0 Z M370 615 L103 211 L368 211 L370 615 Z " />
<glyph glyph-name="five" unicode="5" horiz-adv-x="571" d="M85 99 Q122 63 169 42.5 Q216 22 267 22 Q317 22 360 47.5 Q403 73 428 115.5 Q453 158 453 207 Q453 256 428.5 298 Q404 340 360.5 365 Q317 390 262 390 Q183 390 109 369 L108 690 L458 690 L458 644 L157 644 L157 424 Q215 433 264 433 Q330 433 385 403.5 Q440 374 472.5 322.5 Q505 271 505 210 Q505 151 476.5 97.5 Q448 44 392.5 11 Q337 -22 261 -22 Q162 -22 85 43 L85 99 Z " />
<glyph glyph-name="six" unicode="6" horiz-adv-x="571" d="M56 206 Q56 317 139 447.5 Q222 578 343 690 L410 690 Q329 618 259 533.5 Q189 449 155 380 Q178 403 215 418 Q252 433 295 433 Q360 433 414.5 402.5 Q469 372 501 320 Q533 268 533 206 Q533 144 501 91.5 Q469 39 414.5 8.5 Q360 -22 294 -22 Q229 -22 174.5 8.5 Q120 39 88 91.5 Q56 144 56 206 Z M293 22 Q343 22 386 46.5 Q429 71 455 113.5 Q481 156 481 206 Q481 255 455 297.5 Q429 340 386 365 Q343 390 293 390 Q244 390 201 365 Q158 340 132 297.5 Q106 255 106 206 Q106 156 131.5 114 Q157 72 200.5 47 Q244 22 293 22 Z " />
<glyph glyph-name="seven" unicode="7" horiz-adv-x="571" d="M122 0 L446 644 L54 644 L54 690 L498 690 L498 646 L175 0 L122 0 Z " />
<glyph glyph-name="eight" unicode="8" horiz-adv-x="571" d="M515 183 Q515 122 488.5 75.5 Q462 29 412 3.5 Q362 -22 295 -22 Q194 -22 134.5 34 Q75 90 75 183 Q75 250 108.5 297.5 Q142 345 206 367 Q154 384 124.5 427.5 Q95 471 95 528 Q95 580 121 620 Q147 660 193 682 Q239 704 295 704 Q351 704 396.5 682 Q442 660 468.5 620 Q495 580 495 528 Q495 473 466 431.5 Q437 390 384 369 Q448 347 481.5 299 Q515 251 515 183 Z M144 527 Q144 465 186.5 427 Q229 389 295 389 Q361 389 403.5 427 Q446 465 446 527 Q446 587 403.5 623.5 Q361 660 295 660 Q229 660 186.5 623.5 Q144 587 144 527 Z M125 184 Q125 108 172 65 Q219 22 295 22 Q370 22 417.5 64.5 Q465 107 465 184 Q465 255 418 299.5 Q371 344 295 344 Q219 344 172 301 Q125 258 125 184 Z " />
<glyph glyph-name="nine" unicode="9" horiz-adv-x="571" d="M534 484 Q534 373 451 242.5 Q368 112 247 0 L180 0 Q261 72 331 156.5 Q401 241 435 310 Q412 287 375 272 Q338 257 295 257 Q230 257 175.5 287.5 Q121 318 89 370 Q57 422 57 484 Q57 546 89 598.5 Q121 651 175.5 681.5 Q230 712 296 712 Q361 712 415.5 681.5 Q470 651 502 598.5 Q534 546 534 484 Z M297 668 Q247 668 204 643.5 Q161 619 135 576.5 Q109 534 109 484 Q109 435 135 392.5 Q161 350 204 325 Q247 300 297 300 Q346 300 389 325 Q432 350 458 392.5 Q484 435 484 484 Q484 534 458.5 576 Q433 618 389.5 643 Q346 668 297 668 Z " />
<glyph glyph-name="colon" unicode="&#x3a;" horiz-adv-x="227" d="M113 -6 Q94 -6 81.5 7 Q69 20 69 38 Q69 57 81.5 69.5 Q94 82 113 82 Q131 82 144 69.5 Q157 57 157 38 Q157 20 144 7 Q131 -6 113 -6 Z M113 381 Q94 381 81.5 394 Q69 407 69 425 Q69 444 81.5 456.5 Q94 469 113 469 Q131 469 144 456.5 Q157 444 157 425 Q157 407 144 394 Q131 381 113 381 Z " />
<glyph glyph-name="semicolon" unicode="&#x3b;" horiz-adv-x="234" d="M113 381 Q94 381 81.5 394 Q69 407 69 425 Q69 444 81.5 456.5 Q94 469 113 469 Q131 469 144 456.5 Q157 444 157 425 Q157 407 144 394 Q131 381 113 381 Z M118 82 Q164 82 164 20 Q164 -26 141.5 -67.5 Q119 -109 76 -133 L76 -87 Q96 -71 103.5 -51 Q111 -31 111 -5 Q95 -2 84.5 10 Q74 22 74 38 Q74 57 86.5 69.5 Q99 82 118 82 Z " />
<glyph glyph-name="less" unicode="&#x3c;" horiz-adv-x="563" d="M129 265 L129 263 L493 64 L493 16 L70 245 L70 283 L493 512 L493 464 L129 265 Z " />
<glyph glyph-name="equal" unicode="&#x3d;" horiz-adv-x="563" d="M493 196 L493 154 L70 154 L70 196 L493 196 Z M493 374 L493 332 L70 332 L70 374 L493 374 Z " />
<glyph glyph-name="greater" unicode="&#x3e;" horiz-adv-x="563" d="M493 245 L70 16 L70 64 L434 263 L434 265 L70 464 L70 512 L493 283 L493 245 Z " />
<glyph glyph-name="question" unicode="&#x3f;" horiz-adv-x="459" d="M226 704 Q320 704 370 655 Q420 606 420 526 Q420 476 398 438 Q376 400 318 348 Q283 317 266 292 Q249 267 243.5 240 Q238 213 238 170 L195 170 Q195 244 213.5 287.5 Q232 331 287 381 Q338 427 354.5 455.5 Q371 484 371 522 Q371 583 334 621.5 Q297 660 225 660 Q167 660 120.5 636.5 Q74 613 41 572 L41 638 Q78 668 120.5 686 Q163 704 226 704 Z M215 -6 Q196 -6 183.5 7 Q171 20 171 38 Q171 57 183.5 69.5 Q196 82 215 82 Q234 82 246.5 69.5 Q259 57 259 38 Q259 20 246.5 7 Q234 -6 215 -6 Z " />
<glyph glyph-name="at" unicode="&#x40;" horiz-adv-x="960" d="M69 258 Q69 386 122.5 487.5 Q176 589 272.5 646.5 Q369 704 494 704 Q613 704 702.5 656.5 Q792 609 840.5 523.5 Q889 438 889 325 Q889 237 862 176.5 Q835 116 791 86 Q747 56 695 56 Q646 56 619 82 Q592 108 587 153 Q555 106 515.5 81 Q476 56 425 56 Q380 56 344.5 79 Q309 102 288.5 143.5 Q268 185 268 239 Q268 308 295.5 366.5 Q323 425 373 460 Q423 495 486 495 Q532 495 567.5 468 Q603 441 617 401 L629 479 L673 479 L632 221 Q627 193 627 167 Q627 136 644.5 117 Q662 98 700 98 Q741 98 773 126 Q805 154 823 204 Q841 254 841 320 Q841 424 799.5 501.5 Q758 579 679 621 Q600 663 490 663 Q378 663 293.5 609.5 Q209 556 163.5 463.5 Q118 371 118 257 Q118 154 163 75.5 Q208 -3 289 -45.5 Q370 -88 475 -88 Q548 -88 608.5 -75 Q669 -62 707 -39 L707 -88 Q630 -133 474 -133 Q355 -133 263 -85.5 Q171 -38 120 50.5 Q69 139 69 258 Z M317 241 Q317 179 347 138.5 Q377 98 434 98 Q480 98 518.5 128 Q557 158 579 207 Q601 256 601 310 Q601 375 569 413.5 Q537 452 485 452 Q434 452 396 422.5 Q358 393 337.5 344.5 Q317 296 317 241 Z " />
<glyph glyph-name="A" unicode="A" horiz-adv-x="620" d="M140 190 L61 0 L10 0 L297 690 L323 690 L611 0 L560 0 L481 190 L140 190 Z M310 598 L158 234 L462 234 L310 598 Z " />
<glyph glyph-name="B" unicode="B" horiz-adv-x="577" d="M284 690 Q389 690 439 648 Q489 606 489 524 Q489 463 457.5 420.5 Q426 378 370 361 Q444 352 487 305.5 Q530 259 530 188 Q530 100 469 50 Q408 0 301 0 L83 0 L83 690 L284 690 Z M437 520 Q437 582 400.5 614.5 Q364 647 286 647 L134 647 L134 376 L269 376 Q342 376 389.5 416 Q437 456 437 520 Z M477 186 Q477 255 430.5 294 Q384 333 301 333 L134 333 L134 43 L315 43 Q393 43 435 80.5 Q477 118 477 186 Z " />
<glyph glyph-name="C" unicode="C" horiz-adv-x="648" d="M390 -22 Q277 -22 199 31.5 Q121 85 83 168 Q45 251 45 341 Q45 439 90 522.5 Q135 606 213.5 655 Q292 704 390 704 Q456 703 501.5 688.5 Q547 674 593 645 L593 588 Q549 624 499.5 641.5 Q450 659 389 659 Q307 659 240.5 618 Q174 577 136 504.5 Q98 432 98 341 Q98 250 136 177 Q174 104 240.5 63.5 Q307 23 389 23 Q450 23 499.5 40.5 Q549 58 593 94 L593 37 Q545 7 500 -7.5 Q455 -22 390 -22 Z " />
<glyph glyph-name="D" unicode="D" horiz-adv-x="691" d="M291 690 Q404 690 484 643.5 Q564 597 605 518.5 Q646 440 646 345 Q646 251 603.5 172.5 Q561 94 480 47 Q399 0 289 0 L83 0 L83 690 L291 690 Z M284 44 Q383 44 452.5 84.5 Q522 125 557.5 193.5 Q593 262 593 345 Q593 433 557.5 501 Q522 569 454 607.5 Q386 646 292 646 L133 646 L133 44 L284 44 Z " />
<glyph glyph-name="E" unicode="E" horiz-adv-x="521" d="M133 380 L390 380 L390 336 L133 336 L133 44 L471 44 L471 0 L83 0 L83 690 L460 690 L460 646 L133 646 L133 380 Z " />
<glyph glyph-name="F" unicode="F" horiz-adv-x="485" d="M133 368 L390 368 L390 324 L133 324 L133 0 L83 0 L83 690 L460 690 L460 646 L133 646 L133 368 Z " />
<glyph glyph-name="G" unicode="G" horiz-adv-x="690" d="M387 704 Q461 704 519.5 681.5 Q578 659 611 625 L611 566 Q568 613 514 636 Q460 659 392 659 Q308 659 240.5 618.5 Q173 578 134.5 506 Q96 434 96 343 Q96 254 134 180.5 Q172 107 237 65 Q302 23 380 23 Q502 23 577 78 L577 292 L394 292 L394 338 L626 338 L626 55 Q564 14 508.5 -4 Q453 -22 380 -22 Q284 -22 207 25.5 Q130 73 86.5 156 Q43 239 43 343 Q43 440 87.5 523 Q132 606 211 655 Q290 704 387 704 Z " />
<glyph glyph-name="H" unicode="H" horiz-adv-x="708" d="M133 0 L83 0 L83 690 L133 690 L133 376 L575 376 L575 690 L625 690 L625 0 L575 0 L575 332 L133 332 L133 0 Z " />
<glyph glyph-name="I" unicode="I" horiz-adv-x="217" d="M133 0 L83 0 L83 690 L133 690 L133 0 Z " />
<glyph glyph-name="J" unicode="J" horiz-adv-x="326" d="M257 174 Q257 78 216.5 34.5 Q176 -9 100 -9 Q44 -9 21 1 L21 51 Q36 45 57.5 40.5 Q79 36 97 36 Q207 36 207 172 L207 690 L257 690 L257 174 Z " />
<glyph glyph-name="K" unicode="K" horiz-adv-x="599" d="M201 339 L133 271 L133 0 L83 0 L83 690 L133 690 L133 345 L487 690 L555 690 L239 376 L596 0 L526 0 L201 339 Z " />
<glyph glyph-name="L" unicode="L" horiz-adv-x="484" d="M128 44 L465 44 L465 0 L78 0 L78 690 L128 690 L128 44 Z " />
<glyph glyph-name="M" unicode="M" horiz-adv-x="815" d="M210 690 L408 73 L605 690 L651 690 L759 0 L711 0 L620 597 L430 0 L386 0 L196 597 L103 0 L57 0 L164 690 L210 690 Z " />
<glyph glyph-name="N" unicode="N" horiz-adv-x="687" d="M130 690 L557 86 L557 690 L604 690 L604 0 L558 0 L130 603 L130 0 L83 0 L83 690 L130 690 Z " />
<glyph glyph-name="O" unicode="O" horiz-adv-x="780" d="M45 341 Q45 438 90 521.5 Q135 605 214 654.5 Q293 704 390 704 Q494 704 572 654 Q650 604 692.5 521 Q735 438 735 341 Q735 242 689.5 158.5 Q644 75 565 26.5 Q486 -22 390 -22 Q278 -22 200 31.5 Q122 85 83.5 168.5 Q45 252 45 341 Z M98 341 Q98 251 136.5 178 Q175 105 241.5 64 Q308 23 389 23 Q470 23 537 64 Q604 105 642.5 178 Q681 251 681 341 Q681 431 644 503.5 Q607 576 540.5 617.5 Q474 659 389 659 Q308 659 241.5 618 Q175 577 136.5 504.5 Q98 432 98 341 Z " />
<glyph glyph-name="P" unicode="P" horiz-adv-x="559" d="M269 690 Q386 690 452.5 634 Q519 578 519 471 Q519 368 457 310.5 Q395 253 262 253 L133 253 L133 0 L83 0 L83 690 L269 690 Z M467 471 Q467 549 417.5 597.5 Q368 646 272 646 L133 646 L133 297 L281 297 Q378 297 422.5 345.5 Q467 394 467 471 Z " />
<glyph glyph-name="Q" unicode="Q" horiz-adv-x="791" d="M631 74 Q584 29 523.5 3.5 Q463 -22 395 -22 Q282 -22 204 31.5 Q126 85 88 168 Q50 251 50 341 Q50 438 95 521.5 Q140 605 218.5 654.5 Q297 704 395 704 Q498 704 576.5 654 Q655 604 697 521 Q739 438 739 341 Q739 275 718.5 215 Q698 155 660 107 L756 1 L698 0 L631 74 Z M394 23 Q453 23 506 46 Q559 69 599 111 L469 255 L527 255 L626 145 Q685 230 685 341 Q685 431 648 503.5 Q611 576 545 617.5 Q479 659 394 659 Q313 659 246.5 618 Q180 577 141.5 504.5 Q103 432 103 341 Q103 251 141.5 178 Q180 105 246.5 64 Q313 23 394 23 Z " />
<glyph glyph-name="R" unicode="R" horiz-adv-x="576" d="M300 254 Q288 253 262 253 L133 253 L133 0 L83 0 L83 690 L269 690 Q386 690 452.5 634 Q519 578 519 471 Q519 388 478 333.5 Q437 279 351 261 L556 0 L498 0 L300 254 Z M281 297 Q378 297 422.5 345.5 Q467 394 467 471 Q467 549 417.5 597.5 Q368 646 272 646 L133 646 L133 297 L281 297 Z " />
<glyph glyph-name="S" unicode="S" horiz-adv-x="558" d="M70 101 Q157 23 276 23 Q355 23 400.5 62.5 Q446 102 446 171 Q446 216 430.5 246 Q415 276 378.5 299 Q342 322 274 346 Q168 384 122.5 430 Q77 476 77 543 Q77 590 102.5 627 Q128 664 173.5 684 Q219 704 277 704 Q338 704 385 688 Q432 672 472 637 L472 581 Q391 658 280 659 Q210 659 169 626.5 Q128 594 128 542 Q128 507 143 483 Q158 459 195.5 438 Q233 417 304 390 Q406 352 451 302 Q496 252 496 176 Q496 85 436.5 31.5 Q377 -22 276 -22 Q211 -22 161.5 -6 Q112 10 70 45 L70 101 Z " />
<glyph glyph-name="T" unicode="T" horiz-adv-x="520" d="M19 690 L501 690 L501 646 L285 646 L285 0 L235 0 L235 646 L19 646 L19 690 Z " />
<glyph glyph-name="U" unicode="U" horiz-adv-x="637" d="M317 -22 Q250 -22 194 7 Q138 36 103 101.5 Q68 167 68 269 L68 690 L118 690 L118 256 Q118 150 170.5 86 Q223 22 317 22 Q421 22 469.5 84.5 Q518 147 518 256 L518 690 L568 690 L568 271 Q568 119 498.5 48.5 Q429 -22 317 -22 Z " />
<glyph glyph-name="V" unicode="V" horiz-adv-x="596" d="M298 64 L540 690 L589 690 L323 0 L274 0 L8 690 L57 690 L298 64 Z " />
<glyph glyph-name="W" unicode="W" horiz-adv-x="891" d="M60 690 L253 81 L422 690 L470 690 L639 81 L832 690 L881 690 L661 0 L615 0 L446 605 L276 0 L231 0 L11 690 L60 690 Z " />
<glyph glyph-name="X" unicode="X" horiz-adv-x="594" d="M292 315 L82 0 L27 0 L264 356 L35 690 L91 690 L295 394 L500 690 L557 690 L324 352 L567 0 L508 0 L292 315 Z " />
<glyph glyph-name="Y" unicode="Y" horiz-adv-x="539" d="M71 690 L228 397 Q253 351 268 319 L273 319 Q287 348 312 395 L468 690 L521 690 L295 276 L295 0 L245 0 L245 276 L17 690 L71 690 Z " />
<glyph glyph-name="Z" unicode="Z" horiz-adv-x="605" d="M541 648 L104 44 L557 44 L557 0 L48 0 L48 42 L485 646 L65 646 L65 690 L541 690 L541 648 Z " />
<glyph glyph-name="bracketleft" unicode="&#x5b;" horiz-adv-x="358" d="M143 -173 L284 -173 L284 -215 L99 -215 L99 743 L284 743 L284 701 L143 701 L143 -173 Z " />
<glyph glyph-name="backslash" unicode="&#x5c;" horiz-adv-x="372" d="M66 721 L387 -114 L343 -114 L21 721 L66 721 Z " />
<glyph glyph-name="bracketright" unicode="&#x5d;" horiz-adv-x="358" d="M259 743 L259 -215 L74 -215 L74 -173 L215 -173 L215 701 L74 701 L74 743 L259 743 Z " />
<glyph glyph-name="asciicircum" unicode="&#x5e;" horiz-adv-x="681" d="M339 648 L126 326 L73 326 L323 704 L358 704 L608 326 L555 326 L343 648 L339 648 Z " />
<glyph glyph-name="underscore" unicode="&#x5f;" horiz-adv-x="423" d="M423 -50 L423 -91 L0 -91 L0 -50 L423 -50 Z " />
<glyph glyph-name="grave" unicode="&#x60;" horiz-adv-x="338" d="M232 560 L189 560 L62 725 L120 725 L232 560 Z " />
<glyph glyph-name="a" unicode="a" horiz-adv-x="508" d="M236 452 Q198 452 159.5 439.5 Q121 427 95 406 L95 458 Q122 475 160 485.5 Q198 496 233 496 Q337 496 388.5 442 Q440 388 440 282 L440 0 L393 0 L393 80 Q363 34 314 8.5 Q265 -17 206 -17 Q122 -17 77.5 21 Q33 59 33 131 Q33 211 91.5 253 Q150 295 255 295 Q339 295 393 278 Q393 364 354.5 408 Q316 452 236 452 Z M206 26 Q294 26 343.5 81.5 Q393 137 393 235 Q336 252 261 252 Q175 252 128 221 Q81 190 81 131 Q81 84 115 55 Q149 26 206 26 Z " />
<glyph glyph-name="b" unicode="b" horiz-adv-x="601" d="M128 690 L128 385 Q157 434 206.5 465 Q256 496 325 496 Q390 496 444 463 Q498 430 530 371.5 Q562 313 562 240 Q562 169 530.5 110 Q499 51 446 17 Q393 -17 331 -17 Q261 -17 212 12.5 Q163 42 128 97 L128 0 L81 0 L81 690 L128 690 Z M512 240 Q512 301 487 349 Q462 397 417.5 424.5 Q373 452 316 452 Q263 452 220 425.5 Q177 399 151.5 350 Q126 301 126 237 Q126 176 152.5 128 Q179 80 223 53.5 Q267 27 318 27 Q369 27 413.5 54.5 Q458 82 485 131 Q512 180 512 240 Z " />
<glyph glyph-name="c" unicode="c" horiz-adv-x="493" d="M284 -17 Q216 -17 160 16 Q104 49 72 107.5 Q40 166 40 240 Q40 313 72.5 371.5 Q105 430 161 463 Q217 496 285 496 Q383 496 447 440 L447 382 Q384 452 285 452 Q229 452 184 424.5 Q139 397 114 349 Q89 301 89 240 Q89 180 114 131 Q139 82 184 54.5 Q229 27 285 27 Q333 27 377.5 46.5 Q422 66 453 106 L453 45 Q386 -17 284 -17 Z " />
<glyph glyph-name="d" unicode="d" horiz-adv-x="600" d="M40 240 Q40 313 71.5 371.5 Q103 430 157 463 Q211 496 276 496 Q345 496 394.5 465 Q444 434 472 385 L472 690 L519 690 L519 0 L473 0 L473 97 Q439 42 390 12.5 Q341 -17 271 -17 Q209 -17 156 17 Q103 51 71.5 110 Q40 169 40 240 Z M89 240 Q89 179 116 130.5 Q143 82 188 54.5 Q233 27 284 27 Q334 27 378 54 Q422 81 448.5 129 Q475 177 475 237 Q475 301 449.5 350 Q424 399 381 425.5 Q338 452 286 452 Q229 452 184 424.5 Q139 397 114 349 Q89 301 89 240 Z " />
<glyph glyph-name="e" unicode="e" horiz-adv-x="545" d="M40 240 Q40 311 71.5 370 Q103 429 158.5 462.5 Q214 496 281 496 Q349 496 400 466 Q451 436 478.5 382 Q506 328 506 257 Q506 248 505 240.5 Q504 233 503 228 L90 228 Q95 132 152 79.5 Q209 27 293 27 Q349 27 388.5 40.5 Q428 54 467 84 L467 36 Q429 7 386.5 -5 Q344 -17 293 -17 Q219 -17 161 16.5 Q103 50 71.5 109 Q40 168 40 240 Z M455 273 Q454 352 407 402 Q360 452 283 452 Q229 452 187 427 Q145 402 120.5 361 Q96 320 91 273 L455 273 Z " />
<glyph glyph-name="f" unicode="f" horiz-adv-x="331" d="M138 552 Q138 625 173 665 Q208 705 277 705 Q312 705 334 697 L334 659 Q311 666 280 666 Q185 666 185 553 L185 480 L314 480 L314 438 L185 438 L185 0 L138 0 L138 438 L32 438 L32 480 L138 480 L138 552 Z " />
<glyph glyph-name="g" unicode="g" horiz-adv-x="601" d="M276 496 Q345 496 394.5 465 Q444 434 474 384 L474 480 L520 480 L520 36 Q520 -91 453 -159.5 Q386 -228 266 -228 Q210 -228 165.5 -216 Q121 -204 97 -182 L97 -129 Q158 -184 265 -184 Q361 -184 417 -128 Q473 -72 473 39 L473 97 Q439 42 390 12.5 Q341 -17 271 -17 Q209 -17 156 17 Q103 51 71.5 110 Q40 169 40 240 Q40 313 71.5 371.5 Q103 430 157 463 Q211 496 276 496 Z M286 452 Q229 452 184 424.5 Q139 397 114 349 Q89 301 89 240 Q89 179 116 130.5 Q143 82 188 54.5 Q233 27 284 27 Q334 27 378 54 Q422 81 448.5 129 Q475 177 475 238 Q475 301 449.5 350 Q424 399 381 425.5 Q338 452 286 452 Z " />
<glyph glyph-name="h" unicode="h" horiz-adv-x="574" d="M128 384 Q150 436 198 466 Q246 496 308 496 Q400 496 453 438.5 Q506 381 506 282 L506 0 L459 0 L459 277 Q459 360 418.5 406 Q378 452 304 452 Q223 452 175.5 397 Q128 342 128 246 L128 0 L81 0 L81 690 L128 690 L128 384 Z " />
<glyph glyph-name="i" unicode="i" horiz-adv-x="209" d="M128 0 L81 0 L81 480 L128 480 L128 0 Z M105 581 Q89 581 78.5 592 Q68 603 68 618 Q68 634 78.5 644.5 Q89 655 105 655 Q121 655 131.5 644.5 Q142 634 142 618 Q142 603 131.5 592 Q121 581 105 581 Z " />
<glyph glyph-name="j" unicode="j" horiz-adv-x="209" d="M128 -47 Q128 -137 90.5 -179 Q53 -221 -13 -221 Q-28 -221 -47.5 -218 Q-67 -215 -79 -211 L-79 -171 Q-47 -181 -17 -181 Q33 -181 57 -149 Q81 -117 81 -43 L81 480 L128 480 L128 -47 Z M105 581 Q89 581 78.5 592 Q68 603 68 618 Q68 634 78.5 644.5 Q89 655 105 655 Q121 655 131.5 644.5 Q142 634 142 618 Q142 603 131.5 592 Q121 581 105 581 Z " />
<glyph glyph-name="k" unicode="k" horiz-adv-x="499" d="M211 257 L128 181 L128 0 L81 0 L81 690 L128 690 L128 242 L387 480 L454 480 L246 289 L476 0 L414 0 L211 257 Z " />
<glyph glyph-name="l" unicode="l" horiz-adv-x="209" d="M128 0 L81 0 L81 690 L128 690 L128 0 Z " />
<glyph glyph-name="m" unicode="m" horiz-adv-x="874" d="M630 496 Q715 496 760.5 442.5 Q806 389 806 303 L806 0 L760 0 L760 298 Q760 369 727 410.5 Q694 452 628 452 Q554 452 510.5 394.5 Q467 337 467 246 L467 0 L420 0 L420 277 Q420 360 385.5 406 Q351 452 290 452 Q220 452 176 394.5 Q132 337 128 246 L128 0 L81 0 L81 480 L128 480 L128 384 Q185 496 293 496 Q352 496 394.5 463 Q437 430 455 370 Q509 496 630 496 Z " />
<glyph glyph-name="n" unicode="n" horiz-adv-x="574" d="M128 384 Q150 436 198 466 Q246 496 308 496 Q400 496 453 438.5 Q506 381 506 282 L506 0 L459 0 L459 277 Q459 360 418.5 406 Q378 452 304 452 Q251 452 211.5 425.5 Q172 399 150 352.5 Q128 306 128 246 L128 0 L81 0 L81 480 L128 480 L128 384 Z " />
<glyph glyph-name="o" unicode="o" horiz-adv-x="569" d="M40 240 Q40 313 72.5 371.5 Q105 430 161 463 Q217 496 285 496 Q354 496 410 463 Q466 430 498 371.5 Q530 313 530 240 Q530 166 498 107.5 Q466 49 410 16 Q354 -17 285 -17 Q217 -17 161 16 Q105 49 72.5 107.5 Q40 166 40 240 Z M89 240 Q89 180 114 131.5 Q139 83 184 55 Q229 27 285 27 Q340 27 384.5 55 Q429 83 454.5 131.5 Q480 180 480 240 Q480 301 455.5 349.5 Q431 398 387 425 Q343 452 285 452 Q229 452 184 424.5 Q139 397 114 349 Q89 301 89 240 Z " />
<glyph glyph-name="p" unicode="p" horiz-adv-x="601" d="M128 480 L128 384 Q157 434 206.5 465 Q256 496 325 496 Q390 496 444 463 Q498 430 530 371.5 Q562 313 562 240 Q562 169 530.5 110 Q499 51 445.5 17 Q392 -17 330 -17 Q260 -17 211 12.5 Q162 42 128 97 L128 -211 L81 -211 L81 480 L128 480 Z M512 240 Q512 301 487 349 Q462 397 417.5 424.5 Q373 452 316 452 Q263 452 220 425.5 Q177 399 151.5 350 Q126 301 126 237 Q126 176 152.5 128 Q179 80 223.5 53.5 Q268 27 318 27 Q369 27 413.5 54.5 Q458 82 485 131 Q512 180 512 240 Z " />
<glyph glyph-name="q" unicode="q" horiz-adv-x="601" d="M473 97 Q439 42 390 12.5 Q341 -17 271 -17 Q209 -17 156 17 Q103 51 71.5 110 Q40 169 40 240 Q40 313 71.5 371.5 Q103 430 157.5 463 Q212 496 277 496 Q346 496 395.5 465 Q445 434 474 384 L474 480 L520 480 L520 -211 L473 -211 L473 97 Z M89 240 Q89 180 116 131 Q143 82 188 54.5 Q233 27 284 27 Q334 27 378 54 Q422 81 448.5 128.5 Q475 176 475 237 Q475 301 449.5 350 Q424 399 381 425.5 Q338 452 286 452 Q229 452 184 424.5 Q139 397 114 349 Q89 301 89 240 Z " />
<glyph glyph-name="r" unicode="r" horiz-adv-x="326" d="M302 436 Q284 439 267 439 Q205 439 166.5 390 Q128 341 128 243 L128 0 L81 0 L81 480 L128 480 L128 382 Q146 428 179 455.5 Q212 483 261 483 Q284 483 302 480 L302 436 Z " />
<glyph glyph-name="s" unicode="s" horiz-adv-x="425" d="M209 -16 Q162 -15 121 1 Q80 17 54 43 L54 103 Q88 64 128 45 Q168 26 209 26 Q264 26 295.5 50.5 Q327 75 327 117 Q327 147 313 166 Q299 185 275 198 Q251 211 208 228 Q148 251 117 267 Q86 283 67.5 308 Q49 333 49 373 Q49 426 93 460.5 Q137 495 206 495 Q301 495 353 446 L353 390 Q297 452 207 452 Q158 452 128.5 430.5 Q99 409 99 373 Q99 346 114.5 328.5 Q130 311 154.5 298.5 Q179 286 228 267 Q279 248 309 231.5 Q339 215 357.5 188 Q376 161 376 119 Q376 56 330.5 20 Q285 -16 209 -16 Z " />
<glyph glyph-name="t" unicode="t" horiz-adv-x="355" d="M134 480 L134 633 L181 633 L181 480 L310 480 L310 438 L181 438 L180 145 Q180 90 201 61.5 Q222 33 260 33 Q285 33 310 40 L310 1 Q280 -6 258 -6 Q199 -6 166 34 Q133 74 133 146 L134 438 L28 438 L28 480 L134 480 Z " />
<glyph glyph-name="u" unicode="u" horiz-adv-x="574" d="M460 96 Q438 44 389.5 13.5 Q341 -17 279 -17 Q188 -17 134.5 41 Q81 99 81 198 L81 480 L128 480 L128 203 Q128 120 169 73.5 Q210 27 283 27 Q363 27 411 85 Q459 143 459 234 L459 480 L506 480 L506 0 L460 0 L460 96 Z " />
<glyph glyph-name="v" unicode="v" horiz-adv-x="445" d="M54 480 L222 55 L391 480 L440 480 L246 0 L198 0 L5 480 L54 480 Z " />
<glyph glyph-name="w" unicode="w" horiz-adv-x="671" d="M166 0 L14 480 L60 480 L191 61 L313 480 L359 480 L481 61 L611 480 L658 480 L505 0 L457 0 L336 416 L215 0 L166 0 Z " />
<glyph glyph-name="x" unicode="x" horiz-adv-x="467" d="M86 480 L233 284 L375 480 L430 480 L259 250 L448 0 L391 0 L231 214 L73 0 L19 0 L205 248 L30 480 L86 480 Z " />
<glyph glyph-name="y" unicode="y" horiz-adv-x="445" d="M200 7 L5 480 L54 480 L223 64 L391 480 L440 480 L155 -211 L110 -211 L200 7 Z " />
<glyph glyph-name="z" unicode="z" horiz-adv-x="452" d="M427 447 L87 42 L427 42 L427 0 L25 0 L25 38 L363 438 L35 438 L35 480 L427 480 L427 447 Z " />
<glyph glyph-name="braceleft" unicode="&#x7b;" horiz-adv-x="363" d="M299 702 Q262 700 239.5 678 Q217 656 217 619 L217 383 Q217 339 201.5 307.5 Q186 276 146 264 L146 262 Q183 247 200 215.5 Q217 184 217 131 L217 -73 Q217 -123 239 -147.5 Q261 -172 299 -174 L299 -215 Q232 -214 202.5 -174.5 Q173 -135 173 -56 L173 142 Q173 183 149 211.5 Q125 240 70 242 L70 284 Q173 291 173 373 L173 603 Q173 670 206.5 705.5 Q240 741 299 743 L299 702 Z " />
<glyph glyph-name="bar" unicode="&#x7c;" horiz-adv-x="286" d="M166 690 L166 -210 L120 -210 L120 690 L166 690 Z " />
<glyph glyph-name="braceright" unicode="&#x7d;" horiz-adv-x="363" d="M64 743 Q123 741 156.5 705.5 Q190 670 190 603 L190 373 Q190 291 292 284 L292 242 Q238 240 214 211.5 Q190 183 190 142 L190 -56 Q190 -135 160.5 -174.5 Q131 -214 64 -215 L64 -174 Q102 -172 124 -147.5 Q146 -123 146 -73 L146 131 Q146 184 163 215.5 Q180 247 217 262 L217 264 Q177 276 161.5 307.5 Q146 339 146 383 L146 619 Q146 655 123 677.5 Q100 700 64 702 L64 743 Z " />
<glyph glyph-name="asciitilde" unicode="&#x7e;" horiz-adv-x="563" d="M499 324 Q492 264 457 233.5 Q422 203 374 203 Q350 203 330.5 212 Q311 221 275 241 Q245 260 224.5 270.5 Q204 281 187 281 Q159 281 136.5 261 Q114 241 109 203 L64 203 Q71 263 106 293.5 Q141 324 189 324 Q213 324 234 314.5 Q255 305 288 286 Q318 267 338.5 256.5 Q359 246 376 246 Q405 246 427 266 Q449 286 454 324 L499 324 Z " />
<glyph glyph-name="Aacute" unicode="&#xc1;" horiz-adv-x="620" d="M140 190 L61 0 L10 0 L297 690 L323 690 L611 0 L560 0 L481 190 L140 190 Z M310 598 L158 234 L462 234 L310 598 Z M278 744 L369 874 L426 874 L321 744 L278 744 Z " />
<glyph glyph-name="Abreve" unicode="&#x102;" horiz-adv-x="620" d="M140 190 L61 0 L10 0 L297 690 L323 690 L611 0 L560 0 L481 190 L140 190 Z M310 598 L158 234 L462 234 L310 598 Z M450 874 Q446 814 407.5 779 Q369 744 311 744 Q253 744 214.5 779 Q176 814 172 874 L214 874 Q217 835 244.5 810 Q272 785 311 785 Q350 785 377.5 810 Q405 835 408 874 L450 874 Z " />
<glyph glyph-name="Acircumflex" unicode="&#xc2;" horiz-adv-x="620" d="M140 190 L61 0 L10 0 L297 690 L323 690 L611 0 L560 0 L481 190 L140 190 Z M310 598 L158 234 L462 234 L310 598 Z M310 839 L222 744 L178 744 L281 874 L339 874 L442 744 L398 744 L310 839 Z " />
<glyph glyph-name="Adieresis" unicode="&#xc4;" horiz-adv-x="620" d="M140 190 L61 0 L10 0 L297 690 L323 690 L611 0 L560 0 L481 190 L140 190 Z M310 598 L158 234 L462 234 L310 598 Z M218 766 Q203 766 192 777 Q181 788 181 803 Q181 819 192 829.5 Q203 840 219 840 Q235 840 245.5 829.5 Q256 819 256 803 Q256 788 245 777 Q234 766 218 766 Z M401 766 Q386 766 375 777 Q364 788 364 803 Q364 819 375 829.5 Q386 840 401 840 Q417 840 427.5 829.5 Q438 819 438 803 Q438 788 427.5 777 Q417 766 401 766 Z " />
<glyph glyph-name="Agrave" unicode="&#xc0;" horiz-adv-x="620" d="M140 190 L61 0 L10 0 L297 690 L323 690 L611 0 L560 0 L481 190 L140 190 Z M310 598 L158 234 L462 234 L310 598 Z M342 744 L299 744 L195 874 L251 874 L342 744 Z " />
<glyph glyph-name="Amacron" unicode="&#x100;" horiz-adv-x="620" d="M140 190 L61 0 L10 0 L297 690 L323 690 L611 0 L560 0 L481 190 L140 190 Z M310 598 L158 234 L462 234 L310 598 Z M445 820 L445 778 L176 778 L176 820 L445 820 Z " />
<glyph glyph-name="Aogonek" unicode="&#x104;" horiz-adv-x="620" d="M587 -171 Q602 -171 612.5 -167.5 Q623 -164 636 -156 L636 -197 Q610 -212 578 -212 Q539 -212 514 -187 Q489 -162 489 -125 Q489 -60 560 0 L481 190 L140 190 L61 0 L10 0 L297 690 L323 690 L611 0 Q576 -29 554.5 -55.5 Q533 -82 533 -117 Q533 -142 547.5 -156.5 Q562 -171 587 -171 Z M310 598 L158 234 L462 234 L310 598 Z " />
<glyph glyph-name="Aring" unicode="&#xc5;" horiz-adv-x="620" d="M140 190 L61 0 L10 0 L297 690 L323 690 L611 0 L560 0 L481 190 L140 190 Z M310 598 L158 234 L462 234 L310 598 Z M310 946 Q356 946 388.5 913.5 Q421 881 421 835 Q421 790 388.5 757 Q356 724 310 724 Q265 724 232 757 Q199 790 199 835 Q199 881 232 913.5 Q265 946 310 946 Z M310 907 Q280 907 259 886.5 Q238 866 238 835 Q238 806 259 784.5 Q280 763 310 763 Q340 763 361 784 Q382 805 382 835 Q382 866 361.5 886.5 Q341 907 310 907 Z " />
<glyph glyph-name="Atilde" unicode="&#xc3;" horiz-adv-x="620" d="M140 190 L61 0 L10 0 L297 690 L323 690 L611 0 L560 0 L481 190 L140 190 Z M310 598 L158 234 L462 234 L310 598 Z M163 753 Q165 797 185.5 825.5 Q206 854 243 854 Q281 854 322 821 Q356 794 378 794 Q397 794 408 810.5 Q419 827 421 854 L457 854 Q455 810 434.5 781.5 Q414 753 378 753 Q340 753 299 786 Q281 799 268 806 Q255 813 243 813 Q223 813 212 797 Q201 781 199 753 L163 753 Z " />
<glyph glyph-name="AE" unicode="&#xc6;" horiz-adv-x="869" d="M857 0 L470 0 L470 190 L180 190 L50 0 L-5 0 L468 690 L846 690 L846 646 L520 646 L520 380 L776 380 L776 336 L520 336 L520 44 L857 44 L857 0 Z M470 614 L210 234 L470 234 L470 614 Z " />
<glyph glyph-name="Cacute" unicode="&#x106;" horiz-adv-x="648" d="M390 -22 Q277 -22 199 31.5 Q121 85 83 168 Q45 251 45 341 Q45 439 90 522.5 Q135 606 213.5 655 Q292 704 390 704 Q456 703 501.5 688.5 Q547 674 593 645 L593 588 Q549 624 499.5 641.5 Q450 659 389 659 Q307 659 240.5 618 Q174 577 136 504.5 Q98 432 98 341 Q98 250 136 177 Q174 104 240.5 63.5 Q307 23 389 23 Q450 23 499.5 40.5 Q549 58 593 94 L593 37 Q545 7 500 -7.5 Q455 -22 390 -22 Z M342 744 L433 874 L490 874 L385 744 L342 744 Z " />
<glyph glyph-name="Ccaron" unicode="&#x10c;" horiz-adv-x="648" d="M390 -22 Q277 -22 199 31.5 Q121 85 83 168 Q45 251 45 341 Q45 439 90 522.5 Q135 606 213.5 655 Q292 704 390 704 Q456 703 501.5 688.5 Q547 674 593 645 L593 588 Q549 624 499.5 641.5 Q450 659 389 659 Q307 659 240.5 618 Q174 577 136 504.5 Q98 432 98 341 Q98 250 136 177 Q174 104 240.5 63.5 Q307 23 389 23 Q450 23 499.5 40.5 Q549 58 593 94 L593 37 Q545 7 500 -7.5 Q455 -22 390 -22 Z M345 744 L242 874 L286 874 L374 779 L462 874 L506 874 L403 744 L345 744 Z " />
<glyph glyph-name="Ccedilla" unicode="&#xc7;" horiz-adv-x="648" d="M389 659 Q307 659 240.5 618 Q174 577 136 504.5 Q98 432 98 341 Q98 250 136 177 Q174 104 240.5 63.5 Q307 23 389 23 Q450 23 499.5 40.5 Q549 58 593 94 L593 37 Q545 7 500 -7.5 Q455 -22 390 -22 L387 -22 L371 -59 Q412 -62 440 -81.5 Q468 -101 468 -139 Q468 -178 438.5 -201 Q409 -224 364 -224 Q323 -224 290 -213 L290 -173 Q324 -185 362 -185 Q424 -185 424 -139 Q424 -114 399 -102 Q374 -90 319 -90 L348 -20 Q249 -10 180.5 44.5 Q112 99 78.5 178 Q45 257 45 341 Q45 439 90 522.5 Q135 606 213.5 655 Q292 704 390 704 Q456 703 501.5 688.5 Q547 674 593 645 L593 588 Q549 624 499.5 641.5 Q450 659 389 659 Z " />
<glyph glyph-name="Ccircumflex" unicode="&#x108;" horiz-adv-x="648" d="M390 -22 Q277 -22 199 31.5 Q121 85 83 168 Q45 251 45 341 Q45 439 90 522.5 Q135 606 213.5 655 Q292 704 390 704 Q456 703 501.5 688.5 Q547 674 593 645 L593 588 Q549 624 499.5 641.5 Q450 659 389 659 Q307 659 240.5 618 Q174 577 136 504.5 Q98 432 98 341 Q98 250 136 177 Q174 104 240.5 63.5 Q307 23 389 23 Q450 23 499.5 40.5 Q549 58 593 94 L593 37 Q545 7 500 -7.5 Q455 -22 390 -22 Z M374 839 L286 744 L242 744 L345 874 L403 874 L506 744 L462 744 L374 839 Z " />
<glyph glyph-name="Cdotaccent" unicode="&#x10a;" horiz-adv-x="648" d="M390 -22 Q277 -22 199 31.5 Q121 85 83 168 Q45 251 45 341 Q45 439 90 522.5 Q135 606 213.5 655 Q292 704 390 704 Q456 703 501.5 688.5 Q547 674 593 645 L593 588 Q549 624 499.5 641.5 Q450 659 389 659 Q307 659 240.5 618 Q174 577 136 504.5 Q98 432 98 341 Q98 250 136 177 Q174 104 240.5 63.5 Q307 23 389 23 Q450 23 499.5 40.5 Q549 58 593 94 L593 37 Q545 7 500 -7.5 Q455 -22 390 -22 Z M374 781 Q358 781 347.5 792 Q337 803 337 818 Q337 834 347.5 844.5 Q358 855 374 855 Q390 855 400.5 844.5 Q411 834 411 818 Q411 803 400.5 792 Q390 781 374 781 Z " />
<glyph glyph-name="Eth" unicode="&#xd0;" horiz-adv-x="724" d="M323 690 Q436 690 516.5 643.5 Q597 597 637.5 518.5 Q678 440 678 345 Q678 251 635.5 172 Q593 93 512.5 46.5 Q432 0 321 0 L116 0 L116 332 L20 332 L20 376 L116 376 L116 690 L323 690 Z M316 44 Q415 44 485 84.5 Q555 125 590 193 Q625 261 625 345 Q625 433 590 501 Q555 569 487 607.5 Q419 646 325 646 L166 646 L166 376 L365 376 L365 332 L166 332 L166 44 L316 44 Z " />
<glyph glyph-name="Dcaron" unicode="&#x10e;" horiz-adv-x="691" d="M291 690 Q404 690 484 643.5 Q564 597 605 518.5 Q646 440 646 345 Q646 251 603.5 172.5 Q561 94 480 47 Q399 0 289 0 L83 0 L83 690 L291 690 Z M284 44 Q383 44 452.5 84.5 Q522 125 557.5 193.5 Q593 262 593 345 Q593 433 557.5 501 Q522 569 454 607.5 Q386 646 292 646 L133 646 L133 44 L284 44 Z M316 744 L213 874 L257 874 L345 779 L433 874 L477 874 L374 744 L316 744 Z " />
<glyph glyph-name="Dcroat" unicode="&#x110;" horiz-adv-x="724" d="M323 690 Q436 690 516.5 643.5 Q597 597 637.5 518.5 Q678 440 678 345 Q678 251 635.5 172 Q593 93 512.5 46.5 Q432 0 321 0 L116 0 L116 332 L20 332 L20 376 L116 376 L116 690 L323 690 Z M316 44 Q415 44 485 84.5 Q555 125 590 193 Q625 261 625 345 Q625 433 590 501 Q555 569 487 607.5 Q419 646 325 646 L166 646 L166 376 L365 376 L365 332 L166 332 L166 44 L316 44 Z " />
<glyph glyph-name="Eacute" unicode="&#xc9;" horiz-adv-x="521" d="M133 380 L390 380 L390 336 L133 336 L133 44 L471 44 L471 0 L83 0 L83 690 L460 690 L460 646 L133 646 L133 380 Z M245 744 L336 874 L393 874 L288 744 L245 744 Z " />
<glyph glyph-name="Ebreve" unicode="&#x114;" horiz-adv-x="521" d="M133 380 L390 380 L390 336 L133 336 L133 44 L471 44 L471 0 L83 0 L83 690 L460 690 L460 646 L133 646 L133 380 Z M416 874 Q412 814 373.5 779 Q335 744 277 744 Q219 744 180.5 779 Q142 814 138 874 L180 874 Q183 835 210.5 810 Q238 785 277 785 Q316 785 343.5 810 Q371 835 374 874 L416 874 Z " />
<glyph glyph-name="Ecaron" unicode="&#x11a;" horiz-adv-x="521" d="M133 380 L390 380 L390 336 L133 336 L133 44 L471 44 L471 0 L83 0 L83 690 L460 690 L460 646 L133 646 L133 380 Z M248 744 L145 874 L189 874 L277 779 L365 874 L409 874 L306 744 L248 744 Z " />
<glyph glyph-name="Ecircumflex" unicode="&#xca;" horiz-adv-x="521" d="M133 380 L390 380 L390 336 L133 336 L133 44 L471 44 L471 0 L83 0 L83 690 L460 690 L460 646 L133 646 L133 380 Z M277 839 L189 744 L145 744 L248 874 L306 874 L409 744 L365 744 L277 839 Z " />
<glyph glyph-name="Edieresis" unicode="&#xcb;" horiz-adv-x="521" d="M133 380 L390 380 L390 336 L133 336 L133 44 L471 44 L471 0 L83 0 L83 690 L460 690 L460 646 L133 646 L133 380 Z M185 766 Q170 766 159 777 Q148 788 148 803 Q148 819 159 829.5 Q170 840 186 840 Q202 840 212.5 829.5 Q223 819 223 803 Q223 788 212 777 Q201 766 185 766 Z M368 766 Q353 766 342 777 Q331 788 331 803 Q331 819 342 829.5 Q353 840 368 840 Q384 840 394.5 829.5 Q405 819 405 803 Q405 788 394.5 777 Q384 766 368 766 Z " />
<glyph glyph-name="Edotaccent" unicode="&#x116;" horiz-adv-x="521" d="M133 380 L390 380 L390 336 L133 336 L133 44 L471 44 L471 0 L83 0 L83 690 L460 690 L460 646 L133 646 L133 380 Z M277 781 Q261 781 250.5 792 Q240 803 240 818 Q240 834 250.5 844.5 Q261 855 277 855 Q293 855 303.5 844.5 Q314 834 314 818 Q314 803 303.5 792 Q293 781 277 781 Z " />
<glyph glyph-name="Egrave" unicode="&#xc8;" horiz-adv-x="521" d="M133 380 L390 380 L390 336 L133 336 L133 44 L471 44 L471 0 L83 0 L83 690 L460 690 L460 646 L133 646 L133 380 Z M309 744 L266 744 L162 874 L218 874 L309 744 Z " />
<glyph glyph-name="Emacron" unicode="&#x112;" horiz-adv-x="521" d="M133 380 L390 380 L390 336 L133 336 L133 44 L471 44 L471 0 L83 0 L83 690 L460 690 L460 646 L133 646 L133 380 Z M411 820 L411 778 L142 778 L142 820 L411 820 Z " />
<glyph glyph-name="Eogonek" unicode="&#x118;" horiz-adv-x="521" d="M426 -171 Q441 -171 451.5 -167.5 Q462 -164 475 -156 L475 -197 Q449 -212 417 -212 Q378 -212 353 -187 Q328 -162 328 -125 Q328 -89 348.5 -57 Q369 -25 400 0 L83 0 L83 690 L460 690 L460 646 L133 646 L133 380 L390 380 L390 336 L133 336 L133 44 L471 44 L471 0 L450 0 Q415 -29 393.5 -55.5 Q372 -82 372 -117 Q372 -142 386.5 -156.5 Q401 -171 426 -171 Z " />
<glyph glyph-name="Gbreve" unicode="&#x11e;" horiz-adv-x="690" d="M387 704 Q461 704 519.5 681.5 Q578 659 611 625 L611 566 Q568 613 514 636 Q460 659 392 659 Q308 659 240.5 618.5 Q173 578 134.5 506 Q96 434 96 343 Q96 254 134 180.5 Q172 107 237 65 Q302 23 380 23 Q502 23 577 78 L577 292 L394 292 L394 338 L626 338 L626 55 Q564 14 508.5 -4 Q453 -22 380 -22 Q284 -22 207 25.5 Q130 73 86.5 156 Q43 239 43 343 Q43 440 87.5 523 Q132 606 211 655 Q290 704 387 704 Z M528 874 Q524 814 485.5 779 Q447 744 389 744 Q331 744 292.5 779 Q254 814 250 874 L292 874 Q295 835 322.5 810 Q350 785 389 785 Q428 785 455.5 810 Q483 835 486 874 L528 874 Z " />
<glyph glyph-name="Gcircumflex" unicode="&#x11c;" horiz-adv-x="690" d="M387 704 Q461 704 519.5 681.5 Q578 659 611 625 L611 566 Q568 613 514 636 Q460 659 392 659 Q308 659 240.5 618.5 Q173 578 134.5 506 Q96 434 96 343 Q96 254 134 180.5 Q172 107 237 65 Q302 23 380 23 Q502 23 577 78 L577 292 L394 292 L394 338 L626 338 L626 55 Q564 14 508.5 -4 Q453 -22 380 -22 Q284 -22 207 25.5 Q130 73 86.5 156 Q43 239 43 343 Q43 440 87.5 523 Q132 606 211 655 Q290 704 387 704 Z M389 839 L301 744 L257 744 L360 874 L418 874 L521 744 L477 744 L389 839 Z " />
<glyph glyph-name="Gcommaaccent" unicode="&#x122;" horiz-adv-x="690" d="M387 704 Q461 704 519.5 681.5 Q578 659 611 625 L611 566 Q568 613 514 636 Q460 659 392 659 Q308 659 240.5 618.5 Q173 578 134.5 506 Q96 434 96 343 Q96 254 134 180.5 Q172 107 237 65 Q302 23 380 23 Q502 23 577 78 L577 292 L394 292 L394 338 L626 338 L626 55 Q564 14 508.5 -4 Q453 -22 380 -22 Q284 -22 207 25.5 Q130 73 86.5 156 Q43 239 43 343 Q43 440 87.5 523 Q132 606 211 655 Q290 704 387 704 Z M381 -49 Q418 -49 418 -105 Q418 -142 400 -169.5 Q382 -197 347 -212 L347 -175 Q363 -168 372.5 -154.5 Q382 -141 384 -126 Q345 -121 345 -86 Q345 -70 355 -59.5 Q365 -49 381 -49 Z " />
<glyph glyph-name="Gdotaccent" unicode="&#x120;" horiz-adv-x="690" d="M387 704 Q461 704 519.5 681.5 Q578 659 611 625 L611 566 Q568 613 514 636 Q460 659 392 659 Q308 659 240.5 618.5 Q173 578 134.5 506 Q96 434 96 343 Q96 254 134 180.5 Q172 107 237 65 Q302 23 380 23 Q502 23 577 78 L577 292 L394 292 L394 338 L626 338 L626 55 Q564 14 508.5 -4 Q453 -22 380 -22 Q284 -22 207 25.5 Q130 73 86.5 156 Q43 239 43 343 Q43 440 87.5 523 Q132 606 211 655 Q290 704 387 704 Z M389 781 Q373 781 362.5 792 Q352 803 352 818 Q352 834 362.5 844.5 Q373 855 389 855 Q405 855 415.5 844.5 Q426 834 426 818 Q426 803 415.5 792 Q405 781 389 781 Z " />
<glyph glyph-name="Hbar" unicode="&#x126;" horiz-adv-x="708" d="M625 511 L625 0 L575 0 L575 332 L133 332 L133 0 L83 0 L83 511 L15 511 L15 554 L83 554 L83 690 L133 690 L133 554 L575 554 L575 690 L625 690 L625 554 L693 554 L693 511 L625 511 Z M133 511 L133 376 L575 376 L575 511 L133 511 Z " />
<glyph glyph-name="Hcircumflex" unicode="&#x124;" horiz-adv-x="708" d="M133 0 L83 0 L83 690 L133 690 L133 376 L575 376 L575 690 L625 690 L625 0 L575 0 L575 332 L133 332 L133 0 Z M355 839 L267 744 L223 744 L326 874 L384 874 L487 744 L443 744 L355 839 Z " />
<glyph glyph-name="IJ" unicode="&#x132;" horiz-adv-x="543" d="M133 0 L83 0 L83 690 L133 690 L133 0 Z M474 174 Q474 78 433.5 34.5 Q393 -9 317 -9 Q261 -9 238 1 L238 51 Q253 45 274.5 40.5 Q296 36 314 36 Q424 36 424 172 L424 690 L474 690 L474 174 Z " />
<glyph glyph-name="Iacute" unicode="&#xcd;" horiz-adv-x="217" d="M133 0 L83 0 L83 690 L133 690 L133 0 Z M77 744 L168 874 L225 874 L120 744 L77 744 Z " />
<glyph glyph-name="Ibreve" unicode="&#x12c;" horiz-adv-x="217" d="M133 0 L83 0 L83 690 L133 690 L133 0 Z M248 874 Q244 814 205.5 779 Q167 744 109 744 Q51 744 12.5 779 Q-26 814 -30 874 L12 874 Q15 835 42.5 810 Q70 785 109 785 Q148 785 175.5 810 Q203 835 206 874 L248 874 Z " />
<glyph glyph-name="Icircumflex" unicode="&#xce;" horiz-adv-x="217" d="M133 0 L83 0 L83 690 L133 690 L133 0 Z M109 839 L21 744 L-23 744 L80 874 L138 874 L241 744 L197 744 L109 839 Z " />
<glyph glyph-name="Idieresis" unicode="&#xcf;" horiz-adv-x="217" d="M133 0 L83 0 L83 690 L133 690 L133 0 Z M17 766 Q2 766 -9 777 Q-20 788 -20 803 Q-20 819 -9 829.5 Q2 840 18 840 Q34 840 44.5 829.5 Q55 819 55 803 Q55 788 44 777 Q33 766 17 766 Z M200 766 Q185 766 174 777 Q163 788 163 803 Q163 819 174 829.5 Q185 840 200 840 Q216 840 226.5 829.5 Q237 819 237 803 Q237 788 226.5 777 Q216 766 200 766 Z " />
<glyph glyph-name="Idot" unicode="&#x130;" horiz-adv-x="217" d="M133 0 L83 0 L83 690 L133 690 L133 0 Z M109 781 Q93 781 82.5 792 Q72 803 72 818 Q72 834 82.5 844.5 Q93 855 109 855 Q125 855 135.5 844.5 Q146 834 146 818 Q146 803 135.5 792 Q125 781 109 781 Z " />
<glyph glyph-name="Igrave" unicode="&#xcc;" horiz-adv-x="217" d="M133 0 L83 0 L83 690 L133 690 L133 0 Z M141 744 L98 744 L-6 874 L50 874 L141 744 Z " />
<glyph glyph-name="Imacron" unicode="&#x12a;" horiz-adv-x="217" d="M133 0 L83 0 L83 690 L133 690 L133 0 Z M243 820 L243 778 L-26 778 L-26 820 L243 820 Z " />
<glyph glyph-name="Iogonek" unicode="&#x12e;" horiz-adv-x="217" d="M109 -171 Q125 -171 134.5 -167.5 Q144 -164 159 -156 L159 -197 Q133 -212 101 -212 Q62 -212 37 -187 Q12 -162 12 -125 Q12 -60 83 0 L83 690 L133 690 L133 0 Q98 -29 77 -55.5 Q56 -82 56 -117 Q56 -142 70.5 -156.5 Q85 -171 109 -171 Z " />
<glyph glyph-name="Itilde" unicode="&#x128;" horiz-adv-x="217" d="M133 0 L83 0 L83 690 L133 690 L133 0 Z M-39 753 Q-37 797 -16.5 825.5 Q4 854 41 854 Q79 854 120 821 Q154 794 176 794 Q195 794 206 810.5 Q217 827 219 854 L255 854 Q253 810 232.5 781.5 Q212 753 176 753 Q138 753 97 786 Q79 799 66 806 Q53 813 41 813 Q21 813 10 797 Q-1 781 -3 753 L-39 753 Z " />
<glyph glyph-name="Jcircumflex" unicode="&#x134;" horiz-adv-x="326" d="M257 174 Q257 78 216.5 34.5 Q176 -9 100 -9 Q44 -9 21 1 L21 51 Q36 45 57.5 40.5 Q79 36 97 36 Q207 36 207 172 L207 690 L257 690 L257 174 Z M232 839 L144 744 L100 744 L203 874 L261 874 L364 744 L320 744 L232 839 Z " />
<glyph glyph-name="Kcommaaccent" unicode="&#x136;" horiz-adv-x="599" d="M201 339 L133 271 L133 0 L83 0 L83 690 L133 690 L133 345 L487 690 L555 690 L239 376 L596 0 L526 0 L201 339 Z M305 -49 Q342 -49 342 -105 Q342 -142 324 -169.5 Q306 -197 271 -212 L271 -175 Q287 -168 296.5 -154.5 Q306 -141 308 -126 Q269 -121 269 -86 Q269 -70 279 -59.5 Q289 -49 305 -49 Z " />
<glyph glyph-name="Lacute" unicode="&#x139;" horiz-adv-x="484" d="M128 44 L465 44 L465 0 L78 0 L78 690 L128 690 L128 44 Z M72 744 L163 874 L220 874 L115 744 L72 744 Z " />
<glyph glyph-name="Lcaron" unicode="&#x13d;" horiz-adv-x="484" d="M128 44 L465 44 L465 0 L78 0 L78 690 L128 690 L128 44 Z M217 525 L229 690 L280 690 L253 525 L217 525 Z " />
<glyph glyph-name="Lcommaaccent" unicode="&#x13b;" horiz-adv-x="484" d="M128 44 L465 44 L465 0 L78 0 L78 690 L128 690 L128 44 Z M273 -49 Q310 -49 310 -105 Q310 -142 292 -169.5 Q274 -197 239 -212 L239 -175 Q255 -168 264.5 -154.5 Q274 -141 276 -126 Q237 -121 237 -86 Q237 -70 247 -59.5 Q257 -49 273 -49 Z " />
<glyph glyph-name="Ldot" unicode="&#x13f;" horiz-adv-x="484" d="M128 44 L465 44 L465 0 L78 0 L78 690 L128 690 L128 44 Z M343 331 Q324 331 311.5 344 Q299 357 299 375 Q299 393 311.5 406 Q324 419 343 419 Q361 419 374 406 Q387 393 387 375 Q387 357 374 344 Q361 331 343 331 Z " />
<glyph glyph-name="Lslash" unicode="&#x141;" horiz-adv-x="489" d="M475 0 L88 0 L88 275 L15 221 L15 273 L88 327 L88 690 L138 690 L138 364 L271 463 L271 410 L138 312 L138 44 L475 44 L475 0 Z " />
<glyph glyph-name="Nacute" unicode="&#x143;" horiz-adv-x="687" d="M130 690 L557 86 L557 690 L604 690 L604 0 L558 0 L130 603 L130 0 L83 0 L83 690 L130 690 Z M312 744 L403 874 L460 874 L355 744 L312 744 Z " />
<glyph glyph-name="Ncaron" unicode="&#x147;" horiz-adv-x="687" d="M130 690 L557 86 L557 690 L604 690 L604 0 L558 0 L130 603 L130 0 L83 0 L83 690 L130 690 Z M315 744 L212 874 L256 874 L344 779 L432 874 L476 874 L373 744 L315 744 Z " />
<glyph glyph-name="Ncommaaccent" unicode="&#x145;" horiz-adv-x="687" d="M130 690 L557 86 L557 690 L604 690 L604 0 L558 0 L130 603 L130 0 L83 0 L83 690 L130 690 Z M344 -49 Q381 -49 381 -105 Q381 -142 363 -169.5 Q345 -197 310 -212 L310 -175 Q326 -168 335.5 -154.5 Q345 -141 347 -126 Q308 -121 308 -86 Q308 -70 318 -59.5 Q328 -49 344 -49 Z " />
<glyph glyph-name="Eng" unicode="&#x14a;" horiz-adv-x="687" d="M604 -47 Q604 -137 566.5 -179 Q529 -221 464 -221 Q448 -221 428.5 -218 Q409 -215 397 -211 L397 -171 Q429 -181 459 -181 Q509 -181 533 -149 Q557 -117 557 -43 L557 2 L130 603 L130 0 L83 0 L83 690 L130 690 L557 86 L557 690 L604 690 L604 -47 Z " />
<glyph glyph-name="Ntilde" unicode="&#xd1;" horiz-adv-x="687" d="M130 690 L557 86 L557 690 L604 690 L604 0 L558 0 L130 603 L130 0 L83 0 L83 690 L130 690 Z M196 753 Q198 797 218.5 825.5 Q239 854 276 854 Q314 854 355 821 Q389 794 411 794 Q430 794 441 810.5 Q452 827 454 854 L490 854 Q488 810 467.5 781.5 Q447 753 411 753 Q373 753 332 786 Q314 799 301 806 Q288 813 276 813 Q256 813 245 797 Q234 781 232 753 L196 753 Z " />
<glyph glyph-name="Oacute" unicode="&#xd3;" horiz-adv-x="780" d="M45 341 Q45 438 90 521.5 Q135 605 214 654.5 Q293 704 390 704 Q494 704 572 654 Q650 604 692.5 521 Q735 438 735 341 Q735 242 689.5 158.5 Q644 75 565 26.5 Q486 -22 390 -22 Q278 -22 200 31.5 Q122 85 83.5 168.5 Q45 252 45 341 Z M98 341 Q98 251 136.5 178 Q175 105 241.5 64 Q308 23 389 23 Q470 23 537 64 Q604 105 642.5 178 Q681 251 681 341 Q681 431 644 503.5 Q607 576 540.5 617.5 Q474 659 389 659 Q308 659 241.5 618 Q175 577 136.5 504.5 Q98 432 98 341 Z M358 744 L449 874 L506 874 L401 744 L358 744 Z " />
<glyph glyph-name="Obreve" unicode="&#x14e;" horiz-adv-x="780" d="M45 341 Q45 438 90 521.5 Q135 605 214 654.5 Q293 704 390 704 Q494 704 572 654 Q650 604 692.5 521 Q735 438 735 341 Q735 242 689.5 158.5 Q644 75 565 26.5 Q486 -22 390 -22 Q278 -22 200 31.5 Q122 85 83.5 168.5 Q45 252 45 341 Z M98 341 Q98 251 136.5 178 Q175 105 241.5 64 Q308 23 389 23 Q470 23 537 64 Q604 105 642.5 178 Q681 251 681 341 Q681 431 644 503.5 Q607 576 540.5 617.5 Q474 659 389 659 Q308 659 241.5 618 Q175 577 136.5 504.5 Q98 432 98 341 Z M530 874 Q526 814 487.5 779 Q449 744 391 744 Q333 744 294.5 779 Q256 814 252 874 L294 874 Q297 835 324.5 810 Q352 785 391 785 Q430 785 457.5 810 Q485 835 488 874 L530 874 Z " />
<glyph glyph-name="Ocircumflex" unicode="&#xd4;" horiz-adv-x="780" d="M45 341 Q45 438 90 521.5 Q135 605 214 654.5 Q293 704 390 704 Q494 704 572 654 Q650 604 692.5 521 Q735 438 735 341 Q735 242 689.5 158.5 Q644 75 565 26.5 Q486 -22 390 -22 Q278 -22 200 31.5 Q122 85 83.5 168.5 Q45 252 45 341 Z M98 341 Q98 251 136.5 178 Q175 105 241.5 64 Q308 23 389 23 Q470 23 537 64 Q604 105 642.5 178 Q681 251 681 341 Q681 431 644 503.5 Q607 576 540.5 617.5 Q474 659 389 659 Q308 659 241.5 618 Q175 577 136.5 504.5 Q98 432 98 341 Z M390 839 L302 744 L258 744 L361 874 L419 874 L522 744 L478 744 L390 839 Z " />
<glyph glyph-name="Odieresis" unicode="&#xd6;" horiz-adv-x="780" d="M45 341 Q45 438 90 521.5 Q135 605 214 654.5 Q293 704 390 704 Q494 704 572 654 Q650 604 692.5 521 Q735 438 735 341 Q735 242 689.5 158.5 Q644 75 565 26.5 Q486 -22 390 -22 Q278 -22 200 31.5 Q122 85 83.5 168.5 Q45 252 45 341 Z M98 341 Q98 251 136.5 178 Q175 105 241.5 64 Q308 23 389 23 Q470 23 537 64 Q604 105 642.5 178 Q681 251 681 341 Q681 431 644 503.5 Q607 576 540.5 617.5 Q474 659 389 659 Q308 659 241.5 618 Q175 577 136.5 504.5 Q98 432 98 341 Z M298 766 Q283 766 272 777 Q261 788 261 803 Q261 819 272 829.5 Q283 840 299 840 Q315 840 325.5 829.5 Q336 819 336 803 Q336 788 325 777 Q314 766 298 766 Z M481 766 Q466 766 455 777 Q444 788 444 803 Q444 819 455 829.5 Q466 840 481 840 Q497 840 507.5 829.5 Q518 819 518 803 Q518 788 507.5 777 Q497 766 481 766 Z " />
<glyph glyph-name="Ograve" unicode="&#xd2;" horiz-adv-x="780" d="M45 341 Q45 438 90 521.5 Q135 605 214 654.5 Q293 704 390 704 Q494 704 572 654 Q650 604 692.5 521 Q735 438 735 341 Q735 242 689.5 158.5 Q644 75 565 26.5 Q486 -22 390 -22 Q278 -22 200 31.5 Q122 85 83.5 168.5 Q45 252 45 341 Z M98 341 Q98 251 136.5 178 Q175 105 241.5 64 Q308 23 389 23 Q470 23 537 64 Q604 105 642.5 178 Q681 251 681 341 Q681 431 644 503.5 Q607 576 540.5 617.5 Q474 659 389 659 Q308 659 241.5 618 Q175 577 136.5 504.5 Q98 432 98 341 Z M422 744 L379 744 L275 874 L331 874 L422 744 Z " />
<glyph glyph-name="Ohungarumlaut" unicode="&#x150;" horiz-adv-x="780" d="M45 341 Q45 438 90 521.5 Q135 605 214 654.5 Q293 704 390 704 Q494 704 572 654 Q650 604 692.5 521 Q735 438 735 341 Q735 242 689.5 158.5 Q644 75 565 26.5 Q486 -22 390 -22 Q278 -22 200 31.5 Q122 85 83.5 168.5 Q45 252 45 341 Z M98 341 Q98 251 136.5 178 Q175 105 241.5 64 Q308 23 389 23 Q470 23 537 64 Q604 105 642.5 178 Q681 251 681 341 Q681 431 644 503.5 Q607 576 540.5 617.5 Q474 659 389 659 Q308 659 241.5 618 Q175 577 136.5 504.5 Q98 432 98 341 Z M267 744 L359 874 L415 874 L310 744 L267 744 Z M421 744 L513 874 L569 874 L464 744 L421 744 Z " />
<glyph glyph-name="Omacron" unicode="&#x14c;" horiz-adv-x="780" d="M45 341 Q45 438 90 521.5 Q135 605 214 654.5 Q293 704 390 704 Q494 704 572 654 Q650 604 692.5 521 Q735 438 735 341 Q735 242 689.5 158.5 Q644 75 565 26.5 Q486 -22 390 -22 Q278 -22 200 31.5 Q122 85 83.5 168.5 Q45 252 45 341 Z M98 341 Q98 251 136.5 178 Q175 105 241.5 64 Q308 23 389 23 Q470 23 537 64 Q604 105 642.5 178 Q681 251 681 341 Q681 431 644 503.5 Q607 576 540.5 617.5 Q474 659 389 659 Q308 659 241.5 618 Q175 577 136.5 504.5 Q98 432 98 341 Z M525 820 L525 778 L256 778 L256 820 L525 820 Z " />
<glyph glyph-name="Oslash" unicode="&#xd8;" horiz-adv-x="774" d="M640 602 Q688 551 713.5 483.5 Q739 416 739 341 Q739 242 694 158.5 Q649 75 570 26.5 Q491 -22 395 -22 Q259 -22 168 59 L81 -41 L48 -12 L138 91 Q94 142 72 207.5 Q50 273 50 341 Q50 438 95 521.5 Q140 605 218.5 654.5 Q297 704 395 704 Q457 704 511.5 685 Q566 666 609 631 L686 720 L718 691 L640 602 Z M103 341 Q103 280 121 226 Q139 172 172 130 L577 595 Q499 659 394 659 Q313 659 246.5 618 Q180 577 141.5 504.5 Q103 432 103 341 Z M394 23 Q475 23 541.5 64 Q608 105 646.5 178 Q685 251 685 341 Q685 407 665 464.5 Q645 522 608 564 L202 98 Q241 62 290 42.5 Q339 23 394 23 Z " />
<glyph glyph-name="Otilde" unicode="&#xd5;" horiz-adv-x="780" d="M45 341 Q45 438 90 521.5 Q135 605 214 654.5 Q293 704 390 704 Q494 704 572 654 Q650 604 692.5 521 Q735 438 735 341 Q735 242 689.5 158.5 Q644 75 565 26.5 Q486 -22 390 -22 Q278 -22 200 31.5 Q122 85 83.5 168.5 Q45 252 45 341 Z M98 341 Q98 251 136.5 178 Q175 105 241.5 64 Q308 23 389 23 Q470 23 537 64 Q604 105 642.5 178 Q681 251 681 341 Q681 431 644 503.5 Q607 576 540.5 617.5 Q474 659 389 659 Q308 659 241.5 618 Q175 577 136.5 504.5 Q98 432 98 341 Z M243 753 Q245 797 265.5 825.5 Q286 854 323 854 Q361 854 402 821 Q436 794 458 794 Q477 794 488 810.5 Q499 827 501 854 L537 854 Q535 810 514.5 781.5 Q494 753 458 753 Q420 753 379 786 Q361 799 348 806 Q335 813 323 813 Q303 813 292 797 Q281 781 279 753 L243 753 Z " />
<glyph glyph-name="OE" unicode="&#x152;" horiz-adv-x="1122" d="M1072 0 L685 0 L685 153 Q640 73 562 25.5 Q484 -22 390 -22 Q278 -22 200 31.5 Q122 85 83.5 168.5 Q45 252 45 341 Q45 438 90 521.5 Q135 605 214 654.5 Q293 704 390 704 Q489 704 565 657.5 Q641 611 685 532 L685 690 L1061 690 L1061 646 L735 646 L735 380 L991 380 L991 336 L735 336 L735 44 L1072 44 L1072 0 Z M389 23 Q470 23 537 64 Q604 105 642.5 178 Q681 251 681 341 Q681 431 644 503.5 Q607 576 540.5 617.5 Q474 659 389 659 Q308 659 241.5 618 Q175 577 136.5 504.5 Q98 432 98 341 Q98 251 136.5 178 Q175 105 241.5 64 Q308 23 389 23 Z " />
<glyph glyph-name="Thorn" unicode="&#xde;" horiz-adv-x="554" d="M269 564 Q385 564 452 511.5 Q519 459 519 360 Q519 263 457 208.5 Q395 154 262 154 L133 154 L133 0 L83 0 L83 690 L133 690 L133 564 L269 564 Z M281 197 Q378 197 422.5 242.5 Q467 288 467 360 Q467 431 417.5 475.5 Q368 520 272 520 L133 520 L133 197 L281 197 Z " />
<glyph glyph-name="Racute" unicode="&#x154;" horiz-adv-x="576" d="M300 254 Q288 253 262 253 L133 253 L133 0 L83 0 L83 690 L269 690 Q386 690 452.5 634 Q519 578 519 471 Q519 388 478 333.5 Q437 279 351 261 L556 0 L498 0 L300 254 Z M281 297 Q378 297 422.5 345.5 Q467 394 467 471 Q467 549 417.5 597.5 Q368 646 272 646 L133 646 L133 297 L281 297 Z M248 744 L339 874 L396 874 L291 744 L248 744 Z " />
<glyph glyph-name="Rcaron" unicode="&#x158;" horiz-adv-x="576" d="M300 254 Q288 253 262 253 L133 253 L133 0 L83 0 L83 690 L269 690 Q386 690 452.5 634 Q519 578 519 471 Q519 388 478 333.5 Q437 279 351 261 L556 0 L498 0 L300 254 Z M281 297 Q378 297 422.5 345.5 Q467 394 467 471 Q467 549 417.5 597.5 Q368 646 272 646 L133 646 L133 297 L281 297 Z M250 744 L147 874 L191 874 L279 779 L367 874 L411 874 L308 744 L250 744 Z " />
<glyph glyph-name="Rcommaaccent" unicode="&#x156;" horiz-adv-x="576" d="M300 254 Q288 253 262 253 L133 253 L133 0 L83 0 L83 690 L269 690 Q386 690 452.5 634 Q519 578 519 471 Q519 388 478 333.5 Q437 279 351 261 L556 0 L498 0 L300 254 Z M281 297 Q378 297 422.5 345.5 Q467 394 467 471 Q467 549 417.5 597.5 Q368 646 272 646 L133 646 L133 297 L281 297 Z M308 -49 Q345 -49 345 -105 Q345 -142 327 -169.5 Q309 -197 274 -212 L274 -175 Q290 -168 299.5 -154.5 Q309 -141 311 -126 Q272 -121 272 -86 Q272 -70 282 -59.5 Q292 -49 308 -49 Z " />
<glyph glyph-name="Sacute" unicode="&#x15a;" horiz-adv-x="558" d="M70 101 Q157 23 276 23 Q355 23 400.5 62.5 Q446 102 446 171 Q446 216 430.5 246 Q415 276 378.5 299 Q342 322 274 346 Q168 384 122.5 430 Q77 476 77 543 Q77 590 102.5 627 Q128 664 173.5 684 Q219 704 277 704 Q338 704 385 688 Q432 672 472 637 L472 581 Q391 658 280 659 Q210 659 169 626.5 Q128 594 128 542 Q128 507 143 483 Q158 459 195.5 438 Q233 417 304 390 Q406 352 451 302 Q496 252 496 176 Q496 85 436.5 31.5 Q377 -22 276 -22 Q211 -22 161.5 -6 Q112 10 70 45 L70 101 Z M246 744 L337 874 L394 874 L289 744 L246 744 Z " />
<glyph glyph-name="Scaron" unicode="&#x160;" horiz-adv-x="558" d="M70 101 Q157 23 276 23 Q355 23 400.5 62.5 Q446 102 446 171 Q446 216 430.5 246 Q415 276 378.5 299 Q342 322 274 346 Q168 384 122.5 430 Q77 476 77 543 Q77 590 102.5 627 Q128 664 173.5 684 Q219 704 277 704 Q338 704 385 688 Q432 672 472 637 L472 581 Q391 658 280 659 Q210 659 169 626.5 Q128 594 128 542 Q128 507 143 483 Q158 459 195.5 438 Q233 417 304 390 Q406 352 451 302 Q496 252 496 176 Q496 85 436.5 31.5 Q377 -22 276 -22 Q211 -22 161.5 -6 Q112 10 70 45 L70 101 Z M249 744 L146 874 L190 874 L278 779 L366 874 L410 874 L307 744 L249 744 Z " />
<glyph glyph-name="Scedilla" unicode="&#x15e;" horiz-adv-x="558" d="M496 176 Q496 88 440 35 Q384 -18 289 -22 L273 -59 Q314 -62 342 -81.5 Q370 -101 370 -139 Q370 -178 340.5 -201 Q311 -224 266 -224 Q225 -224 192 -213 L192 -173 Q226 -185 264 -185 Q326 -185 326 -139 Q326 -114 301 -102 Q276 -90 221 -90 L250 -21 Q195 -18 151.5 -2 Q108 14 70 45 L70 101 Q157 23 276 23 Q355 23 400.5 62.5 Q446 102 446 171 Q446 216 430.5 246 Q415 276 378.5 299 Q342 322 274 346 Q168 384 122.5 430 Q77 476 77 543 Q77 590 102.5 627 Q128 664 173.5 684 Q219 704 277 704 Q338 704 385 688 Q432 672 472 637 L472 581 Q391 658 280 659 Q210 659 169 626.5 Q128 594 128 542 Q128 507 143 483 Q158 459 195.5 438 Q233 417 304 390 Q406 352 451 302 Q496 252 496 176 Z " />
<glyph glyph-name="Scircumflex" unicode="&#x15c;" horiz-adv-x="558" d="M70 101 Q157 23 276 23 Q355 23 400.5 62.5 Q446 102 446 171 Q446 216 430.5 246 Q415 276 378.5 299 Q342 322 274 346 Q168 384 122.5 430 Q77 476 77 543 Q77 590 102.5 627 Q128 664 173.5 684 Q219 704 277 704 Q338 704 385 688 Q432 672 472 637 L472 581 Q391 658 280 659 Q210 659 169 626.5 Q128 594 128 542 Q128 507 143 483 Q158 459 195.5 438 Q233 417 304 390 Q406 352 451 302 Q496 252 496 176 Q496 85 436.5 31.5 Q377 -22 276 -22 Q211 -22 161.5 -6 Q112 10 70 45 L70 101 Z M278 839 L190 744 L146 744 L249 874 L307 874 L410 744 L366 744 L278 839 Z " />
<glyph glyph-name="Scommaaccent" unicode="&#x218;" horiz-adv-x="558" d="M70 101 Q157 23 276 23 Q355 23 400.5 62.5 Q446 102 446 171 Q446 216 430.5 246 Q415 276 378.5 299 Q342 322 274 346 Q168 384 122.5 430 Q77 476 77 543 Q77 590 102.5 627 Q128 664 173.5 684 Q219 704 277 704 Q338 704 385 688 Q432 672 472 637 L472 581 Q391 658 280 659 Q210 659 169 626.5 Q128 594 128 542 Q128 507 143 483 Q158 459 195.5 438 Q233 417 304 390 Q406 352 451 302 Q496 252 496 176 Q496 85 436.5 31.5 Q377 -22 276 -22 Q211 -22 161.5 -6 Q112 10 70 45 L70 101 Z M275 -49 Q312 -49 312 -105 Q312 -142 294 -169.5 Q276 -197 241 -212 L241 -175 Q257 -168 266.5 -154.5 Q276 -141 278 -126 Q239 -121 239 -86 Q239 -70 249 -59.5 Q259 -49 275 -49 Z " />
<glyph glyph-name="Germandbls" unicode="&#x1e9e;" horiz-adv-x="688" d="M372 400 L410 391 Q539 359 589.5 308 Q640 257 640 176 Q640 85 580.5 31.5 Q521 -22 421 -22 Q357 -22 307.5 -6 Q258 10 217 44 L217 100 Q304 22 421 22 Q500 22 545.5 62 Q591 102 591 170 Q591 225 563.5 260 Q536 295 483.5 316.5 Q431 338 342 358 L314 364 L314 402 L511 646 L358 646 Q237 646 185 594.5 Q133 543 133 440 L133 0 L83 0 L83 440 Q83 570 153 630 Q223 690 362 690 L572 690 L572 648 L372 400 Z " />
<glyph glyph-name="Tbar" unicode="&#x166;" horiz-adv-x="520" d="M285 374 L395 374 L395 332 L285 332 L285 0 L235 0 L235 332 L126 332 L126 374 L235 374 L235 646 L19 646 L19 690 L501 690 L501 646 L285 646 L285 374 Z " />
<glyph glyph-name="Tcaron" unicode="&#x164;" horiz-adv-x="520" d="M19 690 L501 690 L501 646 L285 646 L285 0 L235 0 L235 646 L19 646 L19 690 Z M231 744 L128 874 L172 874 L260 779 L348 874 L392 874 L289 744 L231 744 Z " />
<glyph glyph-name="uni0162" unicode="&#x162;" horiz-adv-x="520" d="M19 690 L501 690 L501 646 L285 646 L285 0 L235 0 L235 646 L19 646 L19 690 Z M257 -49 Q294 -49 294 -105 Q294 -142 276 -169.5 Q258 -197 223 -212 L223 -175 Q239 -168 248.5 -154.5 Q258 -141 260 -126 Q221 -121 221 -86 Q221 -70 231 -59.5 Q241 -49 257 -49 Z " />
<glyph glyph-name="uni021A" unicode="&#x21a;" horiz-adv-x="520" d="M19 690 L501 690 L501 646 L285 646 L285 0 L235 0 L235 646 L19 646 L19 690 Z M257 -49 Q294 -49 294 -105 Q294 -142 276 -169.5 Q258 -197 223 -212 L223 -175 Q239 -168 248.5 -154.5 Q258 -141 260 -126 Q221 -121 221 -86 Q221 -70 231 -59.5 Q241 -49 257 -49 Z " />
<glyph glyph-name="Uacute" unicode="&#xda;" horiz-adv-x="637" d="M317 -22 Q250 -22 194 7 Q138 36 103 101.5 Q68 167 68 269 L68 690 L118 690 L118 256 Q118 150 170.5 86 Q223 22 317 22 Q421 22 469.5 84.5 Q518 147 518 256 L518 690 L568 690 L568 271 Q568 119 498.5 48.5 Q429 -22 317 -22 Z M286 744 L377 874 L434 874 L329 744 L286 744 Z " />
<glyph glyph-name="Ubreve" unicode="&#x16c;" horiz-adv-x="637" d="M317 -22 Q250 -22 194 7 Q138 36 103 101.5 Q68 167 68 269 L68 690 L118 690 L118 256 Q118 150 170.5 86 Q223 22 317 22 Q421 22 469.5 84.5 Q518 147 518 256 L518 690 L568 690 L568 271 Q568 119 498.5 48.5 Q429 -22 317 -22 Z M457 874 Q453 814 414.5 779 Q376 744 318 744 Q260 744 221.5 779 Q183 814 179 874 L221 874 Q224 835 251.5 810 Q279 785 318 785 Q357 785 384.5 810 Q412 835 415 874 L457 874 Z " />
<glyph glyph-name="Ucircumflex" unicode="&#xdb;" horiz-adv-x="637" d="M317 -22 Q250 -22 194 7 Q138 36 103 101.5 Q68 167 68 269 L68 690 L118 690 L118 256 Q118 150 170.5 86 Q223 22 317 22 Q421 22 469.5 84.5 Q518 147 518 256 L518 690 L568 690 L568 271 Q568 119 498.5 48.5 Q429 -22 317 -22 Z M317 839 L229 744 L185 744 L288 874 L346 874 L449 744 L405 744 L317 839 Z " />
<glyph glyph-name="Udieresis" unicode="&#xdc;" horiz-adv-x="637" d="M317 -22 Q250 -22 194 7 Q138 36 103 101.5 Q68 167 68 269 L68 690 L118 690 L118 256 Q118 150 170.5 86 Q223 22 317 22 Q421 22 469.5 84.5 Q518 147 518 256 L518 690 L568 690 L568 271 Q568 119 498.5 48.5 Q429 -22 317 -22 Z M226 766 Q211 766 200 777 Q189 788 189 803 Q189 819 200 829.5 Q211 840 227 840 Q243 840 253.5 829.5 Q264 819 264 803 Q264 788 253 777 Q242 766 226 766 Z M409 766 Q394 766 383 777 Q372 788 372 803 Q372 819 383 829.5 Q394 840 409 840 Q425 840 435.5 829.5 Q446 819 446 803 Q446 788 435.5 777 Q425 766 409 766 Z " />
<glyph glyph-name="Ugrave" unicode="&#xd9;" horiz-adv-x="637" d="M317 -22 Q250 -22 194 7 Q138 36 103 101.5 Q68 167 68 269 L68 690 L118 690 L118 256 Q118 150 170.5 86 Q223 22 317 22 Q421 22 469.5 84.5 Q518 147 518 256 L518 690 L568 690 L568 271 Q568 119 498.5 48.5 Q429 -22 317 -22 Z M349 744 L306 744 L202 874 L258 874 L349 744 Z " />
<glyph glyph-name="Uhungarumlaut" unicode="&#x170;" horiz-adv-x="637" d="M317 -22 Q250 -22 194 7 Q138 36 103 101.5 Q68 167 68 269 L68 690 L118 690 L118 256 Q118 150 170.5 86 Q223 22 317 22 Q421 22 469.5 84.5 Q518 147 518 256 L518 690 L568 690 L568 271 Q568 119 498.5 48.5 Q429 -22 317 -22 Z M195 744 L287 874 L343 874 L238 744 L195 744 Z M349 744 L441 874 L497 874 L392 744 L349 744 Z " />
<glyph glyph-name="Umacron" unicode="&#x16a;" horiz-adv-x="637" d="M317 -22 Q250 -22 194 7 Q138 36 103 101.5 Q68 167 68 269 L68 690 L118 690 L118 256 Q118 150 170.5 86 Q223 22 317 22 Q421 22 469.5 84.5 Q518 147 518 256 L518 690 L568 690 L568 271 Q568 119 498.5 48.5 Q429 -22 317 -22 Z M452 820 L452 778 L183 778 L183 820 L452 820 Z " />
<glyph glyph-name="Uogonek" unicode="&#x172;" horiz-adv-x="637" d="M568 271 Q568 163 535.5 101 Q503 39 440 5 Q408 -13 380.5 -47 Q353 -81 353 -117 Q353 -142 367.5 -156.5 Q382 -171 406 -171 Q422 -171 431.5 -167.5 Q441 -164 456 -156 L456 -197 Q430 -212 398 -212 Q359 -212 334 -187 Q309 -162 309 -125 Q309 -94 325 -66.5 Q341 -39 364 -19 Q342 -22 317 -22 Q250 -22 194 7 Q138 36 103 101.5 Q68 167 68 269 L68 690 L118 690 L118 256 Q118 150 170.5 86 Q223 22 317 22 Q421 22 469.5 84.5 Q518 147 518 256 L518 690 L568 690 L568 271 Z " />
<glyph glyph-name="Uring" unicode="&#x16e;" horiz-adv-x="637" d="M317 -22 Q250 -22 194 7 Q138 36 103 101.5 Q68 167 68 269 L68 690 L118 690 L118 256 Q118 150 170.5 86 Q223 22 317 22 Q421 22 469.5 84.5 Q518 147 518 256 L518 690 L568 690 L568 271 Q568 119 498.5 48.5 Q429 -22 317 -22 Z M317 946 Q363 946 395.5 913.5 Q428 881 428 835 Q428 790 395.5 757 Q363 724 317 724 Q272 724 239 757 Q206 790 206 835 Q206 881 239 913.5 Q272 946 317 946 Z M317 907 Q287 907 266 886.5 Q245 866 245 835 Q245 806 266 784.5 Q287 763 317 763 Q347 763 368 784 Q389 805 389 835 Q389 866 368.5 886.5 Q348 907 317 907 Z " />
<glyph glyph-name="Utilde" unicode="&#x168;" horiz-adv-x="637" d="M317 -22 Q250 -22 194 7 Q138 36 103 101.5 Q68 167 68 269 L68 690 L118 690 L118 256 Q118 150 170.5 86 Q223 22 317 22 Q421 22 469.5 84.5 Q518 147 518 256 L518 690 L568 690 L568 271 Q568 119 498.5 48.5 Q429 -22 317 -22 Z M170 753 Q172 797 192.5 825.5 Q213 854 250 854 Q288 854 329 821 Q363 794 385 794 Q404 794 415 810.5 Q426 827 428 854 L464 854 Q462 810 441.5 781.5 Q421 753 385 753 Q347 753 306 786 Q288 799 275 806 Q262 813 250 813 Q230 813 219 797 Q208 781 206 753 L170 753 Z " />
<glyph glyph-name="Wacute" unicode="&#x1e82;" horiz-adv-x="891" d="M60 690 L253 81 L422 690 L470 690 L639 81 L832 690 L881 690 L661 0 L615 0 L446 605 L276 0 L231 0 L11 690 L60 690 Z M412 744 L503 874 L560 874 L455 744 L412 744 Z " />
<glyph glyph-name="Wcircumflex" unicode="&#x174;" horiz-adv-x="891" d="M60 690 L253 81 L422 690 L470 690 L639 81 L832 690 L881 690 L661 0 L615 0 L446 605 L276 0 L231 0 L11 690 L60 690 Z M443 839 L355 744 L311 744 L414 874 L472 874 L575 744 L531 744 L443 839 Z " />
<glyph glyph-name="Wdieresis" unicode="&#x1e84;" horiz-adv-x="891" d="M60 690 L253 81 L422 690 L470 690 L639 81 L832 690 L881 690 L661 0 L615 0 L446 605 L276 0 L231 0 L11 690 L60 690 Z M352 766 Q337 766 326 777 Q315 788 315 803 Q315 819 326 829.5 Q337 840 353 840 Q369 840 379.5 829.5 Q390 819 390 803 Q390 788 379 777 Q368 766 352 766 Z M535 766 Q520 766 509 777 Q498 788 498 803 Q498 819 509 829.5 Q520 840 535 840 Q551 840 561.5 829.5 Q572 819 572 803 Q572 788 561.5 777 Q551 766 535 766 Z " />
<glyph glyph-name="Wgrave" unicode="&#x1e80;" horiz-adv-x="891" d="M60 690 L253 81 L422 690 L470 690 L639 81 L832 690 L881 690 L661 0 L615 0 L446 605 L276 0 L231 0 L11 690 L60 690 Z M475 744 L432 744 L328 874 L384 874 L475 744 Z " />
<glyph glyph-name="Yacute" unicode="&#xdd;" horiz-adv-x="539" d="M71 690 L228 397 Q253 351 268 319 L273 319 Q287 348 312 395 L468 690 L521 690 L295 276 L295 0 L245 0 L245 276 L17 690 L71 690 Z M238 744 L329 874 L386 874 L281 744 L238 744 Z " />
<glyph glyph-name="Ycircumflex" unicode="&#x176;" horiz-adv-x="539" d="M71 690 L228 397 Q253 351 268 319 L273 319 Q287 348 312 395 L468 690 L521 690 L295 276 L295 0 L245 0 L245 276 L17 690 L71 690 Z M270 839 L182 744 L138 744 L241 874 L299 874 L402 744 L358 744 L270 839 Z " />
<glyph glyph-name="Ydieresis" unicode="&#x178;" horiz-adv-x="539" d="M71 690 L228 397 Q253 351 268 319 L273 319 Q287 348 312 395 L468 690 L521 690 L295 276 L295 0 L245 0 L245 276 L17 690 L71 690 Z M178 766 Q163 766 152 777 Q141 788 141 803 Q141 819 152 829.5 Q163 840 179 840 Q195 840 205.5 829.5 Q216 819 216 803 Q216 788 205 777 Q194 766 178 766 Z M361 766 Q346 766 335 777 Q324 788 324 803 Q324 819 335 829.5 Q346 840 361 840 Q377 840 387.5 829.5 Q398 819 398 803 Q398 788 387.5 777 Q377 766 361 766 Z " />
<glyph glyph-name="Ygrave" unicode="&#x1ef2;" horiz-adv-x="539" d="M71 690 L228 397 Q253 351 268 319 L273 319 Q287 348 312 395 L468 690 L521 690 L295 276 L295 0 L245 0 L245 276 L17 690 L71 690 Z M302 744 L259 744 L155 874 L211 874 L302 744 Z " />
<glyph glyph-name="Zacute" unicode="&#x179;" horiz-adv-x="605" d="M541 648 L104 44 L557 44 L557 0 L48 0 L48 42 L485 646 L65 646 L65 690 L541 690 L541 648 Z M271 744 L362 874 L419 874 L314 744 L271 744 Z " />
<glyph glyph-name="Zcaron" unicode="&#x17d;" horiz-adv-x="605" d="M541 648 L104 44 L557 44 L557 0 L48 0 L48 42 L485 646 L65 646 L65 690 L541 690 L541 648 Z M273 744 L170 874 L214 874 L302 779 L390 874 L434 874 L331 744 L273 744 Z " />
<glyph glyph-name="Zdotaccent" unicode="&#x17b;" horiz-adv-x="605" d="M541 648 L104 44 L557 44 L557 0 L48 0 L48 42 L485 646 L65 646 L65 690 L541 690 L541 648 Z M303 781 Q287 781 276.5 792 Q266 803 266 818 Q266 834 276.5 844.5 Q287 855 303 855 Q319 855 329.5 844.5 Q340 834 340 818 Q340 803 329.5 792 Q319 781 303 781 Z " />
<glyph glyph-name="aacute" unicode="&#xe1;" horiz-adv-x="508" d="M236 452 Q198 452 159.5 439.5 Q121 427 95 406 L95 458 Q122 475 160 485.5 Q198 496 233 496 Q337 496 388.5 442 Q440 388 440 282 L440 0 L393 0 L393 80 Q363 34 314 8.5 Q265 -17 206 -17 Q122 -17 77.5 21 Q33 59 33 131 Q33 211 91.5 253 Q150 295 255 295 Q339 295 393 278 Q393 364 354.5 408 Q316 452 236 452 Z M206 26 Q294 26 343.5 81.5 Q393 137 393 235 Q336 252 261 252 Q175 252 128 221 Q81 190 81 131 Q81 84 115 55 Q149 26 206 26 Z M192 560 L304 725 L363 725 L236 560 L192 560 Z " />
<glyph glyph-name="abreve" unicode="&#x103;" horiz-adv-x="508" d="M236 452 Q198 452 159.5 439.5 Q121 427 95 406 L95 458 Q122 475 160 485.5 Q198 496 233 496 Q337 496 388.5 442 Q440 388 440 282 L440 0 L393 0 L393 80 Q363 34 314 8.5 Q265 -17 206 -17 Q122 -17 77.5 21 Q33 59 33 131 Q33 211 91.5 253 Q150 295 255 295 Q339 295 393 278 Q393 364 354.5 408 Q316 452 236 452 Z M206 26 Q294 26 343.5 81.5 Q393 137 393 235 Q336 252 261 252 Q175 252 128 221 Q81 190 81 131 Q81 84 115 55 Q149 26 206 26 Z M378 725 Q378 650 339 605 Q300 560 235 560 Q170 560 131 605 Q92 650 92 725 L132 725 Q132 672 160.5 637 Q189 602 235 602 Q281 602 309.5 637 Q338 672 338 725 L378 725 Z " />
<glyph glyph-name="acircumflex" unicode="&#xe2;" horiz-adv-x="508" d="M236 452 Q198 452 159.5 439.5 Q121 427 95 406 L95 458 Q122 475 160 485.5 Q198 496 233 496 Q337 496 388.5 442 Q440 388 440 282 L440 0 L393 0 L393 80 Q363 34 314 8.5 Q265 -17 206 -17 Q122 -17 77.5 21 Q33 59 33 131 Q33 211 91.5 253 Q150 295 255 295 Q339 295 393 278 Q393 364 354.5 408 Q316 452 236 452 Z M206 26 Q294 26 343.5 81.5 Q393 137 393 235 Q336 252 261 252 Q175 252 128 221 Q81 190 81 131 Q81 84 115 55 Q149 26 206 26 Z M235 689 L122 560 L79 560 L205 725 L264 725 L390 560 L347 560 L235 689 Z " />
<glyph glyph-name="adieresis" unicode="&#xe4;" horiz-adv-x="508" d="M236 452 Q198 452 159.5 439.5 Q121 427 95 406 L95 458 Q122 475 160 485.5 Q198 496 233 496 Q337 496 388.5 442 Q440 388 440 282 L440 0 L393 0 L393 80 Q363 34 314 8.5 Q265 -17 206 -17 Q122 -17 77.5 21 Q33 59 33 131 Q33 211 91.5 253 Q150 295 255 295 Q339 295 393 278 Q393 364 354.5 408 Q316 452 236 452 Z M206 26 Q294 26 343.5 81.5 Q393 137 393 235 Q336 252 261 252 Q175 252 128 221 Q81 190 81 131 Q81 84 115 55 Q149 26 206 26 Z M143 582 Q128 582 117 593 Q106 604 106 619 Q106 635 117 645.5 Q128 656 144 656 Q160 656 170.5 645.5 Q181 635 181 619 Q181 604 170 593 Q159 582 143 582 Z M326 582 Q311 582 300 593 Q289 604 289 619 Q289 635 300 645.5 Q311 656 326 656 Q342 656 352.5 645.5 Q363 635 363 619 Q363 604 352.5 593 Q342 582 326 582 Z " />
<glyph glyph-name="agrave" unicode="&#xe0;" horiz-adv-x="508" d="M236 452 Q198 452 159.5 439.5 Q121 427 95 406 L95 458 Q122 475 160 485.5 Q198 496 233 496 Q337 496 388.5 442 Q440 388 440 282 L440 0 L393 0 L393 80 Q363 34 314 8.5 Q265 -17 206 -17 Q122 -17 77.5 21 Q33 59 33 131 Q33 211 91.5 253 Q150 295 255 295 Q339 295 393 278 Q393 364 354.5 408 Q316 452 236 452 Z M206 26 Q294 26 343.5 81.5 Q393 137 393 235 Q336 252 261 252 Q175 252 128 221 Q81 190 81 131 Q81 84 115 55 Q149 26 206 26 Z M276 560 L233 560 L106 725 L164 725 L276 560 Z " />
<glyph glyph-name="amacron" unicode="&#x101;" horiz-adv-x="508" d="M236 452 Q198 452 159.5 439.5 Q121 427 95 406 L95 458 Q122 475 160 485.5 Q198 496 233 496 Q337 496 388.5 442 Q440 388 440 282 L440 0 L393 0 L393 80 Q363 34 314 8.5 Q265 -17 206 -17 Q122 -17 77.5 21 Q33 59 33 131 Q33 211 91.5 253 Q150 295 255 295 Q339 295 393 278 Q393 364 354.5 408 Q316 452 236 452 Z M206 26 Q294 26 343.5 81.5 Q393 137 393 235 Q336 252 261 252 Q175 252 128 221 Q81 190 81 131 Q81 84 115 55 Q149 26 206 26 Z M369 660 L369 618 L100 618 L100 660 L369 660 Z " />
<glyph glyph-name="aogonek" unicode="&#x105;" horiz-adv-x="508" d="M416 -171 Q431 -171 441.5 -167.5 Q452 -164 465 -156 L465 -197 Q439 -212 407 -212 Q368 -212 343 -187 Q318 -162 318 -125 Q318 -59 393 3 L393 80 Q363 34 314 8.5 Q265 -17 206 -17 Q122 -17 77.5 21 Q33 59 33 131 Q33 211 91.5 253 Q150 295 255 295 Q339 295 393 278 Q393 364 354.5 408 Q316 452 236 452 Q198 452 159.5 439.5 Q121 427 95 406 L95 458 Q122 475 160 485.5 Q198 496 233 496 Q337 496 388.5 442 Q440 388 440 282 L440 0 Q405 -29 383.5 -55.5 Q362 -82 362 -117 Q362 -142 376.5 -156.5 Q391 -171 416 -171 Z M206 26 Q294 26 343.5 81.5 Q393 137 393 235 Q336 252 261 252 Q175 252 128 221 Q81 190 81 131 Q81 84 115 55 Q149 26 206 26 Z " />
<glyph glyph-name="aring" unicode="&#xe5;" horiz-adv-x="508" d="M236 452 Q198 452 159.5 439.5 Q121 427 95 406 L95 458 Q122 475 160 485.5 Q198 496 233 496 Q337 496 388.5 442 Q440 388 440 282 L440 0 L393 0 L393 80 Q363 34 314 8.5 Q265 -17 206 -17 Q122 -17 77.5 21 Q33 59 33 131 Q33 211 91.5 253 Q150 295 255 295 Q339 295 393 278 Q393 364 354.5 408 Q316 452 236 452 Z M206 26 Q294 26 343.5 81.5 Q393 137 393 235 Q336 252 261 252 Q175 252 128 221 Q81 190 81 131 Q81 84 115 55 Q149 26 206 26 Z M234 763 Q280 763 312.5 731 Q345 699 345 653 Q345 607 312.5 574 Q280 541 234 541 Q189 541 156 574 Q123 607 123 653 Q123 698 156 730.5 Q189 763 234 763 Z M234 724 Q204 724 183 703.5 Q162 683 162 653 Q162 623 183 601.5 Q204 580 234 580 Q264 580 285 601.5 Q306 623 306 653 Q306 684 285.5 704 Q265 724 234 724 Z " />
<glyph glyph-name="atilde" unicode="&#xe3;" horiz-adv-x="508" d="M236 452 Q198 452 159.5 439.5 Q121 427 95 406 L95 458 Q122 475 160 485.5 Q198 496 233 496 Q337 496 388.5 442 Q440 388 440 282 L440 0 L393 0 L393 80 Q363 34 314 8.5 Q265 -17 206 -17 Q122 -17 77.5 21 Q33 59 33 131 Q33 211 91.5 253 Q150 295 255 295 Q339 295 393 278 Q393 364 354.5 408 Q316 452 236 452 Z M206 26 Q294 26 343.5 81.5 Q393 137 393 235 Q336 252 261 252 Q175 252 128 221 Q81 190 81 131 Q81 84 115 55 Q149 26 206 26 Z M87 583 Q89 627 109.5 655.5 Q130 684 167 684 Q205 684 246 651 Q280 624 302 624 Q321 624 332 640.5 Q343 657 345 684 L381 684 Q379 640 358.5 611.5 Q338 583 302 583 Q264 583 223 616 Q205 629 192 636 Q179 643 167 643 Q147 643 136 627 Q125 611 123 583 L87 583 Z " />
<glyph glyph-name="ae" unicode="&#xe6;" horiz-adv-x="902" d="M862 257 Q862 247 860 229 L446 229 Q451 133 508 80 Q565 27 649 27 Q705 27 744.5 40.5 Q784 54 823 84 L823 36 Q785 7 743 -5 Q701 -17 649 -17 Q570 -17 509.5 23.5 Q449 64 421 131 Q399 54 338.5 18.5 Q278 -17 212 -17 Q128 -17 84 21 Q40 59 40 131 Q40 212 98 253.5 Q156 295 260 295 Q344 295 398 278 Q398 365 358.5 409 Q319 453 236 453 Q200 453 163 440 Q126 427 100 406 L100 458 Q127 475 165 485.5 Q203 496 238 496 Q316 496 365 464 Q414 432 432 371 Q463 429 517 462.5 Q571 496 636 496 Q705 496 756 466 Q807 436 834.5 382 Q862 328 862 257 Z M812 273 Q810 352 763 402 Q716 452 640 452 Q585 452 543 427 Q501 402 476.5 361 Q452 320 448 273 L812 273 Z M211 26 Q299 26 348.5 81.5 Q398 137 398 235 Q341 252 266 252 Q180 252 133 221 Q86 190 86 131 Q86 84 120 55 Q154 26 211 26 Z " />
<glyph glyph-name="cacute" unicode="&#x107;" horiz-adv-x="493" d="M284 -17 Q216 -17 160 16 Q104 49 72 107.5 Q40 166 40 240 Q40 313 72.5 371.5 Q105 430 161 463 Q217 496 285 496 Q383 496 447 440 L447 382 Q384 452 285 452 Q229 452 184 424.5 Q139 397 114 349 Q89 301 89 240 Q89 180 114 131 Q139 82 184 54.5 Q229 27 285 27 Q333 27 377.5 46.5 Q422 66 453 106 L453 45 Q386 -17 284 -17 Z M238 560 L350 725 L409 725 L282 560 L238 560 Z " />
<glyph glyph-name="ccaron" unicode="&#x10d;" horiz-adv-x="493" d="M284 -17 Q216 -17 160 16 Q104 49 72 107.5 Q40 166 40 240 Q40 313 72.5 371.5 Q105 430 161 463 Q217 496 285 496 Q383 496 447 440 L447 382 Q384 452 285 452 Q229 452 184 424.5 Q139 397 114 349 Q89 301 89 240 Q89 180 114 131 Q139 82 184 54.5 Q229 27 285 27 Q333 27 377.5 46.5 Q422 66 453 106 L453 45 Q386 -17 284 -17 Z M251 560 L124 725 L168 725 L280 596 L392 725 L436 725 L309 560 L251 560 Z " />
<glyph glyph-name="ccedilla" unicode="&#xe7;" horiz-adv-x="493" d="M453 45 Q389 -14 296 -17 L278 -59 Q319 -62 347 -81.5 Q375 -101 375 -139 Q375 -178 345.5 -201 Q316 -224 271 -224 Q230 -224 197 -213 L197 -173 Q231 -185 269 -185 Q331 -185 331 -139 Q331 -114 306 -102 Q281 -90 226 -90 L257 -16 Q195 -9 145.5 25.5 Q96 60 68 115.5 Q40 171 40 240 Q40 313 72.5 371.5 Q105 430 161 463 Q217 496 285 496 Q383 496 447 440 L447 382 Q384 452 285 452 Q229 452 184 424.5 Q139 397 114 349 Q89 301 89 240 Q89 180 114 131 Q139 82 184 54.5 Q229 27 285 27 Q333 27 377.5 46.5 Q422 66 453 106 L453 45 Z " />
<glyph glyph-name="ccircumflex" unicode="&#x109;" horiz-adv-x="493" d="M284 -17 Q216 -17 160 16 Q104 49 72 107.5 Q40 166 40 240 Q40 313 72.5 371.5 Q105 430 161 463 Q217 496 285 496 Q383 496 447 440 L447 382 Q384 452 285 452 Q229 452 184 424.5 Q139 397 114 349 Q89 301 89 240 Q89 180 114 131 Q139 82 184 54.5 Q229 27 285 27 Q333 27 377.5 46.5 Q422 66 453 106 L453 45 Q386 -17 284 -17 Z M280 689 L167 560 L124 560 L250 725 L309 725 L435 560 L392 560 L280 689 Z " />
<glyph glyph-name="cdotaccent" unicode="&#x10b;" horiz-adv-x="493" d="M284 -17 Q216 -17 160 16 Q104 49 72 107.5 Q40 166 40 240 Q40 313 72.5 371.5 Q105 430 161 463 Q217 496 285 496 Q383 496 447 440 L447 382 Q384 452 285 452 Q229 452 184 424.5 Q139 397 114 349 Q89 301 89 240 Q89 180 114 131 Q139 82 184 54.5 Q229 27 285 27 Q333 27 377.5 46.5 Q422 66 453 106 L453 45 Q386 -17 284 -17 Z M280 581 Q264 581 253.5 592 Q243 603 243 618 Q243 634 253.5 644.5 Q264 655 280 655 Q296 655 306.5 644.5 Q317 634 317 618 Q317 603 306.5 592 Q296 581 280 581 Z " />
<glyph glyph-name="eth" unicode="&#xf0;" horiz-adv-x="593" d="M296 -17 Q225 -17 166.5 17 Q108 51 74 110 Q40 169 40 240 Q40 313 74 371.5 Q108 430 166.5 463 Q225 496 296 496 Q387 496 457 437 Q435 484 400 526.5 Q365 569 315 613 L197 526 L172 559 L284 641 Q231 685 171 721 L246 721 Q283 697 321 667 L405 729 L430 695 L353 639 Q445 558 499 457.5 Q553 357 553 241 Q553 170 519 111 Q485 52 426.5 17.5 Q368 -17 296 -17 Z M89 240 Q89 180 117.5 131 Q146 82 194 54.5 Q242 27 296 27 Q355 27 402 55 Q449 83 476 131.5 Q503 180 503 240 Q503 298 477 346.5 Q451 395 403.5 423.5 Q356 452 296 452 Q236 452 189 424.5 Q142 397 115.5 349 Q89 301 89 240 Z " />
<glyph glyph-name="dcaron" unicode="&#x10f;" horiz-adv-x="600" d="M40 240 Q40 313 71.5 371.5 Q103 430 157 463 Q211 496 276 496 Q345 496 394.5 465 Q444 434 472 385 L472 690 L519 690 L519 0 L473 0 L473 97 Q439 42 390 12.5 Q341 -17 271 -17 Q209 -17 156 17 Q103 51 71.5 110 Q40 169 40 240 Z M89 240 Q89 179 116 130.5 Q143 82 188 54.5 Q233 27 284 27 Q334 27 378 54 Q422 81 448.5 129 Q475 177 475 237 Q475 301 449.5 350 Q424 399 381 425.5 Q338 452 286 452 Q229 452 184 424.5 Q139 397 114 349 Q89 301 89 240 Z M566 525 L578 690 L629 690 L602 525 L566 525 Z " />
<glyph glyph-name="dslash" unicode="&#x111;" horiz-adv-x="600" d="M519 552 L519 0 L473 0 L473 97 Q439 42 390 12.5 Q341 -17 271 -17 Q209 -17 156 17 Q103 51 71.5 110 Q40 169 40 240 Q40 313 71.5 371.5 Q103 430 157 463 Q211 496 276 496 Q345 496 394.5 465 Q444 434 472 385 L472 552 L330 552 L330 594 L472 594 L472 690 L519 690 L519 594 L600 594 L600 552 L519 552 Z M284 27 Q334 27 378 54 Q422 81 448.5 129 Q475 177 475 237 Q475 301 449.5 350 Q424 399 381 425.5 Q338 452 286 452 Q229 452 184 424.5 Q139 397 114 349 Q89 301 89 240 Q89 179 116 130.5 Q143 82 188 54.5 Q233 27 284 27 Z " />
<glyph glyph-name="eacute" unicode="&#xe9;" horiz-adv-x="545" d="M40 240 Q40 311 71.5 370 Q103 429 158.5 462.5 Q214 496 281 496 Q349 496 400 466 Q451 436 478.5 382 Q506 328 506 257 Q506 248 505 240.5 Q504 233 503 228 L90 228 Q95 132 152 79.5 Q209 27 293 27 Q349 27 388.5 40.5 Q428 54 467 84 L467 36 Q429 7 386.5 -5 Q344 -17 293 -17 Q219 -17 161 16.5 Q103 50 71.5 109 Q40 168 40 240 Z M455 273 Q454 352 407 402 Q360 452 283 452 Q229 452 187 427 Q145 402 120.5 361 Q96 320 91 273 L455 273 Z M241 560 L353 725 L412 725 L285 560 L241 560 Z " />
<glyph glyph-name="ebreve" unicode="&#x115;" horiz-adv-x="545" d="M40 240 Q40 311 71.5 370 Q103 429 158.5 462.5 Q214 496 281 496 Q349 496 400 466 Q451 436 478.5 382 Q506 328 506 257 Q506 248 505 240.5 Q504 233 503 228 L90 228 Q95 132 152 79.5 Q209 27 293 27 Q349 27 388.5 40.5 Q428 54 467 84 L467 36 Q429 7 386.5 -5 Q344 -17 293 -17 Q219 -17 161 16.5 Q103 50 71.5 109 Q40 168 40 240 Z M455 273 Q454 352 407 402 Q360 452 283 452 Q229 452 187 427 Q145 402 120.5 361 Q96 320 91 273 L455 273 Z M426 725 Q426 650 387 605 Q348 560 283 560 Q218 560 179 605 Q140 650 140 725 L180 725 Q180 672 208.5 637 Q237 602 283 602 Q329 602 357.5 637 Q386 672 386 725 L426 725 Z " />
<glyph glyph-name="ecaron" unicode="&#x11b;" horiz-adv-x="545" d="M40 240 Q40 311 71.5 370 Q103 429 158.5 462.5 Q214 496 281 496 Q349 496 400 466 Q451 436 478.5 382 Q506 328 506 257 Q506 248 505 240.5 Q504 233 503 228 L90 228 Q95 132 152 79.5 Q209 27 293 27 Q349 27 388.5 40.5 Q428 54 467 84 L467 36 Q429 7 386.5 -5 Q344 -17 293 -17 Q219 -17 161 16.5 Q103 50 71.5 109 Q40 168 40 240 Z M455 273 Q454 352 407 402 Q360 452 283 452 Q229 452 187 427 Q145 402 120.5 361 Q96 320 91 273 L455 273 Z M254 560 L127 725 L171 725 L283 596 L395 725 L439 725 L312 560 L254 560 Z " />
<glyph glyph-name="ecircumflex" unicode="&#xea;" horiz-adv-x="545" d="M40 240 Q40 311 71.5 370 Q103 429 158.5 462.5 Q214 496 281 496 Q349 496 400 466 Q451 436 478.5 382 Q506 328 506 257 Q506 248 505 240.5 Q504 233 503 228 L90 228 Q95 132 152 79.5 Q209 27 293 27 Q349 27 388.5 40.5 Q428 54 467 84 L467 36 Q429 7 386.5 -5 Q344 -17 293 -17 Q219 -17 161 16.5 Q103 50 71.5 109 Q40 168 40 240 Z M455 273 Q454 352 407 402 Q360 452 283 452 Q229 452 187 427 Q145 402 120.5 361 Q96 320 91 273 L455 273 Z M284 689 L171 560 L128 560 L254 725 L313 725 L439 560 L396 560 L284 689 Z " />
<glyph glyph-name="edieresis" unicode="&#xeb;" horiz-adv-x="545" d="M40 240 Q40 311 71.5 370 Q103 429 158.5 462.5 Q214 496 281 496 Q349 496 400 466 Q451 436 478.5 382 Q506 328 506 257 Q506 248 505 240.5 Q504 233 503 228 L90 228 Q95 132 152 79.5 Q209 27 293 27 Q349 27 388.5 40.5 Q428 54 467 84 L467 36 Q429 7 386.5 -5 Q344 -17 293 -17 Q219 -17 161 16.5 Q103 50 71.5 109 Q40 168 40 240 Z M455 273 Q454 352 407 402 Q360 452 283 452 Q229 452 187 427 Q145 402 120.5 361 Q96 320 91 273 L455 273 Z M192 582 Q177 582 166 593 Q155 604 155 619 Q155 635 166 645.5 Q177 656 193 656 Q209 656 219.5 645.5 Q230 635 230 619 Q230 604 219 593 Q208 582 192 582 Z M375 582 Q360 582 349 593 Q338 604 338 619 Q338 635 349 645.5 Q360 656 375 656 Q391 656 401.5 645.5 Q412 635 412 619 Q412 604 401.5 593 Q391 582 375 582 Z " />
<glyph glyph-name="edotaccent" unicode="&#x117;" horiz-adv-x="545" d="M40 240 Q40 311 71.5 370 Q103 429 158.5 462.5 Q214 496 281 496 Q349 496 400 466 Q451 436 478.5 382 Q506 328 506 257 Q506 248 505 240.5 Q504 233 503 228 L90 228 Q95 132 152 79.5 Q209 27 293 27 Q349 27 388.5 40.5 Q428 54 467 84 L467 36 Q429 7 386.5 -5 Q344 -17 293 -17 Q219 -17 161 16.5 Q103 50 71.5 109 Q40 168 40 240 Z M455 273 Q454 352 407 402 Q360 452 283 452 Q229 452 187 427 Q145 402 120.5 361 Q96 320 91 273 L455 273 Z M284 581 Q268 581 257.5 592 Q247 603 247 618 Q247 634 257.5 644.5 Q268 655 284 655 Q300 655 310.5 644.5 Q321 634 321 618 Q321 603 310.5 592 Q300 581 284 581 Z " />
<glyph glyph-name="egrave" unicode="&#xe8;" horiz-adv-x="545" d="M40 240 Q40 311 71.5 370 Q103 429 158.5 462.5 Q214 496 281 496 Q349 496 400 466 Q451 436 478.5 382 Q506 328 506 257 Q506 248 505 240.5 Q504 233 503 228 L90 228 Q95 132 152 79.5 Q209 27 293 27 Q349 27 388.5 40.5 Q428 54 467 84 L467 36 Q429 7 386.5 -5 Q344 -17 293 -17 Q219 -17 161 16.5 Q103 50 71.5 109 Q40 168 40 240 Z M455 273 Q454 352 407 402 Q360 452 283 452 Q229 452 187 427 Q145 402 120.5 361 Q96 320 91 273 L455 273 Z M325 560 L282 560 L155 725 L213 725 L325 560 Z " />
<glyph glyph-name="emacron" unicode="&#x113;" horiz-adv-x="545" d="M40 240 Q40 311 71.5 370 Q103 429 158.5 462.5 Q214 496 281 496 Q349 496 400 466 Q451 436 478.5 382 Q506 328 506 257 Q506 248 505 240.5 Q504 233 503 228 L90 228 Q95 132 152 79.5 Q209 27 293 27 Q349 27 388.5 40.5 Q428 54 467 84 L467 36 Q429 7 386.5 -5 Q344 -17 293 -17 Q219 -17 161 16.5 Q103 50 71.5 109 Q40 168 40 240 Z M455 273 Q454 352 407 402 Q360 452 283 452 Q229 452 187 427 Q145 402 120.5 361 Q96 320 91 273 L455 273 Z M418 660 L418 618 L149 618 L149 660 L418 660 Z " />
<glyph glyph-name="eogonek" unicode="&#x119;" horiz-adv-x="540" d="M506 257 Q506 248 505 240.5 Q504 233 503 228 L90 228 Q95 132 152 79.5 Q209 27 293 27 Q349 27 388.5 40.5 Q428 54 467 84 L467 36 Q419 11 401 -2 Q368 -26 345.5 -54 Q323 -82 323 -117 Q323 -142 337.5 -156.5 Q352 -171 377 -171 Q392 -171 402.5 -167.5 Q413 -164 427 -156 L427 -197 Q401 -212 369 -212 Q330 -212 304.5 -187 Q279 -162 279 -125 Q279 -92 296.5 -64 Q314 -36 339 -14 Q315 -17 292 -17 Q218 -17 160.5 16.5 Q103 50 71.5 109 Q40 168 40 240 Q40 311 71.5 370 Q103 429 158.5 462.5 Q214 496 281 496 Q349 496 400 466 Q451 436 478.5 382 Q506 328 506 257 Z M455 273 Q454 352 407 402 Q360 452 283 452 Q229 452 187 427 Q145 402 120.5 361 Q96 320 91 273 L455 273 Z " />
<glyph glyph-name="gbreve" unicode="&#x11f;" horiz-adv-x="601" d="M276 496 Q345 496 394.5 465 Q444 434 474 384 L474 480 L520 480 L520 36 Q520 -91 453 -159.5 Q386 -228 266 -228 Q210 -228 165.5 -216 Q121 -204 97 -182 L97 -129 Q158 -184 265 -184 Q361 -184 417 -128 Q473 -72 473 39 L473 97 Q439 42 390 12.5 Q341 -17 271 -17 Q209 -17 156 17 Q103 51 71.5 110 Q40 169 40 240 Q40 313 71.5 371.5 Q103 430 157 463 Q211 496 276 496 Z M286 452 Q229 452 184 424.5 Q139 397 114 349 Q89 301 89 240 Q89 179 116 130.5 Q143 82 188 54.5 Q233 27 284 27 Q334 27 378 54 Q422 81 448.5 129 Q475 177 475 238 Q475 301 449.5 350 Q424 399 381 425.5 Q338 452 286 452 Z M438 725 Q438 650 399 605 Q360 560 295 560 Q230 560 191 605 Q152 650 152 725 L192 725 Q192 672 220.5 637 Q249 602 295 602 Q341 602 369.5 637 Q398 672 398 725 L438 725 Z " />
<glyph glyph-name="gcircumflex" unicode="&#x11d;" horiz-adv-x="601" d="M276 496 Q345 496 394.5 465 Q444 434 474 384 L474 480 L520 480 L520 36 Q520 -91 453 -159.5 Q386 -228 266 -228 Q210 -228 165.5 -216 Q121 -204 97 -182 L97 -129 Q158 -184 265 -184 Q361 -184 417 -128 Q473 -72 473 39 L473 97 Q439 42 390 12.5 Q341 -17 271 -17 Q209 -17 156 17 Q103 51 71.5 110 Q40 169 40 240 Q40 313 71.5 371.5 Q103 430 157 463 Q211 496 276 496 Z M286 452 Q229 452 184 424.5 Q139 397 114 349 Q89 301 89 240 Q89 179 116 130.5 Q143 82 188 54.5 Q233 27 284 27 Q334 27 378 54 Q422 81 448.5 129 Q475 177 475 238 Q475 301 449.5 350 Q424 399 381 425.5 Q338 452 286 452 Z M296 689 L183 560 L140 560 L266 725 L325 725 L451 560 L408 560 L296 689 Z " />
<glyph glyph-name="gcommaaccent" unicode="&#x123;" horiz-adv-x="601" d="M276 496 Q345 496 394.5 465 Q444 434 474 384 L474 480 L520 480 L520 36 Q520 -91 453 -159.5 Q386 -228 266 -228 Q210 -228 165.5 -216 Q121 -204 97 -182 L97 -129 Q158 -184 265 -184 Q361 -184 417 -128 Q473 -72 473 39 L473 97 Q439 42 390 12.5 Q341 -17 271 -17 Q209 -17 156 17 Q103 51 71.5 110 Q40 169 40 240 Q40 313 71.5 371.5 Q103 430 157 463 Q211 496 276 496 Z M286 452 Q229 452 184 424.5 Q139 397 114 349 Q89 301 89 240 Q89 179 116 130.5 Q143 82 188 54.5 Q233 27 284 27 Q334 27 378 54 Q422 81 448.5 129 Q475 177 475 238 Q475 301 449.5 350 Q424 399 381 425.5 Q338 452 286 452 Z M295 560 Q257 560 257 616 Q257 692 329 722 L329 685 Q313 678 303.5 665 Q294 652 292 636 Q330 632 330 597 Q330 580 320.5 570 Q311 560 295 560 Z " />
<glyph glyph-name="gdotaccent" unicode="&#x121;" horiz-adv-x="601" d="M276 496 Q345 496 394.5 465 Q444 434 474 384 L474 480 L520 480 L520 36 Q520 -91 453 -159.5 Q386 -228 266 -228 Q210 -228 165.5 -216 Q121 -204 97 -182 L97 -129 Q158 -184 265 -184 Q361 -184 417 -128 Q473 -72 473 39 L473 97 Q439 42 390 12.5 Q341 -17 271 -17 Q209 -17 156 17 Q103 51 71.5 110 Q40 169 40 240 Q40 313 71.5 371.5 Q103 430 157 463 Q211 496 276 496 Z M286 452 Q229 452 184 424.5 Q139 397 114 349 Q89 301 89 240 Q89 179 116 130.5 Q143 82 188 54.5 Q233 27 284 27 Q334 27 378 54 Q422 81 448.5 129 Q475 177 475 238 Q475 301 449.5 350 Q424 399 381 425.5 Q338 452 286 452 Z M296 581 Q280 581 269.5 592 Q259 603 259 618 Q259 634 269.5 644.5 Q280 655 296 655 Q312 655 322.5 644.5 Q333 634 333 618 Q333 603 322.5 592 Q312 581 296 581 Z " />
<glyph glyph-name="hbar" unicode="&#x127;" horiz-adv-x="574" d="M308 496 Q400 496 453 438.5 Q506 381 506 282 L506 0 L459 0 L459 277 Q459 360 418.5 406 Q378 452 304 452 Q223 452 175.5 397 Q128 342 128 246 L128 0 L81 0 L81 552 L1 552 L1 594 L81 594 L81 690 L128 690 L128 594 L270 594 L270 552 L128 552 L128 384 Q150 436 198 466 Q246 496 308 496 Z " />
<glyph glyph-name="hcircumflex" unicode="&#x125;" horiz-adv-x="574" d="M128 384 Q150 436 198 466 Q246 496 308 496 Q400 496 453 438.5 Q506 381 506 282 L506 0 L459 0 L459 277 Q459 360 418.5 406 Q378 452 304 452 Q223 452 175.5 397 Q128 342 128 246 L128 0 L81 0 L81 690 L128 690 L128 384 Z M105 839 L17 744 L-27 744 L76 874 L134 874 L237 744 L193 744 L105 839 Z " />
<glyph glyph-name="dotlessi" unicode="&#x131;" horiz-adv-x="209" d="M128 0 L81 0 L81 480 L128 480 L128 0 Z " />
<glyph glyph-name="iacute" unicode="&#xed;" horiz-adv-x="209" d="M128 0 L81 0 L81 480 L128 480 L128 0 Z M62 560 L174 725 L233 725 L106 560 L62 560 Z " />
<glyph glyph-name="ibreve" unicode="&#x12d;" horiz-adv-x="209" d="M128 0 L81 0 L81 480 L128 480 L128 0 Z M248 725 Q248 650 209 605 Q170 560 105 560 Q40 560 1 605 Q-38 650 -38 725 L2 725 Q2 672 30.5 637 Q59 602 105 602 Q151 602 179.5 637 Q208 672 208 725 L248 725 Z " />
<glyph glyph-name="icircumflex" unicode="&#xee;" horiz-adv-x="209" d="M128 0 L81 0 L81 480 L128 480 L128 0 Z M105 689 L-8 560 L-51 560 L75 725 L134 725 L260 560 L217 560 L105 689 Z " />
<glyph glyph-name="idieresis" unicode="&#xef;" horiz-adv-x="209" d="M128 0 L81 0 L81 480 L128 480 L128 0 Z M13 582 Q-2 582 -13 593 Q-24 604 -24 619 Q-24 635 -13 645.5 Q-2 656 14 656 Q30 656 40.5 645.5 Q51 635 51 619 Q51 604 40 593 Q29 582 13 582 Z M196 582 Q181 582 170 593 Q159 604 159 619 Q159 635 170 645.5 Q181 656 196 656 Q212 656 222.5 645.5 Q233 635 233 619 Q233 604 222.5 593 Q212 582 196 582 Z " />
<glyph glyph-name="igrave" unicode="&#xec;" horiz-adv-x="209" d="M128 0 L81 0 L81 480 L128 480 L128 0 Z M147 560 L104 560 L-23 725 L35 725 L147 560 Z " />
<glyph glyph-name="ij" unicode="&#x133;" horiz-adv-x="418" d="M105 581 Q89 581 78.5 592 Q68 603 68 618 Q68 634 78.5 644.5 Q89 655 105 655 Q121 655 131.5 644.5 Q142 634 142 618 Q142 603 131.5 592 Q121 581 105 581 Z M314 581 Q298 581 287.5 592 Q277 603 277 618 Q277 634 287.5 644.5 Q298 655 314 655 Q330 655 340.5 644.5 Q351 634 351 618 Q351 603 340.5 592 Q330 581 314 581 Z M128 0 L81 0 L81 480 L128 480 L128 0 Z M337 -47 Q337 -137 299.5 -179 Q262 -221 196 -221 Q181 -221 161.5 -218 Q142 -215 130 -211 L130 -171 Q162 -181 192 -181 Q242 -181 266 -149 Q290 -117 290 -43 L290 480 L337 480 L337 -47 Z " />
<glyph glyph-name="imacron" unicode="&#x12b;" horiz-adv-x="209" d="M128 0 L81 0 L81 480 L128 480 L128 0 Z M239 660 L239 618 L-30 618 L-30 660 L239 660 Z " />
<glyph glyph-name="iogonek" unicode="&#x12f;" horiz-adv-x="209" d="M105 581 Q89 581 78.5 592 Q68 603 68 618 Q68 634 78.5 644.5 Q89 655 105 655 Q121 655 131.5 644.5 Q142 634 142 618 Q142 603 131.5 592 Q121 581 105 581 Z M104 -171 Q119 -171 129.5 -167.5 Q140 -164 153 -156 L153 -197 Q127 -212 95 -212 Q56 -212 31 -187 Q6 -162 6 -125 Q6 -59 81 3 L81 480 L128 480 L128 0 Q93 -29 71.5 -55.5 Q50 -82 50 -117 Q50 -142 64.5 -156.5 Q79 -171 104 -171 Z " />
<glyph glyph-name="itilde" unicode="&#x129;" horiz-adv-x="209" d="M128 0 L81 0 L81 480 L128 480 L128 0 Z M-43 583 Q-41 627 -20.5 655.5 Q0 684 37 684 Q75 684 116 651 Q150 624 172 624 Q191 624 202 640.5 Q213 657 215 684 L251 684 Q249 640 228.5 611.5 Q208 583 172 583 Q134 583 93 616 Q75 629 62 636 Q49 643 37 643 Q17 643 6 627 Q-5 611 -7 583 L-43 583 Z " />
<glyph glyph-name="dotlessj" unicode="&#x237;" horiz-adv-x="209" d="M128 -47 Q128 -137 90.5 -179 Q53 -221 -13 -221 Q-28 -221 -47.5 -218 Q-67 -215 -79 -211 L-79 -171 Q-47 -181 -17 -181 Q33 -181 57 -149 Q81 -117 81 -43 L81 480 L128 480 L128 -47 Z " />
<glyph glyph-name="jcircumflex" unicode="&#x135;" horiz-adv-x="209" d="M128 -47 Q128 -137 90.5 -179 Q53 -221 -13 -221 Q-28 -221 -47.5 -218 Q-67 -215 -79 -211 L-79 -171 Q-47 -181 -17 -181 Q33 -181 57 -149 Q81 -117 81 -43 L81 480 L128 480 L128 -47 Z M105 689 L-8 560 L-51 560 L75 725 L134 725 L260 560 L217 560 L105 689 Z " />
<glyph glyph-name="kcommaaccent" unicode="&#x137;" horiz-adv-x="499" d="M211 257 L128 181 L128 0 L81 0 L81 690 L128 690 L128 242 L387 480 L454 480 L246 289 L476 0 L414 0 L211 257 Z M262 -49 Q299 -49 299 -105 Q299 -142 281 -169.5 Q263 -197 228 -212 L228 -175 Q244 -168 253.5 -154.5 Q263 -141 265 -126 Q226 -121 226 -86 Q226 -70 236 -59.5 Q246 -49 262 -49 Z " />
<glyph glyph-name="kgreenlandic" unicode="&#x138;" horiz-adv-x="498" d="M210 256 L128 181 L128 0 L81 0 L81 479 L128 479 L128 241 L387 479 L453 479 L246 289 L475 0 L414 0 L210 256 Z " />
<glyph glyph-name="lacute" unicode="&#x13a;" horiz-adv-x="209" d="M128 0 L81 0 L81 690 L128 690 L128 0 Z M73 744 L164 874 L221 874 L116 744 L73 744 Z " />
<glyph glyph-name="lcaron" unicode="&#x13e;" horiz-adv-x="209" d="M128 0 L81 0 L81 690 L128 690 L128 0 Z M173 525 L185 690 L236 690 L209 525 L173 525 Z " />
<glyph glyph-name="lcommaaccent" unicode="&#x13c;" horiz-adv-x="209" d="M128 0 L81 0 L81 690 L128 690 L128 0 Z M105 -49 Q142 -49 142 -105 Q142 -142 124 -169.5 Q106 -197 71 -212 L71 -175 Q87 -168 96.5 -154.5 Q106 -141 108 -126 Q69 -121 69 -86 Q69 -70 79 -59.5 Q89 -49 105 -49 Z " />
<glyph glyph-name="ldot" unicode="&#x140;" horiz-adv-x="254" d="M128 0 L81 0 L81 690 L128 690 L128 0 Z M231 315 Q212 315 199.5 328 Q187 341 187 359 Q187 377 199.5 390 Q212 403 231 403 Q249 403 262 390 Q275 377 275 359 Q275 341 262 328 Q249 315 231 315 Z " />
<glyph glyph-name="lslash" unicode="&#x142;" horiz-adv-x="239" d="M144 354 L144 0 L97 0 L97 319 L10 254 L10 305 L97 370 L97 690 L144 690 L144 405 L229 469 L229 417 L144 354 Z " />
<glyph glyph-name="nacute" unicode="&#x144;" horiz-adv-x="574" d="M128 384 Q150 436 198 466 Q246 496 308 496 Q400 496 453 438.5 Q506 381 506 282 L506 0 L459 0 L459 277 Q459 360 418.5 406 Q378 452 304 452 Q251 452 211.5 425.5 Q172 399 150 352.5 Q128 306 128 246 L128 0 L81 0 L81 480 L128 480 L128 384 Z M249 560 L361 725 L420 725 L293 560 L249 560 Z " />
<glyph glyph-name="napostrophe" unicode="&#x149;" horiz-adv-x="576" d="M131 384 Q153 436 201 466 Q249 496 311 496 Q403 496 456 438.5 Q509 381 509 282 L509 0 L462 0 L462 277 Q462 360 421.5 406 Q381 452 307 452 Q254 452 214.5 425.5 Q175 399 153 352.5 Q131 306 131 246 L131 0 L84 0 L84 480 L131 480 L131 384 Z M56 704 Q102 704 102 641 Q102 596 79.5 554.5 Q57 513 14 489 L14 534 Q34 551 41.5 571.5 Q49 592 48 617 Q33 619 22.5 631.5 Q12 644 12 660 Q12 678 24.5 691 Q37 704 56 704 Z " />
<glyph glyph-name="ncaron" unicode="&#x148;" horiz-adv-x="574" d="M128 384 Q150 436 198 466 Q246 496 308 496 Q400 496 453 438.5 Q506 381 506 282 L506 0 L459 0 L459 277 Q459 360 418.5 406 Q378 452 304 452 Q251 452 211.5 425.5 Q172 399 150 352.5 Q128 306 128 246 L128 0 L81 0 L81 480 L128 480 L128 384 Z M262 560 L135 725 L179 725 L291 596 L403 725 L447 725 L320 560 L262 560 Z " />
<glyph glyph-name="ncommaaccent" unicode="&#x146;" horiz-adv-x="574" d="M128 384 Q150 436 198 466 Q246 496 308 496 Q400 496 453 438.5 Q506 381 506 282 L506 0 L459 0 L459 277 Q459 360 418.5 406 Q378 452 304 452 Q251 452 211.5 425.5 Q172 399 150 352.5 Q128 306 128 246 L128 0 L81 0 L81 480 L128 480 L128 384 Z M292 -49 Q329 -49 329 -105 Q329 -142 311 -169.5 Q293 -197 258 -212 L258 -175 Q274 -168 283.5 -154.5 Q293 -141 295 -126 Q256 -121 256 -86 Q256 -70 266 -59.5 Q276 -49 292 -49 Z " />
<glyph glyph-name="eng" unicode="&#x14b;" horiz-adv-x="574" d="M308 496 Q400 496 453 438.5 Q506 381 506 282 L506 -47 Q506 -137 468.5 -179 Q431 -221 366 -221 Q329 -221 299 -211 L299 -171 Q331 -181 361 -181 Q411 -181 435 -149 Q459 -117 459 -43 L459 277 Q459 360 418.5 406 Q378 452 304 452 Q251 452 211.5 425.5 Q172 399 150 352.5 Q128 306 128 246 L128 0 L81 0 L81 480 L128 480 L128 384 Q150 436 198 466 Q246 496 308 496 Z " />
<glyph glyph-name="ntilde" unicode="&#xf1;" horiz-adv-x="574" d="M128 384 Q150 436 198 466 Q246 496 308 496 Q400 496 453 438.5 Q506 381 506 282 L506 0 L459 0 L459 277 Q459 360 418.5 406 Q378 452 304 452 Q251 452 211.5 425.5 Q172 399 150 352.5 Q128 306 128 246 L128 0 L81 0 L81 480 L128 480 L128 384 Z M144 583 Q146 627 166.5 655.5 Q187 684 224 684 Q262 684 303 651 Q337 624 359 624 Q378 624 389 640.5 Q400 657 402 684 L438 684 Q436 640 415.5 611.5 Q395 583 359 583 Q321 583 280 616 Q262 629 249 636 Q236 643 224 643 Q204 643 193 627 Q182 611 180 583 L144 583 Z " />
<glyph glyph-name="oacute" unicode="&#xf3;" horiz-adv-x="569" d="M40 240 Q40 313 72.5 371.5 Q105 430 161 463 Q217 496 285 496 Q354 496 410 463 Q466 430 498 371.5 Q530 313 530 240 Q530 166 498 107.5 Q466 49 410 16 Q354 -17 285 -17 Q217 -17 161 16 Q105 49 72.5 107.5 Q40 166 40 240 Z M89 240 Q89 180 114 131.5 Q139 83 184 55 Q229 27 285 27 Q340 27 384.5 55 Q429 83 454.5 131.5 Q480 180 480 240 Q480 301 455.5 349.5 Q431 398 387 425 Q343 452 285 452 Q229 452 184 424.5 Q139 397 114 349 Q89 301 89 240 Z M242 560 L354 725 L413 725 L286 560 L242 560 Z " />
<glyph glyph-name="obreve" unicode="&#x14f;" horiz-adv-x="569" d="M40 240 Q40 313 72.5 371.5 Q105 430 161 463 Q217 496 285 496 Q354 496 410 463 Q466 430 498 371.5 Q530 313 530 240 Q530 166 498 107.5 Q466 49 410 16 Q354 -17 285 -17 Q217 -17 161 16 Q105 49 72.5 107.5 Q40 166 40 240 Z M89 240 Q89 180 114 131.5 Q139 83 184 55 Q229 27 285 27 Q340 27 384.5 55 Q429 83 454.5 131.5 Q480 180 480 240 Q480 301 455.5 349.5 Q431 398 387 425 Q343 452 285 452 Q229 452 184 424.5 Q139 397 114 349 Q89 301 89 240 Z M428 725 Q428 650 389 605 Q350 560 285 560 Q220 560 181 605 Q142 650 142 725 L182 725 Q182 672 210.5 637 Q239 602 285 602 Q331 602 359.5 637 Q388 672 388 725 L428 725 Z " />
<glyph glyph-name="ocircumflex" unicode="&#xf4;" horiz-adv-x="569" d="M40 240 Q40 313 72.5 371.5 Q105 430 161 463 Q217 496 285 496 Q354 496 410 463 Q466 430 498 371.5 Q530 313 530 240 Q530 166 498 107.5 Q466 49 410 16 Q354 -17 285 -17 Q217 -17 161 16 Q105 49 72.5 107.5 Q40 166 40 240 Z M89 240 Q89 180 114 131.5 Q139 83 184 55 Q229 27 285 27 Q340 27 384.5 55 Q429 83 454.5 131.5 Q480 180 480 240 Q480 301 455.5 349.5 Q431 398 387 425 Q343 452 285 452 Q229 452 184 424.5 Q139 397 114 349 Q89 301 89 240 Z M285 689 L172 560 L129 560 L255 725 L314 725 L440 560 L397 560 L285 689 Z " />
<glyph glyph-name="odieresis" unicode="&#xf6;" horiz-adv-x="569" d="M40 240 Q40 313 72.5 371.5 Q105 430 161 463 Q217 496 285 496 Q354 496 410 463 Q466 430 498 371.5 Q530 313 530 240 Q530 166 498 107.5 Q466 49 410 16 Q354 -17 285 -17 Q217 -17 161 16 Q105 49 72.5 107.5 Q40 166 40 240 Z M89 240 Q89 180 114 131.5 Q139 83 184 55 Q229 27 285 27 Q340 27 384.5 55 Q429 83 454.5 131.5 Q480 180 480 240 Q480 301 455.5 349.5 Q431 398 387 425 Q343 452 285 452 Q229 452 184 424.5 Q139 397 114 349 Q89 301 89 240 Z M193 582 Q178 582 167 593 Q156 604 156 619 Q156 635 167 645.5 Q178 656 194 656 Q210 656 220.5 645.5 Q231 635 231 619 Q231 604 220 593 Q209 582 193 582 Z M376 582 Q361 582 350 593 Q339 604 339 619 Q339 635 350 645.5 Q361 656 376 656 Q392 656 402.5 645.5 Q413 635 413 619 Q413 604 402.5 593 Q392 582 376 582 Z " />
<glyph glyph-name="ograve" unicode="&#xf2;" horiz-adv-x="569" d="M40 240 Q40 313 72.5 371.5 Q105 430 161 463 Q217 496 285 496 Q354 496 410 463 Q466 430 498 371.5 Q530 313 530 240 Q530 166 498 107.5 Q466 49 410 16 Q354 -17 285 -17 Q217 -17 161 16 Q105 49 72.5 107.5 Q40 166 40 240 Z M89 240 Q89 180 114 131.5 Q139 83 184 55 Q229 27 285 27 Q340 27 384.5 55 Q429 83 454.5 131.5 Q480 180 480 240 Q480 301 455.5 349.5 Q431 398 387 425 Q343 452 285 452 Q229 452 184 424.5 Q139 397 114 349 Q89 301 89 240 Z M327 560 L284 560 L157 725 L215 725 L327 560 Z " />
<glyph glyph-name="ohungarumlaut" unicode="&#x151;" horiz-adv-x="569" d="M40 240 Q40 313 72.5 371.5 Q105 430 161 463 Q217 496 285 496 Q354 496 410 463 Q466 430 498 371.5 Q530 313 530 240 Q530 166 498 107.5 Q466 49 410 16 Q354 -17 285 -17 Q217 -17 161 16 Q105 49 72.5 107.5 Q40 166 40 240 Z M89 240 Q89 180 114 131.5 Q139 83 184 55 Q229 27 285 27 Q340 27 384.5 55 Q429 83 454.5 131.5 Q480 180 480 240 Q480 301 455.5 349.5 Q431 398 387 425 Q343 452 285 452 Q229 452 184 424.5 Q139 397 114 349 Q89 301 89 240 Z M164 560 L276 725 L334 725 L207 560 L164 560 Z M317 560 L429 725 L487 725 L360 560 L317 560 Z " />
<glyph glyph-name="omacron" unicode="&#x14d;" horiz-adv-x="569" d="M40 240 Q40 313 72.5 371.5 Q105 430 161 463 Q217 496 285 496 Q354 496 410 463 Q466 430 498 371.5 Q530 313 530 240 Q530 166 498 107.5 Q466 49 410 16 Q354 -17 285 -17 Q217 -17 161 16 Q105 49 72.5 107.5 Q40 166 40 240 Z M89 240 Q89 180 114 131.5 Q139 83 184 55 Q229 27 285 27 Q340 27 384.5 55 Q429 83 454.5 131.5 Q480 180 480 240 Q480 301 455.5 349.5 Q431 398 387 425 Q343 452 285 452 Q229 452 184 424.5 Q139 397 114 349 Q89 301 89 240 Z M419 660 L419 618 L150 618 L150 660 L419 660 Z " />
<glyph glyph-name="oslash" unicode="&#xf8;" horiz-adv-x="569" d="M457 427 Q491 393 510.5 344.5 Q530 296 530 240 Q530 166 498 107.5 Q466 49 410 16 Q354 -17 285 -17 Q243 -17 205 -4.5 Q167 8 137 32 L79 -39 L48 -12 L106 60 Q75 95 57.5 140.5 Q40 186 40 240 Q40 313 72.5 371.5 Q105 430 161 463 Q217 496 285 496 Q364 496 426 453 L479 518 L510 493 L457 427 Z M89 240 Q89 199 101.5 162 Q114 125 137 97 L398 418 Q350 452 285 452 Q229 452 184 424.5 Q139 397 114 349 Q89 301 89 240 Z M285 27 Q340 27 384.5 55 Q429 83 454.5 131.5 Q480 180 480 240 Q480 331 428 391 L166 68 Q216 27 285 27 Z " />
<glyph glyph-name="otilde" unicode="&#xf5;" horiz-adv-x="569" d="M40 240 Q40 313 72.5 371.5 Q105 430 161 463 Q217 496 285 496 Q354 496 410 463 Q466 430 498 371.5 Q530 313 530 240 Q530 166 498 107.5 Q466 49 410 16 Q354 -17 285 -17 Q217 -17 161 16 Q105 49 72.5 107.5 Q40 166 40 240 Z M89 240 Q89 180 114 131.5 Q139 83 184 55 Q229 27 285 27 Q340 27 384.5 55 Q429 83 454.5 131.5 Q480 180 480 240 Q480 301 455.5 349.5 Q431 398 387 425 Q343 452 285 452 Q229 452 184 424.5 Q139 397 114 349 Q89 301 89 240 Z M137 583 Q139 627 159.5 655.5 Q180 684 217 684 Q255 684 296 651 Q330 624 352 624 Q371 624 382 640.5 Q393 657 395 684 L431 684 Q429 640 408.5 611.5 Q388 583 352 583 Q314 583 273 616 Q255 629 242 636 Q229 643 217 643 Q197 643 186 627 Q175 611 173 583 L137 583 Z " />
<glyph glyph-name="oe" unicode="&#x153;" horiz-adv-x="989" d="M727 496 Q794 496 844.5 466 Q895 436 922 382 Q949 328 949 257 Q949 247 947 229 L533 229 Q535 171 563 125 Q591 79 637 53 Q683 27 736 27 Q792 27 832 40.5 Q872 54 911 84 L911 36 Q873 7 830.5 -5 Q788 -17 736 -17 Q657 -17 597 23.5 Q537 64 509 132 Q481 65 422.5 24 Q364 -17 290 -17 Q222 -17 166 17 Q110 51 77.5 110 Q45 169 45 240 Q45 313 77.5 371.5 Q110 430 166 463 Q222 496 290 496 Q364 496 422.5 456.5 Q481 417 509 350 Q537 417 595.5 456.5 Q654 496 727 496 Z M290 452 Q234 452 189.5 424.5 Q145 397 120 349 Q95 301 95 240 Q95 180 122 131 Q149 82 194 54.5 Q239 27 290 27 Q345 27 389.5 55 Q434 83 459.5 131.5 Q485 180 485 240 Q485 298 460.5 346.5 Q436 395 391.5 423.5 Q347 452 290 452 Z M727 452 Q673 452 630.5 426.5 Q588 401 563.5 360 Q539 319 535 273 L899 273 Q898 352 851 402 Q804 452 727 452 Z " />
<glyph glyph-name="thorn" unicode="&#xfe;" horiz-adv-x="602" d="M128 690 L128 385 Q157 434 206.5 465 Q256 496 325 496 Q390 496 444 463 Q498 430 530 371.5 Q562 313 562 240 Q562 169 530.5 110 Q499 51 445.5 17 Q392 -17 330 -17 Q260 -17 211 12.5 Q162 42 128 97 L128 -211 L81 -211 L81 690 L128 690 Z M512 240 Q512 301 487 349 Q462 397 417.5 424.5 Q373 452 316 452 Q263 452 220 425.5 Q177 399 151.5 350 Q126 301 126 237 Q126 177 153 129 Q180 81 224 54 Q268 27 318 27 Q369 27 413.5 54.5 Q458 82 485 131 Q512 180 512 240 Z " />
<glyph glyph-name="racute" unicode="&#x155;" horiz-adv-x="326" d="M302 436 Q284 439 267 439 Q205 439 166.5 390 Q128 341 128 243 L128 0 L81 0 L81 480 L128 480 L128 382 Q146 428 179 455.5 Q212 483 261 483 Q284 483 302 480 L302 436 Z M155 560 L267 725 L326 725 L199 560 L155 560 Z " />
<glyph glyph-name="rcaron" unicode="&#x159;" horiz-adv-x="326" d="M302 436 Q284 439 267 439 Q205 439 166.5 390 Q128 341 128 243 L128 0 L81 0 L81 480 L128 480 L128 382 Q146 428 179 455.5 Q212 483 261 483 Q284 483 302 480 L302 436 Z M169 560 L42 725 L86 725 L198 596 L310 725 L354 725 L227 560 L169 560 Z " />
<glyph glyph-name="rcommaaccent" unicode="&#x157;" horiz-adv-x="326" d="M302 436 Q284 439 267 439 Q205 439 166.5 390 Q128 341 128 243 L128 0 L81 0 L81 480 L128 480 L128 382 Q146 428 179 455.5 Q212 483 261 483 Q284 483 302 480 L302 436 Z M105 -49 Q142 -49 142 -105 Q142 -142 124 -169.5 Q106 -197 71 -212 L71 -175 Q87 -168 96.5 -154.5 Q106 -141 108 -126 Q69 -121 69 -86 Q69 -70 79 -59.5 Q89 -49 105 -49 Z " />
<glyph glyph-name="sacute" unicode="&#x15b;" horiz-adv-x="425" d="M209 -16 Q162 -15 121 1 Q80 17 54 43 L54 103 Q88 64 128 45 Q168 26 209 26 Q264 26 295.5 50.5 Q327 75 327 117 Q327 147 313 166 Q299 185 275 198 Q251 211 208 228 Q148 251 117 267 Q86 283 67.5 308 Q49 333 49 373 Q49 426 93 460.5 Q137 495 206 495 Q301 495 353 446 L353 390 Q297 452 207 452 Q158 452 128.5 430.5 Q99 409 99 373 Q99 346 114.5 328.5 Q130 311 154.5 298.5 Q179 286 228 267 Q279 248 309 231.5 Q339 215 357.5 188 Q376 161 376 119 Q376 56 330.5 20 Q285 -16 209 -16 Z M165 560 L277 725 L336 725 L209 560 L165 560 Z " />
<glyph glyph-name="scaron" unicode="&#x161;" horiz-adv-x="425" d="M209 -16 Q162 -15 121 1 Q80 17 54 43 L54 103 Q88 64 128 45 Q168 26 209 26 Q264 26 295.5 50.5 Q327 75 327 117 Q327 147 313 166 Q299 185 275 198 Q251 211 208 228 Q148 251 117 267 Q86 283 67.5 308 Q49 333 49 373 Q49 426 93 460.5 Q137 495 206 495 Q301 495 353 446 L353 390 Q297 452 207 452 Q158 452 128.5 430.5 Q99 409 99 373 Q99 346 114.5 328.5 Q130 311 154.5 298.5 Q179 286 228 267 Q279 248 309 231.5 Q339 215 357.5 188 Q376 161 376 119 Q376 56 330.5 20 Q285 -16 209 -16 Z M178 560 L51 725 L95 725 L207 596 L319 725 L363 725 L236 560 L178 560 Z " />
<glyph glyph-name="scedilla" unicode="&#x15f;" horiz-adv-x="425" d="M376 119 Q376 61 336.5 25.5 Q297 -10 230 -15 L211 -59 Q252 -62 280 -81.5 Q308 -101 308 -139 Q308 -178 278.5 -201 Q249 -224 204 -224 Q163 -224 130 -213 L130 -173 Q164 -185 202 -185 Q264 -185 264 -139 Q264 -114 239 -102 Q214 -90 159 -90 L190 -15 Q148 -11 112.5 4.5 Q77 20 54 43 L54 103 Q88 64 128 45 Q168 26 209 26 Q264 26 295.5 50.5 Q327 75 327 117 Q327 147 313 166 Q299 185 275 198 Q251 211 208 228 Q148 251 117 267 Q86 283 67.5 308 Q49 333 49 373 Q49 426 93 460.5 Q137 495 206 495 Q301 495 353 446 L353 390 Q297 452 207 452 Q158 452 128.5 430.5 Q99 409 99 373 Q99 346 114.5 328.5 Q130 311 154.5 298.5 Q179 286 228 267 Q279 248 309 231.5 Q339 215 357.5 188 Q376 161 376 119 Z " />
<glyph glyph-name="scircumflex" unicode="&#x15d;" horiz-adv-x="425" d="M209 -16 Q162 -15 121 1 Q80 17 54 43 L54 103 Q88 64 128 45 Q168 26 209 26 Q264 26 295.5 50.5 Q327 75 327 117 Q327 147 313 166 Q299 185 275 198 Q251 211 208 228 Q148 251 117 267 Q86 283 67.5 308 Q49 333 49 373 Q49 426 93 460.5 Q137 495 206 495 Q301 495 353 446 L353 390 Q297 452 207 452 Q158 452 128.5 430.5 Q99 409 99 373 Q99 346 114.5 328.5 Q130 311 154.5 298.5 Q179 286 228 267 Q279 248 309 231.5 Q339 215 357.5 188 Q376 161 376 119 Q376 56 330.5 20 Q285 -16 209 -16 Z M208 689 L95 560 L52 560 L178 725 L237 725 L363 560 L320 560 L208 689 Z " />
<glyph glyph-name="scommaaccent" unicode="&#x219;" horiz-adv-x="425" d="M209 -16 Q162 -15 121 1 Q80 17 54 43 L54 103 Q88 64 128 45 Q168 26 209 26 Q264 26 295.5 50.5 Q327 75 327 117 Q327 147 313 166 Q299 185 275 198 Q251 211 208 228 Q148 251 117 267 Q86 283 67.5 308 Q49 333 49 373 Q49 426 93 460.5 Q137 495 206 495 Q301 495 353 446 L353 390 Q297 452 207 452 Q158 452 128.5 430.5 Q99 409 99 373 Q99 346 114.5 328.5 Q130 311 154.5 298.5 Q179 286 228 267 Q279 248 309 231.5 Q339 215 357.5 188 Q376 161 376 119 Q376 56 330.5 20 Q285 -16 209 -16 Z M213 -49 Q250 -49 250 -105 Q250 -142 232 -169.5 Q214 -197 179 -212 L179 -175 Q195 -168 204.5 -154.5 Q214 -141 216 -126 Q177 -121 177 -86 Q177 -70 187 -59.5 Q197 -49 213 -49 Z " />
<glyph glyph-name="germandbls" unicode="&#xdf;" horiz-adv-x="574" d="M395 289 Q442 266 470.5 245.5 Q499 225 514.5 195.5 Q530 166 530 122 Q530 57 485 20.5 Q440 -16 363 -16 Q316 -15 275.5 1 Q235 17 209 43 L209 103 Q275 26 364 26 Q419 26 450 51 Q481 76 481 122 Q481 167 456.5 195.5 Q432 224 371 253 Q303 283 279 309.5 Q255 336 255 375 Q255 402 271 424.5 Q287 447 324 486 Q353 516 363 534 Q373 552 373 580 Q373 616 345 641 Q317 666 268 666 Q128 666 128 515 L128 0 L81 0 L81 513 Q81 605 130 655.5 Q179 706 268 706 Q341 706 382 670 Q423 634 423 582 Q423 547 406 518 Q389 489 361 461 Q355 455 337 437.5 Q319 420 310 404.5 Q301 389 301 375 Q301 348 320 330.5 Q339 313 395 289 Z " />
<glyph glyph-name="tbar" unicode="&#x167;" horiz-adv-x="355" d="M180 280 L310 280 L310 240 L180 240 L180 145 Q180 90 201 61.5 Q222 33 260 33 Q285 33 310 40 L310 1 Q280 -6 258 -6 Q199 -6 166 34 Q133 74 133 146 L133 240 L28 240 L28 280 L133 280 L134 438 L28 438 L28 480 L134 480 L134 633 L181 633 L181 480 L310 480 L310 438 L181 438 L180 280 Z " />
<glyph glyph-name="tcaron" unicode="&#x165;" horiz-adv-x="355" d="M134 480 L134 633 L181 633 L181 480 L310 480 L310 438 L181 438 L180 145 Q180 90 201 61.5 Q222 33 260 33 Q285 33 310 40 L310 1 Q280 -6 258 -6 Q199 -6 166 34 Q133 74 133 146 L134 438 L28 438 L28 480 L134 480 Z M246 527 L258 692 L309 692 L282 527 L246 527 Z " />
<glyph glyph-name="uni0163" unicode="&#x163;" horiz-adv-x="355" d="M134 480 L134 633 L181 633 L181 480 L310 480 L310 438 L181 438 L180 145 Q180 90 201 61.5 Q222 33 260 33 Q285 33 310 40 L310 1 Q280 -6 258 -6 Q199 -6 166 34 Q133 74 133 146 L134 438 L28 438 L28 480 L134 480 Z M224 -49 Q261 -49 261 -105 Q261 -142 243 -169.5 Q225 -197 190 -212 L190 -175 Q206 -168 215.5 -154.5 Q225 -141 227 -126 Q188 -121 188 -86 Q188 -70 198 -59.5 Q208 -49 224 -49 Z " />
<glyph glyph-name="uni021B" unicode="&#x21b;" horiz-adv-x="355" d="M134 480 L134 633 L181 633 L181 480 L310 480 L310 438 L181 438 L180 145 Q180 90 201 61.5 Q222 33 260 33 Q285 33 310 40 L310 1 Q280 -6 258 -6 Q199 -6 166 34 Q133 74 133 146 L134 438 L28 438 L28 480 L134 480 Z M224 -49 Q261 -49 261 -105 Q261 -142 243 -169.5 Q225 -197 190 -212 L190 -175 Q206 -168 215.5 -154.5 Q225 -141 227 -126 Q188 -121 188 -86 Q188 -70 198 -59.5 Q208 -49 224 -49 Z " />
<glyph glyph-name="uacute" unicode="&#xfa;" horiz-adv-x="574" d="M460 96 Q438 44 389.5 13.5 Q341 -17 279 -17 Q188 -17 134.5 41 Q81 99 81 198 L81 480 L128 480 L128 203 Q128 120 169 73.5 Q210 27 283 27 Q363 27 411 85 Q459 143 459 234 L459 480 L506 480 L506 0 L460 0 L460 96 Z M245 560 L357 725 L416 725 L289 560 L245 560 Z " />
<glyph glyph-name="ubreve" unicode="&#x16d;" horiz-adv-x="574" d="M460 96 Q438 44 389.5 13.5 Q341 -17 279 -17 Q188 -17 134.5 41 Q81 99 81 198 L81 480 L128 480 L128 203 Q128 120 169 73.5 Q210 27 283 27 Q363 27 411 85 Q459 143 459 234 L459 480 L506 480 L506 0 L460 0 L460 96 Z M431 725 Q431 650 392 605 Q353 560 288 560 Q223 560 184 605 Q145 650 145 725 L185 725 Q185 672 213.5 637 Q242 602 288 602 Q334 602 362.5 637 Q391 672 391 725 L431 725 Z " />
<glyph glyph-name="ucircumflex" unicode="&#xfb;" horiz-adv-x="574" d="M460 96 Q438 44 389.5 13.5 Q341 -17 279 -17 Q188 -17 134.5 41 Q81 99 81 198 L81 480 L128 480 L128 203 Q128 120 169 73.5 Q210 27 283 27 Q363 27 411 85 Q459 143 459 234 L459 480 L506 480 L506 0 L460 0 L460 96 Z M288 689 L175 560 L132 560 L258 725 L317 725 L443 560 L400 560 L288 689 Z " />
<glyph glyph-name="udieresis" unicode="&#xfc;" horiz-adv-x="574" d="M460 96 Q438 44 389.5 13.5 Q341 -17 279 -17 Q188 -17 134.5 41 Q81 99 81 198 L81 480 L128 480 L128 203 Q128 120 169 73.5 Q210 27 283 27 Q363 27 411 85 Q459 143 459 234 L459 480 L506 480 L506 0 L460 0 L460 96 Z M196 582 Q181 582 170 593 Q159 604 159 619 Q159 635 170 645.5 Q181 656 197 656 Q213 656 223.5 645.5 Q234 635 234 619 Q234 604 223 593 Q212 582 196 582 Z M379 582 Q364 582 353 593 Q342 604 342 619 Q342 635 353 645.5 Q364 656 379 656 Q395 656 405.5 645.5 Q416 635 416 619 Q416 604 405.5 593 Q395 582 379 582 Z " />
<glyph glyph-name="ugrave" unicode="&#xf9;" horiz-adv-x="574" d="M460 96 Q438 44 389.5 13.5 Q341 -17 279 -17 Q188 -17 134.5 41 Q81 99 81 198 L81 480 L128 480 L128 203 Q128 120 169 73.5 Q210 27 283 27 Q363 27 411 85 Q459 143 459 234 L459 480 L506 480 L506 0 L460 0 L460 96 Z M329 560 L286 560 L159 725 L217 725 L329 560 Z " />
<glyph glyph-name="uhungarumlaut" unicode="&#x171;" horiz-adv-x="574" d="M460 96 Q438 44 389.5 13.5 Q341 -17 279 -17 Q188 -17 134.5 41 Q81 99 81 198 L81 480 L128 480 L128 203 Q128 120 169 73.5 Q210 27 283 27 Q363 27 411 85 Q459 143 459 234 L459 480 L506 480 L506 0 L460 0 L460 96 Z M167 560 L279 725 L337 725 L210 560 L167 560 Z M320 560 L432 725 L490 725 L363 560 L320 560 Z " />
<glyph glyph-name="umacron" unicode="&#x16b;" horiz-adv-x="574" d="M460 96 Q438 44 389.5 13.5 Q341 -17 279 -17 Q188 -17 134.5 41 Q81 99 81 198 L81 480 L128 480 L128 203 Q128 120 169 73.5 Q210 27 283 27 Q363 27 411 85 Q459 143 459 234 L459 480 L506 480 L506 0 L460 0 L460 96 Z M422 660 L422 618 L153 618 L153 660 L422 660 Z " />
<glyph glyph-name="uogonek" unicode="&#x173;" horiz-adv-x="574" d="M483 -171 Q498 -171 508.5 -167.5 Q519 -164 532 -156 L532 -197 Q506 -212 474 -212 Q435 -212 410 -187 Q385 -162 385 -125 Q385 -59 460 3 L460 96 Q438 44 389.5 13.5 Q341 -17 279 -17 Q188 -17 134.5 41 Q81 99 81 198 L81 480 L128 480 L128 203 Q128 120 169 73.5 Q210 27 283 27 Q363 27 411 85 Q459 143 459 234 L459 480 L506 480 L506 1 L507 0 Q472 -29 450.5 -55.5 Q429 -82 429 -117 Q429 -142 443.5 -156.5 Q458 -171 483 -171 Z " />
<glyph glyph-name="uring" unicode="&#x16f;" horiz-adv-x="574" d="M460 96 Q438 44 389.5 13.5 Q341 -17 279 -17 Q188 -17 134.5 41 Q81 99 81 198 L81 480 L128 480 L128 203 Q128 120 169 73.5 Q210 27 283 27 Q363 27 411 85 Q459 143 459 234 L459 480 L506 480 L506 0 L460 0 L460 96 Z M287 763 Q333 763 365.5 731 Q398 699 398 653 Q398 607 365.5 574 Q333 541 287 541 Q242 541 209 574 Q176 607 176 653 Q176 698 209 730.5 Q242 763 287 763 Z M287 724 Q257 724 236 703.5 Q215 683 215 653 Q215 623 236 601.5 Q257 580 287 580 Q317 580 338 601.5 Q359 623 359 653 Q359 684 338.5 704 Q318 724 287 724 Z " />
<glyph glyph-name="utilde" unicode="&#x169;" horiz-adv-x="574" d="M460 96 Q438 44 389.5 13.5 Q341 -17 279 -17 Q188 -17 134.5 41 Q81 99 81 198 L81 480 L128 480 L128 203 Q128 120 169 73.5 Q210 27 283 27 Q363 27 411 85 Q459 143 459 234 L459 480 L506 480 L506 0 L460 0 L460 96 Z M140 583 Q142 627 162.5 655.5 Q183 684 220 684 Q258 684 299 651 Q333 624 355 624 Q374 624 385 640.5 Q396 657 398 684 L434 684 Q432 640 411.5 611.5 Q391 583 355 583 Q317 583 276 616 Q258 629 245 636 Q232 643 220 643 Q200 643 189 627 Q178 611 176 583 L140 583 Z " />
<glyph glyph-name="wacute" unicode="&#x1e83;" horiz-adv-x="671" d="M166 0 L14 480 L60 480 L191 61 L313 480 L359 480 L481 61 L611 480 L658 480 L505 0 L457 0 L336 416 L215 0 L166 0 Z M293 560 L405 725 L464 725 L337 560 L293 560 Z " />
<glyph glyph-name="wcircumflex" unicode="&#x175;" horiz-adv-x="671" d="M166 0 L14 480 L60 480 L191 61 L313 480 L359 480 L481 61 L611 480 L658 480 L505 0 L457 0 L336 416 L215 0 L166 0 Z M336 689 L223 560 L180 560 L306 725 L365 725 L491 560 L448 560 L336 689 Z " />
<glyph glyph-name="wdieresis" unicode="&#x1e85;" horiz-adv-x="671" d="M166 0 L14 480 L60 480 L191 61 L313 480 L359 480 L481 61 L611 480 L658 480 L505 0 L457 0 L336 416 L215 0 L166 0 Z M244 582 Q229 582 218 593 Q207 604 207 619 Q207 635 218 645.5 Q229 656 245 656 Q261 656 271.5 645.5 Q282 635 282 619 Q282 604 271 593 Q260 582 244 582 Z M427 582 Q412 582 401 593 Q390 604 390 619 Q390 635 401 645.5 Q412 656 427 656 Q443 656 453.5 645.5 Q464 635 464 619 Q464 604 453.5 593 Q443 582 427 582 Z " />
<glyph glyph-name="wgrave" unicode="&#x1e81;" horiz-adv-x="671" d="M166 0 L14 480 L60 480 L191 61 L313 480 L359 480 L481 61 L611 480 L658 480 L505 0 L457 0 L336 416 L215 0 L166 0 Z M378 560 L335 560 L208 725 L266 725 L378 560 Z " />
<glyph glyph-name="yacute" unicode="&#xfd;" horiz-adv-x="445" d="M200 7 L5 480 L54 480 L223 64 L391 480 L440 480 L155 -211 L110 -211 L200 7 Z M181 560 L293 725 L352 725 L225 560 L181 560 Z " />
<glyph glyph-name="ycircumflex" unicode="&#x177;" horiz-adv-x="445" d="M200 7 L5 480 L54 480 L223 64 L391 480 L440 480 L155 -211 L110 -211 L200 7 Z M224 689 L111 560 L68 560 L194 725 L253 725 L379 560 L336 560 L224 689 Z " />
<glyph glyph-name="ydieresis" unicode="&#xff;" horiz-adv-x="445" d="M200 7 L5 480 L54 480 L223 64 L391 480 L440 480 L155 -211 L110 -211 L200 7 Z M132 582 Q117 582 106 593 Q95 604 95 619 Q95 635 106 645.5 Q117 656 133 656 Q149 656 159.5 645.5 Q170 635 170 619 Q170 604 159 593 Q148 582 132 582 Z M315 582 Q300 582 289 593 Q278 604 278 619 Q278 635 289 645.5 Q300 656 315 656 Q331 656 341.5 645.5 Q352 635 352 619 Q352 604 341.5 593 Q331 582 315 582 Z " />
<glyph glyph-name="ygrave" unicode="&#x1ef3;" horiz-adv-x="445" d="M200 7 L5 480 L54 480 L223 64 L391 480 L440 480 L155 -211 L110 -211 L200 7 Z M266 560 L223 560 L96 725 L154 725 L266 560 Z " />
<glyph glyph-name="zacute" unicode="&#x17a;" horiz-adv-x="452" d="M427 447 L87 42 L427 42 L427 0 L25 0 L25 38 L363 438 L35 438 L35 480 L427 480 L427 447 Z M185 560 L297 725 L356 725 L229 560 L185 560 Z " />
<glyph glyph-name="zcaron" unicode="&#x17e;" horiz-adv-x="452" d="M427 447 L87 42 L427 42 L427 0 L25 0 L25 38 L363 438 L35 438 L35 480 L427 480 L427 447 Z M198 560 L71 725 L115 725 L227 596 L339 725 L383 725 L256 560 L198 560 Z " />
<glyph glyph-name="zdotaccent" unicode="&#x17c;" horiz-adv-x="452" d="M427 447 L87 42 L427 42 L427 0 L25 0 L25 38 L363 438 L35 438 L35 480 L427 480 L427 447 Z M228 581 Q212 581 201.5 592 Q191 603 191 618 Q191 634 201.5 644.5 Q212 655 228 655 Q244 655 254.5 644.5 Q265 634 265 618 Q265 603 254.5 592 Q244 581 228 581 Z " />
<glyph glyph-name="fi" unicode="&#xfb01;" horiz-adv-x="549" d="M467 0 L420 0 L420 438 L185 438 L185 0 L138 0 L138 438 L32 438 L32 480 L138 480 L138 553 Q138 626 173 665.5 Q208 705 277 705 Q310 705 334 698 L334 659 Q311 666 280 666 Q185 666 185 554 L185 480 L467 480 L467 0 Z M444 655 Q460 655 470.5 644.5 Q481 634 481 618 Q481 603 470.5 592 Q460 581 444 581 Q428 581 417.5 592 Q407 603 407 618 Q407 634 417.5 644.5 Q428 655 444 655 Z " />
<glyph glyph-name="fl" unicode="&#xfb02;" horiz-adv-x="540" d="M138 552 Q138 625 173 665 Q208 705 277 705 Q312 705 334 697 L334 659 Q311 666 280 666 Q185 666 185 553 L185 480 L314 480 L314 438 L185 438 L185 0 L138 0 L138 438 L32 438 L32 480 L138 480 L138 552 Z M459 0 L412 0 L412 690 L459 690 L459 0 Z " />
<glyph glyph-name="ordfeminine" unicode="&#xaa;" horiz-adv-x="375" d="M183 659 Q156 659 128 650.5 Q100 642 82 627 L82 669 Q101 681 128 688.5 Q155 696 180 696 Q332 696 332 543 L332 340 L294 340 L294 395 Q280 365 244.5 347.5 Q209 330 161 330 Q102 330 68.5 358 Q35 386 35 435 Q35 491 78 522 Q121 553 196 553 Q255 553 294 541 Q294 659 183 659 Z M164 366 Q226 366 260 402 Q294 438 294 505 Q255 517 202 517 Q142 517 109 495.5 Q76 474 76 436 Q76 403 99 384.5 Q122 366 164 366 Z " />
<glyph glyph-name="ordmasculine" unicode="&#xba;" horiz-adv-x="456" d="M39 513 Q39 564 64.5 606 Q90 648 133 672 Q176 696 228 696 Q279 696 322.5 672 Q366 648 391 606 Q416 564 416 513 Q416 461 391 419 Q366 377 323 353.5 Q280 330 228 330 Q176 330 133 353.5 Q90 377 64.5 419 Q39 461 39 513 Z M80 513 Q80 473 99 439.5 Q118 406 152 386.5 Q186 367 228 367 Q270 367 303.5 386.5 Q337 406 356 439.5 Q375 473 375 513 Q375 552 356 585.5 Q337 619 303.5 639 Q270 659 228 659 Q186 659 152 639.5 Q118 620 99 586.5 Q80 553 80 513 Z " />
<glyph glyph-name="n.superior" unicode="&#x207f;" horiz-adv-x="453" d="M113 618 Q151 696 243 696 Q303 696 343.5 657 Q384 618 384 537 L384 336 L346 336 L346 528 Q346 589 317.5 624 Q289 659 239 659 Q183 659 148 620.5 Q113 582 113 517 L113 336 L75 336 L75 690 L113 690 L113 618 Z " />
<glyph glyph-name="uni0394" unicode="&#x394;" horiz-adv-x="647" d="M635 0 L12 0 L300 682 L348 682 L635 0 Z M388 464 Q373 499 355.5 542.5 Q338 586 325 624 L321 624 L303 578 L254 457 L80 44 L566 44 L388 464 Z " />
<glyph glyph-name="uni03A9" unicode="&#x3a9;" horiz-adv-x="757" d="M250 44 L250 60 Q183 85 136.5 134 Q90 183 67 244 Q44 305 44 369 Q44 459 87.5 536 Q131 613 207.5 658.5 Q284 704 378 704 Q479 704 555.5 658 Q632 612 673 535.5 Q714 459 714 369 Q714 266 657 182.5 Q600 99 507 62 L507 44 L710 44 L710 0 L462 0 L462 91 Q552 117 605.5 192 Q659 267 659 369 Q659 451 623.5 517 Q588 583 523.5 621 Q459 659 377 659 Q299 659 235 622 Q171 585 134 519 Q97 453 97 369 Q97 266 151 191 Q205 116 295 90 L295 0 L48 0 L48 44 L250 44 Z " />
<glyph glyph-name="uni03BC" unicode="&#x3bc;" horiz-adv-x="605" d="M478 139 Q478 87 496.5 61.5 Q515 36 544 36 Q564 36 577 39 L577 -2 Q569 -6 542 -6 Q499 -6 473.5 18.5 Q448 43 442 88 Q418 37 377 10 Q336 -17 283 -17 Q230 -17 188.5 9 Q147 35 128 81 L128 -211 L81 -211 L81 480 L128 480 L128 215 Q128 167 146.5 123.5 Q165 80 200 53.5 Q235 27 281 27 Q327 27 361.5 53.5 Q396 80 413.5 123.5 Q431 167 431 215 L431 480 L478 480 L478 139 Z " />
<glyph glyph-name="pi" unicode="&#x3c0;" horiz-adv-x="594" d="M550 -2 Q542 -6 515 -6 Q463 -6 433.5 29.5 Q404 65 404 129 L405 438 L168 438 L168 0 L121 0 L121 438 L28 438 L28 480 L542 480 L542 438 L452 438 L451 139 Q451 87 469.5 61.5 Q488 36 517 36 Q538 36 550 39 L550 -2 Z " />
<glyph glyph-name="fraction" unicode="&#x2044;" horiz-adv-x="89" d="M-219 0 L260 682 L308 682 L-172 0 L-219 0 Z " />
<glyph glyph-name="onehalf" unicode="&#xbd;" horiz-adv-x="683" d="M270 344 L31 344 L31 383 L128 383 L128 646 L42 615 L42 656 L152 696 L172 696 L172 383 L270 383 L270 344 Z M76 0 L555 682 L603 682 L123 0 L76 0 Z M531 154 Q569 191 585.5 214 Q602 237 602 260 Q602 286 579.5 303 Q557 320 518 320 Q458 320 412 276 L412 324 Q457 359 524 359 Q583 359 615.5 332.5 Q648 306 648 266 Q648 241 637 219 Q626 197 610 179 Q594 161 559 126 L473 39 L662 39 L662 0 L405 0 L405 26 L531 154 Z " />
<glyph glyph-name="onequarter" unicode="&#xbc;" horiz-adv-x="649" d="M270 344 L31 344 L31 383 L128 383 L128 646 L42 615 L42 656 L152 696 L172 696 L172 383 L270 383 L270 344 Z M67 0 L546 682 L594 682 L114 0 L67 0 Z M525 0 L525 76 L334 76 L334 112 L531 356 L569 356 L569 115 L629 115 L629 76 L569 76 L569 0 L525 0 Z M526 290 L384 115 L525 115 L526 290 Z " />
<glyph glyph-name="threequarters" unicode="&#xbe;" horiz-adv-x="674" d="M30 412 Q56 392 82 382 Q108 372 142 372 Q190 372 215.5 392.5 Q241 413 241 443 Q241 472 213 492 Q185 512 131 512 L105 512 L105 550 L126 550 Q169 550 197 566.5 Q225 583 225 610 Q225 633 204.5 648.5 Q184 664 140 664 Q79 664 36 626 L36 673 Q80 703 143 703 Q203 703 236.5 678.5 Q270 654 270 618 Q270 586 250 564.5 Q230 543 198 534 Q234 527 260 502 Q286 477 286 440 Q286 394 249 363.5 Q212 333 143 333 Q105 333 78.5 341 Q52 349 30 365 L30 412 Z M93 0 L572 682 L620 682 L140 0 L93 0 Z M550 0 L550 76 L359 76 L359 112 L556 356 L594 356 L594 115 L654 115 L654 76 L594 76 L594 0 L550 0 Z M551 290 L409 115 L550 115 L551 290 Z " />
<glyph glyph-name="zero.inferior" unicode="&#x2080;" horiz-adv-x="349" d="M30 44 Q30 143 72.5 186 Q115 229 175 229 Q234 229 276.5 186 Q319 143 319 44 Q319 -54 276.5 -97.5 Q234 -141 175 -141 Q115 -141 72.5 -98 Q30 -55 30 44 Z M275 44 Q275 117 247 153.5 Q219 190 175 190 Q131 190 102.5 153.5 Q74 117 74 44 Q74 -29 102.5 -65.5 Q131 -102 175 -102 Q218 -102 246.5 -65.5 Q275 -29 275 44 Z " />
<glyph glyph-name="one.inferior" unicode="&#x2081;" horiz-adv-x="300" d="M270 -130 L31 -130 L31 -91 L128 -91 L128 172 L42 141 L42 182 L152 222 L172 222 L172 -91 L270 -91 L270 -130 Z " />
<glyph glyph-name="two.inferior" unicode="&#x2082;" horiz-adv-x="308" d="M156 24 Q194 61 210.5 84 Q227 107 227 130 Q227 156 204.5 173 Q182 190 143 190 Q83 190 37 146 L37 194 Q82 229 149 229 Q208 229 240.5 202.5 Q273 176 273 136 Q273 111 262 89 Q251 67 235 49 Q219 31 184 -4 L98 -91 L287 -91 L287 -130 L30 -130 L30 -104 L156 24 Z " />
<glyph glyph-name="three.inferior" unicode="&#x2083;" horiz-adv-x="316" d="M30 -62 Q56 -82 82 -92 Q108 -102 142 -102 Q190 -102 215.5 -81.5 Q241 -61 241 -31 Q241 -2 213 18 Q185 38 131 38 L105 38 L105 76 L126 76 Q169 76 197 92.5 Q225 109 225 136 Q225 159 204.5 174.5 Q184 190 140 190 Q79 190 36 152 L36 199 Q80 229 143 229 Q203 229 236.5 204.5 Q270 180 270 144 Q270 112 250 90.5 Q230 69 198 60 Q234 53 260 28 Q286 3 286 -34 Q286 -80 249 -110.5 Q212 -141 143 -141 Q105 -141 78.5 -133 Q52 -125 30 -109 L30 -62 Z " />
<glyph glyph-name="four.inferior" unicode="&#x2084;" horiz-adv-x="345" d="M221 -130 L221 -54 L30 -54 L30 -18 L227 226 L265 226 L265 -15 L325 -15 L325 -54 L265 -54 L265 -130 L221 -130 Z M222 160 L80 -15 L221 -15 L222 160 Z " />
<glyph glyph-name="five.inferior" unicode="&#x2085;" horiz-adv-x="320" d="M40 -65 Q90 -102 148 -102 Q191 -102 220 -79 Q249 -56 249 -23 Q249 10 220 33 Q191 56 145 56 Q93 56 52 45 L52 222 L267 222 L267 183 L95 183 L95 92 Q120 97 156 97 Q195 97 226.5 80.5 Q258 64 276.5 37 Q295 10 295 -22 Q295 -72 255 -106.5 Q215 -141 145 -141 Q85 -141 40 -112 L40 -65 Z " />
<glyph glyph-name="six.inferior" unicode="&#x2086;" horiz-adv-x="345" d="M35 -14 Q35 122 198 222 L267 222 Q224 197 199 179 Q174 161 155 142 Q136 124 123 108 Q110 92 97 68 Q131 94 181 94 Q242 94 283.5 60.5 Q325 27 325 -24 Q325 -74 283 -107.5 Q241 -141 178 -141 Q115 -141 75 -106 Q35 -71 35 -14 Z M178 -103 Q222 -103 250.5 -80.5 Q279 -58 279 -24 Q279 10 250.5 33 Q222 56 178 56 Q134 56 105.5 33 Q77 10 77 -24 Q77 -58 105.5 -80.5 Q134 -103 178 -103 Z " />
<glyph glyph-name="seven.inferior" unicode="&#x2087;" horiz-adv-x="310" d="M61 -130 L240 183 L25 183 L25 222 L296 222 L296 196 L109 -130 L61 -130 Z " />
<glyph glyph-name="eight.inferior" unicode="&#x2088;" horiz-adv-x="347" d="M312 -36 Q312 -83 275 -112 Q238 -141 174 -141 Q109 -141 72 -112 Q35 -83 35 -36 Q35 -2 54.5 22.5 Q74 47 111 58 Q81 68 64 89 Q47 110 47 139 Q47 179 82.5 204 Q118 229 174 229 Q229 229 264.5 204 Q300 179 300 139 Q300 110 283.5 89 Q267 68 237 58 Q274 47 293 23 Q312 -1 312 -36 Z M91 133 Q91 107 114.5 90.5 Q138 74 174 74 Q210 74 233 90.5 Q256 107 256 133 Q256 159 233 174.5 Q210 190 174 190 Q138 190 114.5 174.5 Q91 159 91 133 Z M80 -33 Q80 -65 106.5 -83.5 Q133 -102 174 -102 Q215 -102 241 -83.5 Q267 -65 267 -33 Q267 -2 241 17.5 Q215 37 174 37 Q133 37 106.5 17.5 Q80 -2 80 -33 Z " />
<glyph glyph-name="nine.inferior" unicode="&#x2089;" horiz-adv-x="345" d="M310 105 Q310 -30 147 -130 L78 -130 Q122 -105 146.5 -87.5 Q171 -70 190 -51 Q226 -17 248 24 Q214 -3 164 -3 Q103 -3 61.5 31 Q20 65 20 115 Q20 165 62 199 Q104 233 167 233 Q230 233 270 197.5 Q310 162 310 105 Z M167 195 Q123 195 94.5 172 Q66 149 66 115 Q66 81 94.5 58.5 Q123 36 167 36 Q211 36 239.5 58.5 Q268 81 268 115 Q268 149 239 172 Q210 195 167 195 Z " />
<glyph glyph-name="zero.superior" unicode="&#x2070;" horiz-adv-x="349" d="M30 518 Q30 617 72.5 660 Q115 703 175 703 Q234 703 276.5 660 Q319 617 319 518 Q319 420 276.5 376.5 Q234 333 175 333 Q115 333 72.5 376 Q30 419 30 518 Z M275 518 Q275 591 247 627.5 Q219 664 175 664 Q131 664 102.5 627.5 Q74 591 74 518 Q74 445 102.5 408.5 Q131 372 175 372 Q218 372 246.5 408.5 Q275 445 275 518 Z " />
<glyph glyph-name="onesuperior" unicode="&#xb9;" horiz-adv-x="300" d="M270 344 L31 344 L31 383 L128 383 L128 646 L42 615 L42 656 L152 696 L172 696 L172 383 L270 383 L270 344 Z " />
<glyph glyph-name="twosuperior" unicode="&#xb2;" horiz-adv-x="308" d="M156 498 Q194 535 210.5 558 Q227 581 227 604 Q227 630 204.5 647 Q182 664 143 664 Q83 664 37 620 L37 668 Q82 703 149 703 Q208 703 240.5 676.5 Q273 650 273 610 Q273 585 262 563 Q251 541 235 523 Q219 505 184 470 L98 383 L287 383 L287 344 L30 344 L30 370 L156 498 Z " />
<glyph glyph-name="threesuperior" unicode="&#xb3;" horiz-adv-x="316" d="M30 412 Q56 392 82 382 Q108 372 142 372 Q190 372 215.5 392.5 Q241 413 241 443 Q241 472 213 492 Q185 512 131 512 L105 512 L105 550 L126 550 Q169 550 197 566.5 Q225 583 225 610 Q225 633 204.5 648.5 Q184 664 140 664 Q79 664 36 626 L36 673 Q80 703 143 703 Q203 703 236.5 678.5 Q270 654 270 618 Q270 586 250 564.5 Q230 543 198 534 Q234 527 260 502 Q286 477 286 440 Q286 394 249 363.5 Q212 333 143 333 Q105 333 78.5 341 Q52 349 30 365 L30 412 Z " />
<glyph glyph-name="four.superior" unicode="&#x2074;" horiz-adv-x="345" d="M221 344 L221 420 L30 420 L30 456 L227 700 L265 700 L265 459 L325 459 L325 420 L265 420 L265 344 L221 344 Z M222 634 L80 459 L221 459 L222 634 Z " />
<glyph glyph-name="five.superior" unicode="&#x2075;" horiz-adv-x="320" d="M40 409 Q90 372 148 372 Q191 372 220 395 Q249 418 249 451 Q249 484 220 507 Q191 530 145 530 Q93 530 52 519 L52 696 L267 696 L267 657 L95 657 L95 566 Q120 571 156 571 Q195 571 226.5 554.5 Q258 538 276.5 511 Q295 484 295 452 Q295 402 255 367.5 Q215 333 145 333 Q85 333 40 362 L40 409 Z " />
<glyph glyph-name="six.superior" unicode="&#x2076;" horiz-adv-x="345" d="M35 460 Q35 596 198 696 L267 696 Q224 671 199 653 Q174 635 155 616 Q136 598 123 582 Q110 566 97 542 Q131 568 181 568 Q242 568 283.5 534.5 Q325 501 325 450 Q325 400 283 366.5 Q241 333 178 333 Q115 333 75 368 Q35 403 35 460 Z M178 371 Q222 371 250.5 393.5 Q279 416 279 450 Q279 484 250.5 507 Q222 530 178 530 Q134 530 105.5 507 Q77 484 77 450 Q77 416 105.5 393.5 Q134 371 178 371 Z " />
<glyph glyph-name="seven.superior" unicode="&#x2077;" horiz-adv-x="310" d="M61 344 L240 657 L25 657 L25 696 L296 696 L296 670 L109 344 L61 344 Z " />
<glyph glyph-name="eight.superior" unicode="&#x2078;" horiz-adv-x="347" d="M312 438 Q312 391 275 362 Q238 333 174 333 Q109 333 72 362 Q35 391 35 438 Q35 472 54.5 496.5 Q74 521 111 532 Q81 542 64 563 Q47 584 47 613 Q47 653 82.5 678 Q118 703 174 703 Q229 703 264.5 678 Q300 653 300 613 Q300 584 283.5 563 Q267 542 237 532 Q274 521 293 497 Q312 473 312 438 Z M91 607 Q91 581 114.5 564.5 Q138 548 174 548 Q210 548 233 564.5 Q256 581 256 607 Q256 633 233 648.5 Q210 664 174 664 Q138 664 114.5 648.5 Q91 633 91 607 Z M80 441 Q80 409 106.5 390.5 Q133 372 174 372 Q215 372 241 390.5 Q267 409 267 441 Q267 472 241 491.5 Q215 511 174 511 Q133 511 106.5 491.5 Q80 472 80 441 Z " />
<glyph glyph-name="nine.superior" unicode="&#x2079;" horiz-adv-x="345" d="M310 579 Q310 444 147 344 L78 344 Q122 369 146.5 386.5 Q171 404 190 423 Q226 457 248 498 Q214 471 164 471 Q103 471 61.5 505 Q20 539 20 589 Q20 639 62 673 Q104 707 167 707 Q230 707 270 671.5 Q310 636 310 579 Z M167 669 Q123 669 94.5 646 Q66 623 66 589 Q66 555 94.5 532.5 Q123 510 167 510 Q211 510 239.5 532.5 Q268 555 268 589 Q268 623 239 646 Q210 669 167 669 Z " />
<glyph glyph-name="middot" unicode="&#xb7;" horiz-adv-x="227" d="M113 220 Q94 220 81.5 233 Q69 246 69 264 Q69 282 81.5 295 Q94 308 113 308 Q131 308 144 295 Q157 282 157 264 Q157 246 144 233 Q131 220 113 220 Z " />
<glyph glyph-name="bullet" unicode="&#x2022;" horiz-adv-x="400" d="M73 304 Q73 357 110 394 Q147 431 199 431 Q233 431 262.5 414 Q292 397 309.5 367.5 Q327 338 327 304 Q327 269 309.5 240 Q292 211 263 194 Q234 177 199 177 Q146 177 109.5 214 Q73 251 73 304 Z " />
<glyph glyph-name="ellipsis" unicode="&#x2026;" horiz-adv-x="634" d="M113 -6 Q94 -6 81.5 7 Q69 20 69 38 Q69 57 81.5 69.5 Q94 82 113 82 Q131 82 144 69.5 Q157 57 157 38 Q157 20 144 7 Q131 -6 113 -6 Z M317 -6 Q298 -6 285.5 7 Q273 20 273 38 Q273 57 285.5 69.5 Q298 82 317 82 Q335 82 348 69.5 Q361 57 361 38 Q361 20 348 7 Q335 -6 317 -6 Z M520 -6 Q501 -6 488.5 7 Q476 20 476 38 Q476 57 488.5 69.5 Q501 82 520 82 Q538 82 551 69.5 Q564 57 564 38 Q564 20 551 7 Q538 -6 520 -6 Z " />
<glyph glyph-name="exclamdown" unicode="&#xa1;" horiz-adv-x="241" d="M123 495 Q141 495 154 482 Q167 469 167 451 Q167 433 154 420 Q141 407 123 407 Q104 407 91.5 420 Q79 433 79 451 Q79 469 91.5 482 Q104 495 123 495 Z M101 319 L141 319 L147 -193 L96 -193 L101 319 Z " />
<glyph glyph-name="overline" unicode="&#x203e;" horiz-adv-x="423" d="M423 781 L423 740 L0 740 L0 781 L423 781 Z " />
<glyph glyph-name="questiondown" unicode="&#xbf;" horiz-adv-x="459" d="M246 495 Q265 495 277.5 482 Q290 469 290 451 Q290 433 277.5 420 Q265 407 246 407 Q227 407 214.5 420 Q202 433 202 451 Q202 469 214.5 482 Q227 495 246 495 Z M235 -215 Q141 -215 91 -165.5 Q41 -116 41 -36 Q41 14 63 52 Q85 90 143 141 Q178 172 195 196 Q212 220 217.5 247 Q223 274 223 319 L267 319 Q267 269 259.5 235.5 Q252 202 232.5 172.5 Q213 143 174 108 Q123 62 106.5 33.5 Q90 5 90 -33 Q90 -94 127 -132.5 Q164 -171 236 -171 Q294 -171 340.5 -147.5 Q387 -124 420 -83 L420 -149 Q383 -179 340.5 -197 Q298 -215 235 -215 Z " />
<glyph glyph-name="uni208D" unicode="&#x208d;" horiz-adv-x="176" d="M123 -168 Q85 -122 62.5 -63.5 Q40 -5 40 49 Q40 102 62.5 160 Q85 218 123 265 L161 265 Q123 218 100.5 160 Q78 102 78 49 Q78 -5 100.5 -63.5 Q123 -122 161 -168 L123 -168 Z " />
<glyph glyph-name="parenleftsuperior" unicode="&#x207d;" horiz-adv-x="176" d="M123 306 Q85 352 62.5 410.5 Q40 469 40 523 Q40 576 62.5 634 Q85 692 123 739 L161 739 Q123 692 100.5 634 Q78 576 78 523 Q78 469 100.5 410.5 Q123 352 161 306 L123 306 Z " />
<glyph glyph-name="uni208E" unicode="&#x208e;" horiz-adv-x="176" d="M15 -168 Q53 -122 75.5 -63.5 Q98 -5 98 49 Q98 102 75.5 160 Q53 218 15 265 L53 265 Q91 218 113.5 160 Q136 102 136 49 Q136 -5 113.5 -63.5 Q91 -122 53 -168 L15 -168 Z " />
<glyph glyph-name="parenrightsuperior" unicode="&#x207e;" horiz-adv-x="176" d="M38 306 Q76 352 98.5 410.5 Q121 469 121 523 Q121 576 98.5 634 Q76 692 38 739 L76 739 Q114 692 136.5 634 Q159 576 159 523 Q159 469 136.5 410.5 Q114 352 76 306 L38 306 Z " />
<glyph glyph-name="emdash" unicode="&#x2014;" horiz-adv-x="864" d="M794 286 L794 243 L70 243 L70 286 L794 286 Z " />
<glyph glyph-name="endash" unicode="&#x2013;" horiz-adv-x="563" d="M493 285 L493 243 L70 243 L70 285 L493 285 Z " />
<glyph glyph-name="uni2015" unicode="&#x2015;" horiz-adv-x="819" d="M710 285 L710 243 L110 243 L110 285 L710 285 Z " />
<glyph glyph-name="uni00AD" unicode="&#xad;" horiz-adv-x="443" d="M373 285 L373 243 L70 243 L70 285 L373 285 Z " />
<glyph glyph-name="guillemotleft" unicode="&#xab;" horiz-adv-x="448" d="M127 229 L222 47 L172 47 L75 229 L172 411 L222 411 L127 229 Z M374 47 L324 47 L226 229 L324 411 L374 411 L279 229 L374 47 Z " />
<glyph glyph-name="guillemotright" unicode="&#xbb;" horiz-adv-x="448" d="M222 229 L125 47 L75 47 L169 229 L75 411 L125 411 L222 229 Z M277 47 L226 47 L321 229 L226 411 L277 411 L374 229 L277 47 Z " />
<glyph glyph-name="guilsinglleft" unicode="&#x2039;" horiz-adv-x="296" d="M127 229 L222 47 L172 47 L75 229 L172 411 L222 411 L127 229 Z " />
<glyph glyph-name="guilsinglright" unicode="&#x203a;" horiz-adv-x="296" d="M125 47 L75 47 L169 229 L75 411 L125 411 L222 229 L125 47 Z " />
<glyph glyph-name="quotedblbase" unicode="&#x201e;" horiz-adv-x="397" d="M118 82 Q164 82 164 20 Q164 -26 141.5 -67.5 Q119 -109 76 -133 L76 -87 Q96 -71 103.5 -51 Q111 -31 111 -5 Q95 -2 84.5 10 Q74 22 74 38 Q74 57 86.5 69.5 Q99 82 118 82 Z M276 82 Q322 82 322 20 Q322 -26 299.5 -67.5 Q277 -109 234 -133 L234 -87 Q254 -71 261.5 -51 Q269 -31 269 -5 Q253 -2 242.5 10 Q232 22 232 38 Q232 57 244.5 69.5 Q257 82 276 82 Z " />
<glyph glyph-name="quotedblleft" unicode="&#x201c;" horiz-adv-x="397" d="M120 489 Q74 489 74 552 Q74 597 96.5 638.5 Q119 680 162 704 L162 659 Q142 642 134.5 621.5 Q127 601 128 576 Q144 574 154 562 Q164 550 164 533 Q164 515 151.5 502 Q139 489 120 489 Z M278 489 Q232 489 232 552 Q232 597 254.5 638.5 Q277 680 320 704 L320 659 Q284 628 286 576 Q302 574 312 562 Q322 550 322 533 Q322 515 309.5 502 Q297 489 278 489 Z " />
<glyph glyph-name="quotedblright" unicode="&#x201d;" horiz-adv-x="397" d="M133 704 Q179 704 179 642 Q179 596 156.5 554.5 Q134 513 91 489 L91 535 Q111 551 118.5 571 Q126 591 126 617 Q110 620 99.5 632 Q89 644 89 660 Q89 679 101.5 691.5 Q114 704 133 704 Z M291 704 Q337 704 337 642 Q337 596 314.5 554.5 Q292 513 249 489 L249 535 Q269 551 276.5 571 Q284 591 284 617 Q268 620 257.5 632 Q247 644 247 660 Q247 679 259.5 691.5 Q272 704 291 704 Z " />
<glyph glyph-name="quotedblrightreversed" unicode="&#x201f;" horiz-adv-x="397" d="M120 704 Q139 704 151.5 691 Q164 678 164 660 Q164 643 154 631 Q144 619 128 617 Q127 592 134.5 571.5 Q142 551 162 534 L162 489 Q119 513 96.5 554.5 Q74 596 74 641 Q74 704 120 704 Z M278 704 Q297 704 309.5 691 Q322 678 322 660 Q322 643 312 631 Q302 619 286 617 Q284 565 320 534 L320 489 Q277 513 254.5 554.5 Q232 596 232 641 Q232 704 278 704 Z " />
<glyph glyph-name="quoteleft" unicode="&#x2018;" horiz-adv-x="239" d="M120 489 Q74 489 74 552 Q74 597 96.5 638.5 Q119 680 162 704 L162 659 Q142 642 134.5 621.5 Q127 601 128 576 Q144 574 154 562 Q164 550 164 533 Q164 515 151.5 502 Q139 489 120 489 Z " />
<glyph glyph-name="quotereversed" unicode="&#x201b;" horiz-adv-x="239" d="M120 704 Q139 704 151.5 691 Q164 678 164 660 Q164 643 154 631 Q144 619 128 617 Q127 592 134.5 571.5 Q142 551 162 534 L162 489 Q119 513 96.5 554.5 Q74 596 74 641 Q74 704 120 704 Z " />
<glyph glyph-name="quoteright" unicode="&#x2019;" horiz-adv-x="239" d="M133 704 Q179 704 179 641 Q179 596 156.5 554.5 Q134 513 91 489 L91 534 Q111 551 118.5 571.5 Q126 592 125 617 Q110 619 99.5 631.5 Q89 644 89 660 Q89 678 101.5 691 Q114 704 133 704 Z " />
<glyph glyph-name="quotesinglbase" unicode="&#x201a;" horiz-adv-x="239" d="M118 82 Q164 82 164 20 Q164 -26 141.5 -67.5 Q119 -109 76 -133 L76 -87 Q96 -71 103.5 -51 Q111 -31 111 -5 Q95 -2 84.5 10 Q74 22 74 38 Q74 57 86.5 69.5 Q99 82 118 82 Z " />
<glyph glyph-name="uni00A0" unicode="&#xa0;" horiz-adv-x="239" d="" />
<glyph glyph-name="zerowidthspace" unicode="&#x200b;" d="" />
<glyph glyph-name="uni200D" unicode="&#x200d;" horiz-adv-x="600" d="" />
<glyph glyph-name="uni200C" unicode="&#x200c;" horiz-adv-x="600" d="" />
<glyph glyph-name="baht" unicode="&#xe3f;" horiz-adv-x="572" d="M365 361 Q439 352 482 305.5 Q525 259 525 188 Q525 100 464 50 Q403 0 297 0 L283 0 L283 -75 L239 -75 L239 0 L79 0 L79 690 L239 690 L239 740 L283 740 L283 690 Q389 689 436.5 647.5 Q484 606 484 515 Q484 460 452.5 419 Q421 378 365 361 Z M239 376 L239 647 L128 647 L128 376 L239 376 Z M433 510 Q433 583 398 615 Q363 647 283 647 L283 377 Q349 381 391 418.5 Q433 456 433 510 Z M239 333 L128 333 L128 43 L239 43 L239 333 Z M312 43 Q389 43 431 80.5 Q473 118 473 186 Q473 255 426.5 294 Q380 333 297 333 L283 333 L283 43 L312 43 Z " />
<glyph glyph-name="cent" unicode="&#xa2;" horiz-adv-x="493" d="M453 145 Q392 88 300 83 L300 -1 L256 -1 L256 85 Q195 91 145.5 125.5 Q96 160 68 215.5 Q40 271 40 340 Q40 408 68 463.5 Q96 519 145 553.5 Q194 588 256 594 L256 666 L300 666 L300 596 Q388 591 447 540 L447 482 Q389 547 300 552 L300 127 Q345 130 385 149.5 Q425 169 453 206 L453 145 Z M89 340 Q89 257 135.5 198 Q182 139 256 129 L256 550 Q182 539 135.5 481.5 Q89 424 89 340 Z " />
<glyph glyph-name="currency" unicode="&#xa4;" horiz-adv-x="631" d="M168 237 Q127 292 127 354 Q127 388 138 418.5 Q149 449 168 471 L101 536 L132 568 L198 501 Q252 542 316 542 Q346 542 377.5 531.5 Q409 521 432 501 L500 568 L530 536 L463 471 Q504 420 504 354 Q504 291 463 237 L530 173 L500 141 L433 208 Q409 188 379 177 Q349 166 316 166 Q287 166 255.5 176 Q224 186 198 208 L132 141 L101 173 L168 237 Z M460 355 Q460 396 439.5 429 Q419 462 386 480.5 Q353 499 317 499 Q276 499 242.5 479 Q209 459 190 426 Q171 393 171 355 Q171 317 190.5 283 Q210 249 243.5 229 Q277 209 316 209 Q355 209 388 229 Q421 249 440.5 282.5 Q460 316 460 355 Z " />
<glyph glyph-name="Euro" unicode="&#x20ac;" horiz-adv-x="570" d="M313 660 Q240 660 186.5 596 Q133 532 118 420 L392 420 L392 378 L114 378 Q113 366 113 341 Q113 313 114 300 L392 300 L392 258 L118 258 Q133 147 184.5 84.5 Q236 22 305 22 Q363 22 402.5 45 Q442 68 474 110 L474 45 Q439 12 403.5 -5 Q368 -22 304 -22 Q244 -22 194 11 Q144 44 110.5 107 Q77 170 66 258 L15 258 L15 300 L62 300 Q61 313 61 341 Q61 366 62 378 L15 378 L15 420 L66 420 Q76 509 110 573 Q144 637 195.5 670.5 Q247 704 310 704 Q370 704 404 687 Q438 670 474 637 L474 571 Q442 614 404 637 Q366 660 313 660 Z " />
<glyph glyph-name="florin" unicode="&#x192;" horiz-adv-x="562" d="M34 -210 Q52 -216 79 -216 Q119 -216 142.5 -194 Q166 -172 174 -122 L264 443 L183 443 L183 482 L270 482 L283 561 Q296 640 332 672 Q368 704 425 704 Q451 704 472 698 L472 657 Q454 663 427 663 Q387 663 364 640.5 Q341 618 332 568 L318 482 L408 482 L408 443 L311 443 L222 -115 Q210 -193 175.5 -225 Q141 -257 81 -257 Q55 -257 34 -251 L34 -210 Z " />
<glyph glyph-name="franc" unicode="&#x20a3;" horiz-adv-x="503" d="M152 368 L408 368 L408 324 L152 324 L152 201 L283 201 L283 159 L152 159 L152 0 L102 0 L102 159 L18 159 L18 201 L102 201 L102 690 L478 690 L478 646 L152 646 L152 368 Z " />
<glyph glyph-name="lira" unicode="&#x20a4;" horiz-adv-x="595" d="M512 0 L48 0 L48 43 L125 43 L125 247 L48 247 L48 288 L125 288 L125 392 L48 392 L48 433 L125 433 L125 534 Q125 582 148.5 620.5 Q172 659 218.5 681.5 Q265 704 330 704 Q395 704 436 686.5 Q477 669 511 638 L511 572 Q444 660 332 660 Q251 660 213 624 Q175 588 175 532 L175 433 L397 433 L397 392 L175 392 L175 288 L397 288 L397 247 L175 247 L175 44 L512 44 L512 0 Z " />
<glyph glyph-name="uni20BA" unicode="&#x20ba;" horiz-adv-x="559" d="M491 293 Q491 141 421.5 70.5 Q352 0 240 0 L88 0 L88 229 L15 175 L15 227 L88 281 L88 351 L15 297 L15 349 L88 403 L88 690 L138 690 L138 440 L271 538 L271 485 L138 387 L138 318 L271 417 L271 364 L138 266 L138 44 L240 44 Q343 44 392 106.5 Q441 169 441 278 L441 312 L491 312 L491 293 Z " />
<glyph glyph-name="peseta" unicode="&#x20a7;" horiz-adv-x="1242" d="M787 480 L787 438 L658 438 L657 145 Q657 90 678 61.5 Q699 33 737 33 Q760 33 787 40 L787 1 Q755 -6 734 -6 Q675 -6 642.5 34 Q610 74 610 146 L611 438 L517 438 Q508 350 446 301.5 Q384 253 262 253 L133 253 L133 0 L83 0 L83 690 L269 690 Q383 690 449.5 636 Q516 582 519 480 L611 480 L611 633 L658 633 L658 480 L787 480 Z M281 297 Q378 297 422.5 345.5 Q467 394 467 471 Q467 549 417.5 597.5 Q368 646 272 646 L133 646 L133 297 L281 297 Z M1044 267 Q1095 248 1125 231.5 Q1155 215 1173.5 188 Q1192 161 1192 119 Q1192 56 1147 20 Q1102 -16 1026 -16 Q978 -15 937.5 1 Q897 17 870 43 L870 103 Q937 26 1026 26 Q1081 26 1112 50.5 Q1143 75 1143 117 Q1143 147 1129 166 Q1115 185 1091 198 Q1067 211 1024 228 Q964 251 933 267 Q902 283 884 308 Q866 333 866 373 Q866 427 909.5 461 Q953 495 1023 495 Q1117 495 1169 446 L1169 390 Q1114 452 1024 452 Q974 452 944.5 430.5 Q915 409 915 373 Q915 346 930.5 328.5 Q946 311 970.5 298.5 Q995 286 1044 267 Z " />
<glyph glyph-name="uni20B1" unicode="&#x20b1;" horiz-adv-x="570" d="M501 517 Q505 498 505 471 Q505 448 502 427 L565 427 L565 386 L492 386 Q470 322 409.5 287.5 Q349 253 247 253 L119 253 L119 0 L69 0 L69 386 L4 386 L4 427 L69 427 L69 517 L4 517 L4 558 L69 558 L69 690 L254 690 Q344 690 405.5 656.5 Q467 623 491 558 L565 558 L565 517 L501 517 Z M432 558 Q411 599 367 622.5 Q323 646 258 646 L119 646 L119 558 L432 558 Z M452 471 Q452 492 447 517 L119 517 L119 427 L448 427 Q452 446 452 471 Z M266 297 Q395 297 435 386 L119 386 L119 297 L266 297 Z " />
<glyph glyph-name="uni20BD" unicode="&#x20bd;" horiz-adv-x="576" d="M152 172 L283 172 L283 130 L152 130 L152 0 L102 0 L102 130 L18 130 L18 172 L102 172 L102 255 L18 255 L18 298 L102 298 L102 690 L286 690 Q403 690 469.5 634 Q536 578 536 471 Q536 369 474 312 Q412 255 279 255 L152 255 L152 172 Z M298 298 Q395 298 439.5 346.5 Q484 395 484 471 Q484 549 434.5 597.5 Q385 646 289 646 L152 646 L152 298 L298 298 Z " />
<glyph glyph-name="uni20B9" unicode="&#x20b9;" horiz-adv-x="570" d="M372 648 Q445 602 452 510 L509 510 L509 468 L452 468 Q445 384 382.5 338 Q320 292 195 292 L172 292 L460 0 L392 0 L106 292 L106 335 L214 335 Q303 335 347.5 371.5 Q392 408 399 468 L107 468 L107 510 L399 510 Q392 571 343 608.5 Q294 646 206 646 L107 646 L107 690 L509 690 L509 648 L372 648 Z " />
<glyph glyph-name="uni20AA" unicode="&#x20aa;" horiz-adv-x="698" d="M279 570 Q367 570 409 523.5 Q451 477 451 370 L451 180 L407 180 L407 370 Q407 449 379 488 Q351 527 282 527 L131 527 L131 0 L83 0 L83 570 L279 570 Z M291 390 L291 43 L442 43 Q511 43 539 82 Q567 121 567 200 L567 570 L614 570 L614 200 Q614 94 571 47 Q528 0 439 0 L246 0 L246 390 L291 390 Z " />
<glyph glyph-name="sterling" unicode="&#xa3;" horiz-adv-x="595" d="M330 704 Q395 704 436 686.5 Q477 669 511 638 L511 572 Q444 660 332 660 Q251 660 213.5 624 Q176 588 175 532 L175 374 L397 374 L397 332 L175 332 L175 44 L512 44 L512 0 L48 0 L48 43 L125 43 L125 332 L48 332 L48 374 L125 374 L125 534 Q126 608 179.5 656 Q233 704 330 704 Z " />
<glyph glyph-name="yen" unicode="&#xa5;" horiz-adv-x="570" d="M473 307 L473 264 L295 264 L295 195 L473 195 L473 152 L295 152 L295 0 L245 0 L245 152 L66 152 L66 195 L245 195 L245 264 L66 264 L66 307 L228 307 L17 690 L71 690 L228 397 Q253 351 268 319 L273 319 Q287 348 312 395 L468 690 L521 690 L312 307 L473 307 Z " />
<glyph glyph-name="approxequal" unicode="&#x2248;" horiz-adv-x="682" d="M612 396 Q580 355 544 331 Q508 307 455 307 Q399 307 334 347 Q303 365 276.5 376 Q250 387 223 387 Q189 387 158 367 Q127 347 101 313 L69 341 Q105 384 138.5 406.5 Q172 429 222 429 Q256 429 289.5 417.5 Q323 406 346 391 Q378 371 404.5 360 Q431 349 457 349 Q524 349 580 423 L612 396 Z M612 188 Q580 148 544 124.5 Q508 101 455 101 Q396 101 334 141 Q302 159 276 169.5 Q250 180 223 180 Q189 180 158 159.5 Q127 139 101 105 L69 134 Q105 177 138.5 199.5 Q172 222 222 222 Q257 222 290 210.5 Q323 199 346 184 Q377 164 404 153.5 Q431 143 457 143 Q523 143 580 216 L612 188 Z " />
<glyph glyph-name="uni2219" unicode="&#x2219;" horiz-adv-x="227" d="M113 220 Q94 220 81.5 233 Q69 246 69 264 Q69 282 81.5 295 Q94 308 113 308 Q131 308 144 295 Q157 282 157 264 Q157 246 144 233 Q131 220 113 220 Z " />
<glyph glyph-name="divide" unicode="&#xf7;" horiz-adv-x="563" d="M282 464 Q299 464 312 451 Q325 438 325 420 Q325 402 312 389.5 Q299 377 282 377 Q263 377 250.5 389.5 Q238 402 238 420 Q238 438 250.5 451 Q263 464 282 464 Z M70 285 L493 285 L493 243 L70 243 L70 285 Z M282 151 Q299 151 312 138.5 Q325 126 325 108 Q325 90 312 77.5 Q299 65 282 65 Q263 65 250.5 77.5 Q238 90 238 108 Q238 126 250.5 138.5 Q263 151 282 151 Z " />
<glyph glyph-name="uni2215" unicode="&#x2215;" horiz-adv-x="497" d="M-15 0 L462 690 L512 690 L33 0 L-15 0 Z " />
<glyph glyph-name="uni208C" unicode="&#x208c;" horiz-adv-x="362" d="M40 53 L40 90 L322 90 L322 53 L40 53 Z M40 -67 L40 -30 L322 -30 L322 -67 L40 -67 Z " />
<glyph glyph-name="equalsuperior" unicode="&#x207c;" horiz-adv-x="362" d="M40 527 L40 564 L322 564 L322 527 L40 527 Z M40 407 L40 444 L322 444 L322 407 L40 407 Z " />
<glyph glyph-name="greaterequal" unicode="&#x2265;" horiz-adv-x="563" d="M493 331 L70 124 L70 172 L433 350 L433 352 L70 531 L70 578 L493 372 L493 331 Z M70 0 L70 41 L493 41 L493 0 L70 0 Z " />
<glyph glyph-name="infinity" unicode="&#x221e;" horiz-adv-x="805" d="M739 294 Q739 252 720.5 216 Q702 180 667.5 159 Q633 138 586 138 Q527 138 480 170 Q433 202 403 252 L401 252 Q366 201 320 169.5 Q274 138 222 138 Q149 138 106.5 181 Q64 224 64 289 Q64 358 105.5 402 Q147 446 219 446 Q327 446 401 331 L403 331 Q435 379 479.5 412.5 Q524 446 581 446 Q651 446 695 405 Q739 364 739 294 Z M379 292 Q349 342 306 372.5 Q263 403 221 403 Q168 403 141.5 371 Q115 339 115 289 Q115 242 145.5 211.5 Q176 181 221 181 Q267 181 307.5 212 Q348 243 379 292 Z M689 293 Q689 341 662 372 Q635 403 582 403 Q535 403 497 374 Q459 345 425 292 Q457 239 498 210 Q539 181 582 181 Q635 181 662 212.5 Q689 244 689 293 Z " />
<glyph glyph-name="integral" unicode="&#x222b;" horiz-adv-x="330" d="M277 704 Q308 704 333 697 L333 658 Q310 665 279 665 Q231 665 208 637 Q185 609 185 553 L185 -69 Q185 -142 150 -181.5 Q115 -221 46 -221 Q14 -221 -10 -214 L-10 -175 Q13 -182 44 -182 Q92 -182 115 -154 Q138 -126 138 -70 L138 552 Q138 625 173 664.5 Q208 704 277 704 Z " />
<glyph glyph-name="lessequal" unicode="&#x2264;" horiz-adv-x="563" d="M130 352 L130 350 L493 172 L493 124 L70 331 L70 372 L493 578 L493 531 L130 352 Z M493 0 L70 0 L70 41 L493 41 L493 0 Z " />
<glyph glyph-name="logicalnot" unicode="&#xac;" horiz-adv-x="563" d="M493 161 L449 161 L449 333 L70 333 L70 375 L493 375 L493 161 Z " />
<glyph glyph-name="minus" unicode="&#x2212;" horiz-adv-x="563" d="M493 285 L493 243 L70 243 L70 285 L493 285 Z " />
<glyph glyph-name="uni208B" unicode="&#x208b;" horiz-adv-x="362" d="M40 -7 L40 30 L322 30 L322 -7 L40 -7 Z " />
<glyph glyph-name="uni207B" unicode="&#x207b;" horiz-adv-x="362" d="M40 467 L40 504 L322 504 L322 467 L40 467 Z " />
<glyph glyph-name="multiply" unicode="&#xd7;" horiz-adv-x="429" d="M379 129 L349 100 L215 234 L79 99 L50 128 L186 264 L50 399 L79 428 L215 293 L349 427 L379 398 L244 264 L379 129 Z " />
<glyph glyph-name="notequal" unicode="&#x2260;" horiz-adv-x="563" d="M266 196 L493 196 L493 154 L243 154 L169 15 L127 15 L201 154 L70 154 L70 196 L223 196 L296 332 L70 332 L70 374 L318 374 L393 515 L436 515 L361 374 L493 374 L493 332 L338 332 L266 196 Z " />
<glyph glyph-name="partialdiff" unicode="&#x2202;" horiz-adv-x="593" d="M296 -17 Q225 -17 166.5 17 Q108 51 74 110 Q40 169 40 240 Q40 313 74 371 Q108 429 167 462 Q226 495 297 495 Q387 495 457 436 Q418 518 338 592.5 Q258 667 172 720 L247 720 Q373 639 462.5 518 Q552 397 552 241 Q552 170 518.5 111 Q485 52 426.5 17.5 Q368 -17 296 -17 Z M90 240 Q90 179 118.5 130.5 Q147 82 194.5 54.5 Q242 27 296 27 Q355 27 402 54.5 Q449 82 476 131 Q503 180 503 240 Q503 298 477 346 Q451 394 403.5 422.5 Q356 451 296 451 Q237 451 190 424 Q143 397 116.5 349 Q90 301 90 240 Z " />
<glyph glyph-name="perthousand" unicode="&#x2030;" horiz-adv-x="1122" d="M45 519 Q45 582 67.5 623.5 Q90 665 125.5 684 Q161 703 200 703 Q259 703 302.5 659.5 Q346 616 346 521 Q346 450 322 407.5 Q298 365 264.5 348 Q231 331 197 331 Q159 331 124.5 349 Q90 367 67.5 409 Q45 451 45 519 Z M149 0 L579 682 L624 682 L194 0 L149 0 Z M302 519 Q302 590 274 626 Q246 662 196 662 Q150 662 120 627 Q90 592 90 520 Q90 444 118.5 408 Q147 372 197 372 Q242 372 272 408 Q302 444 302 519 Z M428 166 Q428 229 450.5 270.5 Q473 312 508.5 331.5 Q544 351 583 351 Q619 351 652.5 333 Q686 315 707.5 274 Q729 233 729 168 Q729 97 705 55 Q681 13 647 -4 Q613 -21 580 -21 Q518 -21 473 23.5 Q428 68 428 166 Z M775 166 Q775 229 797.5 270.5 Q820 312 855.5 331.5 Q891 351 930 351 Q989 351 1032.5 307 Q1076 263 1076 168 Q1076 97 1052.5 55 Q1029 13 995 -4 Q961 -21 927 -21 Q866 -21 820.5 23.5 Q775 68 775 166 Z M684 166 Q684 237 656.5 273.5 Q629 310 579 310 Q533 310 503 275 Q473 240 473 167 Q473 91 501.5 55 Q530 19 580 19 Q625 19 654.5 55.5 Q684 92 684 166 Z M1032 166 Q1032 237 1004 273.5 Q976 310 926 310 Q880 310 850 275 Q820 240 820 167 Q820 92 848.5 56 Q877 20 927 20 Q972 20 1002 56 Q1032 92 1032 166 Z " />
<glyph glyph-name="uni208A" unicode="&#x208a;" horiz-adv-x="362" d="M199 -7 L199 -130 L163 -130 L163 -7 L40 -7 L40 29 L163 29 L163 152 L199 152 L199 29 L322 29 L322 -7 L199 -7 Z " />
<glyph glyph-name="plusminus" unicode="&#xb1;" horiz-adv-x="563" d="M493 42 L493 0 L70 0 L70 42 L493 42 Z M302 297 L302 106 L261 106 L261 297 L70 297 L70 339 L261 339 L261 530 L302 530 L302 339 L493 339 L493 297 L302 297 Z " />
<glyph glyph-name="plussuperior" unicode="&#x207a;" horiz-adv-x="362" d="M199 467 L199 344 L163 344 L163 467 L40 467 L40 503 L163 503 L163 626 L199 626 L199 503 L322 503 L322 467 L199 467 Z " />
<glyph glyph-name="product" unicode="&#x220f;" horiz-adv-x="708" d="M625 690 L625 -211 L575 -211 L575 646 L133 646 L133 -211 L83 -211 L83 690 L625 690 Z " />
<glyph glyph-name="radical" unicode="&#x221a;" horiz-adv-x="615" d="M350 0 L303 0 L127 437 L28 437 L28 479 L158 479 L327 55 L559 690 L607 690 L350 0 Z " />
<glyph glyph-name="summation" unicode="&#x2211;" horiz-adv-x="649" d="M383 228 L57 654 L57 682 L586 682 L586 636 L133 636 L445 229 L112 -189 L613 -189 L613 -235 L32 -235 L32 -213 L383 228 Z " />
<glyph glyph-name="lozenge" unicode="&#x25ca;" horiz-adv-x="553" d="M260 0 L30 345 L260 690 L293 690 L524 345 L293 0 L260 0 Z M85 345 L277 57 L468 345 L277 633 L85 345 Z " />
<glyph glyph-name="uniF8FF" unicode="&#xf8ff;" horiz-adv-x="730" d="M285 276 Q262 276 249.5 262.5 Q237 249 234 231 L198 0 L65 0 Q54 0 48.5 6 Q43 12 45 23 L144 658 Q146 672 157 681 Q168 690 184 690 L404 690 Q509 690 566.5 651.5 Q624 613 624 533 Q624 459 595 401 Q566 343 507.5 309.5 Q449 276 363 276 L285 276 Z M353 242 Q610 242 653 483 Q702 450 702 373 Q702 310 677.5 254.5 Q653 199 597.5 164 Q542 129 455 129 L433 129 Q422 129 413.5 122 Q405 115 404 103 L377 -61 Q376 -72 367.5 -79.5 Q359 -87 348 -87 L238 -87 Q228 -87 223 -81 Q218 -75 220 -64 L266 224 Q267 233 272.5 237.5 Q278 242 285 242 L353 242 Z " />
<glyph glyph-name="brokenbar" unicode="&#xa6;" horiz-adv-x="286" d="M166 690 L166 350 L120 350 L120 690 L166 690 Z M166 129 L166 -211 L120 -211 L120 129 L166 129 Z " />
<glyph glyph-name="paragraph" unicode="&#xb6;" horiz-adv-x="532" d="M345 0 L345 642 L259 642 L259 0 L213 0 L213 383 Q138 383 92.5 425 Q47 467 47 533 Q47 605 95.5 643.5 Q144 682 213 682 L452 682 L452 642 L390 642 L390 0 L345 0 Z " />
<glyph glyph-name="uni2105" unicode="&#x2105;" horiz-adv-x="889" d="M234 703 Q291 703 342 672 L342 622 Q321 643 293.5 654.5 Q266 666 234 666 Q192 666 158.5 646.5 Q125 627 106 593 Q87 559 87 519 Q87 480 106 446.5 Q125 413 158.5 393.5 Q192 374 234 374 Q268 374 296.5 387 Q325 400 346 422 L346 371 Q296 337 234 337 Q182 337 139 360.5 Q96 384 70.5 426 Q45 468 45 520 Q45 571 70.5 613 Q96 655 139 679 Q182 703 234 703 Z M203 0 L633 682 L677 682 L248 0 L203 0 Z M665 348 Q714 348 755 324 Q796 300 820 258 Q844 216 844 164 Q844 113 820 71 Q796 29 755 5.5 Q714 -18 665 -18 Q616 -18 575 5.5 Q534 29 510 71 Q486 113 486 164 Q486 216 510 258 Q534 300 575 324 Q616 348 665 348 Z M665 311 Q625 311 593 291.5 Q561 272 543 238 Q525 204 525 164 Q525 124 543 91 Q561 58 593 38.5 Q625 19 665 19 Q705 19 736.5 38.5 Q768 58 786 91 Q804 124 804 164 Q804 204 786 237.5 Q768 271 736.5 291 Q705 311 665 311 Z " />
<glyph glyph-name="copyright" unicode="&#xa9;" horiz-adv-x="835" d="M55 341 Q55 439 104 522.5 Q153 606 236.5 655 Q320 704 418 704 Q517 704 600.5 655 Q684 606 732.5 522.5 Q781 439 781 341 Q781 243 732.5 159.5 Q684 76 600.5 27 Q517 -22 418 -22 Q320 -22 236.5 27 Q153 76 104 159.5 Q55 243 55 341 Z M95 341 Q95 254 138.5 179.5 Q182 105 256.5 61.5 Q331 18 418 18 Q505 18 579 61.5 Q653 105 696.5 179.5 Q740 254 740 341 Q740 428 696.5 502.5 Q653 577 579 620.5 Q505 664 418 664 Q331 664 256.5 620.5 Q182 577 138.5 502.5 Q95 428 95 341 Z M421 110 Q359 110 308.5 140 Q258 170 229 222.5 Q200 275 200 341 Q200 407 229 459.5 Q258 512 308.5 541.5 Q359 571 421 571 Q509 571 567 521 L567 467 Q509 529 422 529 Q372 529 332 505 Q292 481 270 438.5 Q248 396 248 342 Q248 288 270 244.5 Q292 201 332 176.5 Q372 152 422 152 Q465 152 504.5 169.5 Q544 187 572 223 L572 166 Q512 110 421 110 Z " />
<glyph glyph-name="registered" unicode="&#xae;" horiz-adv-x="491" d="M49 507 Q49 560 75.5 605 Q102 650 148 677 Q194 704 247 704 Q300 704 344.5 677 Q389 650 415.5 605 Q442 560 442 507 Q442 453 415.5 408 Q389 363 344.5 336.5 Q300 310 247 310 Q193 310 147.5 336.5 Q102 363 75.5 408 Q49 453 49 507 Z M82 507 Q82 462 104.5 424.5 Q127 387 165 365 Q203 343 247 343 Q291 343 328 365 Q365 387 387 424.5 Q409 462 409 507 Q409 551 387 588.5 Q365 626 328 648 Q291 670 247 670 Q203 670 165 648 Q127 626 104.5 588.5 Q82 551 82 507 Z M241 487 L207 487 L207 399 L171 399 L171 620 L250 620 Q292 620 312.5 600.5 Q333 581 333 554 Q333 529 318 512 Q303 495 280 490 L350 399 L309 399 L241 487 Z M294 552 Q294 589 248 589 L207 589 L207 516 L247 516 Q294 516 294 552 Z " />
<glyph glyph-name="uni2117" unicode="&#x2117;" horiz-adv-x="835" d="M55 341 Q55 439 104 522.5 Q153 606 236.5 655 Q320 704 418 704 Q517 704 600.5 655 Q684 606 732.5 522.5 Q781 439 781 341 Q781 243 732.5 159.5 Q684 76 600.5 27 Q517 -22 418 -22 Q320 -22 236.5 27 Q153 76 104 159.5 Q55 243 55 341 Z M95 341 Q95 254 138.5 179.5 Q182 105 256.5 61.5 Q331 18 418 18 Q505 18 579 61.5 Q653 105 696.5 179.5 Q740 254 740 341 Q740 428 696.5 502.5 Q653 577 579 620.5 Q505 664 418 664 Q331 664 256.5 620.5 Q182 577 138.5 502.5 Q95 428 95 341 Z M426 546 Q491 546 530 515 Q569 484 569 426 Q569 368 533 336.5 Q497 305 422 305 L363 305 L363 149 L317 149 L317 546 L426 546 Z M523 425 Q523 461 499.5 483 Q476 505 429 505 L363 505 L363 345 L428 345 Q479 345 501 367.5 Q523 390 523 425 Z " />
<glyph glyph-name="section" unicode="&#xa7;" horiz-adv-x="458" d="M325 221 Q359 203 377 178 Q395 153 395 113 Q395 51 350.5 17.5 Q306 -16 229 -16 Q182 -15 141 1 Q100 17 74 43 L74 103 Q140 26 229 26 Q285 26 315.5 48 Q346 70 346 112 Q346 148 323 167.5 Q300 187 250 208 L227 218 L201 230 Q155 250 129 265 Q103 280 86 303.5 Q69 327 69 362 Q69 396 87.5 423 Q106 450 139 465 Q105 484 87 509.5 Q69 535 69 574 Q69 636 114 669.5 Q159 703 236 703 Q283 702 324 686 Q365 670 391 644 L391 584 Q357 623 317 642 Q277 661 236 661 Q180 661 149.5 639 Q119 617 119 575 Q119 538 142 519 Q165 500 215 479 L238 469 L263 458 Q310 437 335.5 422 Q361 407 378 383.5 Q395 360 395 325 Q395 291 376.5 264 Q358 237 325 221 Z M118 363 Q118 331 143 312.5 Q168 294 221 270 L249 257 L272 247 Q307 254 327 274 Q347 294 347 323 Q347 356 321 375.5 Q295 395 240 418 L216 429 L192 440 Q157 432 137.5 412.5 Q118 393 118 363 Z " />
<glyph glyph-name="trademark" unicode="&#x2122;" horiz-adv-x="568" d="M219 647 L159 647 L159 461 L122 461 L122 647 L62 647 L62 682 L219 682 L219 647 Z M431 585 L429 639 L426 639 Q423 616 414 585 L375 461 L340 461 L304 578 Q297 603 294.5 619 Q292 635 291 639 L289 639 Q289 617 286 582 L275 461 L240 461 L259 682 L308 682 L346 556 Q356 521 357 514 L358 514 Q360 520 362.5 530.5 Q365 541 370 557 L410 682 L459 682 L475 461 L440 461 L431 585 Z " />
<glyph glyph-name="degree" unicode="&#xb0;" horiz-adv-x="443" d="M221 700 Q255 700 283.5 683.5 Q312 667 329 638.5 Q346 610 346 577 Q346 544 329.5 515 Q313 486 284.5 469 Q256 452 223 452 Q189 452 159.5 469 Q130 486 113 515 Q96 544 96 577 Q96 628 132.5 664 Q169 700 221 700 Z M223 661 Q188 661 163.5 636.5 Q139 612 139 577 Q139 541 163 516 Q187 491 221 491 Q255 491 279 516 Q303 541 303 577 Q303 613 280 637 Q257 661 223 661 Z " />
<glyph glyph-name="estimated" unicode="&#x212e;" horiz-adv-x="881" d="M441 704 Q561 704 649.5 654 Q738 604 785 519.5 Q832 435 832 334 L207 334 Q201 334 197 330.5 Q193 327 193 322 L193 151 Q193 135 196.5 125 Q200 115 209 107 Q303 13 441 13 Q514 13 578.5 44 Q643 75 685 125 L755 125 Q714 69 634.5 28.5 Q555 -12 441 -12 Q324 -12 235 34 Q146 80 97 160.5 Q48 241 48 344 Q48 446 95.5 528 Q143 610 232 657 Q321 704 441 704 Z M441 677 Q304 677 209 582 Q200 573 196.5 564 Q193 555 193 540 L193 370 Q193 364 197 360.5 Q201 357 207 357 L672 357 Q678 357 682 360.5 Q686 364 686 370 L686 540 Q686 555 682.5 564 Q679 573 670 582 Q574 677 441 677 Z " />
<glyph glyph-name="uni2113" unicode="&#x2113;" horiz-adv-x="398" d="M314 29 Q268 -17 200 -17 Q144 -17 112.5 19.5 Q81 56 81 123 L81 539 Q81 617 118 661 Q155 705 217 705 Q284 705 316.5 662.5 Q349 620 349 539 Q349 476 322.5 425 Q296 374 253 333 Q210 292 128 225 L128 115 Q128 73 149.5 50 Q171 27 209 27 Q262 27 314 85 L314 29 Z M302 539 Q302 601 281 631 Q260 661 215 661 Q176 661 152 629.5 Q128 598 128 539 L128 284 Q189 334 225.5 371 Q262 408 282 449 Q302 490 302 539 Z " />
<glyph glyph-name="dagger" unicode="&#x2020;" horiz-adv-x="463" d="M432 479 L432 437 L255 437 L255 -140 L208 -140 L208 437 L30 437 L30 479 L208 479 L208 690 L255 690 L255 479 L432 479 Z " />
<glyph glyph-name="daggerdbl" unicode="&#x2021;" horiz-adv-x="463" d="M432 113 L432 71 L255 71 L255 -140 L208 -140 L208 71 L30 71 L30 113 L208 113 L208 437 L30 437 L30 479 L208 479 L208 690 L255 690 L255 479 L432 479 L432 437 L255 437 L255 113 L432 113 Z " />
<glyph glyph-name="minute" unicode="&#x2032;" horiz-adv-x="187" d="M37 492 L102 690 L150 690 L76 492 L37 492 Z " />
<glyph glyph-name="second" unicode="&#x2033;" horiz-adv-x="321" d="M37 492 L102 690 L150 690 L76 492 L37 492 Z M171 492 L236 690 L284 690 L210 492 L171 492 Z " />
<glyph glyph-name="acute" unicode="&#xb4;" horiz-adv-x="338" d="M119 560 L231 725 L290 725 L163 560 L119 560 Z " />
<glyph glyph-name="breve" unicode="&#x2d8;" horiz-adv-x="338" d="M314 725 Q314 650 275 605 Q236 560 171 560 Q106 560 67 605 Q28 650 28 725 L68 725 Q68 672 96.5 637 Q125 602 171 602 Q217 602 245.5 637 Q274 672 274 725 L314 725 Z " />
<glyph glyph-name="caron" unicode="&#x2c7;" horiz-adv-x="338" d="M140 560 L13 725 L57 725 L169 596 L281 725 L325 725 L198 560 L140 560 Z " />
<glyph glyph-name="cedilla" unicode="&#xb8;" horiz-adv-x="337" d="M159 -59 Q200 -62 228 -81.5 Q256 -101 256 -139 Q256 -178 226.5 -201 Q197 -224 152 -224 Q111 -224 78 -213 L78 -173 Q112 -185 150 -185 Q212 -185 212 -139 Q212 -114 187 -102 Q162 -90 107 -90 L151 16 L185 1 L159 -59 Z " />
<glyph glyph-name="circumflex" unicode="&#x2c6;" horiz-adv-x="338" d="M178 689 L65 560 L22 560 L148 725 L207 725 L333 560 L290 560 L178 689 Z " />
<glyph glyph-name="dieresis" unicode="&#xa8;" horiz-adv-x="342" d="M79 581 Q64 581 53 592 Q42 603 42 618 Q42 634 53 644.5 Q64 655 80 655 Q96 655 106.5 644.5 Q117 634 117 618 Q117 603 106 592 Q95 581 79 581 Z M262 581 Q247 581 236 592 Q225 603 225 618 Q225 634 236 644.5 Q247 655 262 655 Q278 655 288.5 644.5 Q299 634 299 618 Q299 603 288.5 592 Q278 581 262 581 Z " />
<glyph glyph-name="dotaccent" unicode="&#x2d9;" horiz-adv-x="337" d="M169 581 Q153 581 142.5 592 Q132 603 132 618 Q132 634 142.5 644.5 Q153 655 169 655 Q185 655 195.5 644.5 Q206 634 206 618 Q206 603 195.5 592 Q185 581 169 581 Z " />
<glyph glyph-name="hungarumlaut" unicode="&#x2dd;" horiz-adv-x="338" d="M48 560 L160 725 L218 725 L91 560 L48 560 Z M201 560 L313 725 L371 725 L244 560 L201 560 Z " />
<glyph glyph-name="overscore" unicode="&#xaf;" horiz-adv-x="337" d="M303 660 L303 618 L34 618 L34 660 L303 660 Z " />
<glyph glyph-name="ogonek" unicode="&#x2db;" horiz-adv-x="338" d="M217 0 Q182 -29 160.5 -55.5 Q139 -82 139 -117 Q139 -142 153.5 -156.5 Q168 -171 193 -171 Q208 -171 218.5 -167.5 Q229 -164 242 -156 L242 -197 Q216 -212 184 -212 Q145 -212 120 -187 Q95 -162 95 -125 Q95 -81 124 -44.5 Q153 -8 191 19 L217 0 Z " />
<glyph glyph-name="ring" unicode="&#x2da;" horiz-adv-x="338" d="M169 763 Q215 763 247.5 731 Q280 699 280 653 Q280 607 247.5 574 Q215 541 169 541 Q124 541 91 574 Q58 607 58 653 Q58 698 91 730.5 Q124 763 169 763 Z M169 724 Q139 724 118 703.5 Q97 683 97 653 Q97 623 118 601.5 Q139 580 169 580 Q199 580 220 601.5 Q241 623 241 653 Q241 684 220.5 704 Q200 724 169 724 Z " />
<glyph glyph-name="tilde" unicode="&#x2dc;" horiz-adv-x="337" d="M22 583 Q24 627 44.5 655.5 Q65 684 102 684 Q140 684 181 651 Q215 624 237 624 Q256 624 267 640.5 Q278 657 280 684 L316 684 Q314 640 293.5 611.5 Q273 583 237 583 Q199 583 158 616 Q140 629 127 636 Q114 643 102 643 Q82 643 71 627 Q60 611 58 583 L22 583 Z " />
<glyph glyph-name="uni0326" unicode="&#x326;" d="M169 -49 Q206 -49 206 -105 Q206 -142 188 -169.5 Q170 -197 135 -212 L135 -175 Q151 -168 160.5 -154.5 Q170 -141 172 -126 Q133 -121 133 -86 Q133 -70 143 -59.5 Q153 -49 169 -49 Z " />
</font>
</svg>
